<svg xmlns="http://www.w3.org/2000/svg" width="375" viewBox="0 0 375 375" height="375" version="1.0"><defs><clipPath id="a"><path d="M 136 104.492188 L 186 104.492188 L 186 169 L 136 169 Z M 136 104.492188"/></clipPath><clipPath id="b"><path d="M 188 104.492188 L 239 104.492188 L 239 169 L 188 169 Z M 188 104.492188"/></clipPath><clipPath id="c"><path d="M 126 121 L 249 121 L 249 181.742188 L 126 181.742188 Z M 126 121"/></clipPath><clipPath id="d"><path d="M 174.476562 73.839844 L 200.726562 73.839844 L 200.726562 100.089844 L 174.476562 100.089844 Z M 174.476562 73.839844"/></clipPath><clipPath id="e"><path d="M 159 86 L 175 86 L 175 102 L 159 102 Z M 159 86"/></clipPath><clipPath id="f"><path d="M 158.417969 86.976562 L 174.105469 85.585938 L 175.496094 101.273438 L 159.808594 102.667969 Z M 158.417969 86.976562"/></clipPath><clipPath id="g"><path d="M 158.417969 86.976562 L 174.105469 85.585938 L 175.496094 101.273438 L 159.808594 102.667969 Z M 158.417969 86.976562"/></clipPath><clipPath id="h"><path d="M 200 86 L 217 86 L 217 103 L 200 103 Z M 200 86"/></clipPath><clipPath id="i"><path d="M 201.226562 85.664062 L 216.925781 86.953125 L 215.636719 102.648438 L 199.9375 101.359375 Z M 201.226562 85.664062"/></clipPath><clipPath id="j"><path d="M 201.226562 85.664062 L 216.925781 86.953125 L 215.636719 102.648438 L 199.9375 101.359375 Z M 201.226562 85.664062"/></clipPath></defs><path fill="#FFF" d="M-37.5 -37.5H412.5V412.5H-37.5z"/><path fill="#FFF" d="M-37.5 -37.5H412.5V412.5H-37.5z"/><g fill="#6E00C8"><g><g><path d="M 6.953125 -19.515625 C 7.140625 -19.703125 7.40625 -19.832031 7.75 -19.90625 C 8.101562 -19.976562 8.4375 -20.039062 8.75 -20.09375 C 9.445312 -20.113281 9.957031 -19.96875 10.28125 -19.65625 C 10.601562 -19.34375 10.820312 -18.941406 10.9375 -18.453125 C 11.0625 -17.960938 11.128906 -17.425781 11.140625 -16.84375 C 11.148438 -16.269531 11.191406 -15.753906 11.265625 -15.296875 C 12.179688 -15.128906 13.0625 -15.015625 13.90625 -14.953125 C 14.757812 -14.898438 15.632812 -14.96875 16.53125 -15.15625 C 16.90625 -16.257812 17.046875 -17.335938 16.953125 -18.390625 C 16.859375 -19.453125 16.582031 -20.429688 16.125 -21.328125 C 15.664062 -22.234375 15.050781 -23.03125 14.28125 -23.71875 C 13.519531 -24.414062 12.664062 -24.972656 11.71875 -25.390625 C 10.769531 -25.816406 9.753906 -26.066406 8.671875 -26.140625 C 7.597656 -26.210938 6.507812 -26.066406 5.40625 -25.703125 C 5.0625 -25.609375 4.734375 -25.492188 4.421875 -25.359375 C 4.109375 -25.222656 3.820312 -25.0625 3.5625 -24.875 C 3.101562 -24.46875 2.710938 -24 2.390625 -23.46875 C 2.066406 -22.945312 1.796875 -22.375 1.578125 -21.75 C 1.441406 -21.382812 1.328125 -20.988281 1.234375 -20.5625 C 1.148438 -20.144531 1.132812 -19.734375 1.1875 -19.328125 C 1.164062 -17.390625 1.144531 -15.679688 1.125 -14.203125 C 1.113281 -12.722656 1.113281 -11.398438 1.125 -10.234375 C 1.144531 -9.078125 1.164062 -8.03125 1.1875 -7.09375 C 1.207031 -6.15625 1.242188 -5.253906 1.296875 -4.390625 C 1.390625 -3.378906 1.707031 -2.535156 2.25 -1.859375 C 2.789062 -1.191406 3.457031 -0.671875 4.25 -0.296875 C 5.039062 0.0664062 5.890625 0.300781 6.796875 0.40625 C 7.710938 0.519531 8.601562 0.515625 9.46875 0.390625 C 10.789062 0.367188 11.972656 0.0390625 13.015625 -0.59375 C 14.054688 -1.226562 14.898438 -2.035156 15.546875 -3.015625 C 16.203125 -4.003906 16.625 -5.113281 16.8125 -6.34375 C 17 -7.582031 16.890625 -8.828125 16.484375 -10.078125 C 16.148438 -10.171875 15.769531 -10.226562 15.34375 -10.25 C 14.925781 -10.28125 14.5 -10.296875 14.0625 -10.296875 C 13.632812 -10.296875 13.210938 -10.28125 12.796875 -10.25 C 12.378906 -10.226562 12 -10.242188 11.65625 -10.296875 C 11.539062 -9.691406 11.5 -9.082031 11.53125 -8.46875 C 11.570312 -7.863281 11.460938 -7.285156 11.203125 -6.734375 C 10.960938 -6.253906 10.609375 -5.910156 10.140625 -5.703125 C 9.671875 -5.503906 9.171875 -5.425781 8.640625 -5.46875 C 7.941406 -5.664062 7.441406 -6.09375 7.140625 -6.75 C 6.847656 -7.40625 6.664062 -8.082031 6.59375 -8.78125 C 6.519531 -9.625 6.484375 -10.613281 6.484375 -11.75 C 6.484375 -12.894531 6.492188 -13.992188 6.515625 -15.046875 C 6.535156 -16.097656 6.5625 -17.007812 6.59375 -17.78125 C 6.632812 -18.550781 6.679688 -18.972656 6.734375 -19.046875 C 6.753906 -19.085938 6.78125 -19.160156 6.8125 -19.265625 C 6.851562 -19.378906 6.898438 -19.460938 6.953125 -19.515625 Z M 6.953125 -19.515625" transform="translate(142.148 233.286)"/></g></g></g><g fill="#6E00C8"><g><g><path d="M 16.890625 -24.078125 C 16.597656 -24.253906 16.222656 -24.363281 15.765625 -24.40625 C 15.304688 -24.457031 14.828125 -24.46875 14.328125 -24.4375 C 13.828125 -24.414062 13.328125 -24.375 12.828125 -24.3125 C 12.335938 -24.257812 11.9375 -24.21875 11.625 -24.1875 C 11.550781 -21.40625 11.507812 -18.523438 11.5 -15.546875 C 11.488281 -12.578125 11.421875 -9.648438 11.296875 -6.765625 C 11.179688 -6.210938 10.921875 -5.78125 10.515625 -5.46875 C 10.109375 -5.15625 9.660156 -4.988281 9.171875 -4.96875 C 8.691406 -4.945312 8.226562 -5.066406 7.78125 -5.328125 C 7.34375 -5.585938 7.039062 -6.007812 6.875 -6.59375 C 6.394531 -12.5625 6.285156 -18.453125 6.546875 -24.265625 L 6.546875 -24.296875 C 6.191406 -24.390625 5.796875 -24.453125 5.359375 -24.484375 C 4.929688 -24.523438 4.488281 -24.546875 4.03125 -24.546875 C 3.570312 -24.546875 3.117188 -24.535156 2.671875 -24.515625 C 2.234375 -24.492188 1.832031 -24.484375 1.46875 -24.484375 L 1.4375 -24.484375 L 1.46875 -24.4375 C 1.519531 -21.269531 1.507812 -18.078125 1.4375 -14.859375 C 1.363281 -11.648438 1.328125 -8.460938 1.328125 -5.296875 C 1.378906 -4.191406 1.695312 -3.25 2.28125 -2.46875 C 2.875 -1.6875 3.609375 -1.0625 4.484375 -0.59375 C 5.359375 -0.125 6.332031 0.195312 7.40625 0.375 C 8.488281 0.550781 9.535156 0.59375 10.546875 0.5 C 12.273438 0.332031 13.640625 -0.300781 14.640625 -1.40625 C 15.648438 -2.507812 16.253906 -3.851562 16.453125 -5.4375 C 16.785156 -8.53125 16.972656 -11.640625 17.015625 -14.765625 C 17.066406 -17.898438 17.023438 -21.003906 16.890625 -24.078125 Z M 16.890625 -24.078125" transform="translate(160.076 233.286)"/></g></g></g><g fill="#6E00C8"><g><g><path d="M 18.578125 -0.109375 C 18.210938 -1.085938 17.765625 -2.039062 17.234375 -2.96875 C 16.710938 -3.894531 16.160156 -4.800781 15.578125 -5.6875 C 15.003906 -6.570312 14.414062 -7.453125 13.8125 -8.328125 C 13.21875 -9.203125 12.671875 -10.085938 12.171875 -10.984375 L 12.171875 -11.015625 L 12.34375 -11.015625 C 13.5 -11.085938 14.453125 -11.410156 15.203125 -11.984375 C 15.960938 -12.566406 16.570312 -13.285156 17.03125 -14.140625 C 17.769531 -15.390625 18.117188 -16.679688 18.078125 -18.015625 C 18.046875 -19.347656 17.71875 -20.566406 17.09375 -21.671875 C 16.46875 -22.773438 15.59375 -23.695312 14.46875 -24.4375 C 13.34375 -25.1875 12.070312 -25.597656 10.65625 -25.671875 C 8.90625 -25.859375 7.222656 -25.867188 5.609375 -25.703125 C 4.003906 -25.535156 2.53125 -25.351562 1.1875 -25.15625 C 1.238281 -24.851562 1.28125 -24.257812 1.3125 -23.375 C 1.351562 -22.5 1.382812 -21.441406 1.40625 -20.203125 C 1.425781 -18.972656 1.453125 -17.617188 1.484375 -16.140625 C 1.523438 -14.671875 1.550781 -13.1875 1.5625 -11.6875 C 1.570312 -10.1875 1.578125 -8.734375 1.578125 -7.328125 C 1.578125 -5.921875 1.578125 -4.675781 1.578125 -3.59375 C 1.578125 -2.519531 1.566406 -1.648438 1.546875 -0.984375 C 1.523438 -0.328125 1.488281 0 1.4375 0 C 1.5625 -0.0195312 1.878906 -0.0195312 2.390625 0 C 2.910156 0.0195312 3.492188 0.0234375 4.140625 0.015625 C 4.785156 0.00390625 5.4375 -0.0195312 6.09375 -0.0625 C 6.757812 -0.113281 7.296875 -0.222656 7.703125 -0.390625 C 7.679688 -0.847656 7.644531 -1.460938 7.59375 -2.234375 C 7.550781 -3.003906 7.507812 -3.8125 7.46875 -4.65625 C 7.4375 -5.507812 7.421875 -6.335938 7.421875 -7.140625 C 7.421875 -7.953125 7.457031 -8.632812 7.53125 -9.1875 L 7.59375 -9.078125 C 8.101562 -8.453125 8.609375 -7.726562 9.109375 -6.90625 C 9.609375 -6.09375 10.070312 -5.265625 10.5 -4.421875 C 10.9375 -3.585938 11.332031 -2.785156 11.6875 -2.015625 C 12.050781 -1.242188 12.351562 -0.582031 12.59375 -0.03125 L 12.640625 -0.03125 C 13.710938 0.0390625 14.765625 0.046875 15.796875 -0.015625 C 16.835938 -0.078125 17.773438 -0.109375 18.609375 -0.109375 Z M 6.4375 -20.125 C 7.28125 -20.457031 8.109375 -20.640625 8.921875 -20.671875 C 9.742188 -20.710938 10.414062 -20.492188 10.9375 -20.015625 C 11.28125 -19.753906 11.519531 -19.398438 11.65625 -18.953125 C 11.800781 -18.503906 11.847656 -18.054688 11.796875 -17.609375 C 11.753906 -17.171875 11.609375 -16.765625 11.359375 -16.390625 C 11.109375 -16.023438 10.753906 -15.796875 10.296875 -15.703125 C 9.722656 -15.597656 9.109375 -15.554688 8.453125 -15.578125 C 7.804688 -15.609375 7.207031 -15.648438 6.65625 -15.703125 L 6.625 -15.703125 C 6.570312 -15.960938 6.539062 -16.285156 6.53125 -16.671875 C 6.519531 -17.054688 6.515625 -17.453125 6.515625 -17.859375 C 6.515625 -18.265625 6.507812 -18.664062 6.5 -19.0625 C 6.488281 -19.457031 6.46875 -19.8125 6.4375 -20.125 Z M 6.4375 -20.125" transform="translate(178.616 233.286)"/></g></g></g><g fill="#6E00C8"><g><g><path d="M 16.671875 -17.0625 C 17.003906 -18.863281 16.859375 -20.351562 16.234375 -21.53125 C 15.609375 -22.707031 14.722656 -23.59375 13.578125 -24.1875 C 12.992188 -24.457031 12.359375 -24.675781 11.671875 -24.84375 C 10.992188 -25.007812 10.300781 -25.109375 9.59375 -25.140625 C 8.882812 -25.179688 8.179688 -25.160156 7.484375 -25.078125 C 6.785156 -24.992188 6.148438 -24.832031 5.578125 -24.59375 C 4.429688 -24.113281 3.453125 -23.378906 2.640625 -22.390625 C 1.835938 -21.410156 1.289062 -20.316406 1 -19.109375 C 0.71875 -17.910156 0.738281 -16.675781 1.0625 -15.40625 C 1.382812 -14.132812 2.097656 -12.972656 3.203125 -11.921875 C 3.535156 -11.628906 3.90625 -11.375 4.3125 -11.15625 C 4.726562 -10.945312 5.175781 -10.789062 5.65625 -10.6875 C 6.15625 -10.59375 6.691406 -10.488281 7.265625 -10.375 C 7.847656 -10.269531 8.382812 -10.109375 8.875 -9.890625 C 9.363281 -9.679688 9.785156 -9.398438 10.140625 -9.046875 C 10.503906 -8.703125 10.722656 -8.242188 10.796875 -7.671875 C 10.941406 -6.828125 10.78125 -6.203125 10.3125 -5.796875 C 9.84375 -5.390625 9.289062 -5.175781 8.65625 -5.15625 C 8.019531 -5.144531 7.421875 -5.332031 6.859375 -5.71875 C 6.296875 -6.101562 5.988281 -6.679688 5.9375 -7.453125 C 5.125 -7.429688 4.210938 -7.445312 3.203125 -7.5 C 2.191406 -7.5625 1.269531 -7.535156 0.4375 -7.421875 L 0.4375 -7.203125 C 0.363281 -6.046875 0.566406 -5.015625 1.046875 -4.109375 C 1.523438 -3.210938 2.171875 -2.453125 2.984375 -1.828125 C 3.804688 -1.210938 4.738281 -0.726562 5.78125 -0.375 C 6.820312 -0.03125 7.867188 0.15625 8.921875 0.1875 C 9.671875 0.207031 10.398438 0.140625 11.109375 -0.015625 C 11.816406 -0.171875 12.472656 -0.414062 13.078125 -0.75 C 13.691406 -1.09375 14.238281 -1.523438 14.71875 -2.046875 C 15.195312 -2.578125 15.582031 -3.210938 15.875 -3.953125 C 16.164062 -4.578125 16.375 -5.234375 16.5 -5.921875 C 16.632812 -6.609375 16.679688 -7.285156 16.640625 -7.953125 C 16.609375 -8.628906 16.484375 -9.285156 16.265625 -9.921875 C 16.054688 -10.554688 15.734375 -11.148438 15.296875 -11.703125 C 14.597656 -12.734375 13.703125 -13.582031 12.609375 -14.25 C 11.523438 -14.925781 10.347656 -15.335938 9.078125 -15.484375 C 8.566406 -15.554688 8.09375 -15.6875 7.65625 -15.875 C 7.226562 -16.0625 6.921875 -16.445312 6.734375 -17.03125 C 6.710938 -17.195312 6.691406 -17.359375 6.671875 -17.515625 C 6.660156 -17.671875 6.679688 -17.832031 6.734375 -18 C 6.828125 -18.675781 7.144531 -19.132812 7.6875 -19.375 C 8.226562 -19.613281 8.785156 -19.671875 9.359375 -19.546875 C 9.929688 -19.429688 10.421875 -19.15625 10.828125 -18.71875 C 11.242188 -18.289062 11.378906 -17.75 11.234375 -17.09375 C 12.066406 -16.851562 12.960938 -16.75 13.921875 -16.78125 C 14.890625 -16.820312 15.789062 -16.914062 16.625 -17.0625 Z M 16.671875 -17.0625" transform="translate(197.624 233.286)"/></g></g></g><g fill="#6E00C8"><g><g><path d="M 15.734375 -21.3125 C 15.441406 -22.15625 14.945312 -22.890625 14.25 -23.515625 C 13.5625 -24.035156 12.773438 -24.429688 11.890625 -24.703125 C 11.015625 -24.984375 10.113281 -25.144531 9.1875 -25.1875 C 8.269531 -25.238281 7.347656 -25.175781 6.421875 -25 C 5.503906 -24.820312 4.648438 -24.539062 3.859375 -24.15625 C 3.546875 -23.96875 3.269531 -23.753906 3.03125 -23.515625 C 2.28125 -22.671875 1.78125 -21.703125 1.53125 -20.609375 C 1.28125 -19.515625 1.140625 -18.429688 1.109375 -17.359375 C 0.992188 -15.460938 0.976562 -13.570312 1.0625 -11.6875 C 1.144531 -9.800781 1.222656 -7.921875 1.296875 -6.046875 C 1.316406 -5.347656 1.378906 -4.65625 1.484375 -3.96875 C 1.597656 -3.289062 1.820312 -2.648438 2.15625 -2.046875 C 2.375 -1.566406 2.648438 -1.175781 2.984375 -0.875 C 3.316406 -0.582031 3.691406 -0.335938 4.109375 -0.140625 C 4.535156 0.046875 4.984375 0.179688 5.453125 0.265625 C 5.921875 0.347656 6.40625 0.414062 6.90625 0.46875 C 7.601562 0.519531 8.296875 0.519531 8.984375 0.46875 C 9.671875 0.414062 10.347656 0.296875 11.015625 0.109375 C 11.753906 -0.0859375 12.453125 -0.359375 13.109375 -0.703125 C 13.773438 -1.046875 14.3125 -1.507812 14.71875 -2.09375 C 15.15625 -2.78125 15.476562 -3.550781 15.6875 -4.40625 C 15.90625 -5.257812 16.039062 -6.109375 16.09375 -6.953125 L 16.203125 -8.140625 C 16.296875 -9.390625 16.328125 -10.613281 16.296875 -11.8125 C 16.273438 -13.007812 16.300781 -14.242188 16.375 -15.515625 C 16.40625 -16.117188 16.410156 -16.710938 16.390625 -17.296875 C 16.378906 -17.890625 16.351562 -18.484375 16.3125 -19.078125 C 16.257812 -19.460938 16.191406 -19.835938 16.109375 -20.203125 C 16.023438 -20.578125 15.898438 -20.945312 15.734375 -21.3125 Z M 11.875 -10.796875 C 11.875 -10.753906 11.867188 -10.550781 11.859375 -10.1875 C 11.847656 -9.820312 11.832031 -9.398438 11.8125 -8.921875 C 11.757812 -8.421875 11.738281 -8.019531 11.75 -7.71875 C 11.757812 -7.414062 11.753906 -7.15625 11.734375 -6.9375 C 11.710938 -6.726562 11.648438 -6.53125 11.546875 -6.34375 C 11.453125 -6.164062 11.300781 -5.9375 11.09375 -5.65625 C 10.726562 -5.25 10.28125 -4.953125 9.75 -4.765625 C 9.226562 -4.585938 8.703125 -4.515625 8.171875 -4.546875 C 7.640625 -4.585938 7.144531 -4.738281 6.6875 -5 C 6.238281 -5.269531 5.894531 -5.644531 5.65625 -6.125 C 5.414062 -6.914062 5.269531 -7.75 5.21875 -8.625 C 5.164062 -9.5 5.082031 -10.359375 4.96875 -11.203125 C 4.914062 -12.203125 4.90625 -13.207031 4.9375 -14.21875 C 4.976562 -15.226562 5.097656 -16.1875 5.296875 -17.09375 C 5.578125 -18.101562 6.140625 -18.929688 6.984375 -19.578125 C 7.367188 -19.867188 7.8125 -20.070312 8.3125 -20.1875 C 8.820312 -20.3125 9.316406 -20.28125 9.796875 -20.09375 C 10.347656 -19.820312 10.785156 -19.410156 11.109375 -18.859375 C 11.429688 -18.304688 11.613281 -17.695312 11.65625 -17.03125 C 11.6875 -16.625 11.71875 -16.1875 11.75 -15.71875 C 11.789062 -15.25 11.8125 -15 11.8125 -14.96875 L 11.875 -12.53125 Z M 11.875 -10.796875" transform="translate(215.444 233.286)"/></g></g></g><g fill="#6E00C8"><g><g><path d="M 16.453125 -3.28125 C 16.429688 -3.46875 16.425781 -3.6875 16.4375 -3.9375 C 16.445312 -4.1875 16.460938 -4.4375 16.484375 -4.6875 C 16.515625 -4.945312 16.53125 -5.207031 16.53125 -5.46875 C 16.332031 -5.445312 15.988281 -5.441406 15.5 -5.453125 C 15.007812 -5.460938 14.445312 -5.476562 13.8125 -5.5 C 13.175781 -5.53125 12.503906 -5.5625 11.796875 -5.59375 C 11.085938 -5.632812 10.421875 -5.664062 9.796875 -5.6875 C 9.171875 -5.707031 8.625 -5.722656 8.15625 -5.734375 C 7.6875 -5.753906 7.367188 -5.738281 7.203125 -5.6875 L 7.203125 -5.71875 C 7.222656 -7.257812 7.226562 -8.847656 7.21875 -10.484375 C 7.207031 -12.128906 7.1875 -13.78125 7.15625 -15.4375 C 7.132812 -17.09375 7.117188 -18.742188 7.109375 -20.390625 C 7.097656 -22.035156 7.113281 -23.640625 7.15625 -25.203125 C 6.820312 -25.347656 6.378906 -25.453125 5.828125 -25.515625 C 5.273438 -25.585938 4.710938 -25.625 4.140625 -25.625 C 3.566406 -25.625 3.023438 -25.59375 2.515625 -25.53125 C 2.015625 -25.476562 1.644531 -25.40625 1.40625 -25.3125 C 1.425781 -23.625 1.445312 -22.085938 1.46875 -20.703125 C 1.5 -19.328125 1.523438 -18.023438 1.546875 -16.796875 C 1.566406 -15.578125 1.578125 -14.378906 1.578125 -13.203125 C 1.578125 -12.035156 1.570312 -10.820312 1.5625 -9.5625 C 1.550781 -8.300781 1.519531 -6.941406 1.46875 -5.484375 C 1.425781 -4.035156 1.367188 -2.410156 1.296875 -0.609375 L 1.296875 0.03125 C 4.203125 0.0820312 6.523438 0.109375 8.265625 0.109375 C 10.003906 0.109375 11.367188 0.09375 12.359375 0.0625 C 13.359375 0.0390625 14.066406 0.0195312 14.484375 0 C 14.910156 -0.0195312 15.253906 -0.0195312 15.515625 0 C 15.773438 0 15.976562 -0.00390625 16.125 -0.015625 C 16.269531 -0.0234375 16.375 -0.128906 16.4375 -0.328125 C 16.5 -0.535156 16.53125 -0.863281 16.53125 -1.3125 C 16.53125 -1.757812 16.503906 -2.414062 16.453125 -3.28125 Z M 16.453125 -3.28125" transform="translate(66.117 265.536)"/></g></g></g><g fill="#6E00C8"><g><g><path d="M 7.125 -25.3125 C 6.050781 -25.28125 5.226562 -25.28125 4.65625 -25.3125 C 4.09375 -25.351562 3.597656 -25.390625 3.171875 -25.421875 C 3.003906 -25.421875 2.742188 -25.4375 2.390625 -25.46875 C 2.046875 -25.507812 1.8125 -25.515625 1.6875 -25.484375 L 1.6875 -25.421875 C 1.476562 -23.398438 1.378906 -21.335938 1.390625 -19.234375 C 1.398438 -17.140625 1.429688 -15.015625 1.484375 -12.859375 C 1.546875 -10.710938 1.585938 -8.546875 1.609375 -6.359375 C 1.640625 -4.179688 1.570312 -2.015625 1.40625 0.140625 C 1.644531 0.0664062 2.085938 0.046875 2.734375 0.078125 C 3.378906 0.117188 4.054688 0.148438 4.765625 0.171875 C 5.472656 0.203125 6.132812 0.195312 6.75 0.15625 C 7.363281 0.125 7.765625 0.0078125 7.953125 -0.1875 C 7.835938 -2.21875 7.765625 -4.273438 7.734375 -6.359375 C 7.710938 -8.453125 7.71875 -10.546875 7.75 -12.640625 C 7.789062 -14.742188 7.835938 -16.835938 7.890625 -18.921875 C 7.953125 -21.015625 7.984375 -23.09375 7.984375 -25.15625 L 7.984375 -25.3125 Z M 7.125 -25.3125" transform="translate(83.073 265.536)"/></g></g></g><g fill="#6E00C8"><g><g><path d="M 16.015625 -24.625 C 15.609375 -24.695312 15.179688 -24.738281 14.734375 -24.75 C 14.296875 -24.757812 13.851562 -24.765625 13.40625 -24.765625 C 12.96875 -24.765625 12.53125 -24.769531 12.09375 -24.78125 C 11.664062 -24.789062 11.25 -24.847656 10.84375 -24.953125 C 10.789062 -24.953125 10.765625 -24.925781 10.765625 -24.875 C 10.503906 -23.863281 10.273438 -22.78125 10.078125 -21.625 C 9.890625 -20.476562 9.6875 -19.21875 9.46875 -17.84375 C 9.25 -16.476562 8.992188 -14.984375 8.703125 -13.359375 C 8.421875 -11.742188 8.050781 -9.96875 7.59375 -8.03125 C 7.113281 -9.96875 6.757812 -11.847656 6.53125 -13.671875 C 6.300781 -15.503906 6.140625 -17.175781 6.046875 -18.6875 C 5.953125 -20.195312 5.890625 -21.488281 5.859375 -22.5625 C 5.835938 -23.644531 5.78125 -24.425781 5.6875 -24.90625 C 5.5 -24.957031 5.148438 -24.992188 4.640625 -25.015625 C 4.140625 -25.046875 3.613281 -25.050781 3.0625 -25.03125 C 2.507812 -25.019531 1.992188 -24.976562 1.515625 -24.90625 C 1.035156 -24.832031 0.722656 -24.710938 0.578125 -24.546875 L 0.578125 -24.515625 C 0.910156 -20.359375 1.425781 -16.234375 2.125 -12.140625 C 2.820312 -8.054688 3.707031 -4.070312 4.78125 -0.1875 C 5.164062 -0.0625 5.628906 0.015625 6.171875 0.046875 C 6.710938 0.0859375 7.25 0.109375 7.78125 0.109375 C 8.28125 0.109375 8.734375 0.0820312 9.140625 0.03125 C 9.546875 -0.0078125 9.847656 -0.03125 10.046875 -0.03125 C 10.617188 -2.125 11.164062 -4.179688 11.6875 -6.203125 C 12.21875 -8.234375 12.734375 -10.253906 13.234375 -12.265625 C 13.742188 -14.285156 14.234375 -16.316406 14.703125 -18.359375 C 15.171875 -20.398438 15.609375 -22.488281 16.015625 -24.625 Z M 16.015625 -24.625" transform="translate(92.793 265.536)"/></g></g></g><g fill="#6E00C8"><g><g><path d="M 18.578125 -0.109375 C 18.210938 -1.085938 17.765625 -2.039062 17.234375 -2.96875 C 16.710938 -3.894531 16.160156 -4.800781 15.578125 -5.6875 C 15.003906 -6.570312 14.414062 -7.453125 13.8125 -8.328125 C 13.21875 -9.203125 12.671875 -10.085938 12.171875 -10.984375 L 12.171875 -11.015625 L 12.34375 -11.015625 C 13.5 -11.085938 14.453125 -11.410156 15.203125 -11.984375 C 15.960938 -12.566406 16.570312 -13.285156 17.03125 -14.140625 C 17.769531 -15.390625 18.117188 -16.679688 18.078125 -18.015625 C 18.046875 -19.347656 17.71875 -20.566406 17.09375 -21.671875 C 16.46875 -22.773438 15.59375 -23.695312 14.46875 -24.4375 C 13.34375 -25.1875 12.070312 -25.597656 10.65625 -25.671875 C 8.90625 -25.859375 7.222656 -25.867188 5.609375 -25.703125 C 4.003906 -25.535156 2.53125 -25.351562 1.1875 -25.15625 C 1.238281 -24.851562 1.28125 -24.257812 1.3125 -23.375 C 1.351562 -22.5 1.382812 -21.441406 1.40625 -20.203125 C 1.425781 -18.972656 1.453125 -17.617188 1.484375 -16.140625 C 1.523438 -14.671875 1.550781 -13.1875 1.5625 -11.6875 C 1.570312 -10.1875 1.578125 -8.734375 1.578125 -7.328125 C 1.578125 -5.921875 1.578125 -4.675781 1.578125 -3.59375 C 1.578125 -2.519531 1.566406 -1.648438 1.546875 -0.984375 C 1.523438 -0.328125 1.488281 0 1.4375 0 C 1.5625 -0.0195312 1.878906 -0.0195312 2.390625 0 C 2.910156 0.0195312 3.492188 0.0234375 4.140625 0.015625 C 4.785156 0.00390625 5.4375 -0.0195312 6.09375 -0.0625 C 6.757812 -0.113281 7.296875 -0.222656 7.703125 -0.390625 C 7.679688 -0.847656 7.644531 -1.460938 7.59375 -2.234375 C 7.550781 -3.003906 7.507812 -3.8125 7.46875 -4.65625 C 7.4375 -5.507812 7.421875 -6.335938 7.421875 -7.140625 C 7.421875 -7.953125 7.457031 -8.632812 7.53125 -9.1875 L 7.59375 -9.078125 C 8.101562 -8.453125 8.609375 -7.726562 9.109375 -6.90625 C 9.609375 -6.09375 10.070312 -5.265625 10.5 -4.421875 C 10.9375 -3.585938 11.332031 -2.785156 11.6875 -2.015625 C 12.050781 -1.242188 12.351562 -0.582031 12.59375 -0.03125 L 12.640625 -0.03125 C 13.710938 0.0390625 14.765625 0.046875 15.796875 -0.015625 C 16.835938 -0.078125 17.773438 -0.109375 18.609375 -0.109375 Z M 6.4375 -20.125 C 7.28125 -20.457031 8.109375 -20.640625 8.921875 -20.671875 C 9.742188 -20.710938 10.414062 -20.492188 10.9375 -20.015625 C 11.28125 -19.753906 11.519531 -19.398438 11.65625 -18.953125 C 11.800781 -18.503906 11.847656 -18.054688 11.796875 -17.609375 C 11.753906 -17.171875 11.609375 -16.765625 11.359375 -16.390625 C 11.109375 -16.023438 10.753906 -15.796875 10.296875 -15.703125 C 9.722656 -15.597656 9.109375 -15.554688 8.453125 -15.578125 C 7.804688 -15.609375 7.207031 -15.648438 6.65625 -15.703125 L 6.625 -15.703125 C 6.570312 -15.960938 6.539062 -16.285156 6.53125 -16.671875 C 6.519531 -17.054688 6.515625 -17.453125 6.515625 -17.859375 C 6.515625 -18.265625 6.507812 -18.664062 6.5 -19.0625 C 6.488281 -19.457031 6.46875 -19.8125 6.4375 -20.125 Z M 6.4375 -20.125" transform="translate(108.993 265.536)"/></g></g></g><g fill="#6E00C8"><g><g><path d="M 15.734375 -21.3125 C 15.441406 -22.15625 14.945312 -22.890625 14.25 -23.515625 C 13.5625 -24.035156 12.773438 -24.429688 11.890625 -24.703125 C 11.015625 -24.984375 10.113281 -25.144531 9.1875 -25.1875 C 8.269531 -25.238281 7.347656 -25.175781 6.421875 -25 C 5.503906 -24.820312 4.648438 -24.539062 3.859375 -24.15625 C 3.546875 -23.96875 3.269531 -23.753906 3.03125 -23.515625 C 2.28125 -22.671875 1.78125 -21.703125 1.53125 -20.609375 C 1.28125 -19.515625 1.140625 -18.429688 1.109375 -17.359375 C 0.992188 -15.460938 0.976562 -13.570312 1.0625 -11.6875 C 1.144531 -9.800781 1.222656 -7.921875 1.296875 -6.046875 C 1.316406 -5.347656 1.378906 -4.65625 1.484375 -3.96875 C 1.597656 -3.289062 1.820312 -2.648438 2.15625 -2.046875 C 2.375 -1.566406 2.648438 -1.175781 2.984375 -0.875 C 3.316406 -0.582031 3.691406 -0.335938 4.109375 -0.140625 C 4.535156 0.046875 4.984375 0.179688 5.453125 0.265625 C 5.921875 0.347656 6.40625 0.414062 6.90625 0.46875 C 7.601562 0.519531 8.296875 0.519531 8.984375 0.46875 C 9.671875 0.414062 10.347656 0.296875 11.015625 0.109375 C 11.753906 -0.0859375 12.453125 -0.359375 13.109375 -0.703125 C 13.773438 -1.046875 14.3125 -1.507812 14.71875 -2.09375 C 15.15625 -2.78125 15.476562 -3.550781 15.6875 -4.40625 C 15.90625 -5.257812 16.039062 -6.109375 16.09375 -6.953125 L 16.203125 -8.140625 C 16.296875 -9.390625 16.328125 -10.613281 16.296875 -11.8125 C 16.273438 -13.007812 16.300781 -14.242188 16.375 -15.515625 C 16.40625 -16.117188 16.410156 -16.710938 16.390625 -17.296875 C 16.378906 -17.890625 16.351562 -18.484375 16.3125 -19.078125 C 16.257812 -19.460938 16.191406 -19.835938 16.109375 -20.203125 C 16.023438 -20.578125 15.898438 -20.945312 15.734375 -21.3125 Z M 11.875 -10.796875 C 11.875 -10.753906 11.867188 -10.550781 11.859375 -10.1875 C 11.847656 -9.820312 11.832031 -9.398438 11.8125 -8.921875 C 11.757812 -8.421875 11.738281 -8.019531 11.75 -7.71875 C 11.757812 -7.414062 11.753906 -7.15625 11.734375 -6.9375 C 11.710938 -6.726562 11.648438 -6.53125 11.546875 -6.34375 C 11.453125 -6.164062 11.300781 -5.9375 11.09375 -5.65625 C 10.726562 -5.25 10.28125 -4.953125 9.75 -4.765625 C 9.226562 -4.585938 8.703125 -4.515625 8.171875 -4.546875 C 7.640625 -4.585938 7.144531 -4.738281 6.6875 -5 C 6.238281 -5.269531 5.894531 -5.644531 5.65625 -6.125 C 5.414062 -6.914062 5.269531 -7.75 5.21875 -8.625 C 5.164062 -9.5 5.082031 -10.359375 4.96875 -11.203125 C 4.914062 -12.203125 4.90625 -13.207031 4.9375 -14.21875 C 4.976562 -15.226562 5.097656 -16.1875 5.296875 -17.09375 C 5.578125 -18.101562 6.140625 -18.929688 6.984375 -19.578125 C 7.367188 -19.867188 7.8125 -20.070312 8.3125 -20.1875 C 8.820312 -20.3125 9.316406 -20.28125 9.796875 -20.09375 C 10.347656 -19.820312 10.785156 -19.410156 11.109375 -18.859375 C 11.429688 -18.304688 11.613281 -17.695312 11.65625 -17.03125 C 11.6875 -16.625 11.71875 -16.1875 11.75 -15.71875 C 11.789062 -15.25 11.8125 -15 11.8125 -14.96875 L 11.875 -12.53125 Z M 11.875 -10.796875" transform="translate(128.001 265.536)"/></g></g></g><g fill="#6E00C8"><g><g><path d="M 16.671875 -4.890625 C 15.035156 -4.847656 13.445312 -4.867188 11.90625 -4.953125 C 10.375 -5.035156 8.816406 -5.078125 7.234375 -5.078125 L 7.203125 -5.109375 C 7.148438 -5.679688 7.101562 -6.398438 7.0625 -7.265625 C 7.03125 -8.128906 7.078125 -8.910156 7.203125 -9.609375 C 7.316406 -9.703125 7.539062 -9.757812 7.875 -9.78125 C 8.21875 -9.8125 8.597656 -9.828125 9.015625 -9.828125 C 9.429688 -9.828125 9.867188 -9.832031 10.328125 -9.84375 C 10.785156 -9.851562 11.195312 -9.910156 11.5625 -10.015625 C 11.53125 -10.898438 11.535156 -11.75 11.578125 -12.5625 C 11.628906 -13.375 11.597656 -14.191406 11.484375 -15.015625 L 11.484375 -15.046875 C 10.742188 -15.066406 10 -15.078125 9.25 -15.078125 C 8.507812 -15.078125 7.78125 -15.101562 7.0625 -15.15625 L 7.015625 -15.1875 C 6.847656 -15.832031 6.804688 -16.519531 6.890625 -17.25 C 6.972656 -17.988281 7.003906 -18.707031 6.984375 -19.40625 L 7.015625 -19.4375 L 7.125 -19.4375 C 7.914062 -19.507812 8.707031 -19.546875 9.5 -19.546875 C 10.289062 -19.546875 11.082031 -19.539062 11.875 -19.53125 C 12.664062 -19.519531 13.453125 -19.53125 14.234375 -19.5625 C 15.015625 -19.601562 15.789062 -19.707031 16.5625 -19.875 L 16.5625 -19.90625 C 16.5625 -20.75 16.585938 -21.601562 16.640625 -22.46875 C 16.703125 -23.332031 16.675781 -24.179688 16.5625 -25.015625 C 16.5625 -25.046875 16.320312 -25.070312 15.84375 -25.09375 C 15.363281 -25.113281 14.726562 -25.125 13.9375 -25.125 C 13.144531 -25.125 12.226562 -25.113281 11.1875 -25.09375 C 10.15625 -25.070312 9.085938 -25.046875 7.984375 -25.015625 C 6.890625 -24.992188 5.796875 -24.960938 4.703125 -24.921875 C 3.609375 -24.890625 2.59375 -24.847656 1.65625 -24.796875 C 1.53125 -22.734375 1.457031 -20.679688 1.4375 -18.640625 C 1.414062 -16.609375 1.414062 -14.570312 1.4375 -12.53125 C 1.457031 -10.488281 1.492188 -8.441406 1.546875 -6.390625 C 1.597656 -4.335938 1.625 -2.269531 1.625 -0.1875 C 3.945312 0.0078125 6.375 0.0664062 8.90625 -0.015625 C 11.4375 -0.0976562 13.925781 -0.128906 16.375 -0.109375 C 16.570312 -0.828125 16.679688 -1.597656 16.703125 -2.421875 C 16.722656 -3.253906 16.710938 -4.054688 16.671875 -4.828125 Z M 16.671875 -4.890625" transform="translate(153.31 265.536)"/></g></g></g><g fill="#6E00C8"><g><g><path d="M 15.265625 0.1875 C 15.671875 0.1875 15.957031 0.160156 16.125 0.109375 C 16.289062 0.0546875 16.398438 0.0195312 16.453125 0 L 16.453125 -0.71875 C 16.453125 -1.195312 16.445312 -1.675781 16.4375 -2.15625 C 16.425781 -2.632812 16.421875 -3.113281 16.421875 -3.59375 C 16.421875 -4.269531 16.425781 -4.929688 16.4375 -5.578125 C 16.445312 -6.222656 16.453125 -6.894531 16.453125 -7.59375 C 16.453125 -8.625 16.453125 -9.65625 16.453125 -10.6875 C 16.453125 -11.71875 16.441406 -12.738281 16.421875 -13.75 L 16.421875 -25.34375 C 15.722656 -25.488281 14.929688 -25.5625 14.046875 -25.5625 C 13.128906 -25.5625 12.265625 -25.488281 11.453125 -25.34375 C 11.421875 -24.738281 11.398438 -24.175781 11.390625 -23.65625 C 11.378906 -23.144531 11.375 -22.640625 11.375 -22.140625 C 11.375 -21.273438 11.390625 -20.425781 11.421875 -19.59375 C 11.460938 -18.769531 11.484375 -17.878906 11.484375 -16.921875 C 11.484375 -16.515625 11.457031 -16.09375 11.40625 -15.65625 C 11.363281 -15.226562 11.304688 -14.988281 11.234375 -14.9375 C 11.210938 -14.9375 11.128906 -15.070312 10.984375 -15.34375 C 10.835938 -15.625 10.660156 -15.960938 10.453125 -16.359375 C 10.253906 -16.753906 10.035156 -17.195312 9.796875 -17.6875 C 9.554688 -18.1875 9.328125 -18.65625 9.109375 -19.09375 C 8.890625 -19.539062 8.695312 -19.929688 8.53125 -20.265625 C 8.363281 -20.597656 8.253906 -20.828125 8.203125 -20.953125 C 7.992188 -21.453125 7.8125 -21.863281 7.65625 -22.1875 C 7.5 -22.519531 7.351562 -22.816406 7.21875 -23.078125 C 7.082031 -23.335938 6.941406 -23.613281 6.796875 -23.90625 C 6.660156 -24.195312 6.507812 -24.554688 6.34375 -24.984375 C 6.34375 -25.035156 6.210938 -25.082031 5.953125 -25.125 C 5.703125 -25.175781 5.410156 -25.21875 5.078125 -25.25 C 4.742188 -25.289062 4.40625 -25.316406 4.0625 -25.328125 C 3.726562 -25.335938 3.488281 -25.34375 3.34375 -25.34375 C 3.0625 -25.34375 2.78125 -25.328125 2.5 -25.296875 C 2.226562 -25.273438 1.972656 -25.242188 1.734375 -25.203125 C 1.609375 -23.660156 1.519531 -22.078125 1.46875 -20.453125 C 1.425781 -18.835938 1.40625 -17.203125 1.40625 -15.546875 C 1.40625 -13.296875 1.421875 -11.132812 1.453125 -9.0625 C 1.492188 -7 1.515625 -4.832031 1.515625 -2.5625 L 1.515625 -0.03125 C 2.066406 -0.03125 2.632812 0.00390625 3.21875 0.078125 C 3.8125 0.148438 4.394531 0.1875 4.96875 0.1875 C 5.226562 0.1875 5.488281 0.171875 5.75 0.140625 C 6.019531 0.117188 6.285156 0.0703125 6.546875 0 C 6.523438 -0.40625 6.515625 -0.863281 6.515625 -1.375 C 6.515625 -1.894531 6.515625 -2.429688 6.515625 -2.984375 C 6.515625 -3.992188 6.519531 -5.035156 6.53125 -6.109375 C 6.539062 -7.191406 6.554688 -8.175781 6.578125 -9.0625 C 6.609375 -9.957031 6.640625 -10.691406 6.671875 -11.265625 C 6.710938 -11.835938 6.742188 -12.125 6.765625 -12.125 C 6.816406 -12.125 6.882812 -12.007812 6.96875 -11.78125 C 7.050781 -11.5625 7.140625 -11.316406 7.234375 -11.046875 L 7.59375 -9.96875 C 8.144531 -8.4375 8.8125 -6.832031 9.59375 -5.15625 C 10.375 -3.488281 11.160156 -1.769531 11.953125 0 C 12.429688 0 12.984375 0.03125 13.609375 0.09375 C 14.234375 0.15625 14.785156 0.1875 15.265625 0.1875 Z M 15.265625 0.1875" transform="translate(170.985 265.536)"/></g></g></g><g fill="#6E00C8"><g><g><path d="M 6.953125 -19.515625 C 7.140625 -19.703125 7.40625 -19.832031 7.75 -19.90625 C 8.101562 -19.976562 8.4375 -20.039062 8.75 -20.09375 C 9.445312 -20.113281 9.957031 -19.96875 10.28125 -19.65625 C 10.601562 -19.34375 10.820312 -18.941406 10.9375 -18.453125 C 11.0625 -17.960938 11.128906 -17.425781 11.140625 -16.84375 C 11.148438 -16.269531 11.191406 -15.753906 11.265625 -15.296875 C 12.179688 -15.128906 13.0625 -15.015625 13.90625 -14.953125 C 14.757812 -14.898438 15.632812 -14.96875 16.53125 -15.15625 C 16.90625 -16.257812 17.046875 -17.335938 16.953125 -18.390625 C 16.859375 -19.453125 16.582031 -20.429688 16.125 -21.328125 C 15.664062 -22.234375 15.050781 -23.03125 14.28125 -23.71875 C 13.519531 -24.414062 12.664062 -24.972656 11.71875 -25.390625 C 10.769531 -25.816406 9.753906 -26.066406 8.671875 -26.140625 C 7.597656 -26.210938 6.507812 -26.066406 5.40625 -25.703125 C 5.0625 -25.609375 4.734375 -25.492188 4.421875 -25.359375 C 4.109375 -25.222656 3.820312 -25.0625 3.5625 -24.875 C 3.101562 -24.46875 2.710938 -24 2.390625 -23.46875 C 2.066406 -22.945312 1.796875 -22.375 1.578125 -21.75 C 1.441406 -21.382812 1.328125 -20.988281 1.234375 -20.5625 C 1.148438 -20.144531 1.132812 -19.734375 1.1875 -19.328125 C 1.164062 -17.390625 1.144531 -15.679688 1.125 -14.203125 C 1.113281 -12.722656 1.113281 -11.398438 1.125 -10.234375 C 1.144531 -9.078125 1.164062 -8.03125 1.1875 -7.09375 C 1.207031 -6.15625 1.242188 -5.253906 1.296875 -4.390625 C 1.390625 -3.378906 1.707031 -2.535156 2.25 -1.859375 C 2.789062 -1.191406 3.457031 -0.671875 4.25 -0.296875 C 5.039062 0.0664062 5.890625 0.300781 6.796875 0.40625 C 7.710938 0.519531 8.601562 0.515625 9.46875 0.390625 C 10.789062 0.367188 11.972656 0.0390625 13.015625 -0.59375 C 14.054688 -1.226562 14.898438 -2.035156 15.546875 -3.015625 C 16.203125 -4.003906 16.625 -5.113281 16.8125 -6.34375 C 17 -7.582031 16.890625 -8.828125 16.484375 -10.078125 C 16.148438 -10.171875 15.769531 -10.226562 15.34375 -10.25 C 14.925781 -10.28125 14.5 -10.296875 14.0625 -10.296875 C 13.632812 -10.296875 13.210938 -10.28125 12.796875 -10.25 C 12.378906 -10.226562 12 -10.242188 11.65625 -10.296875 C 11.539062 -9.691406 11.5 -9.082031 11.53125 -8.46875 C 11.570312 -7.863281 11.460938 -7.285156 11.203125 -6.734375 C 10.960938 -6.253906 10.609375 -5.910156 10.140625 -5.703125 C 9.671875 -5.503906 9.171875 -5.425781 8.640625 -5.46875 C 7.941406 -5.664062 7.441406 -6.09375 7.140625 -6.75 C 6.847656 -7.40625 6.664062 -8.082031 6.59375 -8.78125 C 6.519531 -9.625 6.484375 -10.613281 6.484375 -11.75 C 6.484375 -12.894531 6.492188 -13.992188 6.515625 -15.046875 C 6.535156 -16.097656 6.5625 -17.007812 6.59375 -17.78125 C 6.632812 -18.550781 6.679688 -18.972656 6.734375 -19.046875 C 6.753906 -19.085938 6.78125 -19.160156 6.8125 -19.265625 C 6.851562 -19.378906 6.898438 -19.460938 6.953125 -19.515625 Z M 6.953125 -19.515625" transform="translate(189.273 265.536)"/></g></g></g><g fill="#6E00C8"><g><g><path d="M 13.03125 -12.640625 C 12.9375 -13.046875 12.804688 -13.597656 12.640625 -14.296875 C 12.472656 -14.992188 12.289062 -15.757812 12.09375 -16.59375 C 11.90625 -17.4375 11.707031 -18.3125 11.5 -19.21875 C 11.300781 -20.132812 11.109375 -20.992188 10.921875 -21.796875 C 10.742188 -22.597656 10.578125 -23.316406 10.421875 -23.953125 C 10.265625 -24.585938 10.148438 -25.0625 10.078125 -25.375 C 9.285156 -25.300781 8.644531 -25.257812 8.15625 -25.25 C 7.664062 -25.238281 7.265625 -25.234375 6.953125 -25.234375 C 6.640625 -25.234375 6.382812 -25.234375 6.1875 -25.234375 C 6 -25.234375 5.820312 -25.222656 5.65625 -25.203125 C 5.070312 -23.273438 4.539062 -21.335938 4.0625 -19.390625 C 3.582031 -17.453125 3.140625 -15.582031 2.734375 -13.78125 C 2.328125 -11.988281 1.972656 -10.289062 1.671875 -8.6875 C 1.367188 -7.09375 1.109375 -5.679688 0.890625 -4.453125 C 0.679688 -3.234375 0.515625 -2.238281 0.390625 -1.46875 C 0.273438 -0.707031 0.191406 -0.242188 0.140625 -0.078125 C 0.171875 -0.046875 0.195312 -0.03125 0.21875 -0.03125 C 1.84375 -0.0625 3.039062 -0.0507812 3.8125 0 C 4.582031 0.0507812 5.0625 0.0507812 5.25 0 C 5.28125 0 5.300781 -0.00390625 5.3125 -0.015625 C 5.320312 -0.0234375 5.335938 -0.03125 5.359375 -0.03125 C 5.578125 -0.4375 5.742188 -0.90625 5.859375 -1.4375 C 5.984375 -1.96875 6.097656 -2.515625 6.203125 -3.078125 C 6.316406 -3.640625 6.425781 -4.175781 6.53125 -4.6875 C 6.644531 -5.207031 6.785156 -5.660156 6.953125 -6.046875 C 7.210938 -6.046875 7.421875 -6.050781 7.578125 -6.0625 C 7.734375 -6.070312 7.875 -6.078125 8 -6.078125 C 8.132812 -6.078125 8.285156 -6.078125 8.453125 -6.078125 C 8.628906 -6.078125 8.875 -6.054688 9.1875 -6.015625 C 9.351562 -5.648438 9.503906 -5.210938 9.640625 -4.703125 C 9.785156 -4.203125 9.925781 -3.675781 10.0625 -3.125 C 10.195312 -2.570312 10.328125 -2.03125 10.453125 -1.5 C 10.585938 -0.976562 10.726562 -0.523438 10.875 -0.140625 L 10.90625 -0.140625 C 11.675781 0.0234375 12.492188 0.125 13.359375 0.15625 C 14.222656 0.195312 15.015625 0.144531 15.734375 0 L 15.734375 -0.03125 Z M 9.359375 -10.296875 C 8.898438 -10.296875 8.441406 -10.289062 7.984375 -10.28125 C 7.535156 -10.269531 7.109375 -10.273438 6.703125 -10.296875 C 6.867188 -11.515625 7.015625 -12.648438 7.140625 -13.703125 C 7.273438 -14.765625 7.394531 -15.644531 7.5 -16.34375 C 7.613281 -17.039062 7.734375 -17.503906 7.859375 -17.734375 C 7.992188 -17.960938 8.125 -17.867188 8.25 -17.453125 C 8.382812 -17.046875 8.539062 -16.265625 8.71875 -15.109375 C 8.90625 -13.960938 9.117188 -12.359375 9.359375 -10.296875 Z M 9.359375 -10.296875" transform="translate(207.201 265.536)"/></g></g></g><g fill="#6E00C8"><g><g><path d="M 15.265625 0.1875 C 15.671875 0.1875 15.957031 0.160156 16.125 0.109375 C 16.289062 0.0546875 16.398438 0.0195312 16.453125 0 L 16.453125 -0.71875 C 16.453125 -1.195312 16.445312 -1.675781 16.4375 -2.15625 C 16.425781 -2.632812 16.421875 -3.113281 16.421875 -3.59375 C 16.421875 -4.269531 16.425781 -4.929688 16.4375 -5.578125 C 16.445312 -6.222656 16.453125 -6.894531 16.453125 -7.59375 C 16.453125 -8.625 16.453125 -9.65625 16.453125 -10.6875 C 16.453125 -11.71875 16.441406 -12.738281 16.421875 -13.75 L 16.421875 -25.34375 C 15.722656 -25.488281 14.929688 -25.5625 14.046875 -25.5625 C 13.128906 -25.5625 12.265625 -25.488281 11.453125 -25.34375 C 11.421875 -24.738281 11.398438 -24.175781 11.390625 -23.65625 C 11.378906 -23.144531 11.375 -22.640625 11.375 -22.140625 C 11.375 -21.273438 11.390625 -20.425781 11.421875 -19.59375 C 11.460938 -18.769531 11.484375 -17.878906 11.484375 -16.921875 C 11.484375 -16.515625 11.457031 -16.09375 11.40625 -15.65625 C 11.363281 -15.226562 11.304688 -14.988281 11.234375 -14.9375 C 11.210938 -14.9375 11.128906 -15.070312 10.984375 -15.34375 C 10.835938 -15.625 10.660156 -15.960938 10.453125 -16.359375 C 10.253906 -16.753906 10.035156 -17.195312 9.796875 -17.6875 C 9.554688 -18.1875 9.328125 -18.65625 9.109375 -19.09375 C 8.890625 -19.539062 8.695312 -19.929688 8.53125 -20.265625 C 8.363281 -20.597656 8.253906 -20.828125 8.203125 -20.953125 C 7.992188 -21.453125 7.8125 -21.863281 7.65625 -22.1875 C 7.5 -22.519531 7.351562 -22.816406 7.21875 -23.078125 C 7.082031 -23.335938 6.941406 -23.613281 6.796875 -23.90625 C 6.660156 -24.195312 6.507812 -24.554688 6.34375 -24.984375 C 6.34375 -25.035156 6.210938 -25.082031 5.953125 -25.125 C 5.703125 -25.175781 5.410156 -25.21875 5.078125 -25.25 C 4.742188 -25.289062 4.40625 -25.316406 4.0625 -25.328125 C 3.726562 -25.335938 3.488281 -25.34375 3.34375 -25.34375 C 3.0625 -25.34375 2.78125 -25.328125 2.5 -25.296875 C 2.226562 -25.273438 1.972656 -25.242188 1.734375 -25.203125 C 1.609375 -23.660156 1.519531 -22.078125 1.46875 -20.453125 C 1.425781 -18.835938 1.40625 -17.203125 1.40625 -15.546875 C 1.40625 -13.296875 1.421875 -11.132812 1.453125 -9.0625 C 1.492188 -7 1.515625 -4.832031 1.515625 -2.5625 L 1.515625 -0.03125 C 2.066406 -0.03125 2.632812 0.00390625 3.21875 0.078125 C 3.8125 0.148438 4.394531 0.1875 4.96875 0.1875 C 5.226562 0.1875 5.488281 0.171875 5.75 0.140625 C 6.019531 0.117188 6.285156 0.0703125 6.546875 0 C 6.523438 -0.40625 6.515625 -0.863281 6.515625 -1.375 C 6.515625 -1.894531 6.515625 -2.429688 6.515625 -2.984375 C 6.515625 -3.992188 6.519531 -5.035156 6.53125 -6.109375 C 6.539062 -7.191406 6.554688 -8.175781 6.578125 -9.0625 C 6.609375 -9.957031 6.640625 -10.691406 6.671875 -11.265625 C 6.710938 -11.835938 6.742188 -12.125 6.765625 -12.125 C 6.816406 -12.125 6.882812 -12.007812 6.96875 -11.78125 C 7.050781 -11.5625 7.140625 -11.316406 7.234375 -11.046875 L 7.59375 -9.96875 C 8.144531 -8.4375 8.8125 -6.832031 9.59375 -5.15625 C 10.375 -3.488281 11.160156 -1.769531 11.953125 0 C 12.429688 0 12.984375 0.03125 13.609375 0.09375 C 14.234375 0.15625 14.785156 0.1875 15.265625 0.1875 Z M 15.265625 0.1875" transform="translate(223.185 265.536)"/></g></g></g><g fill="#6E00C8"><g><g><path d="M 15.546875 -25.015625 C 13.078125 -25.285156 10.539062 -25.410156 7.9375 -25.390625 C 5.332031 -25.378906 2.804688 -25.363281 0.359375 -25.34375 C 0.359375 -25.320312 0.363281 -25.3125 0.375 -25.3125 C 0.382812 -25.3125 0.390625 -25.296875 0.390625 -25.265625 C 0.347656 -24.691406 0.328125 -24.09375 0.328125 -23.46875 C 0.328125 -22.84375 0.332031 -22.257812 0.34375 -21.71875 C 0.351562 -21.1875 0.375 -20.726562 0.40625 -20.34375 C 0.445312 -19.957031 0.492188 -19.71875 0.546875 -19.625 C 0.679688 -19.570312 0.929688 -19.546875 1.296875 -19.546875 C 1.660156 -19.546875 2.054688 -19.539062 2.484375 -19.53125 C 2.910156 -19.519531 3.335938 -19.492188 3.765625 -19.453125 C 4.203125 -19.421875 4.566406 -19.332031 4.859375 -19.1875 L 4.890625 -19.15625 C 5.035156 -15.789062 5.125 -12.921875 5.15625 -10.546875 C 5.195312 -8.171875 5.210938 -6.21875 5.203125 -4.6875 C 5.191406 -3.164062 5.171875 -2.019531 5.140625 -1.25 C 5.117188 -0.488281 5.117188 -0.0625 5.140625 0.03125 C 5.578125 -0.0390625 6.046875 -0.078125 6.546875 -0.078125 C 7.054688 -0.078125 7.566406 -0.078125 8.078125 -0.078125 C 8.597656 -0.078125 9.113281 -0.0820312 9.625 -0.09375 C 10.144531 -0.101562 10.617188 -0.144531 11.046875 -0.21875 L 11.046875 -0.28125 C 11.003906 -2.90625 10.96875 -5.179688 10.9375 -7.109375 C 10.914062 -9.046875 10.894531 -10.703125 10.875 -12.078125 C 10.851562 -13.453125 10.832031 -14.578125 10.8125 -15.453125 C 10.800781 -16.335938 10.796875 -17.046875 10.796875 -17.578125 C 10.796875 -18.117188 10.800781 -18.515625 10.8125 -18.765625 C 10.832031 -19.023438 10.851562 -19.210938 10.875 -19.328125 C 10.875 -19.359375 10.878906 -19.378906 10.890625 -19.390625 C 10.898438 -19.398438 10.90625 -19.414062 10.90625 -19.4375 L 11.015625 -19.4375 C 12.140625 -19.488281 13.035156 -19.523438 13.703125 -19.546875 C 14.378906 -19.566406 14.945312 -19.53125 15.40625 -19.4375 C 15.53125 -20.300781 15.597656 -21.25 15.609375 -22.28125 C 15.617188 -23.3125 15.597656 -24.222656 15.546875 -25.015625 Z M 15.546875 -25.015625" transform="translate(241.473 265.536)"/></g></g></g><g fill="#6E00C8"><g><g><path d="M 13.03125 -12.640625 C 12.9375 -13.046875 12.804688 -13.597656 12.640625 -14.296875 C 12.472656 -14.992188 12.289062 -15.757812 12.09375 -16.59375 C 11.90625 -17.4375 11.707031 -18.3125 11.5 -19.21875 C 11.300781 -20.132812 11.109375 -20.992188 10.921875 -21.796875 C 10.742188 -22.597656 10.578125 -23.316406 10.421875 -23.953125 C 10.265625 -24.585938 10.148438 -25.0625 10.078125 -25.375 C 9.285156 -25.300781 8.644531 -25.257812 8.15625 -25.25 C 7.664062 -25.238281 7.265625 -25.234375 6.953125 -25.234375 C 6.640625 -25.234375 6.382812 -25.234375 6.1875 -25.234375 C 6 -25.234375 5.820312 -25.222656 5.65625 -25.203125 C 5.070312 -23.273438 4.539062 -21.335938 4.0625 -19.390625 C 3.582031 -17.453125 3.140625 -15.582031 2.734375 -13.78125 C 2.328125 -11.988281 1.972656 -10.289062 1.671875 -8.6875 C 1.367188 -7.09375 1.109375 -5.679688 0.890625 -4.453125 C 0.679688 -3.234375 0.515625 -2.238281 0.390625 -1.46875 C 0.273438 -0.707031 0.191406 -0.242188 0.140625 -0.078125 C 0.171875 -0.046875 0.195312 -0.03125 0.21875 -0.03125 C 1.84375 -0.0625 3.039062 -0.0507812 3.8125 0 C 4.582031 0.0507812 5.0625 0.0507812 5.25 0 C 5.28125 0 5.300781 -0.00390625 5.3125 -0.015625 C 5.320312 -0.0234375 5.335938 -0.03125 5.359375 -0.03125 C 5.578125 -0.4375 5.742188 -0.90625 5.859375 -1.4375 C 5.984375 -1.96875 6.097656 -2.515625 6.203125 -3.078125 C 6.316406 -3.640625 6.425781 -4.175781 6.53125 -4.6875 C 6.644531 -5.207031 6.785156 -5.660156 6.953125 -6.046875 C 7.210938 -6.046875 7.421875 -6.050781 7.578125 -6.0625 C 7.734375 -6.070312 7.875 -6.078125 8 -6.078125 C 8.132812 -6.078125 8.285156 -6.078125 8.453125 -6.078125 C 8.628906 -6.078125 8.875 -6.054688 9.1875 -6.015625 C 9.351562 -5.648438 9.503906 -5.210938 9.640625 -4.703125 C 9.785156 -4.203125 9.925781 -3.675781 10.0625 -3.125 C 10.195312 -2.570312 10.328125 -2.03125 10.453125 -1.5 C 10.585938 -0.976562 10.726562 -0.523438 10.875 -0.140625 L 10.90625 -0.140625 C 11.675781 0.0234375 12.492188 0.125 13.359375 0.15625 C 14.222656 0.195312 15.015625 0.144531 15.734375 0 L 15.734375 -0.03125 Z M 9.359375 -10.296875 C 8.898438 -10.296875 8.441406 -10.289062 7.984375 -10.28125 C 7.535156 -10.269531 7.109375 -10.273438 6.703125 -10.296875 C 6.867188 -11.515625 7.015625 -12.648438 7.140625 -13.703125 C 7.273438 -14.765625 7.394531 -15.644531 7.5 -16.34375 C 7.613281 -17.039062 7.734375 -17.503906 7.859375 -17.734375 C 7.992188 -17.960938 8.125 -17.867188 8.25 -17.453125 C 8.382812 -17.046875 8.539062 -16.265625 8.71875 -15.109375 C 8.90625 -13.960938 9.117188 -12.359375 9.359375 -10.296875 Z M 9.359375 -10.296875" transform="translate(257.781 265.536)"/></g></g></g><g fill="#6E00C8"><g><g><path d="M 14.140625 -22.21875 C 13.710938 -22.90625 13.144531 -23.53125 12.4375 -24.09375 C 11.726562 -24.664062 10.988281 -25.046875 10.21875 -25.234375 C 9.53125 -25.210938 8.816406 -25.210938 8.078125 -25.234375 C 7.347656 -25.253906 6.609375 -25.269531 5.859375 -25.28125 C 5.117188 -25.300781 4.382812 -25.28125 3.65625 -25.21875 C 2.925781 -25.15625 2.222656 -25.039062 1.546875 -24.875 C 1.523438 -24.851562 1.503906 -24.828125 1.484375 -24.796875 C 1.472656 -24.773438 1.457031 -24.753906 1.4375 -24.734375 C 1.488281 -22.640625 1.492188 -20.53125 1.453125 -18.40625 C 1.421875 -16.289062 1.40625 -14.1875 1.40625 -12.09375 C 1.40625 -10.007812 1.441406 -7.953125 1.515625 -5.921875 C 1.585938 -3.890625 1.753906 -1.925781 2.015625 -0.03125 C 2.035156 -0.0625 2.046875 -0.078125 2.046875 -0.078125 C 3.554688 -0.078125 5.113281 -0.0820312 6.71875 -0.09375 C 8.332031 -0.101562 9.929688 -0.132812 11.515625 -0.1875 C 12.429688 -1.3125 13.300781 -2.507812 14.125 -3.78125 C 14.957031 -5.050781 15.613281 -6.394531 16.09375 -7.8125 C 16.09375 -7.832031 16.097656 -7.84375 16.109375 -7.84375 C 16.117188 -7.84375 16.125 -7.859375 16.125 -7.890625 C 16.34375 -8.992188 16.46875 -10.113281 16.5 -11.25 C 16.539062 -12.382812 16.582031 -13.519531 16.625 -14.65625 C 16.601562 -15.039062 16.570312 -15.414062 16.53125 -15.78125 C 16.5 -16.15625 16.425781 -16.535156 16.3125 -16.921875 C 16.09375 -17.878906 15.804688 -18.796875 15.453125 -19.671875 C 15.109375 -20.546875 14.671875 -21.394531 14.140625 -22.21875 Z M 10.84375 -9.140625 C 10.695312 -8.921875 10.53125 -8.707031 10.34375 -8.5 C 10.164062 -8.300781 9.957031 -8.128906 9.71875 -7.984375 C 9.601562 -7.941406 9.492188 -7.890625 9.390625 -7.828125 C 9.296875 -7.765625 9.191406 -7.75 9.078125 -7.78125 C 8.640625 -7.726562 8.1875 -7.6875 7.71875 -7.65625 C 7.25 -7.632812 6.882812 -7.742188 6.625 -7.984375 C 6.570312 -8.804688 6.546875 -9.628906 6.546875 -10.453125 C 6.546875 -11.285156 6.554688 -12.101562 6.578125 -12.90625 C 6.609375 -13.707031 6.625 -14.476562 6.625 -15.21875 C 6.625 -15.96875 6.597656 -16.664062 6.546875 -17.3125 L 6.546875 -17.453125 L 6.65625 -17.453125 C 7.09375 -17.554688 7.550781 -17.597656 8.03125 -17.578125 C 8.507812 -17.566406 8.953125 -17.539062 9.359375 -17.5 C 9.765625 -17.351562 10.097656 -17.140625 10.359375 -16.859375 C 10.628906 -16.585938 10.851562 -16.269531 11.03125 -15.90625 C 11.207031 -15.550781 11.34375 -15.175781 11.4375 -14.78125 C 11.539062 -14.382812 11.628906 -14.003906 11.703125 -13.640625 C 11.890625 -12.753906 11.894531 -11.9375 11.71875 -11.1875 C 11.539062 -10.445312 11.25 -9.765625 10.84375 -9.140625 Z M 10.84375 -9.140625" transform="translate(273.765 265.536)"/></g></g></g><g fill="#6E00C8"><g><g><path d="M 15.734375 -21.3125 C 15.441406 -22.15625 14.945312 -22.890625 14.25 -23.515625 C 13.5625 -24.035156 12.773438 -24.429688 11.890625 -24.703125 C 11.015625 -24.984375 10.113281 -25.144531 9.1875 -25.1875 C 8.269531 -25.238281 7.347656 -25.175781 6.421875 -25 C 5.503906 -24.820312 4.648438 -24.539062 3.859375 -24.15625 C 3.546875 -23.96875 3.269531 -23.753906 3.03125 -23.515625 C 2.28125 -22.671875 1.78125 -21.703125 1.53125 -20.609375 C 1.28125 -19.515625 1.140625 -18.429688 1.109375 -17.359375 C 0.992188 -15.460938 0.976562 -13.570312 1.0625 -11.6875 C 1.144531 -9.800781 1.222656 -7.921875 1.296875 -6.046875 C 1.316406 -5.347656 1.378906 -4.65625 1.484375 -3.96875 C 1.597656 -3.289062 1.820312 -2.648438 2.15625 -2.046875 C 2.375 -1.566406 2.648438 -1.175781 2.984375 -0.875 C 3.316406 -0.582031 3.691406 -0.335938 4.109375 -0.140625 C 4.535156 0.046875 4.984375 0.179688 5.453125 0.265625 C 5.921875 0.347656 6.40625 0.414062 6.90625 0.46875 C 7.601562 0.519531 8.296875 0.519531 8.984375 0.46875 C 9.671875 0.414062 10.347656 0.296875 11.015625 0.109375 C 11.753906 -0.0859375 12.453125 -0.359375 13.109375 -0.703125 C 13.773438 -1.046875 14.3125 -1.507812 14.71875 -2.09375 C 15.15625 -2.78125 15.476562 -3.550781 15.6875 -4.40625 C 15.90625 -5.257812 16.039062 -6.109375 16.09375 -6.953125 L 16.203125 -8.140625 C 16.296875 -9.390625 16.328125 -10.613281 16.296875 -11.8125 C 16.273438 -13.007812 16.300781 -14.242188 16.375 -15.515625 C 16.40625 -16.117188 16.410156 -16.710938 16.390625 -17.296875 C 16.378906 -17.890625 16.351562 -18.484375 16.3125 -19.078125 C 16.257812 -19.460938 16.191406 -19.835938 16.109375 -20.203125 C 16.023438 -20.578125 15.898438 -20.945312 15.734375 -21.3125 Z M 11.875 -10.796875 C 11.875 -10.753906 11.867188 -10.550781 11.859375 -10.1875 C 11.847656 -9.820312 11.832031 -9.398438 11.8125 -8.921875 C 11.757812 -8.421875 11.738281 -8.019531 11.75 -7.71875 C 11.757812 -7.414062 11.753906 -7.15625 11.734375 -6.9375 C 11.710938 -6.726562 11.648438 -6.53125 11.546875 -6.34375 C 11.453125 -6.164062 11.300781 -5.9375 11.09375 -5.65625 C 10.726562 -5.25 10.28125 -4.953125 9.75 -4.765625 C 9.226562 -4.585938 8.703125 -4.515625 8.171875 -4.546875 C 7.640625 -4.585938 7.144531 -4.738281 6.6875 -5 C 6.238281 -5.269531 5.894531 -5.644531 5.65625 -6.125 C 5.414062 -6.914062 5.269531 -7.75 5.21875 -8.625 C 5.164062 -9.5 5.082031 -10.359375 4.96875 -11.203125 C 4.914062 -12.203125 4.90625 -13.207031 4.9375 -14.21875 C 4.976562 -15.226562 5.097656 -16.1875 5.296875 -17.09375 C 5.578125 -18.101562 6.140625 -18.929688 6.984375 -19.578125 C 7.367188 -19.867188 7.8125 -20.070312 8.3125 -20.1875 C 8.820312 -20.3125 9.316406 -20.28125 9.796875 -20.09375 C 10.347656 -19.820312 10.785156 -19.410156 11.109375 -18.859375 C 11.429688 -18.304688 11.613281 -17.695312 11.65625 -17.03125 C 11.6875 -16.625 11.71875 -16.1875 11.75 -15.71875 C 11.789062 -15.25 11.8125 -15 11.8125 -14.96875 L 11.875 -12.53125 Z M 11.875 -10.796875" transform="translate(291.477 265.536)"/></g></g></g><g fill="#6E00C8"><g><g><path d="M 2.71875 -7.296875 L 2.71875 -5.0625 L 5.625 -5.0625 L 5.625 -3.703125 L 2.71875 -3.703125 L 2.71875 -1.40625 L 6.453125 -1.40625 L 6.453125 0 L 0.90625 0 L 0.90625 -8.703125 L 6.453125 -8.703125 L 6.453125 -7.296875 Z M 2.71875 -7.296875" transform="translate(98.71 298.609)"/></g></g></g><g fill="#6E00C8"><g><g><path d="M 4.5 -4.578125 C 4.34375 -4.753906 4.171875 -4.878906 3.984375 -4.953125 C 3.804688 -5.023438 3.617188 -5.0625 3.421875 -5.0625 C 3.222656 -5.0625 3.039062 -5.023438 2.875 -4.953125 C 2.707031 -4.878906 2.566406 -4.757812 2.453125 -4.59375 C 2.335938 -4.425781 2.242188 -4.21875 2.171875 -3.96875 C 2.109375 -3.71875 2.078125 -3.421875 2.078125 -3.078125 C 2.078125 -2.734375 2.101562 -2.441406 2.15625 -2.203125 C 2.207031 -1.960938 2.28125 -1.765625 2.375 -1.609375 C 2.476562 -1.460938 2.597656 -1.351562 2.734375 -1.28125 C 2.878906 -1.21875 3.035156 -1.1875 3.203125 -1.1875 C 3.492188 -1.1875 3.738281 -1.242188 3.9375 -1.359375 C 4.132812 -1.484375 4.320312 -1.648438 4.5 -1.859375 Z M 6.15625 -8.953125 L 6.15625 0 L 5.140625 0 C 4.929688 0 4.796875 -0.09375 4.734375 -0.28125 L 4.59375 -0.828125 C 4.46875 -0.691406 4.335938 -0.566406 4.203125 -0.453125 C 4.066406 -0.335938 3.914062 -0.238281 3.75 -0.15625 C 3.59375 -0.0820312 3.421875 -0.0234375 3.234375 0.015625 C 3.054688 0.0664062 2.859375 0.09375 2.640625 0.09375 C 2.304688 0.09375 2 0.0234375 1.71875 -0.109375 C 1.445312 -0.253906 1.207031 -0.460938 1 -0.734375 C 0.800781 -1.003906 0.644531 -1.332031 0.53125 -1.71875 C 0.425781 -2.113281 0.375 -2.566406 0.375 -3.078125 C 0.375 -3.535156 0.4375 -3.960938 0.5625 -4.359375 C 0.6875 -4.753906 0.863281 -5.09375 1.09375 -5.375 C 1.332031 -5.664062 1.613281 -5.894531 1.9375 -6.0625 C 2.269531 -6.226562 2.632812 -6.3125 3.03125 -6.3125 C 3.363281 -6.3125 3.644531 -6.257812 3.875 -6.15625 C 4.101562 -6.050781 4.3125 -5.914062 4.5 -5.75 L 4.5 -8.953125 Z M 6.15625 -8.953125" transform="translate(105.598 298.609)"/></g></g></g><g fill="#6E00C8"><g><g><path d="M 6.109375 -6.1875 L 6.109375 0 L 5.09375 0 C 4.882812 0 4.75 -0.09375 4.6875 -0.28125 L 4.578125 -0.71875 C 4.453125 -0.601562 4.320312 -0.492188 4.1875 -0.390625 C 4.0625 -0.285156 3.921875 -0.195312 3.765625 -0.125 C 3.617188 -0.0625 3.457031 -0.0078125 3.28125 0.03125 C 3.113281 0.0703125 2.925781 0.09375 2.71875 0.09375 C 2.382812 0.09375 2.082031 0.0351562 1.8125 -0.078125 C 1.550781 -0.191406 1.332031 -0.351562 1.15625 -0.5625 C 0.988281 -0.769531 0.859375 -1.015625 0.765625 -1.296875 C 0.671875 -1.585938 0.625 -1.90625 0.625 -2.25 L 0.625 -6.1875 L 2.28125 -6.1875 L 2.28125 -2.25 C 2.28125 -1.90625 2.359375 -1.640625 2.515625 -1.453125 C 2.671875 -1.265625 2.90625 -1.171875 3.21875 -1.171875 C 3.445312 -1.171875 3.664062 -1.21875 3.875 -1.3125 C 4.082031 -1.414062 4.273438 -1.554688 4.453125 -1.734375 L 4.453125 -6.1875 Z M 6.109375 -6.1875" transform="translate(112.45 298.609)"/></g></g></g><g fill="#6E00C8"><g><g><path d="M 5.171875 -4.8125 C 5.117188 -4.738281 5.066406 -4.6875 5.015625 -4.65625 C 4.972656 -4.625 4.910156 -4.609375 4.828125 -4.609375 C 4.742188 -4.609375 4.664062 -4.628906 4.59375 -4.671875 C 4.519531 -4.722656 4.429688 -4.773438 4.328125 -4.828125 C 4.234375 -4.878906 4.117188 -4.925781 3.984375 -4.96875 C 3.859375 -5.019531 3.695312 -5.046875 3.5 -5.046875 C 3.25 -5.046875 3.035156 -5 2.859375 -4.90625 C 2.679688 -4.820312 2.53125 -4.691406 2.40625 -4.515625 C 2.28125 -4.347656 2.1875 -4.144531 2.125 -3.90625 C 2.070312 -3.664062 2.046875 -3.398438 2.046875 -3.109375 C 2.046875 -2.472656 2.171875 -1.984375 2.421875 -1.640625 C 2.679688 -1.304688 3.03125 -1.140625 3.46875 -1.140625 C 3.625 -1.140625 3.753906 -1.148438 3.859375 -1.171875 C 3.972656 -1.203125 4.070312 -1.238281 4.15625 -1.28125 C 4.238281 -1.320312 4.304688 -1.363281 4.359375 -1.40625 C 4.421875 -1.457031 4.476562 -1.503906 4.53125 -1.546875 C 4.59375 -1.585938 4.648438 -1.617188 4.703125 -1.640625 C 4.753906 -1.671875 4.816406 -1.6875 4.890625 -1.6875 C 5.015625 -1.6875 5.113281 -1.640625 5.1875 -1.546875 L 5.65625 -0.9375 C 5.476562 -0.738281 5.289062 -0.570312 5.09375 -0.4375 C 4.894531 -0.300781 4.6875 -0.191406 4.46875 -0.109375 C 4.257812 -0.0351562 4.039062 0.015625 3.8125 0.046875 C 3.59375 0.078125 3.378906 0.09375 3.171875 0.09375 C 2.785156 0.09375 2.421875 0.0195312 2.078125 -0.125 C 1.742188 -0.269531 1.445312 -0.476562 1.1875 -0.75 C 0.9375 -1.019531 0.734375 -1.351562 0.578125 -1.75 C 0.429688 -2.144531 0.359375 -2.597656 0.359375 -3.109375 C 0.359375 -3.554688 0.421875 -3.972656 0.546875 -4.359375 C 0.679688 -4.742188 0.878906 -5.078125 1.140625 -5.359375 C 1.398438 -5.648438 1.71875 -5.875 2.09375 -6.03125 C 2.46875 -6.195312 2.90625 -6.28125 3.40625 -6.28125 C 3.875 -6.28125 4.285156 -6.203125 4.640625 -6.046875 C 4.992188 -5.898438 5.316406 -5.679688 5.609375 -5.390625 Z M 5.171875 -4.8125" transform="translate(119.248 298.609)"/></g></g></g><g fill="#6E00C8"><g><g><path d="M 3.921875 -2.59375 C 3.515625 -2.570312 3.175781 -2.535156 2.90625 -2.484375 C 2.644531 -2.429688 2.429688 -2.363281 2.265625 -2.28125 C 2.109375 -2.207031 2 -2.117188 1.9375 -2.015625 C 1.875 -1.910156 1.84375 -1.800781 1.84375 -1.6875 C 1.84375 -1.4375 1.90625 -1.257812 2.03125 -1.15625 C 2.164062 -1.0625 2.351562 -1.015625 2.59375 -1.015625 C 2.875 -1.015625 3.113281 -1.0625 3.3125 -1.15625 C 3.519531 -1.257812 3.722656 -1.414062 3.921875 -1.625 Z M 0.546875 -5.328125 C 0.910156 -5.648438 1.3125 -5.894531 1.75 -6.0625 C 2.1875 -6.226562 2.664062 -6.3125 3.1875 -6.3125 C 3.550781 -6.3125 3.878906 -6.25 4.171875 -6.125 C 4.460938 -6.007812 4.707031 -5.84375 4.90625 -5.625 C 5.101562 -5.40625 5.253906 -5.148438 5.359375 -4.859375 C 5.472656 -4.566406 5.53125 -4.242188 5.53125 -3.890625 L 5.53125 0 L 4.78125 0 C 4.625 0 4.503906 -0.0195312 4.421875 -0.0625 C 4.335938 -0.101562 4.269531 -0.195312 4.21875 -0.34375 L 4.09375 -0.734375 C 3.9375 -0.597656 3.78125 -0.476562 3.625 -0.375 C 3.476562 -0.269531 3.328125 -0.179688 3.171875 -0.109375 C 3.023438 -0.046875 2.859375 0 2.671875 0.03125 C 2.492188 0.0703125 2.296875 0.09375 2.078125 0.09375 C 1.804688 0.09375 1.554688 0.0546875 1.328125 -0.015625 C 1.109375 -0.0859375 0.914062 -0.191406 0.75 -0.328125 C 0.59375 -0.472656 0.46875 -0.648438 0.375 -0.859375 C 0.289062 -1.078125 0.25 -1.320312 0.25 -1.59375 C 0.25 -1.820312 0.304688 -2.050781 0.421875 -2.28125 C 0.535156 -2.507812 0.734375 -2.71875 1.015625 -2.90625 C 1.304688 -3.09375 1.6875 -3.242188 2.15625 -3.359375 C 2.625 -3.484375 3.210938 -3.550781 3.921875 -3.5625 L 3.921875 -3.890625 C 3.921875 -4.273438 3.835938 -4.554688 3.671875 -4.734375 C 3.503906 -4.921875 3.269531 -5.015625 2.96875 -5.015625 C 2.738281 -5.015625 2.546875 -4.988281 2.390625 -4.9375 C 2.242188 -4.882812 2.113281 -4.828125 2 -4.765625 C 1.882812 -4.703125 1.773438 -4.640625 1.671875 -4.578125 C 1.578125 -4.523438 1.460938 -4.5 1.328125 -4.5 C 1.210938 -4.5 1.113281 -4.53125 1.03125 -4.59375 C 0.957031 -4.65625 0.894531 -4.722656 0.84375 -4.796875 Z M 0.546875 -5.328125" transform="translate(125.055 298.609)"/></g></g></g><g fill="#6E00C8"><g><g><path d="M 5.65625 -0.9375 C 5.507812 -0.769531 5.359375 -0.628906 5.203125 -0.515625 C 5.046875 -0.398438 4.878906 -0.300781 4.703125 -0.21875 C 4.535156 -0.132812 4.363281 -0.0703125 4.1875 -0.03125 C 4.007812 0.0078125 3.832031 0.0390625 3.65625 0.0625 L 3.578125 0.34375 C 3.765625 0.382812 3.921875 0.4375 4.046875 0.5 C 4.179688 0.5625 4.285156 0.628906 4.359375 0.703125 C 4.441406 0.773438 4.5 0.859375 4.53125 0.953125 C 4.5625 1.046875 4.578125 1.140625 4.578125 1.234375 C 4.578125 1.378906 4.539062 1.503906 4.46875 1.609375 C 4.394531 1.722656 4.289062 1.816406 4.15625 1.890625 C 4.019531 1.972656 3.859375 2.035156 3.671875 2.078125 C 3.484375 2.117188 3.273438 2.140625 3.046875 2.140625 C 2.890625 2.140625 2.738281 2.128906 2.59375 2.109375 C 2.445312 2.085938 2.304688 2.054688 2.171875 2.015625 L 2.328125 1.515625 C 2.347656 1.421875 2.410156 1.375 2.515625 1.375 C 2.566406 1.375 2.625 1.382812 2.6875 1.40625 C 2.75 1.425781 2.832031 1.4375 2.9375 1.4375 C 3.0625 1.4375 3.148438 1.410156 3.203125 1.359375 C 3.253906 1.316406 3.28125 1.269531 3.28125 1.21875 C 3.28125 1.113281 3.210938 1.035156 3.078125 0.984375 C 2.953125 0.941406 2.738281 0.898438 2.4375 0.859375 L 2.71875 0.046875 C 2.382812 -0.00390625 2.070312 -0.109375 1.78125 -0.265625 C 1.5 -0.429688 1.25 -0.644531 1.03125 -0.90625 C 0.820312 -1.175781 0.65625 -1.492188 0.53125 -1.859375 C 0.414062 -2.234375 0.359375 -2.648438 0.359375 -3.109375 C 0.359375 -3.554688 0.421875 -3.972656 0.546875 -4.359375 C 0.679688 -4.742188 0.878906 -5.078125 1.140625 -5.359375 C 1.398438 -5.648438 1.71875 -5.875 2.09375 -6.03125 C 2.46875 -6.195312 2.90625 -6.28125 3.40625 -6.28125 C 3.875 -6.28125 4.285156 -6.203125 4.640625 -6.046875 C 4.992188 -5.898438 5.316406 -5.679688 5.609375 -5.390625 L 5.171875 -4.8125 C 5.117188 -4.738281 5.066406 -4.6875 5.015625 -4.65625 C 4.972656 -4.625 4.910156 -4.609375 4.828125 -4.609375 C 4.742188 -4.609375 4.664062 -4.628906 4.59375 -4.671875 C 4.519531 -4.722656 4.429688 -4.773438 4.328125 -4.828125 C 4.234375 -4.878906 4.117188 -4.925781 3.984375 -4.96875 C 3.859375 -5.019531 3.695312 -5.046875 3.5 -5.046875 C 3.25 -5.046875 3.035156 -5 2.859375 -4.90625 C 2.679688 -4.820312 2.53125 -4.691406 2.40625 -4.515625 C 2.28125 -4.347656 2.1875 -4.144531 2.125 -3.90625 C 2.070312 -3.664062 2.046875 -3.398438 2.046875 -3.109375 C 2.046875 -2.472656 2.171875 -1.984375 2.421875 -1.640625 C 2.679688 -1.304688 3.03125 -1.140625 3.46875 -1.140625 C 3.625 -1.140625 3.753906 -1.148438 3.859375 -1.171875 C 3.972656 -1.203125 4.070312 -1.238281 4.15625 -1.28125 C 4.238281 -1.320312 4.304688 -1.363281 4.359375 -1.40625 C 4.421875 -1.457031 4.476562 -1.503906 4.53125 -1.546875 C 4.59375 -1.585938 4.648438 -1.617188 4.703125 -1.640625 C 4.753906 -1.671875 4.816406 -1.6875 4.890625 -1.6875 C 5.015625 -1.6875 5.113281 -1.640625 5.1875 -1.546875 Z M 5.65625 -0.9375" transform="translate(131.2 298.609)"/></g></g></g><g fill="#6E00C8"><g><g><path d="M 3.921875 -2.59375 C 3.515625 -2.570312 3.175781 -2.535156 2.90625 -2.484375 C 2.644531 -2.429688 2.429688 -2.363281 2.265625 -2.28125 C 2.109375 -2.207031 2 -2.117188 1.9375 -2.015625 C 1.875 -1.910156 1.84375 -1.800781 1.84375 -1.6875 C 1.84375 -1.4375 1.90625 -1.257812 2.03125 -1.15625 C 2.164062 -1.0625 2.351562 -1.015625 2.59375 -1.015625 C 2.875 -1.015625 3.113281 -1.0625 3.3125 -1.15625 C 3.519531 -1.257812 3.722656 -1.414062 3.921875 -1.625 Z M 0.546875 -5.328125 C 0.910156 -5.648438 1.3125 -5.894531 1.75 -6.0625 C 2.1875 -6.226562 2.664062 -6.3125 3.1875 -6.3125 C 3.550781 -6.3125 3.878906 -6.25 4.171875 -6.125 C 4.460938 -6.007812 4.707031 -5.84375 4.90625 -5.625 C 5.101562 -5.40625 5.253906 -5.148438 5.359375 -4.859375 C 5.472656 -4.566406 5.53125 -4.242188 5.53125 -3.890625 L 5.53125 0 L 4.78125 0 C 4.625 0 4.503906 -0.0195312 4.421875 -0.0625 C 4.335938 -0.101562 4.269531 -0.195312 4.21875 -0.34375 L 4.09375 -0.734375 C 3.9375 -0.597656 3.78125 -0.476562 3.625 -0.375 C 3.476562 -0.269531 3.328125 -0.179688 3.171875 -0.109375 C 3.023438 -0.046875 2.859375 0 2.671875 0.03125 C 2.492188 0.0703125 2.296875 0.09375 2.078125 0.09375 C 1.804688 0.09375 1.554688 0.0546875 1.328125 -0.015625 C 1.109375 -0.0859375 0.914062 -0.191406 0.75 -0.328125 C 0.59375 -0.472656 0.46875 -0.648438 0.375 -0.859375 C 0.289062 -1.078125 0.25 -1.320312 0.25 -1.59375 C 0.25 -1.820312 0.304688 -2.050781 0.421875 -2.28125 C 0.535156 -2.507812 0.734375 -2.71875 1.015625 -2.90625 C 1.304688 -3.09375 1.6875 -3.242188 2.15625 -3.359375 C 2.625 -3.484375 3.210938 -3.550781 3.921875 -3.5625 L 3.921875 -3.890625 C 3.921875 -4.273438 3.835938 -4.554688 3.671875 -4.734375 C 3.503906 -4.921875 3.269531 -5.015625 2.96875 -5.015625 C 2.738281 -5.015625 2.546875 -4.988281 2.390625 -4.9375 C 2.242188 -4.882812 2.113281 -4.828125 2 -4.765625 C 1.882812 -4.703125 1.773438 -4.640625 1.671875 -4.578125 C 1.578125 -4.523438 1.460938 -4.5 1.328125 -4.5 C 1.210938 -4.5 1.113281 -4.53125 1.03125 -4.59375 C 0.957031 -4.65625 0.894531 -4.722656 0.84375 -4.796875 Z M 4.03125 -8.234375 C 4.144531 -8.234375 4.234375 -8.257812 4.296875 -8.3125 C 4.359375 -8.375 4.390625 -8.488281 4.390625 -8.65625 L 5.390625 -8.65625 C 5.390625 -8.414062 5.359375 -8.203125 5.296875 -8.015625 C 5.234375 -7.828125 5.144531 -7.664062 5.03125 -7.53125 C 4.914062 -7.394531 4.773438 -7.289062 4.609375 -7.21875 C 4.453125 -7.144531 4.28125 -7.109375 4.09375 -7.109375 C 3.945312 -7.109375 3.8125 -7.128906 3.6875 -7.171875 C 3.5625 -7.222656 3.441406 -7.273438 3.328125 -7.328125 C 3.222656 -7.390625 3.125 -7.445312 3.03125 -7.5 C 2.9375 -7.550781 2.851562 -7.578125 2.78125 -7.578125 C 2.675781 -7.578125 2.59375 -7.546875 2.53125 -7.484375 C 2.46875 -7.421875 2.4375 -7.304688 2.4375 -7.140625 L 1.421875 -7.140625 C 1.421875 -7.378906 1.453125 -7.59375 1.515625 -7.78125 C 1.585938 -7.96875 1.679688 -8.128906 1.796875 -8.265625 C 1.910156 -8.410156 2.046875 -8.519531 2.203125 -8.59375 C 2.367188 -8.664062 2.539062 -8.703125 2.71875 -8.703125 C 2.863281 -8.703125 3 -8.675781 3.125 -8.625 C 3.257812 -8.582031 3.378906 -8.53125 3.484375 -8.46875 C 3.597656 -8.40625 3.695312 -8.347656 3.78125 -8.296875 C 3.875 -8.253906 3.957031 -8.234375 4.03125 -8.234375 Z M 4.03125 -8.234375" transform="translate(137.02 298.609)"/></g></g></g><g fill="#6E00C8"><g><g><path d="M 3.46875 -6.28125 C 3.9375 -6.28125 4.359375 -6.207031 4.734375 -6.0625 C 5.117188 -5.914062 5.445312 -5.703125 5.71875 -5.421875 C 5.988281 -5.148438 6.195312 -4.816406 6.34375 -4.421875 C 6.488281 -4.035156 6.5625 -3.597656 6.5625 -3.109375 C 6.5625 -2.609375 6.488281 -2.160156 6.34375 -1.765625 C 6.195312 -1.378906 5.988281 -1.046875 5.71875 -0.765625 C 5.445312 -0.492188 5.117188 -0.28125 4.734375 -0.125 C 4.359375 0.0195312 3.9375 0.09375 3.46875 0.09375 C 3 0.09375 2.570312 0.0195312 2.1875 -0.125 C 1.8125 -0.28125 1.488281 -0.492188 1.21875 -0.765625 C 0.945312 -1.046875 0.734375 -1.378906 0.578125 -1.765625 C 0.429688 -2.160156 0.359375 -2.609375 0.359375 -3.109375 C 0.359375 -3.597656 0.429688 -4.035156 0.578125 -4.421875 C 0.734375 -4.816406 0.945312 -5.148438 1.21875 -5.421875 C 1.488281 -5.703125 1.8125 -5.914062 2.1875 -6.0625 C 2.570312 -6.207031 3 -6.28125 3.46875 -6.28125 Z M 3.46875 -1.15625 C 3.945312 -1.15625 4.296875 -1.316406 4.515625 -1.640625 C 4.742188 -1.960938 4.859375 -2.445312 4.859375 -3.09375 C 4.859375 -3.738281 4.742188 -4.222656 4.515625 -4.546875 C 4.296875 -4.867188 3.945312 -5.03125 3.46875 -5.03125 C 2.988281 -5.03125 2.632812 -4.867188 2.40625 -4.546875 C 2.175781 -4.222656 2.0625 -3.738281 2.0625 -3.09375 C 2.0625 -2.445312 2.175781 -1.960938 2.40625 -1.640625 C 2.632812 -1.316406 2.988281 -1.15625 3.46875 -1.15625 Z M 3.46875 -1.15625" transform="translate(143.163 298.609)"/></g></g></g><g fill="#6E00C8"><g><g><path d="M 2.71875 0 L 0.90625 0 L 0.90625 -8.703125 L 2.71875 -8.703125 Z M 2.71875 0" transform="translate(152.943 298.609)"/></g></g></g><g fill="#6E00C8"><g><g><path d="M 2.21875 -5.46875 C 2.34375 -5.582031 2.472656 -5.691406 2.609375 -5.796875 C 2.742188 -5.898438 2.882812 -5.984375 3.03125 -6.046875 C 3.1875 -6.117188 3.347656 -6.175781 3.515625 -6.21875 C 3.691406 -6.257812 3.882812 -6.28125 4.09375 -6.28125 C 4.425781 -6.28125 4.722656 -6.222656 4.984375 -6.109375 C 5.242188 -5.992188 5.460938 -5.832031 5.640625 -5.625 C 5.816406 -5.414062 5.945312 -5.164062 6.03125 -4.875 C 6.125 -4.59375 6.171875 -4.28125 6.171875 -3.9375 L 6.171875 0 L 4.53125 0 L 4.53125 -3.9375 C 4.53125 -4.28125 4.445312 -4.546875 4.28125 -4.734375 C 4.125 -4.921875 3.890625 -5.015625 3.578125 -5.015625 C 3.347656 -5.015625 3.128906 -4.960938 2.921875 -4.859375 C 2.710938 -4.765625 2.519531 -4.628906 2.34375 -4.453125 L 2.34375 0 L 0.6875 0 L 0.6875 -6.1875 L 1.703125 -6.1875 C 1.910156 -6.1875 2.050781 -6.085938 2.125 -5.890625 Z M 2.21875 -5.46875" transform="translate(156.58 298.609)"/></g></g></g><g fill="#6E00C8"><g><g><path d="M 1.140625 0 L 1.140625 -5 L 0.65625 -5.078125 C 0.53125 -5.109375 0.425781 -5.15625 0.34375 -5.21875 C 0.269531 -5.28125 0.234375 -5.367188 0.234375 -5.484375 L 0.234375 -6.15625 L 1.140625 -6.15625 L 1.140625 -6.5625 C 1.140625 -6.914062 1.191406 -7.234375 1.296875 -7.515625 C 1.410156 -7.796875 1.566406 -8.035156 1.765625 -8.234375 C 1.972656 -8.429688 2.222656 -8.582031 2.515625 -8.6875 C 2.816406 -8.800781 3.148438 -8.859375 3.515625 -8.859375 C 3.660156 -8.859375 3.796875 -8.847656 3.921875 -8.828125 C 4.054688 -8.816406 4.191406 -8.789062 4.328125 -8.75 L 4.296875 -7.9375 C 4.285156 -7.8125 4.226562 -7.726562 4.125 -7.6875 C 4.03125 -7.65625 3.921875 -7.640625 3.796875 -7.640625 C 3.628906 -7.640625 3.476562 -7.617188 3.34375 -7.578125 C 3.21875 -7.546875 3.109375 -7.484375 3.015625 -7.390625 C 2.921875 -7.304688 2.847656 -7.191406 2.796875 -7.046875 C 2.753906 -6.898438 2.734375 -6.722656 2.734375 -6.515625 L 2.734375 -6.15625 L 4.265625 -6.15625 L 4.265625 -5 L 2.78125 -5 L 2.78125 0 Z M 1.140625 0" transform="translate(163.383 298.609)"/></g></g></g><g fill="#6E00C8"><g><g><path d="M 3.921875 -2.59375 C 3.515625 -2.570312 3.175781 -2.535156 2.90625 -2.484375 C 2.644531 -2.429688 2.429688 -2.363281 2.265625 -2.28125 C 2.109375 -2.207031 2 -2.117188 1.9375 -2.015625 C 1.875 -1.910156 1.84375 -1.800781 1.84375 -1.6875 C 1.84375 -1.4375 1.90625 -1.257812 2.03125 -1.15625 C 2.164062 -1.0625 2.351562 -1.015625 2.59375 -1.015625 C 2.875 -1.015625 3.113281 -1.0625 3.3125 -1.15625 C 3.519531 -1.257812 3.722656 -1.414062 3.921875 -1.625 Z M 0.546875 -5.328125 C 0.910156 -5.648438 1.3125 -5.894531 1.75 -6.0625 C 2.1875 -6.226562 2.664062 -6.3125 3.1875 -6.3125 C 3.550781 -6.3125 3.878906 -6.25 4.171875 -6.125 C 4.460938 -6.007812 4.707031 -5.84375 4.90625 -5.625 C 5.101562 -5.40625 5.253906 -5.148438 5.359375 -4.859375 C 5.472656 -4.566406 5.53125 -4.242188 5.53125 -3.890625 L 5.53125 0 L 4.78125 0 C 4.625 0 4.503906 -0.0195312 4.421875 -0.0625 C 4.335938 -0.101562 4.269531 -0.195312 4.21875 -0.34375 L 4.09375 -0.734375 C 3.9375 -0.597656 3.78125 -0.476562 3.625 -0.375 C 3.476562 -0.269531 3.328125 -0.179688 3.171875 -0.109375 C 3.023438 -0.046875 2.859375 0 2.671875 0.03125 C 2.492188 0.0703125 2.296875 0.09375 2.078125 0.09375 C 1.804688 0.09375 1.554688 0.0546875 1.328125 -0.015625 C 1.109375 -0.0859375 0.914062 -0.191406 0.75 -0.328125 C 0.59375 -0.472656 0.46875 -0.648438 0.375 -0.859375 C 0.289062 -1.078125 0.25 -1.320312 0.25 -1.59375 C 0.25 -1.820312 0.304688 -2.050781 0.421875 -2.28125 C 0.535156 -2.507812 0.734375 -2.71875 1.015625 -2.90625 C 1.304688 -3.09375 1.6875 -3.242188 2.15625 -3.359375 C 2.625 -3.484375 3.210938 -3.550781 3.921875 -3.5625 L 3.921875 -3.890625 C 3.921875 -4.273438 3.835938 -4.554688 3.671875 -4.734375 C 3.503906 -4.921875 3.269531 -5.015625 2.96875 -5.015625 C 2.738281 -5.015625 2.546875 -4.988281 2.390625 -4.9375 C 2.242188 -4.882812 2.113281 -4.828125 2 -4.765625 C 1.882812 -4.703125 1.773438 -4.640625 1.671875 -4.578125 C 1.578125 -4.523438 1.460938 -4.5 1.328125 -4.5 C 1.210938 -4.5 1.113281 -4.53125 1.03125 -4.59375 C 0.957031 -4.65625 0.894531 -4.722656 0.84375 -4.796875 Z M 0.546875 -5.328125" transform="translate(167.727 298.609)"/></g></g></g><g fill="#6E00C8"><g><g><path d="M 2.21875 -5.46875 C 2.34375 -5.582031 2.472656 -5.691406 2.609375 -5.796875 C 2.742188 -5.898438 2.882812 -5.984375 3.03125 -6.046875 C 3.1875 -6.117188 3.347656 -6.175781 3.515625 -6.21875 C 3.691406 -6.257812 3.882812 -6.28125 4.09375 -6.28125 C 4.425781 -6.28125 4.722656 -6.222656 4.984375 -6.109375 C 5.242188 -5.992188 5.460938 -5.832031 5.640625 -5.625 C 5.816406 -5.414062 5.945312 -5.164062 6.03125 -4.875 C 6.125 -4.59375 6.171875 -4.28125 6.171875 -3.9375 L 6.171875 0 L 4.53125 0 L 4.53125 -3.9375 C 4.53125 -4.28125 4.445312 -4.546875 4.28125 -4.734375 C 4.125 -4.921875 3.890625 -5.015625 3.578125 -5.015625 C 3.347656 -5.015625 3.128906 -4.960938 2.921875 -4.859375 C 2.710938 -4.765625 2.519531 -4.628906 2.34375 -4.453125 L 2.34375 0 L 0.6875 0 L 0.6875 -6.1875 L 1.703125 -6.1875 C 1.910156 -6.1875 2.050781 -6.085938 2.125 -5.890625 Z M 2.21875 -5.46875" transform="translate(173.87 298.609)"/></g></g></g><g fill="#6E00C8"><g><g><path d="M 2.8125 0.09375 C 2.539062 0.09375 2.296875 0.0507812 2.078125 -0.03125 C 1.859375 -0.113281 1.675781 -0.226562 1.53125 -0.375 C 1.382812 -0.53125 1.269531 -0.710938 1.1875 -0.921875 C 1.113281 -1.140625 1.078125 -1.382812 1.078125 -1.65625 L 1.078125 -5 L 0.5 -5 C 0.40625 -5 0.328125 -5.023438 0.265625 -5.078125 C 0.210938 -5.140625 0.1875 -5.222656 0.1875 -5.328125 L 0.1875 -5.984375 L 1.171875 -6.15625 L 1.5 -7.765625 C 1.550781 -7.941406 1.675781 -8.03125 1.875 -8.03125 L 2.734375 -8.03125 L 2.734375 -6.15625 L 4.328125 -6.15625 L 4.328125 -5 L 2.734375 -5 L 2.734375 -1.765625 C 2.734375 -1.597656 2.773438 -1.460938 2.859375 -1.359375 C 2.941406 -1.265625 3.054688 -1.21875 3.203125 -1.21875 C 3.285156 -1.21875 3.351562 -1.222656 3.40625 -1.234375 C 3.46875 -1.253906 3.519531 -1.273438 3.5625 -1.296875 C 3.601562 -1.316406 3.640625 -1.335938 3.671875 -1.359375 C 3.703125 -1.378906 3.738281 -1.390625 3.78125 -1.390625 C 3.820312 -1.390625 3.859375 -1.375 3.890625 -1.34375 C 3.921875 -1.320312 3.953125 -1.285156 3.984375 -1.234375 L 4.484375 -0.453125 C 4.253906 -0.273438 3.992188 -0.140625 3.703125 -0.046875 C 3.421875 0.046875 3.125 0.09375 2.8125 0.09375 Z M 2.8125 0.09375" transform="translate(180.675 298.609)"/></g></g></g><g fill="#6E00C8"><g><g><path d="M 2.390625 -6.1875 L 2.390625 0 L 0.734375 0 L 0.734375 -6.1875 Z M 2.59375 -7.9375 C 2.59375 -7.800781 2.5625 -7.671875 2.5 -7.546875 C 2.445312 -7.429688 2.375 -7.328125 2.28125 -7.234375 C 2.1875 -7.140625 2.078125 -7.066406 1.953125 -7.015625 C 1.828125 -6.960938 1.691406 -6.9375 1.546875 -6.9375 C 1.410156 -6.9375 1.28125 -6.960938 1.15625 -7.015625 C 1.03125 -7.066406 0.921875 -7.140625 0.828125 -7.234375 C 0.742188 -7.328125 0.671875 -7.429688 0.609375 -7.546875 C 0.554688 -7.671875 0.53125 -7.800781 0.53125 -7.9375 C 0.53125 -8.082031 0.554688 -8.210938 0.609375 -8.328125 C 0.671875 -8.453125 0.742188 -8.5625 0.828125 -8.65625 C 0.921875 -8.75 1.03125 -8.820312 1.15625 -8.875 C 1.28125 -8.925781 1.410156 -8.953125 1.546875 -8.953125 C 1.691406 -8.953125 1.828125 -8.925781 1.953125 -8.875 C 2.078125 -8.820312 2.1875 -8.75 2.28125 -8.65625 C 2.375 -8.5625 2.445312 -8.453125 2.5 -8.328125 C 2.5625 -8.210938 2.59375 -8.082031 2.59375 -7.9375 Z M 2.59375 -7.9375" transform="translate(185.205 298.609)"/></g></g></g><g fill="#6E00C8"><g><g><path d="M 2.359375 -8.953125 L 2.359375 0 L 0.703125 0 L 0.703125 -8.953125 Z M 2.359375 -8.953125" transform="translate(188.325 298.609)"/></g></g></g><g fill="#6E00C8"><g><g><path d="M 2.859375 -3.984375 C 2.585938 -3.773438 2.390625 -3.550781 2.265625 -3.3125 C 2.148438 -3.070312 2.09375 -2.820312 2.09375 -2.5625 C 2.09375 -2.351562 2.125 -2.164062 2.1875 -2 C 2.257812 -1.832031 2.351562 -1.6875 2.46875 -1.5625 C 2.59375 -1.445312 2.734375 -1.359375 2.890625 -1.296875 C 3.054688 -1.234375 3.234375 -1.203125 3.421875 -1.203125 C 3.734375 -1.203125 4.019531 -1.242188 4.28125 -1.328125 C 4.550781 -1.421875 4.796875 -1.550781 5.015625 -1.71875 Z M 8.734375 0 L 7.109375 0 C 7.023438 0 6.945312 -0.00390625 6.875 -0.015625 C 6.8125 -0.0234375 6.753906 -0.0390625 6.703125 -0.0625 C 6.648438 -0.0820312 6.597656 -0.113281 6.546875 -0.15625 C 6.492188 -0.195312 6.4375 -0.25 6.375 -0.3125 L 5.890625 -0.828125 C 5.503906 -0.535156 5.078125 -0.304688 4.609375 -0.140625 C 4.148438 0.015625 3.65625 0.09375 3.125 0.09375 C 2.789062 0.09375 2.457031 0.0351562 2.125 -0.078125 C 1.800781 -0.203125 1.507812 -0.367188 1.25 -0.578125 C 1 -0.796875 0.796875 -1.0625 0.640625 -1.375 C 0.484375 -1.6875 0.40625 -2.035156 0.40625 -2.421875 C 0.40625 -2.691406 0.445312 -2.945312 0.53125 -3.1875 C 0.613281 -3.425781 0.726562 -3.644531 0.875 -3.84375 C 1.03125 -4.050781 1.210938 -4.238281 1.421875 -4.40625 C 1.640625 -4.570312 1.875 -4.71875 2.125 -4.84375 C 1.914062 -5.132812 1.765625 -5.421875 1.671875 -5.703125 C 1.585938 -5.984375 1.546875 -6.265625 1.546875 -6.546875 C 1.546875 -6.847656 1.601562 -7.132812 1.71875 -7.40625 C 1.832031 -7.6875 1.992188 -7.925781 2.203125 -8.125 C 2.410156 -8.332031 2.671875 -8.492188 2.984375 -8.609375 C 3.296875 -8.734375 3.648438 -8.796875 4.046875 -8.796875 C 4.410156 -8.796875 4.734375 -8.738281 5.015625 -8.625 C 5.304688 -8.519531 5.550781 -8.375 5.75 -8.1875 C 5.957031 -8.007812 6.117188 -7.800781 6.234375 -7.5625 C 6.347656 -7.332031 6.414062 -7.085938 6.4375 -6.828125 L 5.375 -6.609375 C 5.1875 -6.566406 5.046875 -6.648438 4.953125 -6.859375 C 4.878906 -7.054688 4.769531 -7.222656 4.625 -7.359375 C 4.476562 -7.492188 4.285156 -7.5625 4.046875 -7.5625 C 3.890625 -7.5625 3.75 -7.535156 3.625 -7.484375 C 3.507812 -7.429688 3.410156 -7.359375 3.328125 -7.265625 C 3.242188 -7.171875 3.179688 -7.0625 3.140625 -6.9375 C 3.097656 -6.820312 3.078125 -6.695312 3.078125 -6.5625 C 3.078125 -6.445312 3.085938 -6.335938 3.109375 -6.234375 C 3.140625 -6.128906 3.175781 -6.023438 3.21875 -5.921875 C 3.269531 -5.816406 3.335938 -5.707031 3.421875 -5.59375 C 3.503906 -5.476562 3.609375 -5.359375 3.734375 -5.234375 L 5.96875 -2.890625 C 6.09375 -3.140625 6.191406 -3.394531 6.265625 -3.65625 C 6.335938 -3.925781 6.382812 -4.207031 6.40625 -4.5 C 6.414062 -4.601562 6.445312 -4.679688 6.5 -4.734375 C 6.5625 -4.796875 6.644531 -4.828125 6.75 -4.828125 L 7.78125 -4.828125 C 7.78125 -4.273438 7.703125 -3.753906 7.546875 -3.265625 C 7.398438 -2.773438 7.1875 -2.320312 6.90625 -1.90625 Z M 8.734375 0" transform="translate(194.223 298.609)"/></g></g></g><g fill="#6E00C8"><g><g><path d="M 2.71875 -7.296875 L 2.71875 -4.890625 L 5.859375 -4.890625 L 5.859375 -3.46875 L 2.71875 -3.46875 L 2.71875 0 L 0.90625 0 L 0.90625 -8.703125 L 6.453125 -8.703125 L 6.453125 -7.296875 Z M 2.71875 -7.296875" transform="translate(205.808 298.609)"/></g></g></g><g fill="#6E00C8"><g><g><path d="M 6.109375 -6.1875 L 6.109375 0 L 5.09375 0 C 4.882812 0 4.75 -0.09375 4.6875 -0.28125 L 4.578125 -0.71875 C 4.453125 -0.601562 4.320312 -0.492188 4.1875 -0.390625 C 4.0625 -0.285156 3.921875 -0.195312 3.765625 -0.125 C 3.617188 -0.0625 3.457031 -0.0078125 3.28125 0.03125 C 3.113281 0.0703125 2.925781 0.09375 2.71875 0.09375 C 2.382812 0.09375 2.082031 0.0351562 1.8125 -0.078125 C 1.550781 -0.191406 1.332031 -0.351562 1.15625 -0.5625 C 0.988281 -0.769531 0.859375 -1.015625 0.765625 -1.296875 C 0.671875 -1.585938 0.625 -1.90625 0.625 -2.25 L 0.625 -6.1875 L 2.28125 -6.1875 L 2.28125 -2.25 C 2.28125 -1.90625 2.359375 -1.640625 2.515625 -1.453125 C 2.671875 -1.265625 2.90625 -1.171875 3.21875 -1.171875 C 3.445312 -1.171875 3.664062 -1.21875 3.875 -1.3125 C 4.082031 -1.414062 4.273438 -1.554688 4.453125 -1.734375 L 4.453125 -6.1875 Z M 6.109375 -6.1875" transform="translate(212.6 298.609)"/></g></g></g><g fill="#6E00C8"><g><g><path d="M 2.21875 -5.46875 C 2.34375 -5.582031 2.472656 -5.691406 2.609375 -5.796875 C 2.742188 -5.898438 2.882812 -5.984375 3.03125 -6.046875 C 3.1875 -6.117188 3.347656 -6.175781 3.515625 -6.21875 C 3.691406 -6.257812 3.882812 -6.28125 4.09375 -6.28125 C 4.425781 -6.28125 4.722656 -6.222656 4.984375 -6.109375 C 5.242188 -5.992188 5.460938 -5.832031 5.640625 -5.625 C 5.816406 -5.414062 5.945312 -5.164062 6.03125 -4.875 C 6.125 -4.59375 6.171875 -4.28125 6.171875 -3.9375 L 6.171875 0 L 4.53125 0 L 4.53125 -3.9375 C 4.53125 -4.28125 4.445312 -4.546875 4.28125 -4.734375 C 4.125 -4.921875 3.890625 -5.015625 3.578125 -5.015625 C 3.347656 -5.015625 3.128906 -4.960938 2.921875 -4.859375 C 2.710938 -4.765625 2.519531 -4.628906 2.34375 -4.453125 L 2.34375 0 L 0.6875 0 L 0.6875 -6.1875 L 1.703125 -6.1875 C 1.910156 -6.1875 2.050781 -6.085938 2.125 -5.890625 Z M 2.21875 -5.46875" transform="translate(219.398 298.609)"/></g></g></g><g fill="#6E00C8"><g><g><path d="M 4.5 -4.578125 C 4.34375 -4.753906 4.171875 -4.878906 3.984375 -4.953125 C 3.804688 -5.023438 3.617188 -5.0625 3.421875 -5.0625 C 3.222656 -5.0625 3.039062 -5.023438 2.875 -4.953125 C 2.707031 -4.878906 2.566406 -4.757812 2.453125 -4.59375 C 2.335938 -4.425781 2.242188 -4.21875 2.171875 -3.96875 C 2.109375 -3.71875 2.078125 -3.421875 2.078125 -3.078125 C 2.078125 -2.734375 2.101562 -2.441406 2.15625 -2.203125 C 2.207031 -1.960938 2.28125 -1.765625 2.375 -1.609375 C 2.476562 -1.460938 2.597656 -1.351562 2.734375 -1.28125 C 2.878906 -1.21875 3.035156 -1.1875 3.203125 -1.1875 C 3.492188 -1.1875 3.738281 -1.242188 3.9375 -1.359375 C 4.132812 -1.484375 4.320312 -1.648438 4.5 -1.859375 Z M 6.15625 -8.953125 L 6.15625 0 L 5.140625 0 C 4.929688 0 4.796875 -0.09375 4.734375 -0.28125 L 4.59375 -0.828125 C 4.46875 -0.691406 4.335938 -0.566406 4.203125 -0.453125 C 4.066406 -0.335938 3.914062 -0.238281 3.75 -0.15625 C 3.59375 -0.0820312 3.421875 -0.0234375 3.234375 0.015625 C 3.054688 0.0664062 2.859375 0.09375 2.640625 0.09375 C 2.304688 0.09375 2 0.0234375 1.71875 -0.109375 C 1.445312 -0.253906 1.207031 -0.460938 1 -0.734375 C 0.800781 -1.003906 0.644531 -1.332031 0.53125 -1.71875 C 0.425781 -2.113281 0.375 -2.566406 0.375 -3.078125 C 0.375 -3.535156 0.4375 -3.960938 0.5625 -4.359375 C 0.6875 -4.753906 0.863281 -5.09375 1.09375 -5.375 C 1.332031 -5.664062 1.613281 -5.894531 1.9375 -6.0625 C 2.269531 -6.226562 2.632812 -6.3125 3.03125 -6.3125 C 3.363281 -6.3125 3.644531 -6.257812 3.875 -6.15625 C 4.101562 -6.050781 4.3125 -5.914062 4.5 -5.75 L 4.5 -8.953125 Z M 6.15625 -8.953125" transform="translate(226.202 298.609)"/></g></g></g><g fill="#6E00C8"><g><g><path d="M 3.921875 -2.59375 C 3.515625 -2.570312 3.175781 -2.535156 2.90625 -2.484375 C 2.644531 -2.429688 2.429688 -2.363281 2.265625 -2.28125 C 2.109375 -2.207031 2 -2.117188 1.9375 -2.015625 C 1.875 -1.910156 1.84375 -1.800781 1.84375 -1.6875 C 1.84375 -1.4375 1.90625 -1.257812 2.03125 -1.15625 C 2.164062 -1.0625 2.351562 -1.015625 2.59375 -1.015625 C 2.875 -1.015625 3.113281 -1.0625 3.3125 -1.15625 C 3.519531 -1.257812 3.722656 -1.414062 3.921875 -1.625 Z M 0.546875 -5.328125 C 0.910156 -5.648438 1.3125 -5.894531 1.75 -6.0625 C 2.1875 -6.226562 2.664062 -6.3125 3.1875 -6.3125 C 3.550781 -6.3125 3.878906 -6.25 4.171875 -6.125 C 4.460938 -6.007812 4.707031 -5.84375 4.90625 -5.625 C 5.101562 -5.40625 5.253906 -5.148438 5.359375 -4.859375 C 5.472656 -4.566406 5.53125 -4.242188 5.53125 -3.890625 L 5.53125 0 L 4.78125 0 C 4.625 0 4.503906 -0.0195312 4.421875 -0.0625 C 4.335938 -0.101562 4.269531 -0.195312 4.21875 -0.34375 L 4.09375 -0.734375 C 3.9375 -0.597656 3.78125 -0.476562 3.625 -0.375 C 3.476562 -0.269531 3.328125 -0.179688 3.171875 -0.109375 C 3.023438 -0.046875 2.859375 0 2.671875 0.03125 C 2.492188 0.0703125 2.296875 0.09375 2.078125 0.09375 C 1.804688 0.09375 1.554688 0.0546875 1.328125 -0.015625 C 1.109375 -0.0859375 0.914062 -0.191406 0.75 -0.328125 C 0.59375 -0.472656 0.46875 -0.648438 0.375 -0.859375 C 0.289062 -1.078125 0.25 -1.320312 0.25 -1.59375 C 0.25 -1.820312 0.304688 -2.050781 0.421875 -2.28125 C 0.535156 -2.507812 0.734375 -2.71875 1.015625 -2.90625 C 1.304688 -3.09375 1.6875 -3.242188 2.15625 -3.359375 C 2.625 -3.484375 3.210938 -3.550781 3.921875 -3.5625 L 3.921875 -3.890625 C 3.921875 -4.273438 3.835938 -4.554688 3.671875 -4.734375 C 3.503906 -4.921875 3.269531 -5.015625 2.96875 -5.015625 C 2.738281 -5.015625 2.546875 -4.988281 2.390625 -4.9375 C 2.242188 -4.882812 2.113281 -4.828125 2 -4.765625 C 1.882812 -4.703125 1.773438 -4.640625 1.671875 -4.578125 C 1.578125 -4.523438 1.460938 -4.5 1.328125 -4.5 C 1.210938 -4.5 1.113281 -4.53125 1.03125 -4.59375 C 0.957031 -4.65625 0.894531 -4.722656 0.84375 -4.796875 Z M 0.546875 -5.328125" transform="translate(233.054 298.609)"/></g></g></g><g fill="#6E00C8"><g><g><path d="M 0.6875 0 L 0.6875 -6.1875 L 1.703125 -6.1875 C 1.910156 -6.1875 2.050781 -6.085938 2.125 -5.890625 L 2.21875 -5.5 C 2.320312 -5.601562 2.429688 -5.703125 2.546875 -5.796875 C 2.660156 -5.898438 2.78125 -5.984375 2.90625 -6.046875 C 3.039062 -6.117188 3.1875 -6.175781 3.34375 -6.21875 C 3.5 -6.257812 3.664062 -6.28125 3.84375 -6.28125 C 4.226562 -6.28125 4.539062 -6.175781 4.78125 -5.96875 C 5.03125 -5.769531 5.222656 -5.503906 5.359375 -5.171875 C 5.453125 -5.367188 5.570312 -5.535156 5.71875 -5.671875 C 5.863281 -5.816406 6.023438 -5.929688 6.203125 -6.015625 C 6.378906 -6.109375 6.5625 -6.175781 6.75 -6.21875 C 6.945312 -6.257812 7.144531 -6.28125 7.34375 -6.28125 C 7.6875 -6.28125 7.988281 -6.226562 8.25 -6.125 C 8.519531 -6.019531 8.742188 -5.863281 8.921875 -5.65625 C 9.109375 -5.457031 9.25 -5.210938 9.34375 -4.921875 C 9.445312 -4.628906 9.5 -4.300781 9.5 -3.9375 L 9.5 0 L 7.84375 0 L 7.84375 -3.9375 C 7.84375 -4.65625 7.53125 -5.015625 6.90625 -5.015625 C 6.769531 -5.015625 6.640625 -4.988281 6.515625 -4.9375 C 6.398438 -4.894531 6.296875 -4.828125 6.203125 -4.734375 C 6.117188 -4.648438 6.050781 -4.535156 6 -4.390625 C 5.945312 -4.253906 5.921875 -4.101562 5.921875 -3.9375 L 5.921875 0 L 4.265625 0 L 4.265625 -3.9375 C 4.265625 -4.320312 4.1875 -4.597656 4.03125 -4.765625 C 3.882812 -4.929688 3.660156 -5.015625 3.359375 -5.015625 C 3.171875 -5.015625 2.988281 -4.96875 2.8125 -4.875 C 2.644531 -4.789062 2.488281 -4.664062 2.34375 -4.5 L 2.34375 0 Z M 0.6875 0" transform="translate(239.198 298.609)"/></g></g></g><g fill="#6E00C8"><g><g><path d="M 4.609375 -3.828125 C 4.609375 -3.992188 4.582031 -4.15625 4.53125 -4.3125 C 4.488281 -4.46875 4.414062 -4.601562 4.3125 -4.71875 C 4.21875 -4.84375 4.09375 -4.941406 3.9375 -5.015625 C 3.789062 -5.085938 3.609375 -5.125 3.390625 -5.125 C 2.992188 -5.125 2.679688 -5.007812 2.453125 -4.78125 C 2.234375 -4.5625 2.09375 -4.242188 2.03125 -3.828125 Z M 2 -2.84375 C 2.050781 -2.257812 2.21875 -1.832031 2.5 -1.5625 C 2.78125 -1.289062 3.144531 -1.15625 3.59375 -1.15625 C 3.820312 -1.15625 4.015625 -1.179688 4.171875 -1.234375 C 4.335938 -1.296875 4.484375 -1.359375 4.609375 -1.421875 C 4.742188 -1.492188 4.859375 -1.554688 4.953125 -1.609375 C 5.054688 -1.660156 5.160156 -1.6875 5.265625 -1.6875 C 5.390625 -1.6875 5.488281 -1.640625 5.5625 -1.546875 L 6.046875 -0.9375 C 5.867188 -0.738281 5.671875 -0.570312 5.453125 -0.4375 C 5.242188 -0.300781 5.023438 -0.191406 4.796875 -0.109375 C 4.566406 -0.0351562 4.335938 0.015625 4.109375 0.046875 C 3.878906 0.078125 3.65625 0.09375 3.4375 0.09375 C 3.007812 0.09375 2.609375 0.0195312 2.234375 -0.125 C 1.859375 -0.269531 1.53125 -0.476562 1.25 -0.75 C 0.96875 -1.03125 0.75 -1.375 0.59375 -1.78125 C 0.4375 -2.195312 0.359375 -2.675781 0.359375 -3.21875 C 0.359375 -3.644531 0.425781 -4.039062 0.5625 -4.40625 C 0.695312 -4.78125 0.894531 -5.101562 1.15625 -5.375 C 1.414062 -5.65625 1.726562 -5.875 2.09375 -6.03125 C 2.46875 -6.195312 2.890625 -6.28125 3.359375 -6.28125 C 3.753906 -6.28125 4.117188 -6.21875 4.453125 -6.09375 C 4.796875 -5.96875 5.085938 -5.785156 5.328125 -5.546875 C 5.566406 -5.304688 5.753906 -5.007812 5.890625 -4.65625 C 6.023438 -4.3125 6.09375 -3.914062 6.09375 -3.46875 C 6.09375 -3.34375 6.082031 -3.238281 6.0625 -3.15625 C 6.050781 -3.070312 6.03125 -3.003906 6 -2.953125 C 5.976562 -2.910156 5.941406 -2.878906 5.890625 -2.859375 C 5.847656 -2.847656 5.789062 -2.84375 5.71875 -2.84375 Z M 2 -2.84375" transform="translate(249.32 298.609)"/></g></g></g><g fill="#6E00C8"><g><g><path d="M 2.21875 -5.46875 C 2.34375 -5.582031 2.472656 -5.691406 2.609375 -5.796875 C 2.742188 -5.898438 2.882812 -5.984375 3.03125 -6.046875 C 3.1875 -6.117188 3.347656 -6.175781 3.515625 -6.21875 C 3.691406 -6.257812 3.882812 -6.28125 4.09375 -6.28125 C 4.425781 -6.28125 4.722656 -6.222656 4.984375 -6.109375 C 5.242188 -5.992188 5.460938 -5.832031 5.640625 -5.625 C 5.816406 -5.414062 5.945312 -5.164062 6.03125 -4.875 C 6.125 -4.59375 6.171875 -4.28125 6.171875 -3.9375 L 6.171875 0 L 4.53125 0 L 4.53125 -3.9375 C 4.53125 -4.28125 4.445312 -4.546875 4.28125 -4.734375 C 4.125 -4.921875 3.890625 -5.015625 3.578125 -5.015625 C 3.347656 -5.015625 3.128906 -4.960938 2.921875 -4.859375 C 2.710938 -4.765625 2.519531 -4.628906 2.34375 -4.453125 L 2.34375 0 L 0.6875 0 L 0.6875 -6.1875 L 1.703125 -6.1875 C 1.910156 -6.1875 2.050781 -6.085938 2.125 -5.890625 Z M 2.21875 -5.46875" transform="translate(255.752 298.609)"/></g></g></g><g fill="#6E00C8"><g><g><path d="M 2.8125 0.09375 C 2.539062 0.09375 2.296875 0.0507812 2.078125 -0.03125 C 1.859375 -0.113281 1.675781 -0.226562 1.53125 -0.375 C 1.382812 -0.53125 1.269531 -0.710938 1.1875 -0.921875 C 1.113281 -1.140625 1.078125 -1.382812 1.078125 -1.65625 L 1.078125 -5 L 0.5 -5 C 0.40625 -5 0.328125 -5.023438 0.265625 -5.078125 C 0.210938 -5.140625 0.1875 -5.222656 0.1875 -5.328125 L 0.1875 -5.984375 L 1.171875 -6.15625 L 1.5 -7.765625 C 1.550781 -7.941406 1.675781 -8.03125 1.875 -8.03125 L 2.734375 -8.03125 L 2.734375 -6.15625 L 4.328125 -6.15625 L 4.328125 -5 L 2.734375 -5 L 2.734375 -1.765625 C 2.734375 -1.597656 2.773438 -1.460938 2.859375 -1.359375 C 2.941406 -1.265625 3.054688 -1.21875 3.203125 -1.21875 C 3.285156 -1.21875 3.351562 -1.222656 3.40625 -1.234375 C 3.46875 -1.253906 3.519531 -1.273438 3.5625 -1.296875 C 3.601562 -1.316406 3.640625 -1.335938 3.671875 -1.359375 C 3.703125 -1.378906 3.738281 -1.390625 3.78125 -1.390625 C 3.820312 -1.390625 3.859375 -1.375 3.890625 -1.34375 C 3.921875 -1.320312 3.953125 -1.285156 3.984375 -1.234375 L 4.484375 -0.453125 C 4.253906 -0.273438 3.992188 -0.140625 3.703125 -0.046875 C 3.421875 0.046875 3.125 0.09375 2.8125 0.09375 Z M 2.8125 0.09375" transform="translate(262.556 298.609)"/></g></g></g><g fill="#6E00C8"><g><g><path d="M 3.921875 -2.59375 C 3.515625 -2.570312 3.175781 -2.535156 2.90625 -2.484375 C 2.644531 -2.429688 2.429688 -2.363281 2.265625 -2.28125 C 2.109375 -2.207031 2 -2.117188 1.9375 -2.015625 C 1.875 -1.910156 1.84375 -1.800781 1.84375 -1.6875 C 1.84375 -1.4375 1.90625 -1.257812 2.03125 -1.15625 C 2.164062 -1.0625 2.351562 -1.015625 2.59375 -1.015625 C 2.875 -1.015625 3.113281 -1.0625 3.3125 -1.15625 C 3.519531 -1.257812 3.722656 -1.414062 3.921875 -1.625 Z M 0.546875 -5.328125 C 0.910156 -5.648438 1.3125 -5.894531 1.75 -6.0625 C 2.1875 -6.226562 2.664062 -6.3125 3.1875 -6.3125 C 3.550781 -6.3125 3.878906 -6.25 4.171875 -6.125 C 4.460938 -6.007812 4.707031 -5.84375 4.90625 -5.625 C 5.101562 -5.40625 5.253906 -5.148438 5.359375 -4.859375 C 5.472656 -4.566406 5.53125 -4.242188 5.53125 -3.890625 L 5.53125 0 L 4.78125 0 C 4.625 0 4.503906 -0.0195312 4.421875 -0.0625 C 4.335938 -0.101562 4.269531 -0.195312 4.21875 -0.34375 L 4.09375 -0.734375 C 3.9375 -0.597656 3.78125 -0.476562 3.625 -0.375 C 3.476562 -0.269531 3.328125 -0.179688 3.171875 -0.109375 C 3.023438 -0.046875 2.859375 0 2.671875 0.03125 C 2.492188 0.0703125 2.296875 0.09375 2.078125 0.09375 C 1.804688 0.09375 1.554688 0.0546875 1.328125 -0.015625 C 1.109375 -0.0859375 0.914062 -0.191406 0.75 -0.328125 C 0.59375 -0.472656 0.46875 -0.648438 0.375 -0.859375 C 0.289062 -1.078125 0.25 -1.320312 0.25 -1.59375 C 0.25 -1.820312 0.304688 -2.050781 0.421875 -2.28125 C 0.535156 -2.507812 0.734375 -2.71875 1.015625 -2.90625 C 1.304688 -3.09375 1.6875 -3.242188 2.15625 -3.359375 C 2.625 -3.484375 3.210938 -3.550781 3.921875 -3.5625 L 3.921875 -3.890625 C 3.921875 -4.273438 3.835938 -4.554688 3.671875 -4.734375 C 3.503906 -4.921875 3.269531 -5.015625 2.96875 -5.015625 C 2.738281 -5.015625 2.546875 -4.988281 2.390625 -4.9375 C 2.242188 -4.882812 2.113281 -4.828125 2 -4.765625 C 1.882812 -4.703125 1.773438 -4.640625 1.671875 -4.578125 C 1.578125 -4.523438 1.460938 -4.5 1.328125 -4.5 C 1.210938 -4.5 1.113281 -4.53125 1.03125 -4.59375 C 0.957031 -4.65625 0.894531 -4.722656 0.84375 -4.796875 Z M 0.546875 -5.328125" transform="translate(267.086 298.609)"/></g></g></g><g fill="#6E00C8"><g><g><path d="M 2.359375 -8.953125 L 2.359375 0 L 0.703125 0 L 0.703125 -8.953125 Z M 2.359375 -8.953125" transform="translate(273.23 298.609)"/></g></g></g><g clip-path="url(#a)"><path fill="#FF9100" d="M 185.082031 107.402344 C 182.308594 105.847656 177.304688 103.917969 171.429688 105.675781 C 162.417969 108.375 146.890625 118.777344 136.152344 112.804688 L 136.152344 166.734375 C 146.890625 172.707031 162.417969 162.304688 171.425781 159.609375 C 180.4375 156.914062 183.015625 161.769531 183.015625 161.769531 L 185.082031 160.816406 L 185.082031 107.402344"/></g><g clip-path="url(#b)"><path fill="#FF9100" d="M 203.371094 105.675781 C 196.667969 103.671875 191.101562 106.460938 188.6875 108.023438 L 188.6875 160.335938 L 191.785156 161.769531 C 191.785156 161.769531 194.359375 156.914062 203.371094 159.605469 C 212.382812 162.304688 227.910156 172.707031 238.644531 166.734375 L 238.644531 112.804688 C 227.910156 118.777344 212.382812 108.375 203.371094 105.675781"/></g><g clip-path="url(#c)"><path fill="#FF9100" d="M 242.949219 123.21875 L 242.949219 172.113281 C 231.308594 178.585938 214.480469 167.308594 204.710938 164.386719 C 194.945312 161.464844 192.152344 166.730469 192.152344 166.730469 L 187.398438 164.53125 L 182.648438 166.730469 C 182.648438 166.730469 179.851562 161.464844 170.085938 164.386719 C 160.316406 167.308594 143.488281 178.585938 131.847656 172.113281 L 131.847656 123.21875 C 129.980469 122.894531 128.179688 122.296875 126.480469 121.351562 L 126.480469 179.050781 C 139.238281 186.144531 157.699219 173.785156 168.414062 170.574219 C 174.40625 168.78125 178.007812 169.804688 180.015625 171.046875 C 180.03125 172.847656 183.332031 174.304688 187.402344 174.304688 C 191.46875 174.304688 194.773438 172.847656 194.785156 171.046875 C 196.792969 169.804688 200.394531 168.78125 206.390625 170.574219 C 217.097656 173.785156 235.558594 186.144531 248.324219 179.050781 L 248.324219 121.351562 C 246.625 122.296875 244.820312 122.894531 242.953125 123.21875"/></g><g clip-path="url(#d)"><path fill="#FF7948" d="M 187.601562 73.839844 C 187.601562 81.089844 181.722656 86.964844 174.476562 86.964844 C 181.722656 86.964844 187.601562 92.84375 187.601562 100.089844 C 187.601562 92.84375 193.476562 86.964844 200.722656 86.964844 C 193.476562 86.964844 187.601562 81.089844 187.601562 73.839844 Z M 187.601562 73.839844"/></g><g clip-path="url(#e)"><g clip-path="url(#f)"><g clip-path="url(#g)"><path fill="#FF7948" d="M 166.261719 86.28125 C 166.644531 90.613281 163.445312 94.4375 159.113281 94.824219 C 163.445312 94.4375 167.269531 97.636719 167.652344 101.96875 C 167.269531 97.636719 170.46875 93.816406 174.800781 93.429688 C 170.46875 93.816406 166.644531 90.613281 166.261719 86.28125 Z M 166.261719 86.28125"/></g></g></g><g clip-path="url(#h)"><g clip-path="url(#i)"><g clip-path="url(#j)"><path fill="#FF7948" d="M 209.074219 86.308594 C 208.71875 90.640625 204.917969 93.867188 200.582031 93.511719 C 204.917969 93.867188 208.144531 97.671875 207.785156 102.003906 C 208.144531 97.671875 211.945312 94.445312 216.28125 94.800781 C 211.945312 94.445312 208.71875 90.644531 209.074219 86.308594 Z M 209.074219 86.308594"/></g></g></g></svg>