<svg xmlns="http://www.w3.org/2000/svg" width="375" viewBox="0 0 375 375" height="375" version="1.0"><defs><clipPath id="a"><path d="M 110.199219 50.386719 L 205 50.386719 L 205 114 L 110.199219 114 Z M 110.199219 50.386719"/></clipPath><clipPath id="b"><path d="M 110.199219 91 L 182 91 L 182 168 L 110.199219 168 Z M 110.199219 91"/></clipPath><clipPath id="c"><path d="M 161 114 L 217 114 L 217 168.886719 L 161 168.886719 Z M 161 114"/></clipPath><clipPath id="d"><path d="M 182 50.386719 L 264.699219 50.386719 L 264.699219 137 L 182 137 Z M 182 50.386719"/></clipPath></defs><path fill="#FFF" d="M-37.5 -37.5H412.5V412.5H-37.5z"/><path fill="#FFF" d="M-37.5 -37.5H412.5V412.5H-37.5z"/><g clip-path="url(#a)"><path fill="#EF8535" d="M 181.214844 113.160156 C 181.214844 102.359375 180.785156 91.507812 181.167969 80.726562 C 181.167969 80.488281 181.265625 80.320312 181.382812 80.175781 C 181.359375 80.125 181.335938 80.101562 181.289062 80.054688 C 181.046875 79.71875 181.550781 79.378906 181.839844 79.644531 C 181.914062 79.71875 181.984375 79.765625 182.058594 79.835938 C 182.488281 79.835938 182.921875 80.101562 182.992188 80.632812 C 186.929688 83.878906 191.949219 86.597656 197.207031 85.417969 C 202.347656 84.265625 204.222656 78.921875 204.050781 74.183594 C 203.859375 68.527344 200.59375 61.191406 193.847656 62.34375 C 190.125 62.972656 187.125 65.808594 183.425781 66.675781 C 182.34375 66.917969 181.863281 65.425781 182.730469 64.992188 C 182.730469 64.96875 182.703125 64.945312 182.703125 64.917969 C 181.550781 60.492188 182.175781 55.152344 182.226562 50.605469 L 181.242188 50.675781 C 165.558594 51.734375 153.121094 56.042969 143.347656 62.03125 L 143.082031 62.199219 L 143.058594 62.199219 L 142.386719 62.632812 C 128.988281 71.175781 120.726562 82.964844 115.972656 93.9375 L 115.902344 94.25 L 115.902344 94.082031 L 115.828125 94.25 C 112.851562 101.226562 111.265625 107.867188 110.691406 113.113281 C 117.917969 112.96875 125.195312 112.800781 132.324219 113.28125 C 128.339844 111.140625 125.9375 106.183594 126.347656 101.734375 C 126.921875 95.597656 131.84375 91.195312 137.753906 90.425781 C 143.613281 89.65625 151.511719 90.59375 155.042969 96.03125 C 158.621094 101.515625 156.003906 107.820312 152.738281 112.800781 C 162.246094 113.621094 171.660156 113.621094 181.214844 113.1875 Z M 181.214844 113.160156" fill-rule="evenodd"/></g><g clip-path="url(#b)"><path fill="#6E00C8" d="M 181.191406 115.328125 C 171.347656 115.832031 161.332031 116.242188 151.609375 114.390625 C 150.910156 115.207031 149.421875 114.339844 150.09375 113.402344 C 153.265625 108.953125 156.9375 102.839844 153.867188 97.355469 C 151.417969 92.949219 145.605469 91.941406 141.042969 91.941406 C 135.304688 91.964844 129.78125 94.394531 128.292969 100.457031 C 126.851562 106.375 130.71875 110.515625 135.304688 113.425781 C 135.757812 113.691406 135.449219 114.316406 134.96875 114.222656 C 134.871094 114.195312 134.773438 114.171875 134.679688 114.148438 C 134.726562 114.605469 134.464844 115.0625 133.863281 115.109375 C 126.15625 115.761719 118.253906 115.617188 110.425781 115.472656 C 110.378906 116.21875 110.355469 116.914062 110.355469 117.566406 C 110.355469 133.445312 118.445312 142.734375 126.464844 148.265625 C 127.59375 149.035156 128.699219 149.734375 129.804688 150.382812 L 129.828125 150.722656 C 129.972656 151.925781 130.71875 156.277344 133.839844 160.25 C 135.449219 162.292969 137.703125 164.242188 140.851562 165.589844 C 143.035156 166.527344 145.628906 167.179688 148.75 167.394531 C 149.472656 167.445312 150.214844 167.492188 151.007812 167.492188 C 153.074219 167.492188 154.851562 167.417969 156.363281 167.273438 C 158.597656 167.058594 160.277344 166.722656 161.574219 166.3125 C 160.203125 164.386719 159.582031 161.933594 159.699219 158.972656 C 159.941406 152.71875 161.8125 145.523438 168.058594 142.707031 C 172.859375 140.542969 177.324219 142.734375 181.097656 145.714844 C 180.6875 135.636719 181.097656 125.433594 181.144531 115.351562 Z M 181.191406 115.328125" fill-rule="evenodd"/></g><g clip-path="url(#c)"><path fill="#EF8535" d="M 183.210938 115.230469 C 183.210938 125.746094 183.425781 136.429688 182.585938 146.917969 C 182.875 147.160156 183.136719 147.402344 183.402344 147.640625 C 184.265625 148.433594 182.992188 149.636719 182.128906 148.917969 C 181.914062 148.722656 181.695312 148.554688 181.457031 148.363281 C 181.457031 148.363281 181.433594 148.339844 181.433594 148.339844 C 176.894531 144.65625 171.300781 141.3125 166.136719 146.292969 C 162.628906 149.664062 161.621094 154.980469 161.597656 159.671875 C 161.597656 162.199219 162.292969 164.148438 163.445312 165.589844 C 167.457031 163.59375 165.824219 161.019531 171.730469 163.304688 L 171.921875 168.863281 L 174.179688 168.863281 C 176.4375 168.574219 178.695312 167.902344 180.617188 166.890625 C 181.746094 163.0625 184.457031 154.570312 187.941406 149.109375 C 190.054688 145.789062 192.453125 143.574219 194.953125 144.199219 C 196.898438 144.683594 198.867188 144.945312 200.761719 144.996094 C 201.484375 145.019531 202.179688 144.996094 202.851562 144.945312 C 207.796875 144.5625 211.738281 142.394531 212 138.042969 C 212 138.042969 213.898438 137.921875 216.082031 137.199219 C 213.875 136.261719 211.929688 134.890625 210.632812 132.941406 C 206.308594 126.539062 214.472656 121.246094 213.152344 114.917969 C 212.601562 114.992188 212 114.871094 211.234375 114.820312 C 208.472656 114.652344 205.734375 114.535156 202.972656 114.507812 C 197.160156 114.484375 191.375 114.773438 185.5625 115.085938 C 184.792969 115.136719 184 115.160156 183.234375 115.207031 Z M 183.210938 115.230469" fill-rule="evenodd"/></g><g clip-path="url(#d)"><path fill="#6E00C8" d="M 198.816406 112.441406 C 201.292969 112.417969 203.789062 112.417969 206.261719 112.511719 C 207.414062 112.535156 211.015625 113.28125 212.625 113.019531 C 212.648438 112.992188 212.648438 112.96875 212.671875 112.945312 C 212.746094 112.875 212.792969 112.824219 212.839844 112.753906 C 213.175781 112.390625 213.730469 112.441406 214.089844 112.753906 C 214.1875 112.824219 214.28125 112.898438 214.355469 112.992188 C 214.738281 113.332031 214.714844 114.003906 214.355469 114.339844 C 214.332031 114.363281 214.304688 114.390625 214.257812 114.414062 C 214.28125 114.460938 214.28125 114.507812 214.304688 114.558594 C 215.265625 117.421875 214.449219 119.875 213.082031 122.667969 C 211.519531 125.867188 210.03125 129.164062 212.410156 132.363281 C 213.875 134.3125 216.226562 135.417969 218.507812 136.140625 C 221.054688 134.695312 223.238281 132.21875 222.496094 127.910156 C 222.496094 127.910156 223.238281 127.71875 224.246094 127.285156 C 226.984375 126.128906 231.714844 123.21875 229.675781 117.515625 L 229.625 117.371094 C 229.625 117.371094 231.425781 117.277344 234.1875 116.890625 C 233.804688 116.363281 233.421875 115.832031 233.058594 115.304688 C 232.507812 114.558594 233.371094 113.835938 234.09375 114.003906 C 234.214844 113.8125 234.40625 113.667969 234.691406 113.667969 C 239.328125 113.402344 243.984375 113.332031 248.621094 113.378906 C 256.378906 110.417969 263.726562 105.367188 264.347656 96.703125 C 264.445312 95.40625 264.46875 94.058594 264.398438 92.6875 C 263.988281 83.328125 259.714844 72.59375 247.996094 64.292969 C 247.300781 63.8125 246.605469 63.332031 245.859375 62.851562 C 239.734375 58.953125 231.789062 55.679688 221.628906 53.46875 C 216.5625 52.359375 210.921875 51.519531 204.675781 50.988281 C 200.019531 50.605469 195.046875 50.386719 189.691406 50.363281 L 184.890625 50.433594 C 184.625 50.433594 184.339844 50.460938 184.074219 50.460938 C 184.074219 50.53125 184.074219 50.605469 184.074219 50.675781 C 184.050781 55.078125 184.699219 60.253906 183.640625 64.632812 C 189.210938 62.945312 193.941406 57.941406 199.898438 61.695312 C 204.699219 64.726562 206.238281 71.320312 205.683594 76.660156 C 204.414062 89.078125 190.316406 89.847656 182.992188 82.269531 C 183.496094 92.492188 183.210938 102.816406 183.160156 113.042969 C 188.347656 112.777344 193.558594 112.488281 198.746094 112.417969 Z M 198.816406 112.441406" fill-rule="evenodd"/></g><g fill="#6E00C8"><g><g><path d="M 1.980469 -5.703125 C 1.980469 -1.980469 3.960938 0 7.683594 0 L 12.117188 0 C 15.839844 0 17.820312 -1.980469 17.820312 -5.703125 L 17.820312 -25.976562 C 17.820312 -29.699219 15.839844 -31.679688 12.117188 -31.679688 L 7.683594 -31.679688 C 3.960938 -31.679688 1.980469 -29.699219 1.980469 -25.976562 Z M 8.832031 -5.109375 C 7.800781 -5.109375 7.246094 -5.625 7.246094 -6.691406 L 7.246094 -24.988281 C 7.246094 -26.015625 7.800781 -26.570312 8.832031 -26.570312 L 11.128906 -26.570312 C 12.15625 -26.570312 12.710938 -26.015625 12.710938 -24.988281 L 12.710938 -6.691406 C 12.710938 -5.625 12.15625 -5.109375 11.128906 -5.109375 Z M 8.832031 -5.109375" transform="translate(52.584 220.852)"/></g></g></g><g fill="#6E00C8"><g><g><path d="M 7.683594 -31.679688 C 4 -31.679688 1.980469 -29.699219 1.980469 -25.976562 L 1.980469 -16.632812 C 1.980469 -15.878906 2.335938 -15.40625 3.050781 -15.167969 L 12.433594 -12.078125 L 12.433594 -6.8125 C 12.433594 -5.742188 11.878906 -5.226562 10.851562 -5.226562 L 8.949219 -5.226562 C 7.960938 -5.226562 7.367188 -5.742188 7.367188 -6.8125 L 7.367188 -9.859375 C 7.367188 -10.296875 7.167969 -10.492188 6.730469 -10.492188 L 2.613281 -10.492188 C 2.21875 -10.492188 1.980469 -10.296875 1.980469 -9.859375 L 1.980469 -5.703125 C 1.980469 -1.980469 4 0 7.683594 0 L 12.117188 0 C 15.839844 0 17.820312 -1.980469 17.820312 -5.703125 L 17.820312 -14.851562 C 17.820312 -15.601562 17.464844 -16.039062 16.789062 -16.316406 L 7.367188 -19.402344 L 7.367188 -24.867188 C 7.367188 -25.898438 7.960938 -26.453125 8.949219 -26.453125 L 10.851562 -26.453125 C 11.917969 -26.453125 12.433594 -25.898438 12.433594 -24.867188 L 12.433594 -21.78125 C 12.433594 -21.382812 12.671875 -21.144531 13.066406 -21.144531 L 17.1875 -21.144531 C 17.621094 -21.144531 17.820312 -21.382812 17.820312 -21.78125 L 17.820312 -25.976562 C 17.820312 -29.699219 15.839844 -31.679688 12.117188 -31.679688 Z M 7.683594 -31.679688" transform="translate(72.383 220.852)"/></g></g></g><g fill="#6E00C8"><g><g><path d="M 7.683594 -31.679688 C 4 -31.679688 1.980469 -29.699219 1.980469 -25.976562 L 1.980469 -16.632812 C 1.980469 -15.878906 2.335938 -15.40625 3.050781 -15.167969 L 12.433594 -12.078125 L 12.433594 -6.8125 C 12.433594 -5.742188 11.878906 -5.226562 10.851562 -5.226562 L 8.949219 -5.226562 C 7.960938 -5.226562 7.367188 -5.742188 7.367188 -6.8125 L 7.367188 -9.859375 C 7.367188 -10.296875 7.167969 -10.492188 6.730469 -10.492188 L 2.613281 -10.492188 C 2.21875 -10.492188 1.980469 -10.296875 1.980469 -9.859375 L 1.980469 -5.703125 C 1.980469 -1.980469 4 0 7.683594 0 L 12.117188 0 C 15.839844 0 17.820312 -1.980469 17.820312 -5.703125 L 17.820312 -14.851562 C 17.820312 -15.601562 17.464844 -16.039062 16.789062 -16.316406 L 7.367188 -19.402344 L 7.367188 -24.867188 C 7.367188 -25.898438 7.960938 -26.453125 8.949219 -26.453125 L 10.851562 -26.453125 C 11.917969 -26.453125 12.433594 -25.898438 12.433594 -24.867188 L 12.433594 -21.78125 C 12.433594 -21.382812 12.671875 -21.144531 13.066406 -21.144531 L 17.1875 -21.144531 C 17.621094 -21.144531 17.820312 -21.382812 17.820312 -21.78125 L 17.820312 -25.976562 C 17.820312 -29.699219 15.839844 -31.679688 12.117188 -31.679688 Z M 7.683594 -31.679688" transform="translate(102.081 220.852)"/></g></g></g><g fill="#6E00C8"><g><g><path d="M 17.78125 -31.046875 C 17.78125 -31.441406 17.621094 -31.679688 17.148438 -31.679688 L 2.574219 -31.679688 C 2.21875 -31.679688 1.980469 -31.441406 1.980469 -31.046875 L 1.980469 -0.632812 C 1.980469 -0.238281 2.21875 0 2.574219 0 L 17.148438 0 C 17.621094 0 17.78125 -0.238281 17.78125 -0.632812 L 17.78125 -4.59375 C 17.78125 -5.027344 17.621094 -5.226562 17.148438 -5.226562 L 7.246094 -5.226562 L 7.246094 -13.226562 L 14.808594 -13.226562 C 15.207031 -13.226562 15.445312 -13.464844 15.445312 -13.898438 L 15.445312 -17.820312 C 15.445312 -18.253906 15.207031 -18.492188 14.808594 -18.492188 L 7.246094 -18.492188 L 7.246094 -26.414062 L 17.148438 -26.414062 C 17.621094 -26.414062 17.78125 -26.691406 17.78125 -27.085938 Z M 17.78125 -31.046875" transform="translate(121.88 220.852)"/></g></g></g><g fill="#6E00C8"><g><g><path d="M 1.980469 -5.703125 C 1.980469 -1.980469 3.960938 0 7.683594 0 L 12.910156 0 C 16.59375 0 18.613281 -1.980469 18.613281 -5.703125 L 18.613281 -16.710938 C 18.613281 -17.148438 18.375 -17.34375 17.976562 -17.34375 L 11.324219 -17.34375 C 10.890625 -17.34375 10.691406 -17.148438 10.691406 -16.710938 L 10.691406 -12.75 C 10.691406 -12.355469 10.890625 -12.117188 11.324219 -12.117188 L 13.386719 -12.117188 L 13.386719 -6.8125 C 13.386719 -5.742188 12.832031 -5.226562 11.800781 -5.226562 L 8.949219 -5.226562 C 7.921875 -5.226562 7.367188 -5.742188 7.367188 -6.8125 L 7.367188 -24.867188 C 7.367188 -25.898438 7.878906 -26.453125 8.949219 -26.453125 L 11.800781 -26.453125 C 12.832031 -26.453125 13.386719 -25.898438 13.386719 -24.867188 L 13.386719 -21.859375 C 13.386719 -21.464844 13.582031 -21.226562 14.019531 -21.226562 L 17.976562 -21.226562 C 18.375 -21.226562 18.613281 -21.464844 18.613281 -21.859375 L 18.613281 -25.976562 C 18.613281 -29.699219 16.59375 -31.679688 12.910156 -31.679688 L 7.683594 -31.679688 C 3.960938 -31.679688 1.980469 -29.699219 1.980469 -25.976562 Z M 1.980469 -5.703125" transform="translate(141.64 220.852)"/></g></g></g><g fill="#6E00C8"><g><g><path d="M 18.253906 -25.976562 C 18.253906 -29.699219 16.277344 -31.679688 12.554688 -31.679688 L 2.613281 -31.679688 C 2.21875 -31.679688 1.980469 -31.441406 1.980469 -31.046875 L 1.980469 -0.632812 C 1.980469 -0.238281 2.21875 0 2.613281 0 L 6.730469 0 C 7.128906 0 7.367188 -0.238281 7.367188 -0.632812 L 7.367188 -10.613281 L 10.097656 -10.613281 L 12.75 -0.554688 C 12.832031 -0.199219 13.027344 0 13.425781 0 L 17.542969 0 C 17.976562 0 18.214844 -0.238281 18.097656 -0.710938 L 15.363281 -11.089844 C 17.265625 -11.917969 18.253906 -13.660156 18.253906 -16.316406 Z M 7.367188 -15.839844 L 7.367188 -26.453125 L 11.285156 -26.453125 C 12.316406 -26.453125 12.871094 -25.898438 12.871094 -24.867188 L 12.871094 -17.425781 C 12.871094 -16.394531 12.316406 -15.839844 11.285156 -15.839844 Z M 7.367188 -15.839844" transform="translate(162.23 220.852)"/></g></g></g><g fill="#6E00C8"><g><g><path d="M 17.78125 -31.046875 C 17.78125 -31.441406 17.621094 -31.679688 17.148438 -31.679688 L 2.574219 -31.679688 C 2.21875 -31.679688 1.980469 -31.441406 1.980469 -31.046875 L 1.980469 -0.632812 C 1.980469 -0.238281 2.21875 0 2.574219 0 L 17.148438 0 C 17.621094 0 17.78125 -0.238281 17.78125 -0.632812 L 17.78125 -4.59375 C 17.78125 -5.027344 17.621094 -5.226562 17.148438 -5.226562 L 7.246094 -5.226562 L 7.246094 -13.226562 L 14.808594 -13.226562 C 15.207031 -13.226562 15.445312 -13.464844 15.445312 -13.898438 L 15.445312 -17.820312 C 15.445312 -18.253906 15.207031 -18.492188 14.808594 -18.492188 L 7.246094 -18.492188 L 7.246094 -26.414062 L 17.148438 -26.414062 C 17.621094 -26.414062 17.78125 -26.691406 17.78125 -27.085938 Z M 17.78125 -31.046875" transform="translate(182.464 220.852)"/></g></g></g><g fill="#6E00C8"><g><g><path d="M 1.980469 -0.632812 C 1.980469 -0.199219 2.179688 0 2.613281 0 L 12.117188 0 C 15.839844 0 17.820312 -1.980469 17.820312 -5.703125 L 17.820312 -25.9375 C 17.820312 -29.660156 15.839844 -31.679688 12.117188 -31.679688 L 2.613281 -31.679688 C 2.179688 -31.679688 1.980469 -31.441406 1.980469 -31.046875 Z M 7.367188 -5.226562 L 7.367188 -26.453125 L 11.007812 -26.453125 C 12.039062 -26.453125 12.59375 -25.898438 12.59375 -24.828125 L 12.59375 -6.8125 C 12.59375 -5.742188 12.039062 -5.226562 11.007812 -5.226562 Z M 7.367188 -5.226562" transform="translate(202.224 220.852)"/></g></g></g><g fill="#6E00C8"><g><g><path d="M 1.980469 -5.703125 C 1.980469 -1.980469 3.960938 0 7.683594 0 L 12.117188 0 C 15.839844 0 17.820312 -1.980469 17.820312 -5.703125 L 17.820312 -25.976562 C 17.820312 -29.699219 15.839844 -31.679688 12.117188 -31.679688 L 7.683594 -31.679688 C 3.960938 -31.679688 1.980469 -29.699219 1.980469 -25.976562 Z M 8.832031 -5.109375 C 7.800781 -5.109375 7.246094 -5.625 7.246094 -6.691406 L 7.246094 -24.988281 C 7.246094 -26.015625 7.800781 -26.570312 8.832031 -26.570312 L 11.128906 -26.570312 C 12.15625 -26.570312 12.710938 -26.015625 12.710938 -24.988281 L 12.710938 -6.691406 C 12.710938 -5.625 12.15625 -5.109375 11.128906 -5.109375 Z M 8.832031 -5.109375" transform="translate(222.022 220.852)"/></g></g></g><g fill="#6E00C8"><g><g><path d="M 7.683594 -31.679688 C 4 -31.679688 1.980469 -29.699219 1.980469 -25.976562 L 1.980469 -16.632812 C 1.980469 -15.878906 2.335938 -15.40625 3.050781 -15.167969 L 12.433594 -12.078125 L 12.433594 -6.8125 C 12.433594 -5.742188 11.878906 -5.226562 10.851562 -5.226562 L 8.949219 -5.226562 C 7.960938 -5.226562 7.367188 -5.742188 7.367188 -6.8125 L 7.367188 -9.859375 C 7.367188 -10.296875 7.167969 -10.492188 6.730469 -10.492188 L 2.613281 -10.492188 C 2.21875 -10.492188 1.980469 -10.296875 1.980469 -9.859375 L 1.980469 -5.703125 C 1.980469 -1.980469 4 0 7.683594 0 L 12.117188 0 C 15.839844 0 17.820312 -1.980469 17.820312 -5.703125 L 17.820312 -14.851562 C 17.820312 -15.601562 17.464844 -16.039062 16.789062 -16.316406 L 7.367188 -19.402344 L 7.367188 -24.867188 C 7.367188 -25.898438 7.960938 -26.453125 8.949219 -26.453125 L 10.851562 -26.453125 C 11.917969 -26.453125 12.433594 -25.898438 12.433594 -24.867188 L 12.433594 -21.78125 C 12.433594 -21.382812 12.671875 -21.144531 13.066406 -21.144531 L 17.1875 -21.144531 C 17.621094 -21.144531 17.820312 -21.382812 17.820312 -21.78125 L 17.820312 -25.976562 C 17.820312 -29.699219 15.839844 -31.679688 12.117188 -31.679688 Z M 7.683594 -31.679688" transform="translate(241.821 220.852)"/></g></g></g><g fill="#6E00C8"><g><g><path d="M 1.980469 -0.632812 C 1.980469 -0.199219 2.179688 0 2.613281 0 L 12.117188 0 C 15.839844 0 17.820312 -1.980469 17.820312 -5.703125 L 17.820312 -25.9375 C 17.820312 -29.660156 15.839844 -31.679688 12.117188 -31.679688 L 2.613281 -31.679688 C 2.179688 -31.679688 1.980469 -31.441406 1.980469 -31.046875 Z M 7.367188 -5.226562 L 7.367188 -26.453125 L 11.007812 -26.453125 C 12.039062 -26.453125 12.59375 -25.898438 12.59375 -24.828125 L 12.59375 -6.8125 C 12.59375 -5.742188 12.039062 -5.226562 11.007812 -5.226562 Z M 7.367188 -5.226562" transform="translate(271.52 220.852)"/></g></g></g><g fill="#6E00C8"><g><g><path d="M 21.066406 0 C 21.542969 0 21.699219 -0.238281 21.621094 -0.671875 L 15.046875 -31.125 C 14.96875 -31.523438 14.730469 -31.679688 14.375 -31.679688 L 8.871094 -31.679688 C 8.515625 -31.679688 8.277344 -31.523438 8.195312 -31.125 L 1.625 -0.671875 C 1.503906 -0.238281 1.703125 0 2.136719 0 L 6.375 0 C 6.730469 0 6.929688 -0.199219 7.007812 -0.554688 L 8.078125 -6.335938 L 15.128906 -6.335938 L 16.234375 -0.554688 C 16.316406 -0.199219 16.511719 0 16.871094 0 Z M 14.136719 -10.929688 L 9.070312 -10.929688 L 11.601562 -24.75 Z M 14.136719 -10.929688" transform="translate(291.318 220.852)"/></g></g></g><g fill="#6E00C8"><g><g><path d="M 18.53125 -31.679688 C 18.058594 -31.679688 17.78125 -31.441406 17.660156 -30.96875 L 13.265625 -11.246094 L 8.871094 -30.96875 C 8.75 -31.441406 8.472656 -31.679688 8 -31.679688 L 2.773438 -31.679688 C 2.257812 -31.679688 1.980469 -31.402344 1.980469 -30.886719 L 1.980469 -0.792969 C 1.980469 -0.277344 2.257812 0 2.773438 0 L 6.414062 0 C 6.929688 0 7.207031 -0.277344 7.207031 -0.792969 L 7.207031 -18.613281 L 7.484375 -18.613281 L 11.40625 -0.710938 C 11.523438 -0.238281 11.800781 0 12.277344 0 L 14.214844 0 C 14.691406 0 14.96875 -0.238281 15.085938 -0.710938 L 19.007812 -18.613281 L 19.285156 -18.613281 L 19.285156 -0.792969 C 19.285156 -0.277344 19.5625 0 20.078125 0 L 23.761719 0 C 24.273438 0 24.550781 -0.277344 24.550781 -0.792969 L 24.550781 -30.886719 C 24.550781 -31.402344 24.273438 -31.679688 23.761719 -31.679688 Z M 18.53125 -31.679688" transform="translate(121.092 275.602)"/></g></g></g><g fill="#6E00C8"><g><g><path d="M 17.78125 -31.046875 C 17.78125 -31.441406 17.621094 -31.679688 17.148438 -31.679688 L 2.574219 -31.679688 C 2.21875 -31.679688 1.980469 -31.441406 1.980469 -31.046875 L 1.980469 -0.632812 C 1.980469 -0.238281 2.21875 0 2.574219 0 L 17.148438 0 C 17.621094 0 17.78125 -0.238281 17.78125 -0.632812 L 17.78125 -4.59375 C 17.78125 -5.027344 17.621094 -5.226562 17.148438 -5.226562 L 7.246094 -5.226562 L 7.246094 -13.226562 L 14.808594 -13.226562 C 15.207031 -13.226562 15.445312 -13.464844 15.445312 -13.898438 L 15.445312 -17.820312 C 15.445312 -18.253906 15.207031 -18.492188 14.808594 -18.492188 L 7.246094 -18.492188 L 7.246094 -26.414062 L 17.148438 -26.414062 C 17.621094 -26.414062 17.78125 -26.691406 17.78125 -27.085938 Z M 17.78125 -31.046875" transform="translate(147.622 275.602)"/></g></g></g><g fill="#6E00C8"><g><g><path d="M 14.136719 -31.679688 C 13.703125 -31.679688 13.503906 -31.441406 13.503906 -31.046875 L 13.503906 -14.335938 L 13.265625 -14.335938 L 7.246094 -31.164062 C 7.128906 -31.523438 6.890625 -31.679688 6.535156 -31.679688 L 2.613281 -31.679688 C 2.21875 -31.679688 1.980469 -31.441406 1.980469 -31.046875 L 1.980469 -0.632812 C 1.980469 -0.238281 2.21875 0 2.613281 0 L 6.730469 0 C 7.167969 0 7.367188 -0.238281 7.367188 -0.632812 L 7.367188 -17.425781 L 7.5625 -17.425781 L 13.621094 -0.515625 C 13.742188 -0.160156 13.980469 0 14.335938 0 L 18.253906 0 C 18.652344 0 18.890625 -0.238281 18.890625 -0.632812 L 18.890625 -31.046875 C 18.890625 -31.441406 18.652344 -31.679688 18.253906 -31.679688 Z M 14.136719 -31.679688" transform="translate(167.382 275.602)"/></g></g></g><g fill="#6E00C8"><g><g><path d="M 1.820312 -31.679688 C 1.425781 -31.679688 1.1875 -31.441406 1.1875 -31.046875 L 1.1875 -27.085938 C 1.1875 -26.691406 1.425781 -26.453125 1.820312 -26.453125 L 6.414062 -26.453125 L 6.414062 -0.632812 C 6.414062 -0.199219 6.652344 0 7.046875 0 L 11.167969 0 C 11.601562 0 11.800781 -0.199219 11.800781 -0.632812 L 11.800781 -26.453125 L 16.394531 -26.453125 C 16.828125 -26.453125 17.027344 -26.691406 17.027344 -27.085938 L 17.027344 -31.046875 C 17.027344 -31.441406 16.828125 -31.679688 16.394531 -31.679688 Z M 1.820312 -31.679688" transform="translate(188.25 275.602)"/></g></g></g><g fill="#6E00C8"><g><g><path d="M 17.78125 -31.046875 C 17.78125 -31.441406 17.621094 -31.679688 17.148438 -31.679688 L 2.574219 -31.679688 C 2.21875 -31.679688 1.980469 -31.441406 1.980469 -31.046875 L 1.980469 -0.632812 C 1.980469 -0.238281 2.21875 0 2.574219 0 L 17.148438 0 C 17.621094 0 17.78125 -0.238281 17.78125 -0.632812 L 17.78125 -4.59375 C 17.78125 -5.027344 17.621094 -5.226562 17.148438 -5.226562 L 7.246094 -5.226562 L 7.246094 -13.226562 L 14.808594 -13.226562 C 15.207031 -13.226562 15.445312 -13.464844 15.445312 -13.898438 L 15.445312 -17.820312 C 15.445312 -18.253906 15.207031 -18.492188 14.808594 -18.492188 L 7.246094 -18.492188 L 7.246094 -26.414062 L 17.148438 -26.414062 C 17.621094 -26.414062 17.78125 -26.691406 17.78125 -27.085938 Z M 17.78125 -31.046875" transform="translate(206.464 275.602)"/></g></g></g><g fill="#FF9100"><g><g><path d="M 9.984375 -5.328125 C 9.984375 -3.609375 9.492188 -2.289062 8.515625 -1.375 C 7.535156 -0.457031 6.125 0 4.28125 0 L 1.3125 0 L 1.3125 -10.453125 L 4.59375 -10.453125 C 6.300781 -10.453125 7.625 -10 8.5625 -9.09375 C 9.507812 -8.195312 9.984375 -6.941406 9.984375 -5.328125 Z M 7.6875 -5.265625 C 7.6875 -7.515625 6.695312 -8.640625 4.71875 -8.640625 L 3.53125 -8.640625 L 3.53125 -1.828125 L 4.484375 -1.828125 C 6.617188 -1.828125 7.6875 -2.972656 7.6875 -5.265625 Z M 7.6875 -5.265625" transform="translate(183.57 297.927)"/></g></g></g><g fill="#FF9100"><g><g><path d="M 7.328125 0 L 1.3125 0 L 1.3125 -10.453125 L 7.328125 -10.453125 L 7.328125 -8.640625 L 3.53125 -8.640625 L 3.53125 -6.34375 L 7.0625 -6.34375 L 7.0625 -4.53125 L 3.53125 -4.53125 L 3.53125 -1.828125 L 7.328125 -1.828125 Z M 7.328125 0" transform="translate(199.28 297.927)"/></g></g></g><g fill="#FF9100"><g><g><path d="M 9.828125 -10.453125 L 9.828125 -3.6875 C 9.828125 -2.914062 9.648438 -2.238281 9.296875 -1.65625 C 8.953125 -1.070312 8.453125 -0.625 7.796875 -0.3125 C 7.148438 -0.0078125 6.378906 0.140625 5.484375 0.140625 C 4.140625 0.140625 3.097656 -0.203125 2.359375 -0.890625 C 1.617188 -1.578125 1.25 -2.519531 1.25 -3.71875 L 1.25 -10.453125 L 3.453125 -10.453125 L 3.453125 -4.046875 C 3.453125 -3.242188 3.613281 -2.65625 3.9375 -2.28125 C 4.257812 -1.90625 4.796875 -1.71875 5.546875 -1.71875 C 6.273438 -1.71875 6.800781 -1.90625 7.125 -2.28125 C 7.445312 -2.664062 7.609375 -3.257812 7.609375 -4.0625 L 7.609375 -10.453125 Z M 9.828125 -10.453125" transform="translate(221.03 297.927)"/></g></g></g><g fill="#FF9100"><g><g><path d="M 5.734375 0 L 3.21875 -8.203125 L 3.15625 -8.203125 C 3.25 -6.535156 3.296875 -5.421875 3.296875 -4.859375 L 3.296875 0 L 1.3125 0 L 1.3125 -10.453125 L 4.328125 -10.453125 L 6.8125 -2.453125 L 6.84375 -2.453125 L 9.46875 -10.453125 L 12.484375 -10.453125 L 12.484375 0 L 10.421875 0 L 10.421875 -4.953125 C 10.421875 -5.179688 10.421875 -5.445312 10.421875 -5.75 C 10.429688 -6.0625 10.46875 -6.875 10.53125 -8.1875 L 10.46875 -8.1875 L 7.765625 0 Z M 5.734375 0" transform="translate(236.97 297.927)"/></g></g></g><g fill="#FF9100"><g><g><path d="M 7.71875 0 L 6.953125 -2.484375 L 3.140625 -2.484375 L 2.390625 0 L 0 0 L 3.6875 -10.5 L 6.390625 -10.5 L 10.09375 0 Z M 6.421875 -4.34375 C 5.722656 -6.601562 5.328125 -7.878906 5.234375 -8.171875 C 5.148438 -8.460938 5.085938 -8.695312 5.046875 -8.875 C 4.890625 -8.257812 4.441406 -6.75 3.703125 -4.34375 Z M 6.421875 -4.34375" transform="translate(264.323 297.927)"/></g></g></g><g fill="#FF9100"><g><g><path d="M 9.828125 -10.453125 L 9.828125 -3.6875 C 9.828125 -2.914062 9.648438 -2.238281 9.296875 -1.65625 C 8.953125 -1.070312 8.453125 -0.625 7.796875 -0.3125 C 7.148438 -0.0078125 6.378906 0.140625 5.484375 0.140625 C 4.140625 0.140625 3.097656 -0.203125 2.359375 -0.890625 C 1.617188 -1.578125 1.25 -2.519531 1.25 -3.71875 L 1.25 -10.453125 L 3.453125 -10.453125 L 3.453125 -4.046875 C 3.453125 -3.242188 3.613281 -2.65625 3.9375 -2.28125 C 4.257812 -1.90625 4.796875 -1.71875 5.546875 -1.71875 C 6.273438 -1.71875 6.800781 -1.90625 7.125 -2.28125 C 7.445312 -2.664062 7.609375 -3.257812 7.609375 -4.0625 L 7.609375 -10.453125 Z M 9.828125 -10.453125" transform="translate(279.297 297.927)"/></g></g></g><g fill="#FF9100"><g><g><path d="M 5.34375 0 L 3.125 0 L 3.125 -8.609375 L 0.296875 -8.609375 L 0.296875 -10.453125 L 8.1875 -10.453125 L 8.1875 -8.609375 L 5.34375 -8.609375 Z M 5.34375 0" transform="translate(295.236 297.927)"/></g></g></g><g fill="#FF9100"><g><g><path d="M 1.3125 0 L 1.3125 -10.453125 L 3.53125 -10.453125 L 3.53125 0 Z M 1.3125 0" transform="translate(308.587 297.927)"/></g></g></g><g fill="#FF9100"><g><g><path d="M 7.484375 -2.90625 C 7.484375 -1.957031 7.144531 -1.210938 6.46875 -0.671875 C 5.789062 -0.128906 4.84375 0.140625 3.625 0.140625 C 2.507812 0.140625 1.523438 -0.0664062 0.671875 -0.484375 L 0.671875 -2.546875 C 1.378906 -2.234375 1.976562 -2.007812 2.46875 -1.875 C 2.957031 -1.75 3.398438 -1.6875 3.796875 -1.6875 C 4.285156 -1.6875 4.660156 -1.78125 4.921875 -1.96875 C 5.179688 -2.15625 5.3125 -2.429688 5.3125 -2.796875 C 5.3125 -3.003906 5.253906 -3.1875 5.140625 -3.34375 C 5.023438 -3.5 4.851562 -3.648438 4.625 -3.796875 C 4.40625 -3.953125 3.957031 -4.191406 3.28125 -4.515625 C 2.644531 -4.816406 2.164062 -5.101562 1.84375 -5.375 C 1.519531 -5.65625 1.265625 -5.976562 1.078125 -6.34375 C 0.890625 -6.707031 0.796875 -7.132812 0.796875 -7.625 C 0.796875 -8.550781 1.109375 -9.28125 1.734375 -9.8125 C 2.359375 -10.34375 3.222656 -10.609375 4.328125 -10.609375 C 4.867188 -10.609375 5.382812 -10.539062 5.875 -10.40625 C 6.375 -10.28125 6.894531 -10.097656 7.4375 -9.859375 L 6.71875 -8.140625 C 6.164062 -8.367188 5.707031 -8.523438 5.34375 -8.609375 C 4.976562 -8.703125 4.617188 -8.75 4.265625 -8.75 C 3.835938 -8.75 3.507812 -8.648438 3.28125 -8.453125 C 3.0625 -8.265625 2.953125 -8.015625 2.953125 -7.703125 C 2.953125 -7.503906 3 -7.332031 3.09375 -7.1875 C 3.1875 -7.039062 3.332031 -6.898438 3.53125 -6.765625 C 3.726562 -6.628906 4.195312 -6.382812 4.9375 -6.03125 C 5.90625 -5.5625 6.570312 -5.09375 6.9375 -4.625 C 7.300781 -4.15625 7.484375 -3.582031 7.484375 -2.90625 Z M 7.484375 -2.90625" transform="translate(318.308 297.927)"/></g></g></g><g fill="#FF9100"><g><g><path d="M 5.34375 0 L 3.125 0 L 3.125 -8.609375 L 0.296875 -8.609375 L 0.296875 -10.453125 L 8.1875 -10.453125 L 8.1875 -8.609375 L 5.34375 -8.609375 Z M 5.34375 0" transform="translate(331.246 297.927)"/></g></g></g><g fill="#FF9100"><g><g><path d="M 7.71875 0 L 6.953125 -2.484375 L 3.140625 -2.484375 L 2.390625 0 L 0 0 L 3.6875 -10.5 L 6.390625 -10.5 L 10.09375 0 Z M 6.421875 -4.34375 C 5.722656 -6.601562 5.328125 -7.878906 5.234375 -8.171875 C 5.148438 -8.460938 5.085938 -8.695312 5.046875 -8.875 C 4.890625 -8.257812 4.441406 -6.75 3.703125 -4.34375 Z M 6.421875 -4.34375" transform="translate(344.597 297.927)"/></g></g></g></svg>