<svg xmlns="http://www.w3.org/2000/svg" width="375" viewBox="0 0 375 375" height="375" version="1.0"><defs><clipPath id="a"><path d="M 37.007812 84.597656 L 115.757812 84.597656 L 115.757812 163.347656 L 37.007812 163.347656 Z M 37.007812 84.597656"/></clipPath><clipPath id="b"><path d="M 88.421875 121.851562 L 167.921875 121.851562 L 167.921875 125.601562 L 88.421875 125.601562 Z M 88.421875 121.851562"/></clipPath></defs><path fill="#FFF" d="M-37.5 -37.5H412.5V412.5H-37.5z"/><path fill="#FAFAFA" d="M-37.5 -37.5H412.5V412.5H-37.5z"/><g clip-path="url(#a)"><path fill="#6E00C8" d="M 76.382812 163.347656 C 54.671875 163.347656 37.007812 145.6875 37.007812 123.976562 C 37.007812 102.265625 54.671875 84.601562 76.382812 84.601562 C 98.09375 84.601562 115.757812 102.265625 115.757812 123.976562 C 115.757812 145.6875 98.09375 163.347656 76.382812 163.347656 Z M 76.382812 88.5 C 56.820312 88.5 40.90625 104.414062 40.90625 123.976562 C 40.90625 143.539062 56.820312 159.449219 76.382812 159.449219 C 95.945312 159.449219 111.859375 143.539062 111.859375 123.976562 C 111.859375 104.414062 95.945312 88.5 76.382812 88.5 Z M 76.382812 88.5"/></g><path fill="#6E00C8" d="M 76.382812 152.6875 C 60.550781 152.6875 47.667969 139.808594 47.667969 123.976562 C 47.667969 108.144531 60.550781 95.261719 76.382812 95.261719 C 92.214844 95.261719 105.09375 108.144531 105.09375 123.976562 C 105.09375 139.808594 92.214844 152.6875 76.382812 152.6875 Z M 76.382812 99.160156 C 62.699219 99.160156 51.566406 110.292969 51.566406 123.976562 C 51.566406 137.660156 62.699219 148.789062 76.382812 148.789062 C 90.066406 148.789062 101.199219 137.660156 101.199219 123.976562 C 101.199219 110.292969 90.066406 99.160156 76.382812 99.160156 Z M 76.382812 99.160156"/><path fill="#6E00C8" d="M 76.382812 142.332031 C 66.257812 142.332031 58.023438 134.097656 58.023438 123.976562 C 58.023438 113.851562 66.257812 105.617188 76.382812 105.617188 C 86.503906 105.617188 94.738281 113.851562 94.738281 123.976562 C 94.738281 134.097656 86.503906 142.332031 76.382812 142.332031 Z M 76.382812 109.515625 C 68.410156 109.515625 61.921875 116.003906 61.921875 123.976562 C 61.921875 131.949219 68.410156 138.433594 76.382812 138.433594 C 84.355469 138.433594 90.839844 131.949219 90.839844 123.976562 C 90.839844 116.003906 84.355469 109.515625 76.382812 109.515625 Z M 76.382812 109.515625"/><path fill="#6E00C8" d="M 80.941406 123.582031 C 80.617188 129.585938 71.949219 129.585938 71.625 123.582031 C 71.300781 117.570312 80.621094 117.605469 80.941406 123.582031 C 81.066406 125.925781 84.722656 125.9375 84.597656 123.582031 C 84.34375 118.878906 80.980469 115.519531 76.28125 115.265625 C 71.589844 115.015625 68.203125 119.261719 67.96875 123.582031 C 67.71875 128.269531 71.960938 131.660156 76.28125 131.894531 C 80.96875 132.144531 84.363281 127.902344 84.597656 123.582031 C 84.722656 121.226562 81.066406 121.238281 80.941406 123.582031 Z M 80.941406 123.582031"/><g clip-path="url(#b)"><path fill="#FF7948" d="M 88.421875 121.851562 L 167.921875 121.851562 L 167.921875 125.601562 L 88.421875 125.601562 Z M 88.421875 121.851562"/></g><g fill="#6E00C8"><g><g><path d="M 13.21875 0.328125 C 10.882812 0.328125 8.8125 -0.203125 7 -1.265625 C 5.1875 -2.335938 3.773438 -3.828125 2.765625 -5.734375 C 1.765625 -7.648438 1.265625 -9.84375 1.265625 -12.3125 C 1.265625 -14.925781 1.828125 -17.160156 2.953125 -19.015625 C 4.078125 -20.878906 5.566406 -22.285156 7.421875 -23.234375 C 9.285156 -24.179688 11.3125 -24.65625 13.5 -24.65625 C 16.164062 -24.65625 18.804688 -24.03125 21.421875 -22.78125 C 21.160156 -21.269531 21.03125 -19.410156 21.03125 -17.203125 C 20.476562 -16.921875 19.539062 -16.78125 18.21875 -16.78125 C 18.164062 -18.84375 17.753906 -20.304688 16.984375 -21.171875 C 16.222656 -22.035156 15.125 -22.46875 13.6875 -22.46875 C 11.425781 -22.46875 9.753906 -21.585938 8.671875 -19.828125 C 7.597656 -18.078125 7.0625 -15.882812 7.0625 -13.25 C 7.0625 -10.082031 7.75 -7.5 9.125 -5.5 C 10.507812 -3.507812 12.492188 -2.515625 15.078125 -2.515625 C 16.046875 -2.515625 17.046875 -2.671875 18.078125 -2.984375 C 19.109375 -3.296875 20.113281 -3.738281 21.09375 -4.3125 C 21.289062 -4.144531 21.46875 -3.910156 21.625 -3.609375 C 21.78125 -3.316406 21.878906 -3.023438 21.921875 -2.734375 C 20.722656 -1.753906 19.421875 -1 18.015625 -0.46875 C 16.609375 0.0625 15.007812 0.328125 13.21875 0.328125 Z M 13.21875 0.328125" transform="translate(121.536 168.177)"/></g></g></g><g fill="#6E00C8"><g><g><path d="M 16.125 -4.109375 C 16.363281 -3.960938 16.570312 -3.707031 16.75 -3.34375 C 16.9375 -2.988281 17.039062 -2.617188 17.0625 -2.234375 C 16.15625 -1.367188 15.125 -0.722656 13.96875 -0.296875 C 12.8125 0.117188 11.476562 0.328125 9.96875 0.328125 C 7.039062 0.328125 4.847656 -0.453125 3.390625 -2.015625 C 1.941406 -3.578125 1.21875 -5.617188 1.21875 -8.140625 C 1.21875 -9.835938 1.566406 -11.335938 2.265625 -12.640625 C 2.960938 -13.953125 3.945312 -14.972656 5.21875 -15.703125 C 6.488281 -16.441406 7.960938 -16.8125 9.640625 -16.8125 C 12.117188 -16.8125 13.972656 -16.117188 15.203125 -14.734375 C 16.441406 -13.359375 17.109375 -11.484375 17.203125 -9.109375 C 17.054688 -8.410156 16.757812 -7.832031 16.3125 -7.375 C 12.175781 -7.375 8.972656 -7.316406 6.703125 -7.203125 C 6.910156 -5.710938 7.410156 -4.539062 8.203125 -3.6875 C 8.992188 -2.832031 10.125 -2.40625 11.59375 -2.40625 C 12.4375 -2.40625 13.265625 -2.554688 14.078125 -2.859375 C 14.890625 -3.160156 15.570312 -3.578125 16.125 -4.109375 Z M 9.546875 -14.578125 C 8.679688 -14.578125 7.976562 -14.148438 7.4375 -13.296875 C 6.894531 -12.453125 6.597656 -11.1875 6.546875 -9.5 L 12.28125 -9.5 C 12.28125 -11.113281 12.046875 -12.363281 11.578125 -13.25 C 11.109375 -14.132812 10.429688 -14.578125 9.546875 -14.578125 Z M 9.546875 -14.578125" transform="translate(144.288 168.177)"/></g></g></g><g fill="#6E00C8"><g><g><path d="M 22.390625 -2.125 C 22.585938 -1.664062 22.6875 -0.921875 22.6875 0.109375 C 20.59375 0.0351562 19.09375 0 18.1875 0 C 15.851562 0 14.125 0.0351562 13 0.109375 C 13 -0.878906 13.09375 -1.625 13.28125 -2.125 C 13.976562 -2.125 14.492188 -2.375 14.828125 -2.875 C 15.171875 -3.382812 15.34375 -4.265625 15.34375 -5.515625 L 15.34375 -9.28125 C 15.34375 -10.75 15.117188 -11.785156 14.671875 -12.390625 C 14.222656 -13.003906 13.546875 -13.3125 12.640625 -13.3125 C 11.679688 -13.3125 10.859375 -12.800781 10.171875 -11.78125 C 9.484375 -10.769531 9.140625 -9.363281 9.140625 -7.5625 L 9.140625 -5.25 C 9.140625 -4.050781 9.296875 -3.226562 9.609375 -2.78125 C 9.921875 -2.34375 10.453125 -2.125 11.203125 -2.125 C 11.390625 -1.59375 11.484375 -0.847656 11.484375 0.109375 C 10.453125 0.0351562 8.796875 0 6.515625 0 C 4.066406 0 2.300781 0.0351562 1.21875 0.109375 C 1.21875 -0.921875 1.316406 -1.664062 1.515625 -2.125 C 2.453125 -2.125 3.082031 -2.335938 3.40625 -2.765625 C 3.726562 -3.203125 3.890625 -4.03125 3.890625 -5.25 L 3.890625 -10.578125 C 3.890625 -11.328125 3.828125 -11.894531 3.703125 -12.28125 C 3.585938 -12.664062 3.347656 -12.953125 2.984375 -13.140625 C 2.628906 -13.328125 2.054688 -13.445312 1.265625 -13.5 C 1.265625 -14.4375 1.40625 -15.144531 1.6875 -15.625 C 2.957031 -15.644531 4.191406 -15.769531 5.390625 -16 C 6.597656 -16.226562 7.5 -16.5 8.09375 -16.8125 C 8.789062 -16.550781 9.140625 -15.890625 9.140625 -14.828125 C 9.140625 -14.179688 9.019531 -13.460938 8.78125 -12.671875 C 8.832031 -12.742188 8.945312 -12.976562 9.125 -13.375 C 9.300781 -13.769531 9.523438 -14.125 9.796875 -14.4375 C 10.367188 -15.0625 11.085938 -15.582031 11.953125 -16 C 12.816406 -16.414062 13.773438 -16.625 14.828125 -16.625 C 16.484375 -16.625 17.859375 -16.148438 18.953125 -15.203125 C 20.046875 -14.253906 20.59375 -12.773438 20.59375 -10.765625 L 20.59375 -5.25 C 20.59375 -4.070312 20.722656 -3.253906 20.984375 -2.796875 C 21.253906 -2.347656 21.722656 -2.125 22.390625 -2.125 Z M 22.390625 -2.125" transform="translate(162.396 168.177)"/></g></g></g><g fill="#6E00C8"><g><g><path d="M 8.140625 0.328125 C 6.410156 0.328125 5.128906 -0.113281 4.296875 -1 C 3.472656 -1.894531 3.0625 -3.363281 3.0625 -5.40625 L 3.0625 -13.390625 C 2.363281 -13.679688 1.488281 -13.835938 0.4375 -13.859375 C 0.4375 -14.742188 0.566406 -15.5 0.828125 -16.125 L 3.0625 -16.125 L 3.0625 -20.5625 C 3.851562 -20.65625 4.648438 -20.867188 5.453125 -21.203125 C 6.253906 -21.535156 6.910156 -21.90625 7.421875 -22.3125 C 7.773438 -22.175781 8.007812 -21.960938 8.125 -21.671875 C 8.25 -21.378906 8.3125 -20.851562 8.3125 -20.09375 L 8.3125 -16.125 L 12.75 -16.125 C 12.75 -15.351562 12.628906 -14.585938 12.390625 -13.828125 C 10.773438 -13.773438 9.414062 -13.582031 8.3125 -13.25 L 8.3125 -5.96875 C 8.3125 -4.5625 8.457031 -3.59375 8.75 -3.0625 C 9.039062 -2.53125 9.519531 -2.265625 10.1875 -2.265625 C 10.976562 -2.265625 11.710938 -2.46875 12.390625 -2.875 C 12.703125 -2.445312 12.878906 -1.847656 12.921875 -1.078125 C 12.441406 -0.671875 11.75 -0.332031 10.84375 -0.0625 C 9.945312 0.195312 9.046875 0.328125 8.140625 0.328125 Z M 8.140625 0.328125" transform="translate(185.904 168.177)"/></g></g></g><g fill="#6E00C8"><g><g><path d="M 16.59375 -15.703125 C 16.375 -14.304688 16.265625 -12.890625 16.265625 -11.453125 C 16.265625 -10.972656 16.28125 -10.625 16.3125 -10.40625 C 15.613281 -10.144531 14.59375 -10.015625 13.25 -10.015625 C 13.226562 -10.921875 13.082031 -11.566406 12.8125 -11.953125 C 12.550781 -12.335938 12.179688 -12.53125 11.703125 -12.53125 C 11.335938 -12.53125 10.953125 -12.316406 10.546875 -11.890625 C 10.140625 -11.472656 9.800781 -10.914062 9.53125 -10.21875 C 9.269531 -9.53125 9.140625 -8.8125 9.140625 -8.0625 L 9.140625 -6.296875 C 9.140625 -5.242188 9.253906 -4.425781 9.484375 -3.84375 C 9.710938 -3.269531 10.078125 -2.859375 10.578125 -2.609375 C 11.085938 -2.359375 11.8125 -2.195312 12.75 -2.125 C 12.914062 -1.644531 13 -0.898438 13 0.109375 C 11.726562 0.0351562 9.851562 0 7.375 0 C 4.59375 0 2.539062 0.0351562 1.21875 0.109375 C 1.21875 -0.847656 1.289062 -1.59375 1.4375 -2.125 C 2.113281 -2.175781 2.617188 -2.300781 2.953125 -2.5 C 3.285156 -2.707031 3.523438 -3.054688 3.671875 -3.546875 C 3.816406 -4.035156 3.890625 -4.773438 3.890625 -5.765625 L 3.890625 -10.578125 C 3.890625 -11.328125 3.828125 -11.894531 3.703125 -12.28125 C 3.585938 -12.664062 3.347656 -12.953125 2.984375 -13.140625 C 2.628906 -13.328125 2.054688 -13.445312 1.265625 -13.5 C 1.265625 -14.4375 1.40625 -15.144531 1.6875 -15.625 C 2.957031 -15.644531 4.191406 -15.769531 5.390625 -16 C 6.597656 -16.226562 7.5 -16.5 8.09375 -16.8125 C 8.789062 -16.550781 9.140625 -15.890625 9.140625 -14.828125 C 9.140625 -14.347656 9.082031 -13.8125 8.96875 -13.21875 C 8.863281 -12.632812 8.726562 -12.019531 8.5625 -11.375 C 8.945312 -12.550781 9.25 -13.304688 9.46875 -13.640625 C 10.019531 -14.523438 10.6875 -15.234375 11.46875 -15.765625 C 12.25 -16.296875 13.09375 -16.5625 14 -16.5625 C 14.988281 -16.5625 15.851562 -16.273438 16.59375 -15.703125 Z M 16.59375 -15.703125" transform="translate(199.152 168.177)"/></g></g></g><g fill="#6E00C8"><g><g><path d="M 10.21875 0.328125 C 7.363281 0.328125 5.148438 -0.421875 3.578125 -1.921875 C 2.003906 -3.421875 1.21875 -5.46875 1.21875 -8.0625 C 1.21875 -9.863281 1.613281 -11.421875 2.40625 -12.734375 C 3.195312 -14.054688 4.289062 -15.066406 5.6875 -15.765625 C 7.082031 -16.460938 8.65625 -16.8125 10.40625 -16.8125 C 13.3125 -16.8125 15.539062 -16.039062 17.09375 -14.5 C 18.65625 -12.96875 19.4375 -10.929688 19.4375 -8.390625 C 19.4375 -6.640625 19.054688 -5.101562 18.296875 -3.78125 C 17.546875 -2.457031 16.472656 -1.441406 15.078125 -0.734375 C 13.691406 -0.0234375 12.070312 0.328125 10.21875 0.328125 Z M 10.734375 -1.984375 C 11.785156 -1.984375 12.597656 -2.5 13.171875 -3.53125 C 13.753906 -4.5625 14.046875 -5.90625 14.046875 -7.5625 C 14.046875 -9.019531 13.859375 -10.28125 13.484375 -11.34375 C 13.109375 -12.414062 12.609375 -13.226562 11.984375 -13.78125 C 11.359375 -14.332031 10.675781 -14.609375 9.9375 -14.609375 C 8.882812 -14.609375 8.070312 -14.101562 7.5 -13.09375 C 6.9375 -12.09375 6.65625 -10.773438 6.65625 -9.140625 C 6.65625 -6.984375 7.015625 -5.25 7.734375 -3.9375 C 8.453125 -2.632812 9.453125 -1.984375 10.734375 -1.984375 Z M 10.734375 -1.984375" transform="translate(216 168.177)"/></g></g></g><g fill="#6E00C8"><g><g><path d="M 18.828125 -6.953125 C 20.148438 -6.753906 21.0625 -6.40625 21.5625 -5.90625 C 21.082031 -4.4375 20.710938 -2.441406 20.453125 0.078125 C 18.046875 0.0234375 15.164062 0 11.8125 0 C 8.332031 0 4.898438 0.0351562 1.515625 0.109375 C 1.515625 -0.847656 1.585938 -1.59375 1.734375 -2.125 C 2.398438 -2.175781 2.90625 -2.300781 3.25 -2.5 C 3.601562 -2.707031 3.84375 -3.066406 3.96875 -3.578125 C 4.101562 -4.097656 4.171875 -4.882812 4.171875 -5.9375 L 4.171875 -18.609375 C 4.171875 -19.597656 4.101562 -20.320312 3.96875 -20.78125 C 3.84375 -21.25 3.609375 -21.585938 3.265625 -21.796875 C 2.929688 -22.003906 2.421875 -22.144531 1.734375 -22.21875 C 1.585938 -22.664062 1.515625 -23.40625 1.515625 -24.4375 C 3.378906 -24.375 6.078125 -24.34375 9.609375 -24.34375 C 14.503906 -24.34375 17.804688 -24.375 19.515625 -24.4375 C 19.554688 -23.4375 19.644531 -22.359375 19.78125 -21.203125 C 19.914062 -20.046875 20.078125 -19.097656 20.265625 -18.359375 C 19.546875 -17.992188 18.632812 -17.8125 17.53125 -17.8125 C 17.3125 -19.207031 16.816406 -20.289062 16.046875 -21.0625 C 15.285156 -21.832031 13.976562 -22.21875 12.125 -22.21875 L 9.640625 -22.21875 L 9.640625 -13.28125 L 10.6875 -13.28125 C 11.988281 -13.28125 12.875 -13.46875 13.34375 -13.84375 C 13.8125 -14.21875 14.054688 -14.929688 14.078125 -15.984375 C 14.796875 -16.222656 15.644531 -16.34375 16.625 -16.34375 C 16.53125 -14.757812 16.484375 -13.390625 16.484375 -12.234375 C 16.484375 -10.921875 16.53125 -9.519531 16.625 -8.03125 C 15.519531 -8.03125 14.691406 -8.125 14.140625 -8.3125 C 14.046875 -9.394531 13.757812 -10.128906 13.28125 -10.515625 C 12.800781 -10.898438 11.9375 -11.09375 10.6875 -11.09375 L 9.640625 -11.09375 L 9.640625 -6.046875 C 9.640625 -5.015625 9.726562 -4.226562 9.90625 -3.6875 C 10.09375 -3.144531 10.394531 -2.765625 10.8125 -2.546875 C 11.238281 -2.335938 11.859375 -2.234375 12.671875 -2.234375 L 13.109375 -2.234375 C 14.304688 -2.234375 15.265625 -2.394531 15.984375 -2.71875 C 16.703125 -3.039062 17.265625 -3.53125 17.671875 -4.1875 C 18.078125 -4.851562 18.460938 -5.773438 18.828125 -6.953125 Z M 18.828125 -6.953125" transform="translate(121.536 207.177)"/></g></g></g><g fill="#6E00C8"><g><g><path d="M 21.125 -2.625 C 21.125 -1.957031 21.003906 -1.367188 20.765625 -0.859375 C 19.859375 -0.816406 18.925781 -0.691406 17.96875 -0.484375 C 17.007812 -0.285156 16.132812 -0.015625 15.34375 0.328125 C 14.925781 0.160156 14.628906 -0.0703125 14.453125 -0.375 C 14.273438 -0.675781 14.1875 -1.128906 14.1875 -1.734375 C 14.1875 -2.253906 14.257812 -2.816406 14.40625 -3.421875 C 14.019531 -2.703125 13.570312 -2.113281 13.0625 -1.65625 C 12.632812 -1.15625 11.988281 -0.695312 11.125 -0.28125 C 10.257812 0.125 9.320312 0.328125 8.3125 0.328125 C 6.132812 0.328125 4.40625 -0.300781 3.125 -1.5625 C 1.851562 -2.820312 1.21875 -4.722656 1.21875 -7.265625 C 1.21875 -9.097656 1.628906 -10.738281 2.453125 -12.1875 C 3.285156 -13.632812 4.453125 -14.765625 5.953125 -15.578125 C 7.453125 -16.398438 9.175781 -16.8125 11.125 -16.8125 C 12.03125 -16.8125 12.894531 -16.691406 13.71875 -16.453125 L 13.71875 -19.984375 C 13.71875 -20.867188 13.546875 -21.492188 13.203125 -21.859375 C 12.867188 -22.234375 12.148438 -22.445312 11.046875 -22.5 C 11.046875 -23.414062 11.179688 -24.125 11.453125 -24.625 C 12.648438 -24.625 13.890625 -24.742188 15.171875 -24.984375 C 16.453125 -25.222656 17.367188 -25.5 17.921875 -25.8125 C 18.617188 -25.519531 18.96875 -24.882812 18.96875 -23.90625 L 18.96875 -6.078125 C 18.96875 -5.265625 19.015625 -4.660156 19.109375 -4.265625 C 19.210938 -3.867188 19.410156 -3.59375 19.703125 -3.4375 C 20.003906 -3.28125 20.46875 -3.191406 21.09375 -3.171875 Z M 10.015625 -2.625 C 11.046875 -2.625 11.921875 -3.117188 12.640625 -4.109375 C 13.359375 -5.109375 13.71875 -6.644531 13.71875 -8.71875 L 13.71875 -13.421875 C 13.332031 -13.835938 12.925781 -14.144531 12.5 -14.34375 C 12.082031 -14.550781 11.597656 -14.65625 11.046875 -14.65625 C 9.898438 -14.65625 8.878906 -14.164062 7.984375 -13.1875 C 7.097656 -12.21875 6.65625 -10.507812 6.65625 -8.0625 C 6.65625 -6.40625 6.960938 -5.082031 7.578125 -4.09375 C 8.191406 -3.113281 9.003906 -2.625 10.015625 -2.625 Z M 10.015625 -2.625" transform="translate(143.712 207.177)"/></g></g></g><g fill="#6E00C8"><g><g><path d="M 21.125 -3.171875 C 21.15625 -3.023438 21.171875 -2.796875 21.171875 -2.484375 C 21.171875 -1.910156 21.0625 -1.367188 20.84375 -0.859375 C 18.820312 -0.785156 17.007812 -0.390625 15.40625 0.328125 C 15 0.160156 14.703125 -0.0703125 14.515625 -0.375 C 14.335938 -0.675781 14.25 -1.128906 14.25 -1.734375 C 14.25 -2.179688 14.3125 -2.742188 14.4375 -3.421875 C 14.101562 -2.578125 13.679688 -1.925781 13.171875 -1.46875 C 11.972656 -0.34375 10.351562 0.21875 8.3125 0.21875 C 6.488281 0.21875 5.117188 -0.289062 4.203125 -1.3125 C 3.296875 -2.332031 2.84375 -4.03125 2.84375 -6.40625 L 2.84375 -10.578125 C 2.84375 -11.328125 2.796875 -11.894531 2.703125 -12.28125 C 2.609375 -12.664062 2.394531 -12.953125 2.0625 -13.140625 C 1.738281 -13.328125 1.234375 -13.445312 0.546875 -13.5 C 0.546875 -14.414062 0.675781 -15.125 0.9375 -15.625 C 2.1875 -15.644531 3.367188 -15.769531 4.484375 -16 C 5.597656 -16.226562 6.457031 -16.5 7.0625 -16.8125 C 7.75 -16.550781 8.09375 -15.890625 8.09375 -14.828125 L 8.09375 -7.265625 C 8.09375 -5.660156 8.257812 -4.519531 8.59375 -3.84375 C 8.9375 -3.175781 9.503906 -2.84375 10.296875 -2.84375 C 11.304688 -2.84375 12.140625 -3.328125 12.796875 -4.296875 C 13.453125 -5.273438 13.78125 -6.695312 13.78125 -8.5625 L 13.78125 -10.765625 C 13.78125 -11.503906 13.710938 -12.066406 13.578125 -12.453125 C 13.453125 -12.835938 13.203125 -13.128906 12.828125 -13.328125 C 12.460938 -13.535156 11.90625 -13.65625 11.15625 -13.6875 C 11.15625 -14.644531 11.289062 -15.347656 11.5625 -15.796875 C 12.925781 -15.828125 14.195312 -15.929688 15.375 -16.109375 C 16.550781 -16.285156 17.425781 -16.519531 18 -16.8125 C 18.695312 -16.550781 19.046875 -15.890625 19.046875 -14.828125 L 19.046875 -6.078125 C 19.046875 -5.265625 19.09375 -4.660156 19.1875 -4.265625 C 19.28125 -3.867188 19.472656 -3.59375 19.765625 -3.4375 C 20.054688 -3.28125 20.507812 -3.191406 21.125 -3.171875 Z M 21.125 -3.171875" transform="translate(165.384 207.177)"/></g></g></g><g fill="#6E00C8"><g><g><path d="M 9.859375 0.328125 C 7.296875 0.328125 5.210938 -0.394531 3.609375 -1.84375 C 2.015625 -3.300781 1.21875 -5.410156 1.21875 -8.171875 C 1.21875 -9.660156 1.539062 -11.0625 2.1875 -12.375 C 2.84375 -13.695312 3.800781 -14.765625 5.0625 -15.578125 C 6.320312 -16.398438 7.835938 -16.8125 9.609375 -16.8125 C 10.910156 -16.8125 12.046875 -16.6875 13.015625 -16.4375 C 13.984375 -16.1875 14.863281 -15.804688 15.65625 -15.296875 C 15.414062 -14.171875 15.296875 -12.6875 15.296875 -10.84375 C 14.597656 -10.53125 13.648438 -10.375 12.453125 -10.375 C 12.378906 -11.738281 12.09375 -12.785156 11.59375 -13.515625 C 11.09375 -14.242188 10.429688 -14.609375 9.609375 -14.609375 C 8.628906 -14.609375 7.863281 -14.070312 7.3125 -13 C 6.757812 -11.9375 6.484375 -10.492188 6.484375 -8.671875 C 6.484375 -6.972656 6.894531 -5.503906 7.71875 -4.265625 C 8.550781 -3.023438 9.757812 -2.40625 11.34375 -2.40625 C 12.875 -2.40625 14.132812 -2.875 15.125 -3.8125 C 15.625 -3.351562 15.910156 -2.78125 15.984375 -2.09375 C 15.335938 -1.320312 14.488281 -0.722656 13.4375 -0.296875 C 12.394531 0.117188 11.203125 0.328125 9.859375 0.328125 Z M 9.859375 0.328125" transform="translate(187.092 207.177)"/></g></g></g><g fill="#6E00C8"><g><g><path d="M 18.796875 -3.171875 C 18.816406 -3.023438 18.828125 -2.796875 18.828125 -2.484375 C 18.828125 -1.910156 18.71875 -1.367188 18.5 -0.859375 C 16.53125 -0.785156 14.742188 -0.390625 13.140625 0.328125 C 12.734375 0.160156 12.4375 -0.0820312 12.25 -0.40625 C 12.070312 -0.738281 11.984375 -1.191406 11.984375 -1.765625 C 11.984375 -2.003906 12.03125 -2.457031 12.125 -3.125 C 11.75 -2.238281 11.25 -1.546875 10.625 -1.046875 C 9.613281 -0.179688 8.207031 0.25 6.40625 0.25 C 4.769531 0.25 3.507812 -0.0976562 2.625 -0.796875 C 1.738281 -1.492188 1.296875 -2.488281 1.296875 -3.78125 C 1.296875 -5.820312 2.253906 -7.28125 4.171875 -8.15625 C 6.097656 -9.03125 8.523438 -9.671875 11.453125 -10.078125 C 11.453125 -11.128906 11.394531 -11.925781 11.28125 -12.46875 C 11.175781 -13.007812 10.96875 -13.460938 10.65625 -13.828125 C 10.125 -14.421875 9.453125 -14.71875 8.640625 -14.71875 C 7.722656 -14.71875 7.039062 -14.332031 6.59375 -13.5625 C 6.15625 -12.800781 5.890625 -11.84375 5.796875 -10.6875 C 5.097656 -10.6875 4.515625 -10.710938 4.046875 -10.765625 C 3.578125 -10.816406 3.148438 -10.910156 2.765625 -11.046875 C 2.816406 -11.671875 2.84375 -12.175781 2.84375 -12.5625 C 2.84375 -13.570312 2.75 -14.507812 2.5625 -15.375 C 3.59375 -15.832031 4.757812 -16.191406 6.0625 -16.453125 C 7.375 -16.710938 8.617188 -16.84375 9.796875 -16.84375 C 12.242188 -16.84375 14.019531 -16.289062 15.125 -15.1875 C 15.644531 -14.664062 16.035156 -13.941406 16.296875 -13.015625 C 16.566406 -12.085938 16.703125 -10.820312 16.703125 -9.21875 L 16.703125 -6.125 C 16.703125 -5.300781 16.75 -4.691406 16.84375 -4.296875 C 16.9375 -3.898438 17.128906 -3.617188 17.421875 -3.453125 C 17.710938 -3.285156 18.171875 -3.191406 18.796875 -3.171875 Z M 11.453125 -8.140625 C 9.816406 -7.847656 8.585938 -7.460938 7.765625 -6.984375 C 6.953125 -6.503906 6.546875 -5.757812 6.546875 -4.75 C 6.546875 -4.101562 6.707031 -3.617188 7.03125 -3.296875 C 7.363281 -2.972656 7.769531 -2.8125 8.25 -2.8125 C 8.769531 -2.8125 9.273438 -2.976562 9.765625 -3.3125 C 10.265625 -3.644531 10.671875 -4.140625 10.984375 -4.796875 C 11.296875 -5.460938 11.453125 -6.265625 11.453125 -7.203125 Z M 11.453125 -8.140625" transform="translate(203.58 207.177)"/></g></g></g><g fill="#6E00C8"><g><g><path d="M 9.859375 0.328125 C 7.296875 0.328125 5.210938 -0.394531 3.609375 -1.84375 C 2.015625 -3.300781 1.21875 -5.410156 1.21875 -8.171875 C 1.21875 -9.660156 1.539062 -11.0625 2.1875 -12.375 C 2.84375 -13.695312 3.800781 -14.765625 5.0625 -15.578125 C 6.320312 -16.398438 7.835938 -16.8125 9.609375 -16.8125 C 10.910156 -16.8125 12.046875 -16.6875 13.015625 -16.4375 C 13.984375 -16.1875 14.863281 -15.804688 15.65625 -15.296875 C 15.414062 -14.171875 15.296875 -12.6875 15.296875 -10.84375 C 14.597656 -10.53125 13.648438 -10.375 12.453125 -10.375 C 12.378906 -11.738281 12.09375 -12.785156 11.59375 -13.515625 C 11.09375 -14.242188 10.429688 -14.609375 9.609375 -14.609375 C 8.628906 -14.609375 7.863281 -14.070312 7.3125 -13 C 6.757812 -11.9375 6.484375 -10.492188 6.484375 -8.671875 C 6.484375 -6.972656 6.894531 -5.503906 7.71875 -4.265625 C 8.550781 -3.023438 9.757812 -2.40625 11.34375 -2.40625 C 12.875 -2.40625 14.132812 -2.875 15.125 -3.8125 C 15.625 -3.351562 15.910156 -2.78125 15.984375 -2.09375 C 15.335938 -1.320312 14.488281 -0.722656 13.4375 -0.296875 C 12.394531 0.117188 11.203125 0.328125 9.859375 0.328125 Z M 9.859375 0.328125" transform="translate(222.984 207.177)"/></g></g></g><g fill="#6E00C8"><g><g><path d="M 6.078125 -19.578125 C 5.191406 -19.578125 4.472656 -19.8125 3.921875 -20.28125 C 3.367188 -20.75 3.09375 -21.367188 3.09375 -22.140625 C 3.09375 -22.984375 3.382812 -23.648438 3.96875 -24.140625 C 4.5625 -24.628906 5.316406 -24.875 6.234375 -24.875 C 7.210938 -24.875 7.972656 -24.632812 8.515625 -24.15625 C 9.054688 -23.675781 9.328125 -23.015625 9.328125 -22.171875 C 9.328125 -21.429688 9.03125 -20.8125 8.4375 -20.3125 C 7.851562 -19.820312 7.066406 -19.578125 6.078125 -19.578125 Z M 1.21875 0.109375 C 1.21875 -0.847656 1.300781 -1.59375 1.46875 -2.125 C 2.4375 -2.175781 3.082031 -2.410156 3.40625 -2.828125 C 3.726562 -3.242188 3.890625 -4.050781 3.890625 -5.25 L 3.890625 -10.984375 C 3.890625 -11.867188 3.710938 -12.492188 3.359375 -12.859375 C 3.015625 -13.234375 2.300781 -13.445312 1.21875 -13.5 C 1.21875 -14.414062 1.351562 -15.125 1.625 -15.625 C 2.800781 -15.625 4.035156 -15.75 5.328125 -16 C 6.617188 -16.25 7.539062 -16.519531 8.09375 -16.8125 C 8.789062 -16.519531 9.140625 -15.882812 9.140625 -14.90625 L 9.140625 -5.25 C 9.140625 -4.050781 9.296875 -3.242188 9.609375 -2.828125 C 9.921875 -2.410156 10.519531 -2.175781 11.40625 -2.125 C 11.550781 -1.664062 11.625 -0.921875 11.625 0.109375 C 10.59375 0.0351562 8.863281 0 6.4375 0 C 3.96875 0 2.226562 0.0351562 1.21875 0.109375 Z M 1.21875 0.109375" transform="translate(239.472 207.177)"/></g></g></g><g fill="#6E00C8"><g><g><path d="M 10.21875 0.328125 C 7.363281 0.328125 5.148438 -0.421875 3.578125 -1.921875 C 2.003906 -3.421875 1.21875 -5.46875 1.21875 -8.0625 C 1.21875 -9.863281 1.613281 -11.421875 2.40625 -12.734375 C 3.195312 -14.054688 4.289062 -15.066406 5.6875 -15.765625 C 7.082031 -16.460938 8.65625 -16.8125 10.40625 -16.8125 C 13.3125 -16.8125 15.539062 -16.039062 17.09375 -14.5 C 18.65625 -12.96875 19.4375 -10.929688 19.4375 -8.390625 C 19.4375 -6.640625 19.054688 -5.101562 18.296875 -3.78125 C 17.546875 -2.457031 16.472656 -1.441406 15.078125 -0.734375 C 13.691406 -0.0234375 12.070312 0.328125 10.21875 0.328125 Z M 10.734375 -1.984375 C 11.785156 -1.984375 12.597656 -2.5 13.171875 -3.53125 C 13.753906 -4.5625 14.046875 -5.90625 14.046875 -7.5625 C 14.046875 -9.019531 13.859375 -10.28125 13.484375 -11.34375 C 13.109375 -12.414062 12.609375 -13.226562 11.984375 -13.78125 C 11.359375 -14.332031 10.675781 -14.609375 9.9375 -14.609375 C 8.882812 -14.609375 8.070312 -14.101562 7.5 -13.09375 C 6.9375 -12.09375 6.65625 -10.773438 6.65625 -9.140625 C 6.65625 -6.984375 7.015625 -5.25 7.734375 -3.9375 C 8.453125 -2.632812 9.453125 -1.984375 10.734375 -1.984375 Z M 10.734375 -1.984375" transform="translate(251.928 207.177)"/></g></g></g><g fill="#6E00C8"><g><g><path d="M 22.390625 -2.125 C 22.585938 -1.664062 22.6875 -0.921875 22.6875 0.109375 C 20.59375 0.0351562 19.09375 0 18.1875 0 C 15.851562 0 14.125 0.0351562 13 0.109375 C 13 -0.878906 13.09375 -1.625 13.28125 -2.125 C 13.976562 -2.125 14.492188 -2.375 14.828125 -2.875 C 15.171875 -3.382812 15.34375 -4.265625 15.34375 -5.515625 L 15.34375 -9.28125 C 15.34375 -10.75 15.117188 -11.785156 14.671875 -12.390625 C 14.222656 -13.003906 13.546875 -13.3125 12.640625 -13.3125 C 11.679688 -13.3125 10.859375 -12.800781 10.171875 -11.78125 C 9.484375 -10.769531 9.140625 -9.363281 9.140625 -7.5625 L 9.140625 -5.25 C 9.140625 -4.050781 9.296875 -3.226562 9.609375 -2.78125 C 9.921875 -2.34375 10.453125 -2.125 11.203125 -2.125 C 11.390625 -1.59375 11.484375 -0.847656 11.484375 0.109375 C 10.453125 0.0351562 8.796875 0 6.515625 0 C 4.066406 0 2.300781 0.0351562 1.21875 0.109375 C 1.21875 -0.921875 1.316406 -1.664062 1.515625 -2.125 C 2.453125 -2.125 3.082031 -2.335938 3.40625 -2.765625 C 3.726562 -3.203125 3.890625 -4.03125 3.890625 -5.25 L 3.890625 -10.578125 C 3.890625 -11.328125 3.828125 -11.894531 3.703125 -12.28125 C 3.585938 -12.664062 3.347656 -12.953125 2.984375 -13.140625 C 2.628906 -13.328125 2.054688 -13.445312 1.265625 -13.5 C 1.265625 -14.4375 1.40625 -15.144531 1.6875 -15.625 C 2.957031 -15.644531 4.191406 -15.769531 5.390625 -16 C 6.597656 -16.226562 7.5 -16.5 8.09375 -16.8125 C 8.789062 -16.550781 9.140625 -15.890625 9.140625 -14.828125 C 9.140625 -14.179688 9.019531 -13.460938 8.78125 -12.671875 C 8.832031 -12.742188 8.945312 -12.976562 9.125 -13.375 C 9.300781 -13.769531 9.523438 -14.125 9.796875 -14.4375 C 10.367188 -15.0625 11.085938 -15.582031 11.953125 -16 C 12.816406 -16.414062 13.773438 -16.625 14.828125 -16.625 C 16.484375 -16.625 17.859375 -16.148438 18.953125 -15.203125 C 20.046875 -14.253906 20.59375 -12.773438 20.59375 -10.765625 L 20.59375 -5.25 C 20.59375 -4.070312 20.722656 -3.253906 20.984375 -2.796875 C 21.253906 -2.347656 21.722656 -2.125 22.390625 -2.125 Z M 22.390625 -2.125" transform="translate(272.232 207.177)"/></g></g></g><g fill="#6E00C8"><g><g><path d="M 18.796875 -3.171875 C 18.816406 -3.023438 18.828125 -2.796875 18.828125 -2.484375 C 18.828125 -1.910156 18.71875 -1.367188 18.5 -0.859375 C 16.53125 -0.785156 14.742188 -0.390625 13.140625 0.328125 C 12.734375 0.160156 12.4375 -0.0820312 12.25 -0.40625 C 12.070312 -0.738281 11.984375 -1.191406 11.984375 -1.765625 C 11.984375 -2.003906 12.03125 -2.457031 12.125 -3.125 C 11.75 -2.238281 11.25 -1.546875 10.625 -1.046875 C 9.613281 -0.179688 8.207031 0.25 6.40625 0.25 C 4.769531 0.25 3.507812 -0.0976562 2.625 -0.796875 C 1.738281 -1.492188 1.296875 -2.488281 1.296875 -3.78125 C 1.296875 -5.820312 2.253906 -7.28125 4.171875 -8.15625 C 6.097656 -9.03125 8.523438 -9.671875 11.453125 -10.078125 C 11.453125 -11.128906 11.394531 -11.925781 11.28125 -12.46875 C 11.175781 -13.007812 10.96875 -13.460938 10.65625 -13.828125 C 10.125 -14.421875 9.453125 -14.71875 8.640625 -14.71875 C 7.722656 -14.71875 7.039062 -14.332031 6.59375 -13.5625 C 6.15625 -12.800781 5.890625 -11.84375 5.796875 -10.6875 C 5.097656 -10.6875 4.515625 -10.710938 4.046875 -10.765625 C 3.578125 -10.816406 3.148438 -10.910156 2.765625 -11.046875 C 2.816406 -11.671875 2.84375 -12.175781 2.84375 -12.5625 C 2.84375 -13.570312 2.75 -14.507812 2.5625 -15.375 C 3.59375 -15.832031 4.757812 -16.191406 6.0625 -16.453125 C 7.375 -16.710938 8.617188 -16.84375 9.796875 -16.84375 C 12.242188 -16.84375 14.019531 -16.289062 15.125 -15.1875 C 15.644531 -14.664062 16.035156 -13.941406 16.296875 -13.015625 C 16.566406 -12.085938 16.703125 -10.820312 16.703125 -9.21875 L 16.703125 -6.125 C 16.703125 -5.300781 16.75 -4.691406 16.84375 -4.296875 C 16.9375 -3.898438 17.128906 -3.617188 17.421875 -3.453125 C 17.710938 -3.285156 18.171875 -3.191406 18.796875 -3.171875 Z M 11.453125 -8.140625 C 9.816406 -7.847656 8.585938 -7.460938 7.765625 -6.984375 C 6.953125 -6.503906 6.546875 -5.757812 6.546875 -4.75 C 6.546875 -4.101562 6.707031 -3.617188 7.03125 -3.296875 C 7.363281 -2.972656 7.769531 -2.8125 8.25 -2.8125 C 8.769531 -2.8125 9.273438 -2.976562 9.765625 -3.3125 C 10.265625 -3.644531 10.671875 -4.140625 10.984375 -4.796875 C 11.296875 -5.460938 11.453125 -6.265625 11.453125 -7.203125 Z M 11.453125 -8.140625" transform="translate(295.74 207.177)"/></g></g></g><g fill="#6E00C8"><g><g><path d="M 0.96875 0.109375 C 0.96875 -0.847656 1.050781 -1.59375 1.21875 -2.125 C 2.175781 -2.175781 2.816406 -2.410156 3.140625 -2.828125 C 3.472656 -3.242188 3.640625 -4.050781 3.640625 -5.25 L 3.640625 -20.203125 C 3.640625 -20.992188 3.453125 -21.5625 3.078125 -21.90625 C 2.703125 -22.25 2 -22.445312 0.96875 -22.5 C 0.96875 -23.414062 1.101562 -24.125 1.375 -24.625 C 2.539062 -24.625 3.769531 -24.75 5.0625 -25 C 6.363281 -25.25 7.28125 -25.519531 7.8125 -25.8125 C 8.53125 -25.519531 8.890625 -24.882812 8.890625 -23.90625 L 8.890625 -5.25 C 8.890625 -4.050781 9.046875 -3.242188 9.359375 -2.828125 C 9.671875 -2.410156 10.269531 -2.175781 11.15625 -2.125 C 11.300781 -1.664062 11.375 -0.921875 11.375 0.109375 C 10.34375 0.0351562 8.613281 0 6.1875 0 C 3.71875 0 1.976562 0.0351562 0.96875 0.109375 Z M 0.96875 0.109375" transform="translate(315.144 207.177)"/></g></g></g><g fill="#6E00C8"><g><g><path d="M 9.828125 0.328125 C 8.316406 0.328125 6.90625 0.148438 5.59375 -0.203125 C 4.289062 -0.566406 2.976562 -1.113281 1.65625 -1.84375 C 1.945312 -3.320312 2.09375 -5.203125 2.09375 -7.484375 C 2.925781 -7.722656 4.03125 -7.84375 5.40625 -7.84375 C 5.519531 -5.738281 5.90625 -4.253906 6.5625 -3.390625 C 7.226562 -2.523438 8.351562 -2.09375 9.9375 -2.09375 C 11.28125 -2.09375 12.273438 -2.375 12.921875 -2.9375 C 13.566406 -3.5 13.890625 -4.210938 13.890625 -5.078125 C 13.890625 -5.742188 13.691406 -6.320312 13.296875 -6.8125 C 12.898438 -7.3125 12.394531 -7.734375 11.78125 -8.078125 C 11.175781 -8.429688 10.332031 -8.859375 9.25 -9.359375 C 7.738281 -10.054688 6.507812 -10.707031 5.5625 -11.3125 C 4.613281 -11.925781 3.800781 -12.75 3.125 -13.78125 C 2.457031 -14.820312 2.125 -16.109375 2.125 -17.640625 C 2.125 -19.941406 2.867188 -21.6875 4.359375 -22.875 C 5.847656 -24.0625 7.800781 -24.65625 10.21875 -24.65625 C 11.519531 -24.65625 12.8125 -24.5 14.09375 -24.1875 C 15.375 -23.875 16.351562 -23.503906 17.03125 -23.078125 C 17.03125 -20.796875 17.113281 -19.078125 17.28125 -17.921875 C 16.894531 -17.734375 16.40625 -17.59375 15.8125 -17.5 C 15.226562 -17.40625 14.648438 -17.359375 14.078125 -17.359375 C 13.742188 -19.253906 13.242188 -20.5625 12.578125 -21.28125 C 11.921875 -22 11.039062 -22.359375 9.9375 -22.359375 C 8.925781 -22.359375 8.117188 -22.125 7.515625 -21.65625 C 6.921875 -21.1875 6.625 -20.507812 6.625 -19.625 C 6.625 -18.90625 6.84375 -18.273438 7.28125 -17.734375 C 7.726562 -17.191406 8.28125 -16.726562 8.9375 -16.34375 C 9.601562 -15.957031 10.507812 -15.5 11.65625 -14.96875 C 13.195312 -14.25 14.445312 -13.585938 15.40625 -12.984375 C 16.363281 -12.390625 17.175781 -11.585938 17.84375 -10.578125 C 18.519531 -9.578125 18.859375 -8.34375 18.859375 -6.875 C 18.859375 -4.71875 18.082031 -2.976562 16.53125 -1.65625 C 14.988281 -0.332031 12.753906 0.328125 9.828125 0.328125 Z M 9.828125 0.328125" transform="translate(121.536 246.177)"/></g></g></g><g fill="#6E00C8"><g><g><path d="M 18.796875 -3.171875 C 18.816406 -3.023438 18.828125 -2.796875 18.828125 -2.484375 C 18.828125 -1.910156 18.71875 -1.367188 18.5 -0.859375 C 16.53125 -0.785156 14.742188 -0.390625 13.140625 0.328125 C 12.734375 0.160156 12.4375 -0.0820312 12.25 -0.40625 C 12.070312 -0.738281 11.984375 -1.191406 11.984375 -1.765625 C 11.984375 -2.003906 12.03125 -2.457031 12.125 -3.125 C 11.75 -2.238281 11.25 -1.546875 10.625 -1.046875 C 9.613281 -0.179688 8.207031 0.25 6.40625 0.25 C 4.769531 0.25 3.507812 -0.0976562 2.625 -0.796875 C 1.738281 -1.492188 1.296875 -2.488281 1.296875 -3.78125 C 1.296875 -5.820312 2.253906 -7.28125 4.171875 -8.15625 C 6.097656 -9.03125 8.523438 -9.671875 11.453125 -10.078125 C 11.453125 -11.128906 11.394531 -11.925781 11.28125 -12.46875 C 11.175781 -13.007812 10.96875 -13.460938 10.65625 -13.828125 C 10.125 -14.421875 9.453125 -14.71875 8.640625 -14.71875 C 7.722656 -14.71875 7.039062 -14.332031 6.59375 -13.5625 C 6.15625 -12.800781 5.890625 -11.84375 5.796875 -10.6875 C 5.097656 -10.6875 4.515625 -10.710938 4.046875 -10.765625 C 3.578125 -10.816406 3.148438 -10.910156 2.765625 -11.046875 C 2.816406 -11.671875 2.84375 -12.175781 2.84375 -12.5625 C 2.84375 -13.570312 2.75 -14.507812 2.5625 -15.375 C 3.59375 -15.832031 4.757812 -16.191406 6.0625 -16.453125 C 7.375 -16.710938 8.617188 -16.84375 9.796875 -16.84375 C 12.242188 -16.84375 14.019531 -16.289062 15.125 -15.1875 C 15.644531 -14.664062 16.035156 -13.941406 16.296875 -13.015625 C 16.566406 -12.085938 16.703125 -10.820312 16.703125 -9.21875 L 16.703125 -6.125 C 16.703125 -5.300781 16.75 -4.691406 16.84375 -4.296875 C 16.9375 -3.898438 17.128906 -3.617188 17.421875 -3.453125 C 17.710938 -3.285156 18.171875 -3.191406 18.796875 -3.171875 Z M 11.453125 -8.140625 C 9.816406 -7.847656 8.585938 -7.460938 7.765625 -6.984375 C 6.953125 -6.503906 6.546875 -5.757812 6.546875 -4.75 C 6.546875 -4.101562 6.707031 -3.617188 7.03125 -3.296875 C 7.363281 -2.972656 7.769531 -2.8125 8.25 -2.8125 C 8.769531 -2.8125 9.273438 -2.976562 9.765625 -3.3125 C 10.265625 -3.644531 10.671875 -4.140625 10.984375 -4.796875 C 11.296875 -5.460938 11.453125 -6.265625 11.453125 -7.203125 Z M 11.453125 -8.140625" transform="translate(141.3 246.177)"/></g></g></g><g fill="#6E00C8"><g><g><path d="M 13.390625 -16.8125 C 15.578125 -16.8125 17.304688 -16.179688 18.578125 -14.921875 C 19.847656 -13.660156 20.484375 -11.757812 20.484375 -9.21875 C 20.484375 -7.363281 20.070312 -5.71875 19.25 -4.28125 C 18.4375 -2.84375 17.28125 -1.710938 15.78125 -0.890625 C 14.28125 -0.078125 12.5625 0.328125 10.625 0.328125 C 8.769531 0.328125 7.046875 0.09375 5.453125 -0.375 C 3.859375 -0.84375 2.675781 -1.460938 1.90625 -2.234375 C 2.195312 -2.566406 2.40625 -3.039062 2.53125 -3.65625 C 2.664062 -4.269531 2.734375 -5.113281 2.734375 -6.1875 L 2.734375 -19.984375 C 2.734375 -20.867188 2.554688 -21.492188 2.203125 -21.859375 C 1.859375 -22.234375 1.148438 -22.445312 0.078125 -22.5 C 0.078125 -23.414062 0.207031 -24.125 0.46875 -24.625 C 1.644531 -24.625 2.878906 -24.75 4.171875 -25 C 5.472656 -25.25 6.382812 -25.519531 6.90625 -25.8125 C 7.625 -25.519531 7.984375 -24.882812 7.984375 -23.90625 L 7.984375 -16.265625 C 7.984375 -15.359375 7.914062 -14.546875 7.78125 -13.828125 C 8.039062 -14.234375 8.328125 -14.566406 8.640625 -14.828125 C 9.117188 -15.335938 9.773438 -15.796875 10.609375 -16.203125 C 11.453125 -16.609375 12.378906 -16.8125 13.390625 -16.8125 Z M 10.65625 -1.84375 C 11.832031 -1.84375 12.863281 -2.328125 13.75 -3.296875 C 14.632812 -4.265625 15.078125 -5.972656 15.078125 -8.421875 C 15.078125 -10.054688 14.765625 -11.367188 14.140625 -12.359375 C 13.523438 -13.359375 12.710938 -13.859375 11.703125 -13.859375 C 10.671875 -13.859375 9.789062 -13.359375 9.0625 -12.359375 C 8.34375 -11.367188 7.984375 -9.828125 7.984375 -7.734375 L 7.984375 -3.0625 C 8.367188 -2.65625 8.769531 -2.347656 9.1875 -2.140625 C 9.613281 -1.941406 10.101562 -1.84375 10.65625 -1.84375 Z M 10.65625 -1.84375" transform="translate(160.704 246.177)"/></g></g></g><g fill="#6E00C8"><g><g><path d="M 16.125 -4.109375 C 16.363281 -3.960938 16.570312 -3.707031 16.75 -3.34375 C 16.9375 -2.988281 17.039062 -2.617188 17.0625 -2.234375 C 16.15625 -1.367188 15.125 -0.722656 13.96875 -0.296875 C 12.8125 0.117188 11.476562 0.328125 9.96875 0.328125 C 7.039062 0.328125 4.847656 -0.453125 3.390625 -2.015625 C 1.941406 -3.578125 1.21875 -5.617188 1.21875 -8.140625 C 1.21875 -9.835938 1.566406 -11.335938 2.265625 -12.640625 C 2.960938 -13.953125 3.945312 -14.972656 5.21875 -15.703125 C 6.488281 -16.441406 7.960938 -16.8125 9.640625 -16.8125 C 12.117188 -16.8125 13.972656 -16.117188 15.203125 -14.734375 C 16.441406 -13.359375 17.109375 -11.484375 17.203125 -9.109375 C 17.054688 -8.410156 16.757812 -7.832031 16.3125 -7.375 C 12.175781 -7.375 8.972656 -7.316406 6.703125 -7.203125 C 6.910156 -5.710938 7.410156 -4.539062 8.203125 -3.6875 C 8.992188 -2.832031 10.125 -2.40625 11.59375 -2.40625 C 12.4375 -2.40625 13.265625 -2.554688 14.078125 -2.859375 C 14.890625 -3.160156 15.570312 -3.578125 16.125 -4.109375 Z M 9.546875 -14.578125 C 8.679688 -14.578125 7.976562 -14.148438 7.4375 -13.296875 C 6.894531 -12.453125 6.597656 -11.1875 6.546875 -9.5 L 12.28125 -9.5 C 12.28125 -11.113281 12.046875 -12.363281 11.578125 -13.25 C 11.109375 -14.132812 10.429688 -14.578125 9.546875 -14.578125 Z M 9.546875 -14.578125" transform="translate(182.052 246.177)"/></g></g></g><g fill="#6E00C8"><g><g><path d="M 16.59375 -15.703125 C 16.375 -14.304688 16.265625 -12.890625 16.265625 -11.453125 C 16.265625 -10.972656 16.28125 -10.625 16.3125 -10.40625 C 15.613281 -10.144531 14.59375 -10.015625 13.25 -10.015625 C 13.226562 -10.921875 13.082031 -11.566406 12.8125 -11.953125 C 12.550781 -12.335938 12.179688 -12.53125 11.703125 -12.53125 C 11.335938 -12.53125 10.953125 -12.316406 10.546875 -11.890625 C 10.140625 -11.472656 9.800781 -10.914062 9.53125 -10.21875 C 9.269531 -9.53125 9.140625 -8.8125 9.140625 -8.0625 L 9.140625 -6.296875 C 9.140625 -5.242188 9.253906 -4.425781 9.484375 -3.84375 C 9.710938 -3.269531 10.078125 -2.859375 10.578125 -2.609375 C 11.085938 -2.359375 11.8125 -2.195312 12.75 -2.125 C 12.914062 -1.644531 13 -0.898438 13 0.109375 C 11.726562 0.0351562 9.851562 0 7.375 0 C 4.59375 0 2.539062 0.0351562 1.21875 0.109375 C 1.21875 -0.847656 1.289062 -1.59375 1.4375 -2.125 C 2.113281 -2.175781 2.617188 -2.300781 2.953125 -2.5 C 3.285156 -2.707031 3.523438 -3.054688 3.671875 -3.546875 C 3.816406 -4.035156 3.890625 -4.773438 3.890625 -5.765625 L 3.890625 -10.578125 C 3.890625 -11.328125 3.828125 -11.894531 3.703125 -12.28125 C 3.585938 -12.664062 3.347656 -12.953125 2.984375 -13.140625 C 2.628906 -13.328125 2.054688 -13.445312 1.265625 -13.5 C 1.265625 -14.4375 1.40625 -15.144531 1.6875 -15.625 C 2.957031 -15.644531 4.191406 -15.769531 5.390625 -16 C 6.597656 -16.226562 7.5 -16.5 8.09375 -16.8125 C 8.789062 -16.550781 9.140625 -15.890625 9.140625 -14.828125 C 9.140625 -14.347656 9.082031 -13.8125 8.96875 -13.21875 C 8.863281 -12.632812 8.726562 -12.019531 8.5625 -11.375 C 8.945312 -12.550781 9.25 -13.304688 9.46875 -13.640625 C 10.019531 -14.523438 10.6875 -15.234375 11.46875 -15.765625 C 12.25 -16.296875 13.09375 -16.5625 14 -16.5625 C 14.988281 -16.5625 15.851562 -16.273438 16.59375 -15.703125 Z M 16.59375 -15.703125" transform="translate(200.16 246.177)"/></g></g></g><g fill="#6E00C8"><g><g><path d="M 18.25 -10.515625 C 18.25 -9.890625 18.222656 -9.394531 18.171875 -9.03125 C 18.128906 -8.675781 18.007812 -8.316406 17.8125 -7.953125 C 15.894531 -7.972656 13.691406 -7.984375 11.203125 -7.984375 L 11.203125 -0.5 C 10.960938 -0.351562 10.585938 -0.242188 10.078125 -0.171875 C 9.578125 -0.109375 9.0625 -0.078125 8.53125 -0.078125 C 8.582031 -1.660156 8.609375 -4.296875 8.609375 -7.984375 C 7.046875 -7.984375 4.679688 -7.960938 1.515625 -7.921875 C 1.515625 -9.023438 1.65625 -9.890625 1.9375 -10.515625 L 8.609375 -10.515625 C 8.609375 -13.203125 8.59375 -15.601562 8.5625 -17.71875 C 8.945312 -17.882812 9.316406 -17.992188 9.671875 -18.046875 C 10.035156 -18.109375 10.546875 -18.140625 11.203125 -18.140625 L 11.203125 -10.515625 Z M 18.25 -10.515625" transform="translate(223.848 246.177)"/></g></g></g><g fill="#FF7948"><g><g><path d="M 0.921875 0 L 0.921875 -7.828125 L 5.8125 -7.828125 L 5.8125 -6.34375 L 2.6875 -6.34375 L 2.6875 -4.765625 L 5.359375 -4.765625 L 5.359375 -3.28125 L 2.6875 -3.28125 L 2.6875 -1.484375 L 5.9375 -1.484375 L 5.9375 0 Z M 0.921875 0" transform="translate(121.536 272.727)"/></g></g></g><g fill="#FF7948"><g><g><path d="M 3.3125 0.140625 C 2.800781 0.140625 2.289062 0.046875 1.78125 -0.140625 C 1.269531 -0.328125 0.816406 -0.609375 0.421875 -0.984375 L 1.421875 -2.203125 C 1.703125 -1.960938 2.015625 -1.765625 2.359375 -1.609375 C 2.703125 -1.453125 3.035156 -1.375 3.359375 -1.375 C 3.722656 -1.375 3.992188 -1.441406 4.171875 -1.578125 C 4.359375 -1.710938 4.453125 -1.898438 4.453125 -2.140625 C 4.453125 -2.253906 4.425781 -2.351562 4.375 -2.4375 C 4.320312 -2.53125 4.242188 -2.609375 4.140625 -2.671875 C 4.046875 -2.742188 3.925781 -2.8125 3.78125 -2.875 C 3.644531 -2.9375 3.492188 -3.003906 3.328125 -3.078125 L 2.296875 -3.5 C 2.097656 -3.582031 1.90625 -3.6875 1.71875 -3.8125 C 1.53125 -3.945312 1.363281 -4.097656 1.21875 -4.265625 C 1.070312 -4.441406 0.953125 -4.640625 0.859375 -4.859375 C 0.773438 -5.085938 0.734375 -5.347656 0.734375 -5.640625 C 0.734375 -5.960938 0.800781 -6.265625 0.9375 -6.546875 C 1.070312 -6.828125 1.265625 -7.070312 1.515625 -7.28125 C 1.765625 -7.5 2.054688 -7.664062 2.390625 -7.78125 C 2.734375 -7.90625 3.109375 -7.96875 3.515625 -7.96875 C 3.972656 -7.96875 4.421875 -7.878906 4.859375 -7.703125 C 5.304688 -7.523438 5.695312 -7.269531 6.03125 -6.9375 L 5.140625 -5.8125 C 4.878906 -6.019531 4.617188 -6.175781 4.359375 -6.28125 C 4.109375 -6.382812 3.828125 -6.4375 3.515625 -6.4375 C 3.210938 -6.4375 2.96875 -6.375 2.78125 -6.25 C 2.601562 -6.132812 2.515625 -5.960938 2.515625 -5.734375 C 2.515625 -5.617188 2.546875 -5.515625 2.609375 -5.421875 C 2.671875 -5.335938 2.753906 -5.257812 2.859375 -5.1875 C 2.972656 -5.125 3.097656 -5.0625 3.234375 -5 C 3.378906 -4.945312 3.535156 -4.882812 3.703125 -4.8125 L 4.71875 -4.40625 C 5.195312 -4.207031 5.570312 -3.941406 5.84375 -3.609375 C 6.125 -3.273438 6.265625 -2.832031 6.265625 -2.28125 C 6.265625 -1.945312 6.195312 -1.632812 6.0625 -1.34375 C 5.9375 -1.050781 5.742188 -0.796875 5.484375 -0.578125 C 5.234375 -0.359375 4.925781 -0.179688 4.5625 -0.046875 C 4.195312 0.078125 3.78125 0.140625 3.3125 0.140625 Z M 3.3125 0.140625" transform="translate(130.512 272.727)"/></g></g></g><g fill="#FF7948"><g><g><path d="M 0.921875 0 L 0.921875 -7.828125 L 3.609375 -7.828125 C 4.046875 -7.828125 4.453125 -7.785156 4.828125 -7.703125 C 5.203125 -7.617188 5.53125 -7.476562 5.8125 -7.28125 C 6.09375 -7.082031 6.3125 -6.820312 6.46875 -6.5 C 6.632812 -6.175781 6.71875 -5.773438 6.71875 -5.296875 C 6.71875 -4.847656 6.632812 -4.453125 6.46875 -4.109375 C 6.3125 -3.773438 6.09375 -3.5 5.8125 -3.28125 C 5.53125 -3.070312 5.203125 -2.914062 4.828125 -2.8125 C 4.460938 -2.707031 4.070312 -2.65625 3.65625 -2.65625 L 2.6875 -2.65625 L 2.6875 0 Z M 2.6875 -4.0625 L 3.546875 -4.0625 C 4.503906 -4.0625 4.984375 -4.472656 4.984375 -5.296875 C 4.984375 -5.710938 4.851562 -6.003906 4.59375 -6.171875 C 4.34375 -6.335938 3.976562 -6.421875 3.5 -6.421875 L 2.6875 -6.421875 Z M 2.6875 -4.0625" transform="translate(139.584 272.727)"/></g></g></g><g fill="#FF7948"><g><g><path d="M 0.921875 0 L 0.921875 -7.828125 L 5.8125 -7.828125 L 5.8125 -6.34375 L 2.6875 -6.34375 L 2.6875 -4.765625 L 5.359375 -4.765625 L 5.359375 -3.28125 L 2.6875 -3.28125 L 2.6875 -1.484375 L 5.9375 -1.484375 L 5.9375 0 Z M 0.921875 0" transform="translate(149.136 272.727)"/></g></g></g><g fill="#FF7948"><g><g><path d="M 4.1875 0.140625 C 3.6875 0.140625 3.21875 0.0546875 2.78125 -0.109375 C 2.34375 -0.285156 1.957031 -0.539062 1.625 -0.875 C 1.289062 -1.207031 1.023438 -1.625 0.828125 -2.125 C 0.640625 -2.625 0.546875 -3.203125 0.546875 -3.859375 C 0.546875 -4.515625 0.644531 -5.09375 0.84375 -5.59375 C 1.050781 -6.101562 1.320312 -6.535156 1.65625 -6.890625 C 1.988281 -7.242188 2.378906 -7.507812 2.828125 -7.6875 C 3.273438 -7.875 3.75 -7.96875 4.25 -7.96875 C 4.75 -7.96875 5.195312 -7.863281 5.59375 -7.65625 C 6 -7.457031 6.332031 -7.222656 6.59375 -6.953125 L 5.65625 -5.8125 C 5.457031 -6 5.25 -6.148438 5.03125 -6.265625 C 4.8125 -6.378906 4.5625 -6.4375 4.28125 -6.4375 C 4.019531 -6.4375 3.769531 -6.378906 3.53125 -6.265625 C 3.300781 -6.148438 3.097656 -5.984375 2.921875 -5.765625 C 2.742188 -5.554688 2.601562 -5.296875 2.5 -4.984375 C 2.40625 -4.671875 2.359375 -4.316406 2.359375 -3.921875 C 2.359375 -3.117188 2.53125 -2.492188 2.875 -2.046875 C 3.21875 -1.597656 3.679688 -1.375 4.265625 -1.375 C 4.578125 -1.375 4.859375 -1.441406 5.109375 -1.578125 C 5.367188 -1.722656 5.59375 -1.898438 5.78125 -2.109375 L 6.71875 -1.015625 C 6.0625 -0.242188 5.21875 0.140625 4.1875 0.140625 Z M 4.1875 0.140625" transform="translate(158.112 272.727)"/></g></g></g><g fill="#FF7948"><g><g><path d="M 0.921875 0 L 0.921875 -7.828125 L 2.6875 -7.828125 L 2.6875 0 Z M 0.921875 0" transform="translate(167.496 272.727)"/></g></g></g><g fill="#FF7948"><g><g><path d="M 2.765625 -3.953125 L 2.5625 -3.234375 L 4.234375 -3.234375 L 4.0625 -3.953125 C 3.945312 -4.347656 3.835938 -4.765625 3.734375 -5.203125 C 3.628906 -5.648438 3.523438 -6.078125 3.421875 -6.484375 L 3.375 -6.484375 C 3.28125 -6.066406 3.179688 -5.640625 3.078125 -5.203125 C 2.972656 -4.765625 2.867188 -4.347656 2.765625 -3.953125 Z M -0.078125 0 L 2.375 -7.828125 L 4.5 -7.828125 L 6.953125 0 L 5.078125 0 L 4.59375 -1.859375 L 2.203125 -1.859375 L 1.734375 0 Z M -0.078125 0" transform="translate(173.508 272.727)"/></g></g></g><g fill="#FF7948"><g><g><path d="M 0.921875 0 L 0.921875 -7.828125 L 2.6875 -7.828125 L 2.6875 -1.484375 L 5.78125 -1.484375 L 5.78125 0 Z M 0.921875 0" transform="translate(182.784 272.727)"/></g></g></g><g fill="#FF7948"><g><g><path d="M 0.921875 0 L 0.921875 -7.828125 L 2.6875 -7.828125 L 2.6875 0 Z M 0.921875 0" transform="translate(191.4 272.727)"/></g></g></g><g fill="#FF7948"><g><g><path d="M 0.4375 0 L 0.4375 -1.0625 L 3.890625 -6.34375 L 0.75 -6.34375 L 0.75 -7.828125 L 6.0625 -7.828125 L 6.0625 -6.75 L 2.609375 -1.484375 L 6.09375 -1.484375 L 6.09375 0 Z M 0.4375 0" transform="translate(197.412 272.727)"/></g></g></g><g fill="#FF7948"><g><g><path d="M 2.765625 -3.953125 L 2.5625 -3.234375 L 4.234375 -3.234375 L 4.0625 -3.953125 C 3.945312 -4.347656 3.835938 -4.765625 3.734375 -5.203125 C 3.628906 -5.648438 3.523438 -6.078125 3.421875 -6.484375 L 3.375 -6.484375 C 3.28125 -6.066406 3.179688 -5.640625 3.078125 -5.203125 C 2.972656 -4.765625 2.867188 -4.347656 2.765625 -3.953125 Z M -0.078125 0 L 2.375 -7.828125 L 4.5 -7.828125 L 6.953125 0 L 5.078125 0 L 4.59375 -1.859375 L 2.203125 -1.859375 L 1.734375 0 Z M -0.078125 0" transform="translate(206.304 272.727)"/></g></g></g><g fill="#FF7948"><g><g><path d="M 4.1875 0.140625 C 3.6875 0.140625 3.21875 0.0546875 2.78125 -0.109375 C 2.34375 -0.285156 1.957031 -0.539062 1.625 -0.875 C 1.289062 -1.207031 1.023438 -1.625 0.828125 -2.125 C 0.640625 -2.625 0.546875 -3.203125 0.546875 -3.859375 C 0.546875 -4.515625 0.644531 -5.09375 0.84375 -5.59375 C 1.050781 -6.101562 1.320312 -6.535156 1.65625 -6.890625 C 1.988281 -7.242188 2.378906 -7.507812 2.828125 -7.6875 C 3.273438 -7.875 3.75 -7.96875 4.25 -7.96875 C 4.75 -7.96875 5.195312 -7.863281 5.59375 -7.65625 C 6 -7.457031 6.332031 -7.222656 6.59375 -6.953125 L 5.65625 -5.8125 C 5.457031 -6 5.25 -6.148438 5.03125 -6.265625 C 4.8125 -6.378906 4.5625 -6.4375 4.28125 -6.4375 C 4.019531 -6.4375 3.769531 -6.378906 3.53125 -6.265625 C 3.300781 -6.148438 3.097656 -5.984375 2.921875 -5.765625 C 2.742188 -5.554688 2.601562 -5.296875 2.5 -4.984375 C 2.40625 -4.671875 2.359375 -4.316406 2.359375 -3.921875 C 2.359375 -3.117188 2.53125 -2.492188 2.875 -2.046875 C 3.21875 -1.597656 3.679688 -1.375 4.265625 -1.375 C 4.578125 -1.375 4.859375 -1.441406 5.109375 -1.578125 C 5.367188 -1.722656 5.59375 -1.898438 5.78125 -2.109375 L 6.71875 -1.015625 C 6.0625 -0.242188 5.21875 0.140625 4.1875 0.140625 Z M 2.78125 2.875 L 2.640625 2.15625 C 3.117188 2.132812 3.441406 2.082031 3.609375 2 C 3.785156 1.925781 3.875 1.800781 3.875 1.625 C 3.875 1.507812 3.8125 1.410156 3.6875 1.328125 C 3.570312 1.242188 3.328125 1.175781 2.953125 1.125 L 3.53125 -0.046875 L 4.5625 -0.046875 L 4.234375 0.734375 C 4.535156 0.804688 4.757812 0.910156 4.90625 1.046875 C 5.0625 1.179688 5.140625 1.375 5.140625 1.625 C 5.140625 2.039062 4.929688 2.34375 4.515625 2.53125 C 4.109375 2.726562 3.53125 2.84375 2.78125 2.875 Z M 2.78125 2.875" transform="translate(215.58 272.727)"/></g></g></g><g fill="#FF7948"><g><g><path d="M 2.765625 -3.953125 L 2.5625 -3.234375 L 4.234375 -3.234375 L 4.0625 -3.953125 C 3.945312 -4.347656 3.835938 -4.765625 3.734375 -5.203125 C 3.628906 -5.648438 3.523438 -6.078125 3.421875 -6.484375 L 3.375 -6.484375 C 3.28125 -6.066406 3.179688 -5.640625 3.078125 -5.203125 C 2.972656 -4.765625 2.867188 -4.347656 2.765625 -3.953125 Z M -0.078125 0 L 2.375 -7.828125 L 4.5 -7.828125 L 6.953125 0 L 5.078125 0 L 4.59375 -1.859375 L 2.203125 -1.859375 L 1.734375 0 Z M 3.859375 -8.296875 C 3.640625 -8.296875 3.445312 -8.332031 3.28125 -8.40625 C 3.125 -8.476562 2.976562 -8.554688 2.84375 -8.640625 C 2.71875 -8.734375 2.601562 -8.816406 2.5 -8.890625 C 2.40625 -8.960938 2.304688 -9 2.203125 -9 C 2.097656 -9 2.003906 -8.953125 1.921875 -8.859375 C 1.835938 -8.773438 1.785156 -8.625 1.765625 -8.40625 L 0.625 -8.5 C 0.65625 -9.101562 0.8125 -9.539062 1.09375 -9.8125 C 1.375 -10.082031 1.722656 -10.21875 2.140625 -10.21875 C 2.359375 -10.21875 2.546875 -10.179688 2.703125 -10.109375 C 2.867188 -10.046875 3.015625 -9.96875 3.140625 -9.875 C 3.273438 -9.789062 3.390625 -9.710938 3.484375 -9.640625 C 3.585938 -9.566406 3.691406 -9.53125 3.796875 -9.53125 C 3.898438 -9.53125 3.992188 -9.570312 4.078125 -9.65625 C 4.160156 -9.75 4.210938 -9.898438 4.234375 -10.109375 L 5.375 -10.03125 C 5.34375 -9.425781 5.1875 -8.984375 4.90625 -8.703125 C 4.625 -8.429688 4.273438 -8.296875 3.859375 -8.296875 Z M 3.859375 -8.296875" transform="translate(224.964 272.727)"/></g></g></g><g fill="#FF7948"><g><g><path d="M 4.109375 0.140625 C 3.578125 0.140625 3.09375 0.046875 2.65625 -0.140625 C 2.21875 -0.328125 1.84375 -0.59375 1.53125 -0.9375 C 1.21875 -1.289062 0.972656 -1.71875 0.796875 -2.21875 C 0.628906 -2.726562 0.546875 -3.304688 0.546875 -3.953125 C 0.546875 -4.585938 0.628906 -5.15625 0.796875 -5.65625 C 0.972656 -6.15625 1.21875 -6.570312 1.53125 -6.90625 C 1.84375 -7.25 2.21875 -7.507812 2.65625 -7.6875 C 3.09375 -7.875 3.578125 -7.96875 4.109375 -7.96875 C 4.628906 -7.96875 5.109375 -7.875 5.546875 -7.6875 C 5.984375 -7.507812 6.359375 -7.25 6.671875 -6.90625 C 6.984375 -6.5625 7.222656 -6.140625 7.390625 -5.640625 C 7.566406 -5.140625 7.65625 -4.578125 7.65625 -3.953125 C 7.65625 -3.304688 7.566406 -2.726562 7.390625 -2.21875 C 7.222656 -1.71875 6.984375 -1.289062 6.671875 -0.9375 C 6.359375 -0.59375 5.984375 -0.328125 5.546875 -0.140625 C 5.109375 0.046875 4.628906 0.140625 4.109375 0.140625 Z M 4.109375 -1.375 C 4.640625 -1.375 5.0625 -1.601562 5.375 -2.0625 C 5.6875 -2.53125 5.84375 -3.160156 5.84375 -3.953125 C 5.84375 -4.734375 5.6875 -5.34375 5.375 -5.78125 C 5.0625 -6.21875 4.640625 -6.4375 4.109375 -6.4375 C 3.566406 -6.4375 3.140625 -6.21875 2.828125 -5.78125 C 2.515625 -5.34375 2.359375 -4.734375 2.359375 -3.953125 C 2.359375 -3.160156 2.515625 -2.53125 2.828125 -2.0625 C 3.140625 -1.601562 3.566406 -1.375 4.109375 -1.375 Z M 4.109375 -1.375" transform="translate(234.24 272.727)"/></g></g></g><g fill="#FF7948"><g><g><path d="M 0.921875 0 L 0.921875 -7.828125 L 5.8125 -7.828125 L 5.8125 -6.34375 L 2.6875 -6.34375 L 2.6875 -4.765625 L 5.359375 -4.765625 L 5.359375 -3.28125 L 2.6875 -3.28125 L 2.6875 -1.484375 L 5.9375 -1.484375 L 5.9375 0 Z M 0.921875 0" transform="translate(249.648 272.727)"/></g></g></g><g fill="#FF7948"><g><g><path d="M 0.921875 0 L 0.921875 -7.828125 L 2.859375 -7.828125 L 4.109375 -4.34375 C 4.191406 -4.113281 4.269531 -3.875 4.34375 -3.625 C 4.414062 -3.382812 4.492188 -3.144531 4.578125 -2.90625 L 4.625 -2.90625 C 4.695312 -3.144531 4.765625 -3.382812 4.828125 -3.625 C 4.898438 -3.875 4.976562 -4.113281 5.0625 -4.34375 L 6.296875 -7.828125 L 8.21875 -7.828125 L 8.21875 0 L 6.609375 0 L 6.609375 -2.875 C 6.609375 -3.0625 6.613281 -3.269531 6.625 -3.5 C 6.644531 -3.738281 6.664062 -3.972656 6.6875 -4.203125 C 6.71875 -4.441406 6.742188 -4.675781 6.765625 -4.90625 C 6.785156 -5.132812 6.8125 -5.34375 6.84375 -5.53125 L 6.796875 -5.53125 L 6.15625 -3.671875 L 5.046875 -0.6875 L 4.0625 -0.6875 L 2.953125 -3.671875 L 2.328125 -5.53125 L 2.28125 -5.53125 C 2.300781 -5.34375 2.320312 -5.132812 2.34375 -4.90625 C 2.375 -4.675781 2.398438 -4.441406 2.421875 -4.203125 C 2.441406 -3.972656 2.460938 -3.738281 2.484375 -3.5 C 2.503906 -3.269531 2.515625 -3.0625 2.515625 -2.875 L 2.515625 0 Z M 0.921875 0" transform="translate(258.624 272.727)"/></g></g></g><g fill="#FF7948"><g><g><path d="M 2.765625 -3.953125 L 2.5625 -3.234375 L 4.234375 -3.234375 L 4.0625 -3.953125 C 3.945312 -4.347656 3.835938 -4.765625 3.734375 -5.203125 C 3.628906 -5.648438 3.523438 -6.078125 3.421875 -6.484375 L 3.375 -6.484375 C 3.28125 -6.066406 3.179688 -5.640625 3.078125 -5.203125 C 2.972656 -4.765625 2.867188 -4.347656 2.765625 -3.953125 Z M -0.078125 0 L 2.375 -7.828125 L 4.5 -7.828125 L 6.953125 0 L 5.078125 0 L 4.59375 -1.859375 L 2.203125 -1.859375 L 1.734375 0 Z M -0.078125 0" transform="translate(121.536 286.977)"/></g></g></g><g fill="#FF7948"><g><g><path d="M 4.015625 0.140625 C 2.992188 0.140625 2.210938 -0.15625 1.671875 -0.75 C 1.140625 -1.351562 0.875 -2.3125 0.875 -3.625 L 0.875 -7.828125 L 2.65625 -7.828125 L 2.65625 -3.4375 C 2.65625 -2.675781 2.769531 -2.140625 3 -1.828125 C 3.226562 -1.523438 3.566406 -1.375 4.015625 -1.375 C 4.453125 -1.375 4.789062 -1.523438 5.03125 -1.828125 C 5.269531 -2.140625 5.390625 -2.675781 5.390625 -3.4375 L 5.390625 -7.828125 L 7.09375 -7.828125 L 7.09375 -3.625 C 7.09375 -2.3125 6.828125 -1.351562 6.296875 -0.75 C 5.773438 -0.15625 5.015625 0.140625 4.015625 0.140625 Z M 4.015625 0.140625" transform="translate(130.812 286.977)"/></g></g></g><g fill="#FF7948"><g><g><path d="M 3.3125 0.140625 C 2.800781 0.140625 2.289062 0.046875 1.78125 -0.140625 C 1.269531 -0.328125 0.816406 -0.609375 0.421875 -0.984375 L 1.421875 -2.203125 C 1.703125 -1.960938 2.015625 -1.765625 2.359375 -1.609375 C 2.703125 -1.453125 3.035156 -1.375 3.359375 -1.375 C 3.722656 -1.375 3.992188 -1.441406 4.171875 -1.578125 C 4.359375 -1.710938 4.453125 -1.898438 4.453125 -2.140625 C 4.453125 -2.253906 4.425781 -2.351562 4.375 -2.4375 C 4.320312 -2.53125 4.242188 -2.609375 4.140625 -2.671875 C 4.046875 -2.742188 3.925781 -2.8125 3.78125 -2.875 C 3.644531 -2.9375 3.492188 -3.003906 3.328125 -3.078125 L 2.296875 -3.5 C 2.097656 -3.582031 1.90625 -3.6875 1.71875 -3.8125 C 1.53125 -3.945312 1.363281 -4.097656 1.21875 -4.265625 C 1.070312 -4.441406 0.953125 -4.640625 0.859375 -4.859375 C 0.773438 -5.085938 0.734375 -5.347656 0.734375 -5.640625 C 0.734375 -5.960938 0.800781 -6.265625 0.9375 -6.546875 C 1.070312 -6.828125 1.265625 -7.070312 1.515625 -7.28125 C 1.765625 -7.5 2.054688 -7.664062 2.390625 -7.78125 C 2.734375 -7.90625 3.109375 -7.96875 3.515625 -7.96875 C 3.972656 -7.96875 4.421875 -7.878906 4.859375 -7.703125 C 5.304688 -7.523438 5.695312 -7.269531 6.03125 -6.9375 L 5.140625 -5.8125 C 4.878906 -6.019531 4.617188 -6.175781 4.359375 -6.28125 C 4.109375 -6.382812 3.828125 -6.4375 3.515625 -6.4375 C 3.210938 -6.4375 2.96875 -6.375 2.78125 -6.25 C 2.601562 -6.132812 2.515625 -5.960938 2.515625 -5.734375 C 2.515625 -5.617188 2.546875 -5.515625 2.609375 -5.421875 C 2.671875 -5.335938 2.753906 -5.257812 2.859375 -5.1875 C 2.972656 -5.125 3.097656 -5.0625 3.234375 -5 C 3.378906 -4.945312 3.535156 -4.882812 3.703125 -4.8125 L 4.71875 -4.40625 C 5.195312 -4.207031 5.570312 -3.941406 5.84375 -3.609375 C 6.125 -3.273438 6.265625 -2.832031 6.265625 -2.28125 C 6.265625 -1.945312 6.195312 -1.632812 6.0625 -1.34375 C 5.9375 -1.050781 5.742188 -0.796875 5.484375 -0.578125 C 5.234375 -0.359375 4.925781 -0.179688 4.5625 -0.046875 C 4.195312 0.078125 3.78125 0.140625 3.3125 0.140625 Z M 3.3125 0.140625" transform="translate(141.192 286.977)"/></g></g></g><g fill="#FF7948"><g><g><path d="M 2.453125 0 L 2.453125 -6.34375 L 0.296875 -6.34375 L 0.296875 -7.828125 L 6.375 -7.828125 L 6.375 -6.34375 L 4.21875 -6.34375 L 4.21875 0 Z M 2.453125 0" transform="translate(150.264 286.977)"/></g></g></g><g fill="#FF7948"><g><g><path d="M 0.921875 0 L 0.921875 -7.828125 L 2.6875 -7.828125 L 2.6875 0 Z M 0.921875 0" transform="translate(159.336 286.977)"/></g></g></g><g fill="#FF7948"><g><g><path d="M 3.3125 0.140625 C 2.800781 0.140625 2.289062 0.046875 1.78125 -0.140625 C 1.269531 -0.328125 0.816406 -0.609375 0.421875 -0.984375 L 1.421875 -2.203125 C 1.703125 -1.960938 2.015625 -1.765625 2.359375 -1.609375 C 2.703125 -1.453125 3.035156 -1.375 3.359375 -1.375 C 3.722656 -1.375 3.992188 -1.441406 4.171875 -1.578125 C 4.359375 -1.710938 4.453125 -1.898438 4.453125 -2.140625 C 4.453125 -2.253906 4.425781 -2.351562 4.375 -2.4375 C 4.320312 -2.53125 4.242188 -2.609375 4.140625 -2.671875 C 4.046875 -2.742188 3.925781 -2.8125 3.78125 -2.875 C 3.644531 -2.9375 3.492188 -3.003906 3.328125 -3.078125 L 2.296875 -3.5 C 2.097656 -3.582031 1.90625 -3.6875 1.71875 -3.8125 C 1.53125 -3.945312 1.363281 -4.097656 1.21875 -4.265625 C 1.070312 -4.441406 0.953125 -4.640625 0.859375 -4.859375 C 0.773438 -5.085938 0.734375 -5.347656 0.734375 -5.640625 C 0.734375 -5.960938 0.800781 -6.265625 0.9375 -6.546875 C 1.070312 -6.828125 1.265625 -7.070312 1.515625 -7.28125 C 1.765625 -7.5 2.054688 -7.664062 2.390625 -7.78125 C 2.734375 -7.90625 3.109375 -7.96875 3.515625 -7.96875 C 3.972656 -7.96875 4.421875 -7.878906 4.859375 -7.703125 C 5.304688 -7.523438 5.695312 -7.269531 6.03125 -6.9375 L 5.140625 -5.8125 C 4.878906 -6.019531 4.617188 -6.175781 4.359375 -6.28125 C 4.109375 -6.382812 3.828125 -6.4375 3.515625 -6.4375 C 3.210938 -6.4375 2.96875 -6.375 2.78125 -6.25 C 2.601562 -6.132812 2.515625 -5.960938 2.515625 -5.734375 C 2.515625 -5.617188 2.546875 -5.515625 2.609375 -5.421875 C 2.671875 -5.335938 2.753906 -5.257812 2.859375 -5.1875 C 2.972656 -5.125 3.097656 -5.0625 3.234375 -5 C 3.378906 -4.945312 3.535156 -4.882812 3.703125 -4.8125 L 4.71875 -4.40625 C 5.195312 -4.207031 5.570312 -3.941406 5.84375 -3.609375 C 6.125 -3.273438 6.265625 -2.832031 6.265625 -2.28125 C 6.265625 -1.945312 6.195312 -1.632812 6.0625 -1.34375 C 5.9375 -1.050781 5.742188 -0.796875 5.484375 -0.578125 C 5.234375 -0.359375 4.925781 -0.179688 4.5625 -0.046875 C 4.195312 0.078125 3.78125 0.140625 3.3125 0.140625 Z M 3.3125 0.140625" transform="translate(165.348 286.977)"/></g></g></g><g fill="#FF7948"><g><g><path d="M 2.453125 0 L 2.453125 -6.34375 L 0.296875 -6.34375 L 0.296875 -7.828125 L 6.375 -7.828125 L 6.375 -6.34375 L 4.21875 -6.34375 L 4.21875 0 Z M 2.453125 0" transform="translate(174.42 286.977)"/></g></g></g><g fill="#FF7948"><g><g><path d="M 2.765625 -3.953125 L 2.5625 -3.234375 L 4.234375 -3.234375 L 4.0625 -3.953125 C 3.945312 -4.347656 3.835938 -4.765625 3.734375 -5.203125 C 3.628906 -5.648438 3.523438 -6.078125 3.421875 -6.484375 L 3.375 -6.484375 C 3.28125 -6.066406 3.179688 -5.640625 3.078125 -5.203125 C 2.972656 -4.765625 2.867188 -4.347656 2.765625 -3.953125 Z M -0.078125 0 L 2.375 -7.828125 L 4.5 -7.828125 L 6.953125 0 L 5.078125 0 L 4.59375 -1.859375 L 2.203125 -1.859375 L 1.734375 0 Z M -0.078125 0" transform="translate(183.492 286.977)"/></g></g></g><g fill="#FF7948"><g><g><path d="M 3.3125 0.140625 C 2.800781 0.140625 2.289062 0.046875 1.78125 -0.140625 C 1.269531 -0.328125 0.816406 -0.609375 0.421875 -0.984375 L 1.421875 -2.203125 C 1.703125 -1.960938 2.015625 -1.765625 2.359375 -1.609375 C 2.703125 -1.453125 3.035156 -1.375 3.359375 -1.375 C 3.722656 -1.375 3.992188 -1.441406 4.171875 -1.578125 C 4.359375 -1.710938 4.453125 -1.898438 4.453125 -2.140625 C 4.453125 -2.253906 4.425781 -2.351562 4.375 -2.4375 C 4.320312 -2.53125 4.242188 -2.609375 4.140625 -2.671875 C 4.046875 -2.742188 3.925781 -2.8125 3.78125 -2.875 C 3.644531 -2.9375 3.492188 -3.003906 3.328125 -3.078125 L 2.296875 -3.5 C 2.097656 -3.582031 1.90625 -3.6875 1.71875 -3.8125 C 1.53125 -3.945312 1.363281 -4.097656 1.21875 -4.265625 C 1.070312 -4.441406 0.953125 -4.640625 0.859375 -4.859375 C 0.773438 -5.085938 0.734375 -5.347656 0.734375 -5.640625 C 0.734375 -5.960938 0.800781 -6.265625 0.9375 -6.546875 C 1.070312 -6.828125 1.265625 -7.070312 1.515625 -7.28125 C 1.765625 -7.5 2.054688 -7.664062 2.390625 -7.78125 C 2.734375 -7.90625 3.109375 -7.96875 3.515625 -7.96875 C 3.972656 -7.96875 4.421875 -7.878906 4.859375 -7.703125 C 5.304688 -7.523438 5.695312 -7.269531 6.03125 -6.9375 L 5.140625 -5.8125 C 4.878906 -6.019531 4.617188 -6.175781 4.359375 -6.28125 C 4.109375 -6.382812 3.828125 -6.4375 3.515625 -6.4375 C 3.210938 -6.4375 2.96875 -6.375 2.78125 -6.25 C 2.601562 -6.132812 2.515625 -5.960938 2.515625 -5.734375 C 2.515625 -5.617188 2.546875 -5.515625 2.609375 -5.421875 C 2.671875 -5.335938 2.753906 -5.257812 2.859375 -5.1875 C 2.972656 -5.125 3.097656 -5.0625 3.234375 -5 C 3.378906 -4.945312 3.535156 -4.882812 3.703125 -4.8125 L 4.71875 -4.40625 C 5.195312 -4.207031 5.570312 -3.941406 5.84375 -3.609375 C 6.125 -3.273438 6.265625 -2.832031 6.265625 -2.28125 C 6.265625 -1.945312 6.195312 -1.632812 6.0625 -1.34375 C 5.9375 -1.050781 5.742188 -0.796875 5.484375 -0.578125 C 5.234375 -0.359375 4.925781 -0.179688 4.5625 -0.046875 C 4.195312 0.078125 3.78125 0.140625 3.3125 0.140625 Z M 3.3125 0.140625" transform="translate(192.768 286.977)"/></g></g></g><g fill="#FF7948"><g><g><path d="M 2.765625 -3.953125 L 2.5625 -3.234375 L 4.234375 -3.234375 L 4.0625 -3.953125 C 3.945312 -4.347656 3.835938 -4.765625 3.734375 -5.203125 C 3.628906 -5.648438 3.523438 -6.078125 3.421875 -6.484375 L 3.375 -6.484375 C 3.28125 -6.066406 3.179688 -5.640625 3.078125 -5.203125 C 2.972656 -4.765625 2.867188 -4.347656 2.765625 -3.953125 Z M -0.078125 0 L 2.375 -7.828125 L 4.5 -7.828125 L 6.953125 0 L 5.078125 0 L 4.59375 -1.859375 L 2.203125 -1.859375 L 1.734375 0 Z M -0.078125 0" transform="translate(211.43 286.977)"/></g></g></g><g fill="#FF7948"><g><g><path d="M 0.921875 0 L 0.921875 -7.828125 L 3.125 -7.828125 C 3.726562 -7.828125 4.269531 -7.75 4.75 -7.59375 C 5.226562 -7.445312 5.640625 -7.210938 5.984375 -6.890625 C 6.328125 -6.578125 6.59375 -6.175781 6.78125 -5.6875 C 6.96875 -5.195312 7.0625 -4.617188 7.0625 -3.953125 C 7.0625 -3.273438 6.96875 -2.6875 6.78125 -2.1875 C 6.59375 -1.695312 6.332031 -1.289062 6 -0.96875 C 5.664062 -0.644531 5.265625 -0.398438 4.796875 -0.234375 C 4.328125 -0.078125 3.804688 0 3.234375 0 Z M 2.6875 -1.421875 L 3.03125 -1.421875 C 3.363281 -1.421875 3.664062 -1.460938 3.9375 -1.546875 C 4.207031 -1.640625 4.4375 -1.785156 4.625 -1.984375 C 4.820312 -2.179688 4.972656 -2.4375 5.078125 -2.75 C 5.191406 -3.070312 5.25 -3.472656 5.25 -3.953125 C 5.25 -4.410156 5.191406 -4.796875 5.078125 -5.109375 C 4.972656 -5.429688 4.820312 -5.6875 4.625 -5.875 C 4.4375 -6.0625 4.207031 -6.191406 3.9375 -6.265625 C 3.664062 -6.347656 3.363281 -6.390625 3.03125 -6.390625 L 2.6875 -6.390625 Z M 2.6875 -1.421875" transform="translate(220.706 286.977)"/></g></g></g><g fill="#FF7948"><g><g><path d="M 4.109375 0.140625 C 3.578125 0.140625 3.09375 0.046875 2.65625 -0.140625 C 2.21875 -0.328125 1.84375 -0.59375 1.53125 -0.9375 C 1.21875 -1.289062 0.972656 -1.71875 0.796875 -2.21875 C 0.628906 -2.726562 0.546875 -3.304688 0.546875 -3.953125 C 0.546875 -4.585938 0.628906 -5.15625 0.796875 -5.65625 C 0.972656 -6.15625 1.21875 -6.570312 1.53125 -6.90625 C 1.84375 -7.25 2.21875 -7.507812 2.65625 -7.6875 C 3.09375 -7.875 3.578125 -7.96875 4.109375 -7.96875 C 4.628906 -7.96875 5.109375 -7.875 5.546875 -7.6875 C 5.984375 -7.507812 6.359375 -7.25 6.671875 -6.90625 C 6.984375 -6.5625 7.222656 -6.140625 7.390625 -5.640625 C 7.566406 -5.140625 7.65625 -4.578125 7.65625 -3.953125 C 7.65625 -3.304688 7.566406 -2.726562 7.390625 -2.21875 C 7.222656 -1.71875 6.984375 -1.289062 6.671875 -0.9375 C 6.359375 -0.59375 5.984375 -0.328125 5.546875 -0.140625 C 5.109375 0.046875 4.628906 0.140625 4.109375 0.140625 Z M 4.109375 -1.375 C 4.640625 -1.375 5.0625 -1.601562 5.375 -2.0625 C 5.6875 -2.53125 5.84375 -3.160156 5.84375 -3.953125 C 5.84375 -4.734375 5.6875 -5.34375 5.375 -5.78125 C 5.0625 -6.21875 4.640625 -6.4375 4.109375 -6.4375 C 3.566406 -6.4375 3.140625 -6.21875 2.828125 -5.78125 C 2.515625 -5.34375 2.359375 -4.734375 2.359375 -3.953125 C 2.359375 -3.160156 2.515625 -2.53125 2.828125 -2.0625 C 3.140625 -1.601562 3.566406 -1.375 4.109375 -1.375 Z M 4.109375 -1.375" transform="translate(230.726 286.977)"/></g></g></g><g fill="#FF7948"><g><g><path d="M 0.921875 0 L 0.921875 -7.828125 L 2.6875 -7.828125 L 2.6875 -1.484375 L 5.78125 -1.484375 L 5.78125 0 Z M 0.921875 0" transform="translate(241.335 286.977)"/></g></g></g><g fill="#FF7948"><g><g><path d="M 0.921875 0 L 0.921875 -7.828125 L 5.8125 -7.828125 L 5.8125 -6.34375 L 2.6875 -6.34375 L 2.6875 -4.765625 L 5.359375 -4.765625 L 5.359375 -3.28125 L 2.6875 -3.28125 L 2.6875 -1.484375 L 5.9375 -1.484375 L 5.9375 0 Z M 0.921875 0" transform="translate(249.95 286.977)"/></g></g></g><g fill="#FF7948"><g><g><path d="M 3.3125 0.140625 C 2.800781 0.140625 2.289062 0.046875 1.78125 -0.140625 C 1.269531 -0.328125 0.816406 -0.609375 0.421875 -0.984375 L 1.421875 -2.203125 C 1.703125 -1.960938 2.015625 -1.765625 2.359375 -1.609375 C 2.703125 -1.453125 3.035156 -1.375 3.359375 -1.375 C 3.722656 -1.375 3.992188 -1.441406 4.171875 -1.578125 C 4.359375 -1.710938 4.453125 -1.898438 4.453125 -2.140625 C 4.453125 -2.253906 4.425781 -2.351562 4.375 -2.4375 C 4.320312 -2.53125 4.242188 -2.609375 4.140625 -2.671875 C 4.046875 -2.742188 3.925781 -2.8125 3.78125 -2.875 C 3.644531 -2.9375 3.492188 -3.003906 3.328125 -3.078125 L 2.296875 -3.5 C 2.097656 -3.582031 1.90625 -3.6875 1.71875 -3.8125 C 1.53125 -3.945312 1.363281 -4.097656 1.21875 -4.265625 C 1.070312 -4.441406 0.953125 -4.640625 0.859375 -4.859375 C 0.773438 -5.085938 0.734375 -5.347656 0.734375 -5.640625 C 0.734375 -5.960938 0.800781 -6.265625 0.9375 -6.546875 C 1.070312 -6.828125 1.265625 -7.070312 1.515625 -7.28125 C 1.765625 -7.5 2.054688 -7.664062 2.390625 -7.78125 C 2.734375 -7.90625 3.109375 -7.96875 3.515625 -7.96875 C 3.972656 -7.96875 4.421875 -7.878906 4.859375 -7.703125 C 5.304688 -7.523438 5.695312 -7.269531 6.03125 -6.9375 L 5.140625 -5.8125 C 4.878906 -6.019531 4.617188 -6.175781 4.359375 -6.28125 C 4.109375 -6.382812 3.828125 -6.4375 3.515625 -6.4375 C 3.210938 -6.4375 2.96875 -6.375 2.78125 -6.25 C 2.601562 -6.132812 2.515625 -5.960938 2.515625 -5.734375 C 2.515625 -5.617188 2.546875 -5.515625 2.609375 -5.421875 C 2.671875 -5.335938 2.753906 -5.257812 2.859375 -5.1875 C 2.972656 -5.125 3.097656 -5.0625 3.234375 -5 C 3.378906 -4.945312 3.535156 -4.882812 3.703125 -4.8125 L 4.71875 -4.40625 C 5.195312 -4.207031 5.570312 -3.941406 5.84375 -3.609375 C 6.125 -3.273438 6.265625 -2.832031 6.265625 -2.28125 C 6.265625 -1.945312 6.195312 -1.632812 6.0625 -1.34375 C 5.9375 -1.050781 5.742188 -0.796875 5.484375 -0.578125 C 5.234375 -0.359375 4.925781 -0.179688 4.5625 -0.046875 C 4.195312 0.078125 3.78125 0.140625 3.3125 0.140625 Z M 3.3125 0.140625" transform="translate(258.927 286.977)"/></g></g></g><g fill="#FF7948"><g><g><path d="M 4.1875 0.140625 C 3.6875 0.140625 3.21875 0.0546875 2.78125 -0.109375 C 2.34375 -0.285156 1.957031 -0.539062 1.625 -0.875 C 1.289062 -1.207031 1.023438 -1.625 0.828125 -2.125 C 0.640625 -2.625 0.546875 -3.203125 0.546875 -3.859375 C 0.546875 -4.515625 0.644531 -5.09375 0.84375 -5.59375 C 1.050781 -6.101562 1.320312 -6.535156 1.65625 -6.890625 C 1.988281 -7.242188 2.378906 -7.507812 2.828125 -7.6875 C 3.273438 -7.875 3.75 -7.96875 4.25 -7.96875 C 4.75 -7.96875 5.195312 -7.863281 5.59375 -7.65625 C 6 -7.457031 6.332031 -7.222656 6.59375 -6.953125 L 5.65625 -5.8125 C 5.457031 -6 5.25 -6.148438 5.03125 -6.265625 C 4.8125 -6.378906 4.5625 -6.4375 4.28125 -6.4375 C 4.019531 -6.4375 3.769531 -6.378906 3.53125 -6.265625 C 3.300781 -6.148438 3.097656 -5.984375 2.921875 -5.765625 C 2.742188 -5.554688 2.601562 -5.296875 2.5 -4.984375 C 2.40625 -4.671875 2.359375 -4.316406 2.359375 -3.921875 C 2.359375 -3.117188 2.53125 -2.492188 2.875 -2.046875 C 3.21875 -1.597656 3.679688 -1.375 4.265625 -1.375 C 4.578125 -1.375 4.859375 -1.441406 5.109375 -1.578125 C 5.367188 -1.722656 5.59375 -1.898438 5.78125 -2.109375 L 6.71875 -1.015625 C 6.0625 -0.242188 5.21875 0.140625 4.1875 0.140625 Z M 4.1875 0.140625" transform="translate(267.999 286.977)"/></g></g></g><g fill="#FF7948"><g><g><path d="M 0.921875 0 L 0.921875 -7.828125 L 5.8125 -7.828125 L 5.8125 -6.34375 L 2.6875 -6.34375 L 2.6875 -4.765625 L 5.359375 -4.765625 L 5.359375 -3.28125 L 2.6875 -3.28125 L 2.6875 -1.484375 L 5.9375 -1.484375 L 5.9375 0 Z M 0.921875 0" transform="translate(277.383 286.977)"/></g></g></g><g fill="#FF7948"><g><g><path d="M 0.921875 0 L 0.921875 -7.828125 L 2.734375 -7.828125 L 4.78125 -3.9375 L 5.546875 -2.203125 L 5.59375 -2.203125 C 5.550781 -2.617188 5.503906 -3.082031 5.453125 -3.59375 C 5.398438 -4.113281 5.375 -4.601562 5.375 -5.0625 L 5.375 -7.828125 L 7.0625 -7.828125 L 7.0625 0 L 5.25 0 L 3.203125 -3.90625 L 2.4375 -5.609375 L 2.390625 -5.609375 C 2.429688 -5.171875 2.476562 -4.703125 2.53125 -4.203125 C 2.582031 -3.710938 2.609375 -3.234375 2.609375 -2.765625 L 2.609375 0 Z M 0.921875 0" transform="translate(286.359 286.977)"/></g></g></g><g fill="#FF7948"><g><g><path d="M 2.453125 0 L 2.453125 -6.34375 L 0.296875 -6.34375 L 0.296875 -7.828125 L 6.375 -7.828125 L 6.375 -6.34375 L 4.21875 -6.34375 L 4.21875 0 Z M 2.453125 0" transform="translate(296.739 286.977)"/></g></g></g><g fill="#FF7948"><g><g><path d="M 0.921875 0 L 0.921875 -7.828125 L 5.8125 -7.828125 L 5.8125 -6.34375 L 2.6875 -6.34375 L 2.6875 -4.765625 L 5.359375 -4.765625 L 5.359375 -3.28125 L 2.6875 -3.28125 L 2.6875 -1.484375 L 5.9375 -1.484375 L 5.9375 0 Z M 0.921875 0" transform="translate(305.81 286.977)"/></g></g></g><g fill="#FF7948"><g><g><path d="M 3.3125 0.140625 C 2.800781 0.140625 2.289062 0.046875 1.78125 -0.140625 C 1.269531 -0.328125 0.816406 -0.609375 0.421875 -0.984375 L 1.421875 -2.203125 C 1.703125 -1.960938 2.015625 -1.765625 2.359375 -1.609375 C 2.703125 -1.453125 3.035156 -1.375 3.359375 -1.375 C 3.722656 -1.375 3.992188 -1.441406 4.171875 -1.578125 C 4.359375 -1.710938 4.453125 -1.898438 4.453125 -2.140625 C 4.453125 -2.253906 4.425781 -2.351562 4.375 -2.4375 C 4.320312 -2.53125 4.242188 -2.609375 4.140625 -2.671875 C 4.046875 -2.742188 3.925781 -2.8125 3.78125 -2.875 C 3.644531 -2.9375 3.492188 -3.003906 3.328125 -3.078125 L 2.296875 -3.5 C 2.097656 -3.582031 1.90625 -3.6875 1.71875 -3.8125 C 1.53125 -3.945312 1.363281 -4.097656 1.21875 -4.265625 C 1.070312 -4.441406 0.953125 -4.640625 0.859375 -4.859375 C 0.773438 -5.085938 0.734375 -5.347656 0.734375 -5.640625 C 0.734375 -5.960938 0.800781 -6.265625 0.9375 -6.546875 C 1.070312 -6.828125 1.265625 -7.070312 1.515625 -7.28125 C 1.765625 -7.5 2.054688 -7.664062 2.390625 -7.78125 C 2.734375 -7.90625 3.109375 -7.96875 3.515625 -7.96875 C 3.972656 -7.96875 4.421875 -7.878906 4.859375 -7.703125 C 5.304688 -7.523438 5.695312 -7.269531 6.03125 -6.9375 L 5.140625 -5.8125 C 4.878906 -6.019531 4.617188 -6.175781 4.359375 -6.28125 C 4.109375 -6.382812 3.828125 -6.4375 3.515625 -6.4375 C 3.210938 -6.4375 2.96875 -6.375 2.78125 -6.25 C 2.601562 -6.132812 2.515625 -5.960938 2.515625 -5.734375 C 2.515625 -5.617188 2.546875 -5.515625 2.609375 -5.421875 C 2.671875 -5.335938 2.753906 -5.257812 2.859375 -5.1875 C 2.972656 -5.125 3.097656 -5.0625 3.234375 -5 C 3.378906 -4.945312 3.535156 -4.882812 3.703125 -4.8125 L 4.71875 -4.40625 C 5.195312 -4.207031 5.570312 -3.941406 5.84375 -3.609375 C 6.125 -3.273438 6.265625 -2.832031 6.265625 -2.28125 C 6.265625 -1.945312 6.195312 -1.632812 6.0625 -1.34375 C 5.9375 -1.050781 5.742188 -0.796875 5.484375 -0.578125 C 5.234375 -0.359375 4.925781 -0.179688 4.5625 -0.046875 C 4.195312 0.078125 3.78125 0.140625 3.3125 0.140625 Z M 3.3125 0.140625" transform="translate(314.787 286.977)"/></g></g></g><g fill="#FF7948"><g><g><path d="M 0.921875 0 L 0.921875 -7.828125 L 5.8125 -7.828125 L 5.8125 -6.34375 L 2.6875 -6.34375 L 2.6875 -4.765625 L 5.359375 -4.765625 L 5.359375 -3.28125 L 2.6875 -3.28125 L 2.6875 -1.484375 L 5.9375 -1.484375 L 5.9375 0 Z M 0.921875 0" transform="translate(121.536 301.227)"/></g></g></g><g fill="#FF7948"><g><g><path d="M 2.765625 -3.953125 L 2.5625 -3.234375 L 4.234375 -3.234375 L 4.0625 -3.953125 C 3.945312 -4.347656 3.835938 -4.765625 3.734375 -5.203125 C 3.628906 -5.648438 3.523438 -6.078125 3.421875 -6.484375 L 3.375 -6.484375 C 3.28125 -6.066406 3.179688 -5.640625 3.078125 -5.203125 C 2.972656 -4.765625 2.867188 -4.347656 2.765625 -3.953125 Z M -0.078125 0 L 2.375 -7.828125 L 4.5 -7.828125 L 6.953125 0 L 5.078125 0 L 4.59375 -1.859375 L 2.203125 -1.859375 L 1.734375 0 Z M -0.078125 0" transform="translate(135.312 301.227)"/></g></g></g><g fill="#FF7948"><g><g><path d="M 0.921875 0 L 0.921875 -7.828125 L 3.125 -7.828125 C 3.726562 -7.828125 4.269531 -7.75 4.75 -7.59375 C 5.226562 -7.445312 5.640625 -7.210938 5.984375 -6.890625 C 6.328125 -6.578125 6.59375 -6.175781 6.78125 -5.6875 C 6.96875 -5.195312 7.0625 -4.617188 7.0625 -3.953125 C 7.0625 -3.273438 6.96875 -2.6875 6.78125 -2.1875 C 6.59375 -1.695312 6.332031 -1.289062 6 -0.96875 C 5.664062 -0.644531 5.265625 -0.398438 4.796875 -0.234375 C 4.328125 -0.078125 3.804688 0 3.234375 0 Z M 2.6875 -1.421875 L 3.03125 -1.421875 C 3.363281 -1.421875 3.664062 -1.460938 3.9375 -1.546875 C 4.207031 -1.640625 4.4375 -1.785156 4.625 -1.984375 C 4.820312 -2.179688 4.972656 -2.4375 5.078125 -2.75 C 5.191406 -3.070312 5.25 -3.472656 5.25 -3.953125 C 5.25 -4.410156 5.191406 -4.796875 5.078125 -5.109375 C 4.972656 -5.429688 4.820312 -5.6875 4.625 -5.875 C 4.4375 -6.0625 4.207031 -6.191406 3.9375 -6.265625 C 3.664062 -6.347656 3.363281 -6.390625 3.03125 -6.390625 L 2.6875 -6.390625 Z M 2.6875 -1.421875" transform="translate(144.588 301.227)"/></g></g></g><g fill="#FF7948"><g><g><path d="M 4.015625 0.140625 C 2.992188 0.140625 2.210938 -0.15625 1.671875 -0.75 C 1.140625 -1.351562 0.875 -2.3125 0.875 -3.625 L 0.875 -7.828125 L 2.65625 -7.828125 L 2.65625 -3.4375 C 2.65625 -2.675781 2.769531 -2.140625 3 -1.828125 C 3.226562 -1.523438 3.566406 -1.375 4.015625 -1.375 C 4.453125 -1.375 4.789062 -1.523438 5.03125 -1.828125 C 5.269531 -2.140625 5.390625 -2.675781 5.390625 -3.4375 L 5.390625 -7.828125 L 7.09375 -7.828125 L 7.09375 -3.625 C 7.09375 -2.3125 6.828125 -1.351562 6.296875 -0.75 C 5.773438 -0.15625 5.015625 0.140625 4.015625 0.140625 Z M 4.015625 0.140625" transform="translate(154.608 301.227)"/></g></g></g><g fill="#FF7948"><g><g><path d="M 0.921875 0 L 0.921875 -7.828125 L 2.6875 -7.828125 L 2.6875 -1.484375 L 5.78125 -1.484375 L 5.78125 0 Z M 0.921875 0" transform="translate(164.988 301.227)"/></g></g></g><g fill="#FF7948"><g><g><path d="M 2.453125 0 L 2.453125 -6.34375 L 0.296875 -6.34375 L 0.296875 -7.828125 L 6.375 -7.828125 L 6.375 -6.34375 L 4.21875 -6.34375 L 4.21875 0 Z M 2.453125 0" transform="translate(173.604 301.227)"/></g></g></g><g fill="#FF7948"><g><g><path d="M 4.109375 0.140625 C 3.578125 0.140625 3.09375 0.046875 2.65625 -0.140625 C 2.21875 -0.328125 1.84375 -0.59375 1.53125 -0.9375 C 1.21875 -1.289062 0.972656 -1.71875 0.796875 -2.21875 C 0.628906 -2.726562 0.546875 -3.304688 0.546875 -3.953125 C 0.546875 -4.585938 0.628906 -5.15625 0.796875 -5.65625 C 0.972656 -6.15625 1.21875 -6.570312 1.53125 -6.90625 C 1.84375 -7.25 2.21875 -7.507812 2.65625 -7.6875 C 3.09375 -7.875 3.578125 -7.96875 4.109375 -7.96875 C 4.628906 -7.96875 5.109375 -7.875 5.546875 -7.6875 C 5.984375 -7.507812 6.359375 -7.25 6.671875 -6.90625 C 6.984375 -6.5625 7.222656 -6.140625 7.390625 -5.640625 C 7.566406 -5.140625 7.65625 -4.578125 7.65625 -3.953125 C 7.65625 -3.304688 7.566406 -2.726562 7.390625 -2.21875 C 7.222656 -1.71875 6.984375 -1.289062 6.671875 -0.9375 C 6.359375 -0.59375 5.984375 -0.328125 5.546875 -0.140625 C 5.109375 0.046875 4.628906 0.140625 4.109375 0.140625 Z M 4.109375 -1.375 C 4.640625 -1.375 5.0625 -1.601562 5.375 -2.0625 C 5.6875 -2.53125 5.84375 -3.160156 5.84375 -3.953125 C 5.84375 -4.734375 5.6875 -5.34375 5.375 -5.78125 C 5.0625 -6.21875 4.640625 -6.4375 4.109375 -6.4375 C 3.566406 -6.4375 3.140625 -6.21875 2.828125 -5.78125 C 2.515625 -5.34375 2.359375 -4.734375 2.359375 -3.953125 C 2.359375 -3.160156 2.515625 -2.53125 2.828125 -2.0625 C 3.140625 -1.601562 3.566406 -1.375 4.109375 -1.375 Z M 4.109375 -1.375" transform="translate(182.676 301.227)"/></g></g></g><g fill="#FF7948"><g><g><path d="M 3.3125 0.140625 C 2.800781 0.140625 2.289062 0.046875 1.78125 -0.140625 C 1.269531 -0.328125 0.816406 -0.609375 0.421875 -0.984375 L 1.421875 -2.203125 C 1.703125 -1.960938 2.015625 -1.765625 2.359375 -1.609375 C 2.703125 -1.453125 3.035156 -1.375 3.359375 -1.375 C 3.722656 -1.375 3.992188 -1.441406 4.171875 -1.578125 C 4.359375 -1.710938 4.453125 -1.898438 4.453125 -2.140625 C 4.453125 -2.253906 4.425781 -2.351562 4.375 -2.4375 C 4.320312 -2.53125 4.242188 -2.609375 4.140625 -2.671875 C 4.046875 -2.742188 3.925781 -2.8125 3.78125 -2.875 C 3.644531 -2.9375 3.492188 -3.003906 3.328125 -3.078125 L 2.296875 -3.5 C 2.097656 -3.582031 1.90625 -3.6875 1.71875 -3.8125 C 1.53125 -3.945312 1.363281 -4.097656 1.21875 -4.265625 C 1.070312 -4.441406 0.953125 -4.640625 0.859375 -4.859375 C 0.773438 -5.085938 0.734375 -5.347656 0.734375 -5.640625 C 0.734375 -5.960938 0.800781 -6.265625 0.9375 -6.546875 C 1.070312 -6.828125 1.265625 -7.070312 1.515625 -7.28125 C 1.765625 -7.5 2.054688 -7.664062 2.390625 -7.78125 C 2.734375 -7.90625 3.109375 -7.96875 3.515625 -7.96875 C 3.972656 -7.96875 4.421875 -7.878906 4.859375 -7.703125 C 5.304688 -7.523438 5.695312 -7.269531 6.03125 -6.9375 L 5.140625 -5.8125 C 4.878906 -6.019531 4.617188 -6.175781 4.359375 -6.28125 C 4.109375 -6.382812 3.828125 -6.4375 3.515625 -6.4375 C 3.210938 -6.4375 2.96875 -6.375 2.78125 -6.25 C 2.601562 -6.132812 2.515625 -5.960938 2.515625 -5.734375 C 2.515625 -5.617188 2.546875 -5.515625 2.609375 -5.421875 C 2.671875 -5.335938 2.753906 -5.257812 2.859375 -5.1875 C 2.972656 -5.125 3.097656 -5.0625 3.234375 -5 C 3.378906 -4.945312 3.535156 -4.882812 3.703125 -4.8125 L 4.71875 -4.40625 C 5.195312 -4.207031 5.570312 -3.941406 5.84375 -3.609375 C 6.125 -3.273438 6.265625 -2.832031 6.265625 -2.28125 C 6.265625 -1.945312 6.195312 -1.632812 6.0625 -1.34375 C 5.9375 -1.050781 5.742188 -0.796875 5.484375 -0.578125 C 5.234375 -0.359375 4.925781 -0.179688 4.5625 -0.046875 C 4.195312 0.078125 3.78125 0.140625 3.3125 0.140625 Z M 3.3125 0.140625" transform="translate(193.284 301.227)"/></g></g></g><g fill="#FF7948"><g><g><path d="M 1.796875 0.140625 C 1.492188 0.140625 1.238281 0.0351562 1.03125 -0.171875 C 0.832031 -0.378906 0.734375 -0.640625 0.734375 -0.953125 C 0.734375 -1.273438 0.832031 -1.539062 1.03125 -1.75 C 1.238281 -1.96875 1.492188 -2.078125 1.796875 -2.078125 C 2.097656 -2.078125 2.351562 -1.96875 2.5625 -1.75 C 2.769531 -1.539062 2.875 -1.273438 2.875 -0.953125 C 2.875 -0.640625 2.769531 -0.378906 2.5625 -0.171875 C 2.351562 0.0351562 2.097656 0.140625 1.796875 0.140625 Z M 1.796875 0.140625" transform="translate(202.356 301.227)"/></g></g></g></svg>