<svg xmlns="http://www.w3.org/2000/svg" width="375" viewBox="0 0 375 375" height="375" version="1.0"><defs><clipPath id="a"><path d="M 141 67 L 233.851562 67 L 233.851562 131.859375 L 141 131.859375 Z M 141 67"/></clipPath><clipPath id="b"><path d="M 196 139.457031 L 210 139.457031 L 210 154 L 196 154 Z M 196 139.457031"/></clipPath><clipPath id="c"><path d="M 140.664062 141 L 234 141 L 234 209 L 140.664062 209 Z M 140.664062 141"/></clipPath></defs><path fill="#FFF" d="M-37.5 -37.5H412.5V412.5H-37.5z"/><path fill="#FFF" d="M-37.5 -37.5H412.5V412.5H-37.5z"/><path fill="#FFF" d="M-37.5 -37.5H412.5V412.5H-37.5z"/><g fill="#6E00C8"><g><g><path d="M 25.171875 -12.25 C 25.171875 -9.9375 24.65625 -7.816406 23.625 -5.890625 C 22.59375 -3.972656 21.171875 -2.453125 19.359375 -1.328125 C 17.554688 -0.210938 15.523438 0.34375 13.265625 0.34375 C 11.003906 0.34375 8.96875 -0.210938 7.15625 -1.328125 C 5.34375 -2.453125 3.929688 -3.972656 2.921875 -5.890625 C 1.910156 -7.816406 1.40625 -9.9375 1.40625 -12.25 C 1.40625 -14.5625 1.910156 -16.675781 2.921875 -18.59375 C 3.929688 -20.519531 5.34375 -22.039062 7.15625 -23.15625 C 8.96875 -24.28125 11.003906 -24.84375 13.265625 -24.84375 C 15.523438 -24.84375 17.554688 -24.28125 19.359375 -23.15625 C 21.171875 -22.039062 22.59375 -20.519531 23.625 -18.59375 C 24.65625 -16.675781 25.171875 -14.5625 25.171875 -12.25 Z M 20.609375 -12.25 C 20.609375 -13.8125 20.289062 -15.226562 19.65625 -16.5 C 19.03125 -17.769531 18.15625 -18.78125 17.03125 -19.53125 C 15.914062 -20.28125 14.660156 -20.65625 13.265625 -20.65625 C 11.835938 -20.65625 10.570312 -20.285156 9.46875 -19.546875 C 8.363281 -18.804688 7.5 -17.796875 6.875 -16.515625 C 6.257812 -15.234375 5.953125 -13.8125 5.953125 -12.25 C 5.953125 -10.6875 6.257812 -9.265625 6.875 -7.984375 C 7.5 -6.703125 8.363281 -5.691406 9.46875 -4.953125 C 10.570312 -4.210938 11.835938 -3.84375 13.265625 -3.84375 C 14.660156 -3.84375 15.914062 -4.21875 17.03125 -4.96875 C 18.15625 -5.71875 19.03125 -6.726562 19.65625 -8 C 20.289062 -9.269531 20.609375 -10.6875 20.609375 -12.25 Z M 20.609375 -12.25" transform="translate(84.991 257.642)"/></g></g></g><g fill="#6E00C8"><g><g><path d="M 21.84375 -2.734375 C 21.957031 -2.429688 22.015625 -2.148438 22.015625 -1.890625 C 22.015625 -1.285156 21.816406 -0.789062 21.421875 -0.40625 C 21.023438 -0.0195312 20.570312 0.171875 20.0625 0.171875 C 19.632812 0.171875 19.25 0.046875 18.90625 -0.203125 C 18.570312 -0.460938 18.3125 -0.816406 18.125 -1.265625 L 16.3125 -5.5 L 5.875 -5.5 L 4.0625 -1.21875 C 3.894531 -0.78125 3.640625 -0.4375 3.296875 -0.1875 C 2.960938 0.0507812 2.597656 0.171875 2.203125 0.171875 C 1.597656 0.171875 1.132812 0.0078125 0.8125 -0.3125 C 0.5 -0.644531 0.34375 -1.085938 0.34375 -1.640625 C 0.34375 -1.847656 0.378906 -2.070312 0.453125 -2.3125 L 9.171875 -23.234375 C 9.359375 -23.703125 9.632812 -24.0625 10 -24.3125 C 10.375 -24.570312 10.796875 -24.679688 11.265625 -24.640625 C 11.691406 -24.640625 12.082031 -24.515625 12.4375 -24.265625 C 12.800781 -24.023438 13.066406 -23.679688 13.234375 -23.234375 Z M 7.59375 -9.515625 L 14.59375 -9.515625 L 11.0625 -17.703125 Z M 7.59375 -9.515625" transform="translate(124.848 257.642)"/></g></g></g><g fill="#6E00C8"><g><g><path d="M 20.015625 -24.53125 C 20.628906 -24.53125 21.117188 -24.332031 21.484375 -23.9375 C 21.859375 -23.539062 22.046875 -23.03125 22.046875 -22.40625 L 22.046875 -9.734375 C 22.046875 -7.796875 21.632812 -6.078125 20.8125 -4.578125 C 20 -3.085938 18.859375 -1.921875 17.390625 -1.078125 C 15.921875 -0.242188 14.242188 0.171875 12.359375 0.171875 C 10.460938 0.171875 8.773438 -0.242188 7.296875 -1.078125 C 5.816406 -1.921875 4.664062 -3.085938 3.84375 -4.578125 C 3.03125 -6.078125 2.625 -7.796875 2.625 -9.734375 L 2.625 -22.40625 C 2.625 -23.007812 2.832031 -23.515625 3.25 -23.921875 C 3.675781 -24.328125 4.210938 -24.53125 4.859375 -24.53125 C 5.421875 -24.53125 5.910156 -24.328125 6.328125 -23.921875 C 6.753906 -23.515625 6.96875 -23.007812 6.96875 -22.40625 L 6.96875 -9.734375 C 6.96875 -8.609375 7.210938 -7.609375 7.703125 -6.734375 C 8.191406 -5.859375 8.847656 -5.1875 9.671875 -4.71875 C 10.503906 -4.257812 11.398438 -4.03125 12.359375 -4.03125 C 13.359375 -4.03125 14.296875 -4.257812 15.171875 -4.71875 C 16.046875 -5.1875 16.742188 -5.859375 17.265625 -6.734375 C 17.796875 -7.609375 18.0625 -8.609375 18.0625 -9.734375 L 18.0625 -22.40625 C 18.0625 -23.03125 18.234375 -23.539062 18.578125 -23.9375 C 18.929688 -24.332031 19.410156 -24.53125 20.015625 -24.53125 Z M 20.015625 -24.53125" transform="translate(148.958 257.642)"/></g></g></g><g fill="#6E00C8"><g><g><path d="M 18.71875 -24.5 C 19.351562 -24.5 19.867188 -24.3125 20.265625 -23.9375 C 20.660156 -23.5625 20.859375 -23.070312 20.859375 -22.46875 C 20.859375 -21.863281 20.660156 -21.378906 20.265625 -21.015625 C 19.867188 -20.648438 19.351562 -20.46875 18.71875 -20.46875 L 13.234375 -20.46875 L 13.234375 -2.140625 C 13.234375 -1.523438 13.007812 -1.015625 12.5625 -0.609375 C 12.125 -0.203125 11.578125 0 10.921875 0 C 10.265625 0 9.726562 -0.203125 9.3125 -0.609375 C 8.894531 -1.015625 8.6875 -1.523438 8.6875 -2.140625 L 8.6875 -20.46875 L 3.1875 -20.46875 C 2.550781 -20.46875 2.035156 -20.65625 1.640625 -21.03125 C 1.242188 -21.40625 1.046875 -21.894531 1.046875 -22.5 C 1.046875 -23.082031 1.25 -23.5625 1.65625 -23.9375 C 2.070312 -24.3125 2.582031 -24.5 3.1875 -24.5 Z M 18.71875 -24.5" transform="translate(175.377 257.642)"/></g></g></g><g fill="#6E00C8"><g><g><path d="M 7 -2.140625 C 7 -1.523438 6.773438 -1.015625 6.328125 -0.609375 C 5.890625 -0.203125 5.378906 0 4.796875 0 C 4.160156 0 3.640625 -0.203125 3.234375 -0.609375 C 2.828125 -1.015625 2.625 -1.523438 2.625 -2.140625 L 2.625 -22.359375 C 2.625 -22.972656 2.832031 -23.484375 3.25 -23.890625 C 3.675781 -24.296875 4.210938 -24.5 4.859375 -24.5 C 5.441406 -24.5 5.941406 -24.296875 6.359375 -23.890625 C 6.785156 -23.484375 7 -22.972656 7 -22.359375 Z M 7 -2.140625" transform="translate(199.032 257.642)"/></g></g></g><g fill="#6E00C8"><g><g><path d="M 10.5 0.34375 C 8.820312 0.34375 7.328125 0.132812 6.015625 -0.28125 C 4.710938 -0.695312 3.488281 -1.410156 2.34375 -2.421875 C 1.71875 -2.972656 1.40625 -3.585938 1.40625 -4.265625 C 1.40625 -4.804688 1.601562 -5.28125 2 -5.6875 C 2.394531 -6.09375 2.875 -6.296875 3.4375 -6.296875 C 3.875 -6.296875 4.269531 -6.15625 4.625 -5.875 C 5.550781 -5.101562 6.457031 -4.539062 7.34375 -4.1875 C 8.238281 -3.84375 9.289062 -3.671875 10.5 -3.671875 C 11.800781 -3.671875 12.925781 -3.960938 13.875 -4.546875 C 14.820312 -5.128906 15.296875 -5.851562 15.296875 -6.71875 C 15.296875 -7.769531 14.828125 -8.59375 13.890625 -9.1875 C 12.960938 -9.78125 11.484375 -10.226562 9.453125 -10.53125 C 4.335938 -11.28125 1.78125 -13.660156 1.78125 -17.671875 C 1.78125 -19.140625 2.164062 -20.414062 2.9375 -21.5 C 3.707031 -22.59375 4.753906 -23.421875 6.078125 -23.984375 C 7.410156 -24.554688 8.894531 -24.84375 10.53125 -24.84375 C 12 -24.84375 13.378906 -24.617188 14.671875 -24.171875 C 15.972656 -23.734375 17.054688 -23.15625 17.921875 -22.4375 C 18.597656 -21.894531 18.9375 -21.273438 18.9375 -20.578125 C 18.9375 -20.046875 18.738281 -19.570312 18.34375 -19.15625 C 17.945312 -18.75 17.476562 -18.546875 16.9375 -18.546875 C 16.59375 -18.546875 16.28125 -18.648438 16 -18.859375 C 15.382812 -19.347656 14.535156 -19.796875 13.453125 -20.203125 C 12.367188 -20.617188 11.394531 -20.828125 10.53125 -20.828125 C 9.0625 -20.828125 7.925781 -20.550781 7.125 -20 C 6.320312 -19.457031 5.921875 -18.738281 5.921875 -17.84375 C 5.921875 -16.84375 6.332031 -16.085938 7.15625 -15.578125 C 7.988281 -15.066406 9.289062 -14.644531 11.0625 -14.3125 C 13.0625 -13.96875 14.660156 -13.519531 15.859375 -12.96875 C 17.066406 -12.414062 17.972656 -11.664062 18.578125 -10.71875 C 19.191406 -9.78125 19.5 -8.53125 19.5 -6.96875 C 19.5 -5.5 19.082031 -4.207031 18.25 -3.09375 C 17.425781 -1.988281 16.320312 -1.140625 14.9375 -0.546875 C 13.5625 0.046875 12.082031 0.34375 10.5 0.34375 Z M 10.5 0.34375" transform="translate(210.405 257.642)"/></g></g></g><g fill="#6E00C8"><g><g><path d="M 23.875 -24.53125 C 24.457031 -24.53125 24.960938 -24.328125 25.390625 -23.921875 C 25.828125 -23.515625 26.046875 -23.007812 26.046875 -22.40625 L 26.046875 -2.140625 C 26.046875 -1.523438 25.84375 -1.015625 25.4375 -0.609375 C 25.039062 -0.203125 24.519531 0 23.875 0 C 23.21875 0 22.6875 -0.195312 22.28125 -0.59375 C 21.875 -0.988281 21.671875 -1.503906 21.671875 -2.140625 L 21.671875 -16.234375 L 15.890625 -7.421875 C 15.660156 -7.140625 15.390625 -6.910156 15.078125 -6.734375 C 14.773438 -6.554688 14.460938 -6.484375 14.140625 -6.515625 C 13.835938 -6.484375 13.535156 -6.554688 13.234375 -6.734375 C 12.929688 -6.910156 12.660156 -7.140625 12.421875 -7.421875 L 6.65625 -16.5625 L 6.65625 -2.140625 C 6.65625 -1.503906 6.46875 -0.988281 6.09375 -0.59375 C 5.71875 -0.195312 5.226562 0 4.625 0 C 4.039062 0 3.5625 -0.203125 3.1875 -0.609375 C 2.8125 -1.015625 2.625 -1.523438 2.625 -2.140625 L 2.625 -22.40625 C 2.625 -22.988281 2.835938 -23.488281 3.265625 -23.90625 C 3.703125 -24.320312 4.222656 -24.53125 4.828125 -24.53125 C 5.179688 -24.53125 5.53125 -24.441406 5.875 -24.265625 C 6.226562 -24.097656 6.5 -23.875 6.6875 -23.59375 L 14.3125 -11.859375 L 22.15625 -23.59375 C 22.34375 -23.875 22.59375 -24.097656 22.90625 -24.265625 C 23.21875 -24.441406 23.539062 -24.53125 23.875 -24.53125 Z M 23.875 -24.53125" transform="translate(233.046 257.642)"/></g></g></g><g fill="#6E00C8"><g><g><path d="M 25.171875 -12.25 C 25.171875 -9.9375 24.65625 -7.816406 23.625 -5.890625 C 22.59375 -3.972656 21.171875 -2.453125 19.359375 -1.328125 C 17.554688 -0.210938 15.523438 0.34375 13.265625 0.34375 C 11.003906 0.34375 8.96875 -0.210938 7.15625 -1.328125 C 5.34375 -2.453125 3.929688 -3.972656 2.921875 -5.890625 C 1.910156 -7.816406 1.40625 -9.9375 1.40625 -12.25 C 1.40625 -14.5625 1.910156 -16.675781 2.921875 -18.59375 C 3.929688 -20.519531 5.34375 -22.039062 7.15625 -23.15625 C 8.96875 -24.28125 11.003906 -24.84375 13.265625 -24.84375 C 15.523438 -24.84375 17.554688 -24.28125 19.359375 -23.15625 C 21.171875 -22.039062 22.59375 -20.519531 23.625 -18.59375 C 24.65625 -16.675781 25.171875 -14.5625 25.171875 -12.25 Z M 20.609375 -12.25 C 20.609375 -13.8125 20.289062 -15.226562 19.65625 -16.5 C 19.03125 -17.769531 18.15625 -18.78125 17.03125 -19.53125 C 15.914062 -20.28125 14.660156 -20.65625 13.265625 -20.65625 C 11.835938 -20.65625 10.570312 -20.285156 9.46875 -19.546875 C 8.363281 -18.804688 7.5 -17.796875 6.875 -16.515625 C 6.257812 -15.234375 5.953125 -13.8125 5.953125 -12.25 C 5.953125 -10.6875 6.257812 -9.265625 6.875 -7.984375 C 7.5 -6.703125 8.363281 -5.691406 9.46875 -4.953125 C 10.570312 -4.210938 11.835938 -3.84375 13.265625 -3.84375 C 14.660156 -3.84375 15.914062 -4.21875 17.03125 -4.96875 C 18.15625 -5.71875 19.03125 -6.726562 19.65625 -8 C 20.289062 -9.269531 20.609375 -10.6875 20.609375 -12.25 Z M 20.609375 -12.25" transform="translate(263.454 257.642)"/></g></g></g><g fill="#6E00C8"><g><g><path d="M 21.203125 -24.5 C 21.765625 -24.5 22.21875 -24.3125 22.5625 -23.9375 C 22.914062 -23.5625 23.09375 -23.097656 23.09375 -22.546875 L 23.09375 -2.140625 C 23.09375 -1.523438 22.890625 -1.015625 22.484375 -0.609375 C 22.078125 -0.203125 21.570312 0 20.96875 0 C 20.632812 0 20.3125 -0.0507812 20 -0.15625 C 19.6875 -0.257812 19.457031 -0.40625 19.3125 -0.59375 L 6.46875 -16.90625 L 6.46875 -1.953125 C 6.46875 -1.398438 6.285156 -0.9375 5.921875 -0.5625 C 5.566406 -0.1875 5.097656 0 4.515625 0 C 3.953125 0 3.492188 -0.1875 3.140625 -0.5625 C 2.796875 -0.9375 2.625 -1.398438 2.625 -1.953125 L 2.625 -22.359375 C 2.625 -22.972656 2.828125 -23.484375 3.234375 -23.890625 C 3.640625 -24.296875 4.148438 -24.5 4.765625 -24.5 C 5.109375 -24.5 5.445312 -24.425781 5.78125 -24.28125 C 6.125 -24.144531 6.378906 -23.960938 6.546875 -23.734375 L 19.28125 -7.484375 L 19.28125 -22.546875 C 19.28125 -23.097656 19.460938 -23.5625 19.828125 -23.9375 C 20.191406 -24.3125 20.648438 -24.5 21.203125 -24.5 Z M 21.203125 -24.5" transform="translate(79.108 292.142)"/></g></g></g><g fill="#6E00C8"><g><g><path d="M 25.171875 -12.25 C 25.171875 -9.9375 24.65625 -7.816406 23.625 -5.890625 C 22.59375 -3.972656 21.171875 -2.453125 19.359375 -1.328125 C 17.554688 -0.210938 15.523438 0.34375 13.265625 0.34375 C 11.003906 0.34375 8.96875 -0.210938 7.15625 -1.328125 C 5.34375 -2.453125 3.929688 -3.972656 2.921875 -5.890625 C 1.910156 -7.816406 1.40625 -9.9375 1.40625 -12.25 C 1.40625 -14.5625 1.910156 -16.675781 2.921875 -18.59375 C 3.929688 -20.519531 5.34375 -22.039062 7.15625 -23.15625 C 8.96875 -24.28125 11.003906 -24.84375 13.265625 -24.84375 C 15.523438 -24.84375 17.554688 -24.28125 19.359375 -23.15625 C 21.171875 -22.039062 22.59375 -20.519531 23.625 -18.59375 C 24.65625 -16.675781 25.171875 -14.5625 25.171875 -12.25 Z M 20.609375 -12.25 C 20.609375 -13.8125 20.289062 -15.226562 19.65625 -16.5 C 19.03125 -17.769531 18.15625 -18.78125 17.03125 -19.53125 C 15.914062 -20.28125 14.660156 -20.65625 13.265625 -20.65625 C 11.835938 -20.65625 10.570312 -20.285156 9.46875 -19.546875 C 8.363281 -18.804688 7.5 -17.796875 6.875 -16.515625 C 6.257812 -15.234375 5.953125 -13.8125 5.953125 -12.25 C 5.953125 -10.6875 6.257812 -9.265625 6.875 -7.984375 C 7.5 -6.703125 8.363281 -5.691406 9.46875 -4.953125 C 10.570312 -4.210938 11.835938 -3.84375 13.265625 -3.84375 C 14.660156 -3.84375 15.914062 -4.21875 17.03125 -4.96875 C 18.15625 -5.71875 19.03125 -6.726562 19.65625 -8 C 20.289062 -9.269531 20.609375 -10.6875 20.609375 -12.25 Z M 20.609375 -12.25" transform="translate(106.578 292.142)"/></g></g></g><g fill="#6E00C8"><g><g><path d="M 20.6875 -13.234375 C 21.289062 -13.234375 21.789062 -13.023438 22.1875 -12.609375 C 22.582031 -12.203125 22.78125 -11.695312 22.78125 -11.09375 L 22.78125 -3.671875 C 22.78125 -2.859375 22.421875 -2.226562 21.703125 -1.78125 C 19.410156 -0.363281 16.898438 0.34375 14.171875 0.34375 C 11.859375 0.34375 9.722656 -0.21875 7.765625 -1.34375 C 5.804688 -2.476562 4.253906 -4.003906 3.109375 -5.921875 C 1.972656 -7.847656 1.40625 -9.957031 1.40625 -12.25 C 1.40625 -14.539062 1.972656 -16.644531 3.109375 -18.5625 C 4.253906 -20.488281 5.804688 -22.015625 7.765625 -23.140625 C 9.722656 -24.273438 11.859375 -24.84375 14.171875 -24.84375 C 16.484375 -24.84375 18.488281 -24.378906 20.1875 -23.453125 C 20.539062 -23.265625 20.804688 -23.019531 20.984375 -22.71875 C 21.160156 -22.414062 21.25 -22.085938 21.25 -21.734375 C 21.25 -21.148438 21.054688 -20.640625 20.671875 -20.203125 C 20.285156 -19.773438 19.8125 -19.5625 19.25 -19.5625 C 18.894531 -19.5625 18.507812 -19.65625 18.09375 -19.84375 C 16.832031 -20.382812 15.523438 -20.65625 14.171875 -20.65625 C 12.679688 -20.65625 11.304688 -20.273438 10.046875 -19.515625 C 8.785156 -18.753906 7.785156 -17.734375 7.046875 -16.453125 C 6.316406 -15.171875 5.953125 -13.769531 5.953125 -12.25 C 5.953125 -10.726562 6.316406 -9.328125 7.046875 -8.046875 C 7.785156 -6.765625 8.785156 -5.742188 10.046875 -4.984375 C 11.304688 -4.222656 12.679688 -3.84375 14.171875 -3.84375 C 14.828125 -3.84375 15.523438 -3.898438 16.265625 -4.015625 C 17.015625 -4.140625 17.671875 -4.296875 18.234375 -4.484375 L 18.234375 -9.03125 L 14.9375 -9.03125 C 14.332031 -9.03125 13.828125 -9.226562 13.421875 -9.625 C 13.015625 -10.019531 12.8125 -10.519531 12.8125 -11.125 C 12.8125 -11.738281 13.015625 -12.242188 13.421875 -12.640625 C 13.828125 -13.035156 14.332031 -13.234375 14.9375 -13.234375 Z M 20.6875 -13.234375" transform="translate(146.434 292.142)"/></g></g></g><g fill="#6E00C8"><g><g><path d="M 16.484375 -4.03125 C 17.085938 -4.03125 17.59375 -3.820312 18 -3.40625 C 18.414062 -3 18.625 -2.53125 18.625 -2 C 18.625 -1.414062 18.414062 -0.9375 18 -0.5625 C 17.59375 -0.1875 17.085938 0 16.484375 0 L 4.765625 0 C 4.148438 0 3.640625 -0.203125 3.234375 -0.609375 C 2.828125 -1.015625 2.625 -1.523438 2.625 -2.140625 L 2.625 -22.359375 C 2.625 -22.972656 2.828125 -23.484375 3.234375 -23.890625 C 3.640625 -24.296875 4.148438 -24.5 4.765625 -24.5 L 16.484375 -24.5 C 17.085938 -24.5 17.59375 -24.304688 18 -23.921875 C 18.414062 -23.535156 18.625 -23.039062 18.625 -22.4375 C 18.625 -21.851562 18.425781 -21.378906 18.03125 -21.015625 C 17.632812 -20.648438 17.117188 -20.46875 16.484375 -20.46875 L 7 -20.46875 L 7 -14.53125 L 14.90625 -14.53125 C 15.507812 -14.53125 16.015625 -14.335938 16.421875 -13.953125 C 16.835938 -13.566406 17.046875 -13.066406 17.046875 -12.453125 C 17.046875 -11.867188 16.847656 -11.394531 16.453125 -11.03125 C 16.054688 -10.675781 15.539062 -10.5 14.90625 -10.5 L 7 -10.5 L 7 -4.03125 Z M 14.859375 -28.3125 C 15.078125 -28.082031 15.21875 -27.894531 15.28125 -27.75 C 15.351562 -27.613281 15.390625 -27.453125 15.390625 -27.265625 C 15.390625 -27.054688 15.285156 -26.859375 15.078125 -26.671875 C 14.867188 -26.484375 14.613281 -26.390625 14.3125 -26.390625 C 14.09375 -26.390625 13.851562 -26.445312 13.59375 -26.5625 C 13.34375 -26.675781 12.984375 -26.875 12.515625 -27.15625 L 10.25 -28.484375 L 7.96875 -27.15625 C 7.59375 -26.945312 7.253906 -26.765625 6.953125 -26.609375 C 6.648438 -26.460938 6.394531 -26.390625 6.1875 -26.390625 C 5.882812 -26.390625 5.625 -26.484375 5.40625 -26.671875 C 5.195312 -26.859375 5.09375 -27.054688 5.09375 -27.265625 C 5.09375 -27.453125 5.128906 -27.613281 5.203125 -27.75 C 5.273438 -27.894531 5.414062 -28.082031 5.625 -28.3125 L 7.828125 -30.828125 C 8.128906 -31.179688 8.441406 -31.4375 8.765625 -31.59375 C 9.097656 -31.757812 9.5 -31.84375 9.96875 -31.84375 L 10.53125 -31.84375 C 10.96875 -31.84375 11.351562 -31.757812 11.6875 -31.59375 C 12.03125 -31.4375 12.351562 -31.179688 12.65625 -30.828125 Z M 14.859375 -28.3125" transform="translate(172.539 292.142)"/></g></g></g><g fill="#6E00C8"><g><g><path d="M 21.203125 -24.5 C 21.765625 -24.5 22.21875 -24.3125 22.5625 -23.9375 C 22.914062 -23.5625 23.09375 -23.097656 23.09375 -22.546875 L 23.09375 -2.140625 C 23.09375 -1.523438 22.890625 -1.015625 22.484375 -0.609375 C 22.078125 -0.203125 21.570312 0 20.96875 0 C 20.632812 0 20.3125 -0.0507812 20 -0.15625 C 19.6875 -0.257812 19.457031 -0.40625 19.3125 -0.59375 L 6.46875 -16.90625 L 6.46875 -1.953125 C 6.46875 -1.398438 6.285156 -0.9375 5.921875 -0.5625 C 5.566406 -0.1875 5.097656 0 4.515625 0 C 3.953125 0 3.492188 -0.1875 3.140625 -0.5625 C 2.796875 -0.9375 2.625 -1.398438 2.625 -1.953125 L 2.625 -22.359375 C 2.625 -22.972656 2.828125 -23.484375 3.234375 -23.890625 C 3.640625 -24.296875 4.148438 -24.5 4.765625 -24.5 C 5.109375 -24.5 5.445312 -24.425781 5.78125 -24.28125 C 6.125 -24.144531 6.378906 -23.960938 6.546875 -23.734375 L 19.28125 -7.484375 L 19.28125 -22.546875 C 19.28125 -23.097656 19.460938 -23.5625 19.828125 -23.9375 C 20.191406 -24.3125 20.648438 -24.5 21.203125 -24.5 Z M 21.203125 -24.5" transform="translate(194.304 292.142)"/></g></g></g><g fill="#6E00C8"><g><g><path d="M 16.484375 -4.03125 C 17.085938 -4.03125 17.59375 -3.820312 18 -3.40625 C 18.414062 -3 18.625 -2.53125 18.625 -2 C 18.625 -1.414062 18.414062 -0.9375 18 -0.5625 C 17.59375 -0.1875 17.085938 0 16.484375 0 L 4.765625 0 C 4.148438 0 3.640625 -0.203125 3.234375 -0.609375 C 2.828125 -1.015625 2.625 -1.523438 2.625 -2.140625 L 2.625 -22.359375 C 2.625 -22.972656 2.828125 -23.484375 3.234375 -23.890625 C 3.640625 -24.296875 4.148438 -24.5 4.765625 -24.5 L 16.484375 -24.5 C 17.085938 -24.5 17.59375 -24.304688 18 -23.921875 C 18.414062 -23.535156 18.625 -23.039062 18.625 -22.4375 C 18.625 -21.851562 18.425781 -21.378906 18.03125 -21.015625 C 17.632812 -20.648438 17.117188 -20.46875 16.484375 -20.46875 L 7 -20.46875 L 7 -14.53125 L 14.90625 -14.53125 C 15.507812 -14.53125 16.015625 -14.335938 16.421875 -13.953125 C 16.835938 -13.566406 17.046875 -13.066406 17.046875 -12.453125 C 17.046875 -11.867188 16.847656 -11.394531 16.453125 -11.03125 C 16.054688 -10.675781 15.539062 -10.5 14.90625 -10.5 L 7 -10.5 L 7 -4.03125 Z M 16.484375 -4.03125" transform="translate(221.774 292.142)"/></g></g></g><g fill="#6E00C8"><g><g><path d="M 21.84375 -3.4375 C 22.144531 -3.25 22.378906 -3 22.546875 -2.6875 C 22.722656 -2.382812 22.8125 -2.070312 22.8125 -1.75 C 22.8125 -1.332031 22.675781 -0.945312 22.40625 -0.59375 C 22.050781 -0.175781 21.515625 0.03125 20.796875 0.03125 C 20.234375 0.03125 19.71875 -0.09375 19.25 -0.34375 C 17.570312 -1.300781 16.734375 -3.25 16.734375 -6.1875 C 16.734375 -7.03125 16.457031 -7.695312 15.90625 -8.1875 C 15.351562 -8.675781 14.566406 -8.921875 13.546875 -8.921875 L 7 -8.921875 L 7 -2.140625 C 7 -1.503906 6.828125 -0.988281 6.484375 -0.59375 C 6.148438 -0.195312 5.703125 0 5.140625 0 C 4.460938 0 3.875 -0.203125 3.375 -0.609375 C 2.875 -1.015625 2.625 -1.523438 2.625 -2.140625 L 2.625 -22.359375 C 2.625 -22.972656 2.828125 -23.484375 3.234375 -23.890625 C 3.640625 -24.296875 4.148438 -24.5 4.765625 -24.5 L 14.84375 -24.5 C 16.050781 -24.5 17.191406 -24.171875 18.265625 -23.515625 C 19.335938 -22.867188 20.195312 -21.972656 20.84375 -20.828125 C 21.488281 -19.679688 21.8125 -18.394531 21.8125 -16.96875 C 21.8125 -15.800781 21.492188 -14.664062 20.859375 -13.5625 C 20.234375 -12.457031 19.414062 -11.578125 18.40625 -10.921875 C 19.875 -9.890625 20.679688 -8.515625 20.828125 -6.796875 C 20.898438 -6.421875 20.9375 -6.054688 20.9375 -5.703125 C 21.019531 -4.984375 21.109375 -4.460938 21.203125 -4.140625 C 21.296875 -3.828125 21.507812 -3.59375 21.84375 -3.4375 Z M 14.671875 -12.53125 C 15.085938 -12.53125 15.492188 -12.726562 15.890625 -13.125 C 16.285156 -13.519531 16.609375 -14.050781 16.859375 -14.71875 C 17.117188 -15.382812 17.25 -16.101562 17.25 -16.875 C 17.25 -17.519531 17.117188 -18.117188 16.859375 -18.671875 C 16.609375 -19.222656 16.285156 -19.660156 15.890625 -19.984375 C 15.492188 -20.304688 15.085938 -20.46875 14.671875 -20.46875 L 7 -20.46875 L 7 -12.53125 Z M 14.671875 -12.53125" transform="translate(243.54 292.142)"/></g></g></g><g fill="#6E00C8"><g><g><path d="M 25.171875 -12.25 C 25.171875 -9.9375 24.65625 -7.816406 23.625 -5.890625 C 22.59375 -3.972656 21.171875 -2.453125 19.359375 -1.328125 C 17.554688 -0.210938 15.523438 0.34375 13.265625 0.34375 C 11.003906 0.34375 8.96875 -0.210938 7.15625 -1.328125 C 5.34375 -2.453125 3.929688 -3.972656 2.921875 -5.890625 C 1.910156 -7.816406 1.40625 -9.9375 1.40625 -12.25 C 1.40625 -14.5625 1.910156 -16.675781 2.921875 -18.59375 C 3.929688 -20.519531 5.34375 -22.039062 7.15625 -23.15625 C 8.96875 -24.28125 11.003906 -24.84375 13.265625 -24.84375 C 15.523438 -24.84375 17.554688 -24.28125 19.359375 -23.15625 C 21.171875 -22.039062 22.59375 -20.519531 23.625 -18.59375 C 24.65625 -16.675781 25.171875 -14.5625 25.171875 -12.25 Z M 20.609375 -12.25 C 20.609375 -13.8125 20.289062 -15.226562 19.65625 -16.5 C 19.03125 -17.769531 18.15625 -18.78125 17.03125 -19.53125 C 15.914062 -20.28125 14.660156 -20.65625 13.265625 -20.65625 C 11.835938 -20.65625 10.570312 -20.285156 9.46875 -19.546875 C 8.363281 -18.804688 7.5 -17.796875 6.875 -16.515625 C 6.257812 -15.234375 5.953125 -13.8125 5.953125 -12.25 C 5.953125 -10.6875 6.257812 -9.265625 6.875 -7.984375 C 7.5 -6.703125 8.363281 -5.691406 9.46875 -4.953125 C 10.570312 -4.210938 11.835938 -3.84375 13.265625 -3.84375 C 14.660156 -3.84375 15.914062 -4.21875 17.03125 -4.96875 C 18.15625 -5.71875 19.03125 -6.726562 19.65625 -8 C 20.289062 -9.269531 20.609375 -10.6875 20.609375 -12.25 Z M 20.609375 -12.25" transform="translate(269.329 292.142)"/></g></g></g><g fill="#FF9100"><g><g><path d="M 6.421875 0.078125 C 6.265625 0.078125 6.160156 0.0234375 6.109375 -0.078125 L 2.734375 -7.703125 L 2.6875 -7.703125 L 2.71875 -1.75 C 2.726562 -1.476562 2.742188 -1.269531 2.765625 -1.125 C 2.796875 -0.988281 2.878906 -0.863281 3.015625 -0.75 C 3.148438 -0.644531 3.363281 -0.59375 3.65625 -0.59375 L 3.75 -0.59375 C 3.851562 -0.59375 3.925781 -0.578125 3.96875 -0.546875 C 4.007812 -0.515625 4.035156 -0.425781 4.046875 -0.28125 C 4.046875 -0.195312 4.023438 -0.117188 3.984375 -0.046875 C 3.941406 0.015625 3.875 0.046875 3.78125 0.046875 L 3.40625 0.03125 C 2.945312 0.0078125 2.617188 0 2.421875 0 C 2.078125 0 1.582031 0.015625 0.9375 0.046875 C 0.84375 0.046875 0.769531 0.015625 0.71875 -0.046875 C 0.675781 -0.117188 0.65625 -0.195312 0.65625 -0.28125 C 0.664062 -0.4375 0.695312 -0.523438 0.75 -0.546875 C 0.800781 -0.578125 0.894531 -0.59375 1.03125 -0.59375 C 1.320312 -0.59375 1.535156 -0.644531 1.671875 -0.75 C 1.804688 -0.863281 1.890625 -0.988281 1.921875 -1.125 C 1.953125 -1.269531 1.972656 -1.476562 1.984375 -1.75 L 2.015625 -7.703125 C 2.015625 -8.015625 1.976562 -8.25 1.90625 -8.40625 C 1.832031 -8.5625 1.726562 -8.671875 1.59375 -8.734375 C 1.457031 -8.796875 1.257812 -8.851562 1 -8.90625 C 0.957031 -8.914062 0.894531 -8.925781 0.8125 -8.9375 C 0.738281 -8.957031 0.6875 -8.988281 0.65625 -9.03125 C 0.632812 -9.082031 0.625 -9.15625 0.625 -9.25 C 0.625 -9.375 0.65625 -9.457031 0.71875 -9.5 C 0.789062 -9.539062 0.894531 -9.5625 1.03125 -9.5625 C 1.625 -9.5625 2.109375 -9.519531 2.484375 -9.4375 C 2.867188 -9.363281 3.203125 -9.210938 3.484375 -8.984375 C 3.773438 -8.753906 4.015625 -8.414062 4.203125 -7.96875 L 6.78125 -2.171875 L 6.828125 -2.171875 L 9.78125 -9.46875 L 10.640625 -9.46875 C 11.179688 -9.46875 11.773438 -9.484375 12.421875 -9.515625 C 12.515625 -9.515625 12.582031 -9.476562 12.625 -9.40625 C 12.664062 -9.34375 12.6875 -9.269531 12.6875 -9.1875 C 12.675781 -9.03125 12.644531 -8.9375 12.59375 -8.90625 C 12.539062 -8.875 12.445312 -8.859375 12.3125 -8.859375 C 12.019531 -8.859375 11.800781 -8.804688 11.65625 -8.703125 C 11.519531 -8.597656 11.4375 -8.46875 11.40625 -8.3125 C 11.375 -8.15625 11.351562 -7.953125 11.34375 -7.703125 L 11.34375 -1.75 C 11.351562 -1.5 11.375 -1.296875 11.40625 -1.140625 C 11.4375 -0.992188 11.519531 -0.863281 11.65625 -0.75 C 11.800781 -0.644531 12.019531 -0.59375 12.3125 -0.59375 L 12.40625 -0.59375 C 12.5 -0.59375 12.566406 -0.578125 12.609375 -0.546875 C 12.648438 -0.515625 12.675781 -0.425781 12.6875 -0.28125 C 12.6875 -0.195312 12.664062 -0.117188 12.625 -0.046875 C 12.582031 0.015625 12.515625 0.046875 12.421875 0.046875 C 11.773438 0.015625 11.175781 0 10.625 0 C 10.039062 0 9.425781 0.015625 8.78125 0.046875 C 8.6875 0.046875 8.613281 0.015625 8.5625 -0.046875 C 8.519531 -0.117188 8.5 -0.195312 8.5 -0.28125 C 8.507812 -0.4375 8.539062 -0.523438 8.59375 -0.546875 C 8.644531 -0.578125 8.738281 -0.59375 8.875 -0.59375 C 9.164062 -0.59375 9.378906 -0.644531 9.515625 -0.75 C 9.660156 -0.863281 9.75 -0.992188 9.78125 -1.140625 C 9.820312 -1.296875 9.847656 -1.5 9.859375 -1.75 L 9.859375 -7.703125 L 9.8125 -7.703125 L 6.71875 -0.078125 C 6.675781 0.0234375 6.578125 0.078125 6.421875 0.078125 Z M 6.421875 0.078125" transform="translate(122.6 318.892)"/></g></g></g><g fill="#FF9100"><g><g><path d="M 4.125 0.1875 C 3.375 0.1875 2.734375 0.0234375 2.203125 -0.296875 C 1.679688 -0.617188 1.285156 -1.054688 1.015625 -1.609375 C 0.742188 -2.160156 0.609375 -2.769531 0.609375 -3.4375 C 0.609375 -4.019531 0.742188 -4.582031 1.015625 -5.125 C 1.296875 -5.675781 1.691406 -6.117188 2.203125 -6.453125 C 2.710938 -6.796875 3.296875 -6.96875 3.953125 -6.96875 C 4.847656 -6.96875 5.535156 -6.738281 6.015625 -6.28125 C 6.492188 -5.832031 6.769531 -5.222656 6.84375 -4.453125 C 6.84375 -4.117188 6.75 -3.890625 6.5625 -3.765625 C 6.382812 -3.648438 6.128906 -3.59375 5.796875 -3.59375 L 2.140625 -3.59375 C 2.140625 -2.664062 2.332031 -1.925781 2.71875 -1.375 C 3.101562 -0.832031 3.703125 -0.5625 4.515625 -0.5625 C 4.941406 -0.5625 5.304688 -0.65625 5.609375 -0.84375 C 5.910156 -1.03125 6.195312 -1.34375 6.46875 -1.78125 C 6.519531 -1.832031 6.566406 -1.859375 6.609375 -1.859375 C 6.679688 -1.859375 6.742188 -1.835938 6.796875 -1.796875 C 6.890625 -1.734375 6.9375 -1.644531 6.9375 -1.53125 C 6.9375 -1.46875 6.929688 -1.421875 6.921875 -1.390625 C 6.609375 -0.890625 6.210938 -0.5 5.734375 -0.21875 C 5.265625 0.0507812 4.726562 0.1875 4.125 0.1875 Z M 4.59375 -4.171875 C 5.101562 -4.171875 5.375 -4.378906 5.40625 -4.796875 C 5.40625 -5.253906 5.28125 -5.644531 5.03125 -5.96875 C 4.78125 -6.289062 4.421875 -6.453125 3.953125 -6.453125 C 3.441406 -6.453125 3.019531 -6.25 2.6875 -5.84375 C 2.363281 -5.4375 2.179688 -4.878906 2.140625 -4.171875 Z M 4.59375 -4.171875" transform="translate(135.936 318.892)"/></g></g></g><g fill="#FF9100"><g><g><path d="M 0.734375 0.046875 C 0.660156 0.046875 0.601562 0.015625 0.5625 -0.046875 C 0.519531 -0.109375 0.5 -0.175781 0.5 -0.25 C 0.507812 -0.382812 0.535156 -0.460938 0.578125 -0.484375 C 0.628906 -0.515625 0.722656 -0.53125 0.859375 -0.53125 C 1.117188 -0.53125 1.300781 -0.570312 1.40625 -0.65625 C 1.519531 -0.75 1.582031 -0.851562 1.59375 -0.96875 C 1.613281 -1.09375 1.625 -1.285156 1.625 -1.546875 L 1.625 -4.984375 C 1.625 -5.242188 1.613281 -5.429688 1.59375 -5.546875 C 1.582031 -5.671875 1.519531 -5.773438 1.40625 -5.859375 C 1.300781 -5.953125 1.117188 -6 0.859375 -6 C 0.734375 -6 0.640625 -6.015625 0.578125 -6.046875 C 0.523438 -6.085938 0.5 -6.171875 0.5 -6.296875 C 0.5 -6.359375 0.515625 -6.414062 0.546875 -6.46875 C 0.585938 -6.53125 0.648438 -6.5625 0.734375 -6.5625 C 1.378906 -6.664062 1.914062 -6.796875 2.34375 -6.953125 C 2.507812 -7.003906 2.625 -7.035156 2.6875 -7.046875 L 2.734375 -7.046875 C 2.890625 -7.046875 2.96875 -6.953125 2.96875 -6.765625 L 2.96875 -5.8125 L 3.015625 -5.8125 C 3.304688 -6.082031 3.539062 -6.289062 3.71875 -6.4375 C 3.894531 -6.582031 4.125 -6.707031 4.40625 -6.8125 C 4.695312 -6.914062 5.039062 -6.96875 5.4375 -6.96875 C 6.113281 -6.96875 6.648438 -6.765625 7.046875 -6.359375 C 7.453125 -5.953125 7.65625 -5.410156 7.65625 -4.734375 L 7.65625 -1.546875 C 7.65625 -1.285156 7.660156 -1.09375 7.671875 -0.96875 C 7.691406 -0.851562 7.757812 -0.75 7.875 -0.65625 C 7.988281 -0.570312 8.175781 -0.53125 8.4375 -0.53125 L 8.515625 -0.53125 C 8.597656 -0.53125 8.660156 -0.515625 8.703125 -0.484375 C 8.742188 -0.453125 8.769531 -0.375 8.78125 -0.25 C 8.78125 -0.175781 8.753906 -0.109375 8.703125 -0.046875 C 8.660156 0.015625 8.601562 0.046875 8.53125 0.046875 C 7.957031 0.015625 7.429688 0 6.953125 0 C 6.503906 0 5.988281 0.015625 5.40625 0.046875 C 5.332031 0.046875 5.269531 0.015625 5.21875 -0.046875 C 5.175781 -0.109375 5.15625 -0.175781 5.15625 -0.25 C 5.164062 -0.382812 5.191406 -0.460938 5.234375 -0.484375 C 5.285156 -0.515625 5.375 -0.53125 5.5 -0.53125 C 5.757812 -0.53125 5.941406 -0.570312 6.046875 -0.65625 C 6.160156 -0.75 6.226562 -0.851562 6.25 -0.96875 C 6.269531 -1.09375 6.28125 -1.285156 6.28125 -1.546875 L 6.28125 -4.71875 C 6.28125 -5.1875 6.132812 -5.539062 5.84375 -5.78125 C 5.5625 -6.03125 5.226562 -6.15625 4.84375 -6.15625 C 4.382812 -6.15625 3.988281 -6.039062 3.65625 -5.8125 C 3.332031 -5.582031 3.109375 -5.347656 2.984375 -5.109375 L 2.984375 -1.546875 C 2.984375 -1.285156 2.992188 -1.09375 3.015625 -0.96875 C 3.035156 -0.851562 3.097656 -0.75 3.203125 -0.65625 C 3.316406 -0.570312 3.503906 -0.53125 3.765625 -0.53125 L 3.859375 -0.53125 C 3.929688 -0.53125 3.988281 -0.515625 4.03125 -0.484375 C 4.070312 -0.453125 4.097656 -0.375 4.109375 -0.25 C 4.109375 -0.175781 4.085938 -0.109375 4.046875 -0.046875 C 4.003906 0.015625 3.945312 0.046875 3.875 0.046875 C 3.289062 0.015625 2.765625 0 2.296875 0 C 1.847656 0 1.328125 0.015625 0.734375 0.046875 Z M 0.734375 0.046875" transform="translate(143.466 318.892)"/></g></g></g><g fill="#FF9100"><g><g><path d="M 0.734375 0.046875 C 0.660156 0.046875 0.601562 0.015625 0.5625 -0.046875 C 0.519531 -0.109375 0.5 -0.175781 0.5 -0.25 C 0.507812 -0.382812 0.535156 -0.460938 0.578125 -0.484375 C 0.628906 -0.515625 0.722656 -0.53125 0.859375 -0.53125 C 1.117188 -0.53125 1.300781 -0.570312 1.40625 -0.65625 C 1.519531 -0.75 1.582031 -0.851562 1.59375 -0.96875 C 1.613281 -1.09375 1.625 -1.285156 1.625 -1.546875 L 1.625 -4.984375 C 1.625 -5.242188 1.613281 -5.429688 1.59375 -5.546875 C 1.582031 -5.671875 1.519531 -5.773438 1.40625 -5.859375 C 1.300781 -5.953125 1.117188 -6 0.859375 -6 C 0.734375 -6 0.640625 -6.015625 0.578125 -6.046875 C 0.523438 -6.085938 0.5 -6.171875 0.5 -6.296875 C 0.5 -6.359375 0.515625 -6.414062 0.546875 -6.46875 C 0.585938 -6.53125 0.648438 -6.5625 0.734375 -6.5625 C 1.367188 -6.65625 1.910156 -6.785156 2.359375 -6.953125 C 2.492188 -7.003906 2.609375 -7.035156 2.703125 -7.046875 L 2.75 -7.046875 C 2.90625 -7.046875 2.984375 -6.953125 2.984375 -6.765625 L 2.984375 -1.546875 C 2.984375 -1.285156 2.992188 -1.09375 3.015625 -0.96875 C 3.035156 -0.851562 3.097656 -0.75 3.203125 -0.65625 C 3.316406 -0.570312 3.503906 -0.53125 3.765625 -0.53125 L 3.859375 -0.53125 C 3.929688 -0.53125 3.988281 -0.515625 4.03125 -0.484375 C 4.070312 -0.453125 4.097656 -0.375 4.109375 -0.25 C 4.109375 -0.175781 4.085938 -0.109375 4.046875 -0.046875 C 4.003906 0.015625 3.945312 0.046875 3.875 0.046875 C 3.289062 0.015625 2.765625 0 2.296875 0 C 1.847656 0 1.328125 0.015625 0.734375 0.046875 Z M 2.21875 -8.71875 C 1.9375 -8.71875 1.695312 -8.800781 1.5 -8.96875 C 1.3125 -9.144531 1.21875 -9.363281 1.21875 -9.625 C 1.21875 -9.851562 1.332031 -10.054688 1.5625 -10.234375 C 1.789062 -10.421875 2.050781 -10.515625 2.34375 -10.515625 C 2.59375 -10.515625 2.796875 -10.425781 2.953125 -10.25 C 3.117188 -10.070312 3.203125 -9.847656 3.203125 -9.578125 C 3.203125 -9.335938 3.109375 -9.132812 2.921875 -8.96875 C 2.734375 -8.800781 2.5 -8.71875 2.21875 -8.71875 Z M 2.21875 -8.71875" transform="translate(152.45 318.892)"/></g></g></g><g fill="#FF9100"><g><g><path d="M 0.734375 0.046875 C 0.660156 0.046875 0.601562 0.015625 0.5625 -0.046875 C 0.519531 -0.109375 0.5 -0.175781 0.5 -0.25 C 0.507812 -0.382812 0.535156 -0.460938 0.578125 -0.484375 C 0.628906 -0.515625 0.722656 -0.53125 0.859375 -0.53125 C 1.117188 -0.53125 1.300781 -0.570312 1.40625 -0.65625 C 1.519531 -0.75 1.582031 -0.851562 1.59375 -0.96875 C 1.613281 -1.09375 1.625 -1.285156 1.625 -1.546875 L 1.625 -4.984375 C 1.625 -5.242188 1.613281 -5.429688 1.59375 -5.546875 C 1.582031 -5.671875 1.519531 -5.773438 1.40625 -5.859375 C 1.300781 -5.953125 1.117188 -6 0.859375 -6 C 0.734375 -6 0.640625 -6.015625 0.578125 -6.046875 C 0.523438 -6.085938 0.5 -6.171875 0.5 -6.296875 C 0.5 -6.359375 0.515625 -6.414062 0.546875 -6.46875 C 0.585938 -6.53125 0.648438 -6.5625 0.734375 -6.5625 C 1.378906 -6.664062 1.914062 -6.796875 2.34375 -6.953125 C 2.507812 -7.003906 2.625 -7.035156 2.6875 -7.046875 L 2.734375 -7.046875 C 2.890625 -7.046875 2.96875 -6.953125 2.96875 -6.765625 L 2.96875 -5.8125 L 3.015625 -5.8125 C 3.304688 -6.082031 3.539062 -6.289062 3.71875 -6.4375 C 3.894531 -6.582031 4.125 -6.707031 4.40625 -6.8125 C 4.695312 -6.914062 5.039062 -6.96875 5.4375 -6.96875 C 6.113281 -6.96875 6.648438 -6.765625 7.046875 -6.359375 C 7.453125 -5.953125 7.65625 -5.410156 7.65625 -4.734375 L 7.65625 -1.546875 C 7.65625 -1.285156 7.660156 -1.09375 7.671875 -0.96875 C 7.691406 -0.851562 7.757812 -0.75 7.875 -0.65625 C 7.988281 -0.570312 8.175781 -0.53125 8.4375 -0.53125 L 8.515625 -0.53125 C 8.597656 -0.53125 8.660156 -0.515625 8.703125 -0.484375 C 8.742188 -0.453125 8.769531 -0.375 8.78125 -0.25 C 8.78125 -0.175781 8.753906 -0.109375 8.703125 -0.046875 C 8.660156 0.015625 8.601562 0.046875 8.53125 0.046875 C 7.957031 0.015625 7.429688 0 6.953125 0 C 6.503906 0 5.988281 0.015625 5.40625 0.046875 C 5.332031 0.046875 5.269531 0.015625 5.21875 -0.046875 C 5.175781 -0.109375 5.15625 -0.175781 5.15625 -0.25 C 5.164062 -0.382812 5.191406 -0.460938 5.234375 -0.484375 C 5.285156 -0.515625 5.375 -0.53125 5.5 -0.53125 C 5.757812 -0.53125 5.941406 -0.570312 6.046875 -0.65625 C 6.160156 -0.75 6.226562 -0.851562 6.25 -0.96875 C 6.269531 -1.09375 6.28125 -1.285156 6.28125 -1.546875 L 6.28125 -4.71875 C 6.28125 -5.1875 6.132812 -5.539062 5.84375 -5.78125 C 5.5625 -6.03125 5.226562 -6.15625 4.84375 -6.15625 C 4.382812 -6.15625 3.988281 -6.039062 3.65625 -5.8125 C 3.332031 -5.582031 3.109375 -5.347656 2.984375 -5.109375 L 2.984375 -1.546875 C 2.984375 -1.285156 2.992188 -1.09375 3.015625 -0.96875 C 3.035156 -0.851562 3.097656 -0.75 3.203125 -0.65625 C 3.316406 -0.570312 3.503906 -0.53125 3.765625 -0.53125 L 3.859375 -0.53125 C 3.929688 -0.53125 3.988281 -0.515625 4.03125 -0.484375 C 4.070312 -0.453125 4.097656 -0.375 4.109375 -0.25 C 4.109375 -0.175781 4.085938 -0.109375 4.046875 -0.046875 C 4.003906 0.015625 3.945312 0.046875 3.875 0.046875 C 3.289062 0.015625 2.765625 0 2.296875 0 C 1.847656 0 1.328125 0.015625 0.734375 0.046875 Z M 0.734375 0.046875" transform="translate(156.89 318.892)"/></g></g></g><g fill="#FF9100"><g><g><path d="M 4.109375 0.1875 C 3.429688 0.1875 2.828125 0.0234375 2.296875 -0.296875 C 1.765625 -0.628906 1.347656 -1.0625 1.046875 -1.59375 C 0.753906 -2.132812 0.609375 -2.703125 0.609375 -3.296875 C 0.609375 -4.046875 0.785156 -4.695312 1.140625 -5.25 C 1.492188 -5.8125 1.9375 -6.238281 2.46875 -6.53125 C 3.007812 -6.820312 3.554688 -6.96875 4.109375 -6.96875 C 4.785156 -6.96875 5.390625 -6.804688 5.921875 -6.484375 C 6.453125 -6.160156 6.863281 -5.726562 7.15625 -5.1875 C 7.457031 -4.65625 7.609375 -4.09375 7.609375 -3.5 C 7.609375 -2.75 7.429688 -2.09375 7.078125 -1.53125 C 6.722656 -0.976562 6.273438 -0.550781 5.734375 -0.25 C 5.191406 0.0390625 4.648438 0.1875 4.109375 0.1875 Z M 4.109375 -0.375 C 4.785156 -0.375 5.28125 -0.660156 5.59375 -1.234375 C 5.914062 -1.816406 6.078125 -2.570312 6.078125 -3.5 C 6.078125 -4.351562 5.910156 -5.050781 5.578125 -5.59375 C 5.253906 -6.144531 4.765625 -6.421875 4.109375 -6.421875 C 3.421875 -6.421875 2.921875 -6.132812 2.609375 -5.5625 C 2.296875 -4.988281 2.140625 -4.242188 2.140625 -3.328125 C 2.140625 -2.472656 2.300781 -1.765625 2.625 -1.203125 C 2.945312 -0.648438 3.441406 -0.375 4.109375 -0.375 Z M 4.109375 -0.375" transform="translate(165.876 318.892)"/></g></g></g><g fill="#FF9100"><g><g><path d="M 3.265625 0.1875 C 2.460938 0.1875 1.8125 0.046875 1.3125 -0.234375 C 0.8125 -0.515625 0.5625 -0.910156 0.5625 -1.421875 C 0.5625 -1.710938 0.648438 -1.945312 0.828125 -2.125 C 1.003906 -2.3125 1.234375 -2.40625 1.515625 -2.40625 C 1.671875 -2.40625 1.8125 -2.359375 1.9375 -2.265625 C 2.0625 -2.171875 2.125 -2.101562 2.125 -2.0625 C 2.125 -2.050781 2.066406 -1.984375 1.953125 -1.859375 C 1.835938 -1.742188 1.78125 -1.570312 1.78125 -1.34375 C 1.78125 -1.050781 1.914062 -0.816406 2.1875 -0.640625 C 2.46875 -0.460938 2.867188 -0.375 3.390625 -0.375 C 3.859375 -0.375 4.222656 -0.472656 4.484375 -0.671875 C 4.753906 -0.878906 4.890625 -1.171875 4.890625 -1.546875 C 4.890625 -1.796875 4.8125 -2 4.65625 -2.15625 C 4.507812 -2.320312 4.320312 -2.445312 4.09375 -2.53125 C 3.875 -2.625 3.566406 -2.726562 3.171875 -2.84375 C 2.679688 -2.988281 2.28125 -3.128906 1.96875 -3.265625 C 1.65625 -3.410156 1.390625 -3.617188 1.171875 -3.890625 C 0.953125 -4.171875 0.84375 -4.539062 0.84375 -5 C 0.84375 -5.414062 0.972656 -5.773438 1.234375 -6.078125 C 1.492188 -6.378906 1.828125 -6.601562 2.234375 -6.75 C 2.648438 -6.894531 3.09375 -6.96875 3.5625 -6.96875 C 4.144531 -6.96875 4.65625 -6.84375 5.09375 -6.59375 C 5.53125 -6.34375 5.75 -5.992188 5.75 -5.546875 C 5.75 -5.273438 5.664062 -5.046875 5.5 -4.859375 C 5.332031 -4.671875 5.113281 -4.578125 4.84375 -4.578125 C 4.6875 -4.578125 4.546875 -4.617188 4.421875 -4.703125 C 4.296875 -4.796875 4.234375 -4.867188 4.234375 -4.921875 C 4.234375 -4.929688 4.269531 -4.96875 4.34375 -5.03125 C 4.425781 -5.101562 4.5 -5.1875 4.5625 -5.28125 C 4.632812 -5.382812 4.671875 -5.5 4.671875 -5.625 C 4.648438 -5.894531 4.515625 -6.101562 4.265625 -6.25 C 4.015625 -6.40625 3.71875 -6.484375 3.375 -6.484375 C 3 -6.484375 2.664062 -6.394531 2.375 -6.21875 C 2.09375 -6.039062 1.953125 -5.796875 1.953125 -5.484375 C 1.953125 -5.203125 2.007812 -4.976562 2.125 -4.8125 C 2.25 -4.65625 2.429688 -4.523438 2.671875 -4.421875 C 2.910156 -4.328125 3.289062 -4.191406 3.8125 -4.015625 C 4.34375 -3.847656 4.753906 -3.691406 5.046875 -3.546875 C 5.347656 -3.398438 5.585938 -3.203125 5.765625 -2.953125 C 5.941406 -2.710938 6.03125 -2.394531 6.03125 -2 C 6.03125 -1.582031 5.910156 -1.207031 5.671875 -0.875 C 5.429688 -0.539062 5.097656 -0.28125 4.671875 -0.09375 C 4.253906 0.09375 3.785156 0.1875 3.265625 0.1875 Z M 3.265625 0.1875" transform="translate(174.096 318.892)"/></g></g></g><g fill="#FF9100"><g><g><path d="M 4.125 0.1875 C 3.375 0.1875 2.734375 0.0234375 2.203125 -0.296875 C 1.679688 -0.617188 1.285156 -1.054688 1.015625 -1.609375 C 0.742188 -2.160156 0.609375 -2.769531 0.609375 -3.4375 C 0.609375 -4.019531 0.742188 -4.582031 1.015625 -5.125 C 1.296875 -5.675781 1.691406 -6.117188 2.203125 -6.453125 C 2.710938 -6.796875 3.296875 -6.96875 3.953125 -6.96875 C 4.847656 -6.96875 5.535156 -6.738281 6.015625 -6.28125 C 6.492188 -5.832031 6.769531 -5.222656 6.84375 -4.453125 C 6.84375 -4.117188 6.75 -3.890625 6.5625 -3.765625 C 6.382812 -3.648438 6.128906 -3.59375 5.796875 -3.59375 L 2.140625 -3.59375 C 2.140625 -2.664062 2.332031 -1.925781 2.71875 -1.375 C 3.101562 -0.832031 3.703125 -0.5625 4.515625 -0.5625 C 4.941406 -0.5625 5.304688 -0.65625 5.609375 -0.84375 C 5.910156 -1.03125 6.195312 -1.34375 6.46875 -1.78125 C 6.519531 -1.832031 6.566406 -1.859375 6.609375 -1.859375 C 6.679688 -1.859375 6.742188 -1.835938 6.796875 -1.796875 C 6.890625 -1.734375 6.9375 -1.644531 6.9375 -1.53125 C 6.9375 -1.46875 6.929688 -1.421875 6.921875 -1.390625 C 6.609375 -0.890625 6.210938 -0.5 5.734375 -0.21875 C 5.265625 0.0507812 4.726562 0.1875 4.125 0.1875 Z M 4.59375 -4.171875 C 5.101562 -4.171875 5.375 -4.378906 5.40625 -4.796875 C 5.40625 -5.253906 5.28125 -5.644531 5.03125 -5.96875 C 4.78125 -6.289062 4.421875 -6.453125 3.953125 -6.453125 C 3.441406 -6.453125 3.019531 -6.25 2.6875 -5.84375 C 2.363281 -5.4375 2.179688 -4.878906 2.140625 -4.171875 Z M 4.59375 -4.171875" transform="translate(184.086 318.892)"/></g></g></g><g fill="#FF9100"><g><g><path d="M 6.421875 0.078125 C 6.265625 0.078125 6.160156 0.0234375 6.109375 -0.078125 L 2.734375 -7.703125 L 2.6875 -7.703125 L 2.71875 -1.75 C 2.726562 -1.476562 2.742188 -1.269531 2.765625 -1.125 C 2.796875 -0.988281 2.878906 -0.863281 3.015625 -0.75 C 3.148438 -0.644531 3.363281 -0.59375 3.65625 -0.59375 L 3.75 -0.59375 C 3.851562 -0.59375 3.925781 -0.578125 3.96875 -0.546875 C 4.007812 -0.515625 4.035156 -0.425781 4.046875 -0.28125 C 4.046875 -0.195312 4.023438 -0.117188 3.984375 -0.046875 C 3.941406 0.015625 3.875 0.046875 3.78125 0.046875 L 3.40625 0.03125 C 2.945312 0.0078125 2.617188 0 2.421875 0 C 2.078125 0 1.582031 0.015625 0.9375 0.046875 C 0.84375 0.046875 0.769531 0.015625 0.71875 -0.046875 C 0.675781 -0.117188 0.65625 -0.195312 0.65625 -0.28125 C 0.664062 -0.4375 0.695312 -0.523438 0.75 -0.546875 C 0.800781 -0.578125 0.894531 -0.59375 1.03125 -0.59375 C 1.320312 -0.59375 1.535156 -0.644531 1.671875 -0.75 C 1.804688 -0.863281 1.890625 -0.988281 1.921875 -1.125 C 1.953125 -1.269531 1.972656 -1.476562 1.984375 -1.75 L 2.015625 -7.703125 C 2.015625 -8.015625 1.976562 -8.25 1.90625 -8.40625 C 1.832031 -8.5625 1.726562 -8.671875 1.59375 -8.734375 C 1.457031 -8.796875 1.257812 -8.851562 1 -8.90625 C 0.957031 -8.914062 0.894531 -8.925781 0.8125 -8.9375 C 0.738281 -8.957031 0.6875 -8.988281 0.65625 -9.03125 C 0.632812 -9.082031 0.625 -9.15625 0.625 -9.25 C 0.625 -9.375 0.65625 -9.457031 0.71875 -9.5 C 0.789062 -9.539062 0.894531 -9.5625 1.03125 -9.5625 C 1.625 -9.5625 2.109375 -9.519531 2.484375 -9.4375 C 2.867188 -9.363281 3.203125 -9.210938 3.484375 -8.984375 C 3.773438 -8.753906 4.015625 -8.414062 4.203125 -7.96875 L 6.78125 -2.171875 L 6.828125 -2.171875 L 9.78125 -9.46875 L 10.640625 -9.46875 C 11.179688 -9.46875 11.773438 -9.484375 12.421875 -9.515625 C 12.515625 -9.515625 12.582031 -9.476562 12.625 -9.40625 C 12.664062 -9.34375 12.6875 -9.269531 12.6875 -9.1875 C 12.675781 -9.03125 12.644531 -8.9375 12.59375 -8.90625 C 12.539062 -8.875 12.445312 -8.859375 12.3125 -8.859375 C 12.019531 -8.859375 11.800781 -8.804688 11.65625 -8.703125 C 11.519531 -8.597656 11.4375 -8.46875 11.40625 -8.3125 C 11.375 -8.15625 11.351562 -7.953125 11.34375 -7.703125 L 11.34375 -1.75 C 11.351562 -1.5 11.375 -1.296875 11.40625 -1.140625 C 11.4375 -0.992188 11.519531 -0.863281 11.65625 -0.75 C 11.800781 -0.644531 12.019531 -0.59375 12.3125 -0.59375 L 12.40625 -0.59375 C 12.5 -0.59375 12.566406 -0.578125 12.609375 -0.546875 C 12.648438 -0.515625 12.675781 -0.425781 12.6875 -0.28125 C 12.6875 -0.195312 12.664062 -0.117188 12.625 -0.046875 C 12.582031 0.015625 12.515625 0.046875 12.421875 0.046875 C 11.773438 0.015625 11.175781 0 10.625 0 C 10.039062 0 9.425781 0.015625 8.78125 0.046875 C 8.6875 0.046875 8.613281 0.015625 8.5625 -0.046875 C 8.519531 -0.117188 8.5 -0.195312 8.5 -0.28125 C 8.507812 -0.4375 8.539062 -0.523438 8.59375 -0.546875 C 8.644531 -0.578125 8.738281 -0.59375 8.875 -0.59375 C 9.164062 -0.59375 9.378906 -0.644531 9.515625 -0.75 C 9.660156 -0.863281 9.75 -0.992188 9.78125 -1.140625 C 9.820312 -1.296875 9.847656 -1.5 9.859375 -1.75 L 9.859375 -7.703125 L 9.8125 -7.703125 L 6.71875 -0.078125 C 6.675781 0.0234375 6.578125 0.078125 6.421875 0.078125 Z M 6.421875 0.078125" transform="translate(194.96 318.892)"/></g></g></g><g fill="#FF9100"><g><g><path d="M 4.125 0.1875 C 3.375 0.1875 2.734375 0.0234375 2.203125 -0.296875 C 1.679688 -0.617188 1.285156 -1.054688 1.015625 -1.609375 C 0.742188 -2.160156 0.609375 -2.769531 0.609375 -3.4375 C 0.609375 -4.019531 0.742188 -4.582031 1.015625 -5.125 C 1.296875 -5.675781 1.691406 -6.117188 2.203125 -6.453125 C 2.710938 -6.796875 3.296875 -6.96875 3.953125 -6.96875 C 4.847656 -6.96875 5.535156 -6.738281 6.015625 -6.28125 C 6.492188 -5.832031 6.769531 -5.222656 6.84375 -4.453125 C 6.84375 -4.117188 6.75 -3.890625 6.5625 -3.765625 C 6.382812 -3.648438 6.128906 -3.59375 5.796875 -3.59375 L 2.140625 -3.59375 C 2.140625 -2.664062 2.332031 -1.925781 2.71875 -1.375 C 3.101562 -0.832031 3.703125 -0.5625 4.515625 -0.5625 C 4.941406 -0.5625 5.304688 -0.65625 5.609375 -0.84375 C 5.910156 -1.03125 6.195312 -1.34375 6.46875 -1.78125 C 6.519531 -1.832031 6.566406 -1.859375 6.609375 -1.859375 C 6.679688 -1.859375 6.742188 -1.835938 6.796875 -1.796875 C 6.890625 -1.734375 6.9375 -1.644531 6.9375 -1.53125 C 6.9375 -1.46875 6.929688 -1.421875 6.921875 -1.390625 C 6.609375 -0.890625 6.210938 -0.5 5.734375 -0.21875 C 5.265625 0.0507812 4.726562 0.1875 4.125 0.1875 Z M 4.59375 -4.171875 C 5.101562 -4.171875 5.375 -4.378906 5.40625 -4.796875 C 5.40625 -5.253906 5.28125 -5.644531 5.03125 -5.96875 C 4.78125 -6.289062 4.421875 -6.453125 3.953125 -6.453125 C 3.441406 -6.453125 3.019531 -6.25 2.6875 -5.84375 C 2.363281 -5.4375 2.179688 -4.878906 2.140625 -4.171875 Z M 4.59375 -4.171875" transform="translate(208.296 318.892)"/></g></g></g><g fill="#FF9100"><g><g><path d="M 0.734375 0.046875 C 0.660156 0.046875 0.601562 0.015625 0.5625 -0.046875 C 0.519531 -0.109375 0.5 -0.175781 0.5 -0.25 C 0.507812 -0.382812 0.535156 -0.460938 0.578125 -0.484375 C 0.628906 -0.515625 0.722656 -0.53125 0.859375 -0.53125 C 1.117188 -0.53125 1.300781 -0.570312 1.40625 -0.65625 C 1.519531 -0.75 1.582031 -0.851562 1.59375 -0.96875 C 1.613281 -1.09375 1.625 -1.285156 1.625 -1.546875 L 1.625 -4.984375 C 1.625 -5.242188 1.613281 -5.429688 1.59375 -5.546875 C 1.582031 -5.671875 1.519531 -5.773438 1.40625 -5.859375 C 1.300781 -5.953125 1.117188 -6 0.859375 -6 C 0.734375 -6 0.640625 -6.015625 0.578125 -6.046875 C 0.523438 -6.085938 0.5 -6.171875 0.5 -6.296875 C 0.5 -6.359375 0.515625 -6.414062 0.546875 -6.46875 C 0.585938 -6.53125 0.648438 -6.5625 0.734375 -6.5625 C 1.378906 -6.664062 1.914062 -6.796875 2.34375 -6.953125 C 2.507812 -7.003906 2.625 -7.035156 2.6875 -7.046875 L 2.734375 -7.046875 C 2.890625 -7.046875 2.96875 -6.953125 2.96875 -6.765625 L 2.96875 -5.8125 L 3.015625 -5.8125 C 3.304688 -6.082031 3.539062 -6.289062 3.71875 -6.4375 C 3.894531 -6.582031 4.125 -6.707031 4.40625 -6.8125 C 4.695312 -6.914062 5.039062 -6.96875 5.4375 -6.96875 C 6.113281 -6.96875 6.648438 -6.765625 7.046875 -6.359375 C 7.453125 -5.953125 7.65625 -5.410156 7.65625 -4.734375 L 7.65625 -1.546875 C 7.65625 -1.285156 7.660156 -1.09375 7.671875 -0.96875 C 7.691406 -0.851562 7.757812 -0.75 7.875 -0.65625 C 7.988281 -0.570312 8.175781 -0.53125 8.4375 -0.53125 L 8.515625 -0.53125 C 8.597656 -0.53125 8.660156 -0.515625 8.703125 -0.484375 C 8.742188 -0.453125 8.769531 -0.375 8.78125 -0.25 C 8.78125 -0.175781 8.753906 -0.109375 8.703125 -0.046875 C 8.660156 0.015625 8.601562 0.046875 8.53125 0.046875 C 7.957031 0.015625 7.429688 0 6.953125 0 C 6.503906 0 5.988281 0.015625 5.40625 0.046875 C 5.332031 0.046875 5.269531 0.015625 5.21875 -0.046875 C 5.175781 -0.109375 5.15625 -0.175781 5.15625 -0.25 C 5.164062 -0.382812 5.191406 -0.460938 5.234375 -0.484375 C 5.285156 -0.515625 5.375 -0.53125 5.5 -0.53125 C 5.757812 -0.53125 5.941406 -0.570312 6.046875 -0.65625 C 6.160156 -0.75 6.226562 -0.851562 6.25 -0.96875 C 6.269531 -1.09375 6.28125 -1.285156 6.28125 -1.546875 L 6.28125 -4.71875 C 6.28125 -5.1875 6.132812 -5.539062 5.84375 -5.78125 C 5.5625 -6.03125 5.226562 -6.15625 4.84375 -6.15625 C 4.382812 -6.15625 3.988281 -6.039062 3.65625 -5.8125 C 3.332031 -5.582031 3.109375 -5.347656 2.984375 -5.109375 L 2.984375 -1.546875 C 2.984375 -1.285156 2.992188 -1.09375 3.015625 -0.96875 C 3.035156 -0.851562 3.097656 -0.75 3.203125 -0.65625 C 3.316406 -0.570312 3.503906 -0.53125 3.765625 -0.53125 L 3.859375 -0.53125 C 3.929688 -0.53125 3.988281 -0.515625 4.03125 -0.484375 C 4.070312 -0.453125 4.097656 -0.375 4.109375 -0.25 C 4.109375 -0.175781 4.085938 -0.109375 4.046875 -0.046875 C 4.003906 0.015625 3.945312 0.046875 3.875 0.046875 C 3.289062 0.015625 2.765625 0 2.296875 0 C 1.847656 0 1.328125 0.015625 0.734375 0.046875 Z M 0.734375 0.046875" transform="translate(215.826 318.892)"/></g></g></g><g fill="#FF9100"><g><g><path d="M 0.734375 0.046875 C 0.660156 0.046875 0.601562 0.015625 0.5625 -0.046875 C 0.519531 -0.109375 0.5 -0.175781 0.5 -0.25 C 0.507812 -0.382812 0.535156 -0.460938 0.578125 -0.484375 C 0.628906 -0.515625 0.722656 -0.53125 0.859375 -0.53125 C 1.117188 -0.53125 1.300781 -0.570312 1.40625 -0.65625 C 1.519531 -0.75 1.582031 -0.851562 1.59375 -0.96875 C 1.613281 -1.09375 1.625 -1.285156 1.625 -1.546875 L 1.625 -4.984375 C 1.625 -5.242188 1.613281 -5.429688 1.59375 -5.546875 C 1.582031 -5.671875 1.519531 -5.773438 1.40625 -5.859375 C 1.300781 -5.953125 1.117188 -6 0.859375 -6 C 0.734375 -6 0.640625 -6.015625 0.578125 -6.046875 C 0.523438 -6.085938 0.5 -6.171875 0.5 -6.296875 C 0.5 -6.359375 0.515625 -6.414062 0.546875 -6.46875 C 0.585938 -6.53125 0.648438 -6.5625 0.734375 -6.5625 C 1.367188 -6.65625 1.910156 -6.785156 2.359375 -6.953125 C 2.492188 -7.003906 2.609375 -7.035156 2.703125 -7.046875 L 2.75 -7.046875 C 2.90625 -7.046875 2.984375 -6.953125 2.984375 -6.765625 L 2.984375 -1.546875 C 2.984375 -1.285156 2.992188 -1.09375 3.015625 -0.96875 C 3.035156 -0.851562 3.097656 -0.75 3.203125 -0.65625 C 3.316406 -0.570312 3.503906 -0.53125 3.765625 -0.53125 L 3.859375 -0.53125 C 3.929688 -0.53125 3.988281 -0.515625 4.03125 -0.484375 C 4.070312 -0.453125 4.097656 -0.375 4.109375 -0.25 C 4.109375 -0.175781 4.085938 -0.109375 4.046875 -0.046875 C 4.003906 0.015625 3.945312 0.046875 3.875 0.046875 C 3.289062 0.015625 2.765625 0 2.296875 0 C 1.847656 0 1.328125 0.015625 0.734375 0.046875 Z M 2.21875 -8.71875 C 1.9375 -8.71875 1.695312 -8.800781 1.5 -8.96875 C 1.3125 -9.144531 1.21875 -9.363281 1.21875 -9.625 C 1.21875 -9.851562 1.332031 -10.054688 1.5625 -10.234375 C 1.789062 -10.421875 2.050781 -10.515625 2.34375 -10.515625 C 2.59375 -10.515625 2.796875 -10.425781 2.953125 -10.25 C 3.117188 -10.070312 3.203125 -9.847656 3.203125 -9.578125 C 3.203125 -9.335938 3.109375 -9.132812 2.921875 -8.96875 C 2.734375 -8.800781 2.5 -8.71875 2.21875 -8.71875 Z M 2.21875 -8.71875" transform="translate(224.81 318.892)"/></g></g></g><g fill="#FF9100"><g><g><path d="M 0.734375 0.046875 C 0.660156 0.046875 0.601562 0.015625 0.5625 -0.046875 C 0.519531 -0.109375 0.5 -0.175781 0.5 -0.25 C 0.507812 -0.382812 0.535156 -0.460938 0.578125 -0.484375 C 0.628906 -0.515625 0.722656 -0.53125 0.859375 -0.53125 C 1.117188 -0.53125 1.300781 -0.570312 1.40625 -0.65625 C 1.519531 -0.75 1.582031 -0.851562 1.59375 -0.96875 C 1.613281 -1.09375 1.625 -1.285156 1.625 -1.546875 L 1.625 -4.984375 C 1.625 -5.242188 1.613281 -5.429688 1.59375 -5.546875 C 1.582031 -5.671875 1.519531 -5.773438 1.40625 -5.859375 C 1.300781 -5.953125 1.117188 -6 0.859375 -6 C 0.734375 -6 0.640625 -6.015625 0.578125 -6.046875 C 0.523438 -6.085938 0.5 -6.171875 0.5 -6.296875 C 0.5 -6.359375 0.515625 -6.414062 0.546875 -6.46875 C 0.585938 -6.53125 0.648438 -6.5625 0.734375 -6.5625 C 1.378906 -6.664062 1.914062 -6.796875 2.34375 -6.953125 C 2.507812 -7.003906 2.625 -7.035156 2.6875 -7.046875 L 2.734375 -7.046875 C 2.890625 -7.046875 2.96875 -6.953125 2.96875 -6.765625 L 2.96875 -5.8125 L 3.015625 -5.8125 C 3.304688 -6.082031 3.539062 -6.289062 3.71875 -6.4375 C 3.894531 -6.582031 4.125 -6.707031 4.40625 -6.8125 C 4.695312 -6.914062 5.039062 -6.96875 5.4375 -6.96875 C 6.113281 -6.96875 6.648438 -6.765625 7.046875 -6.359375 C 7.453125 -5.953125 7.65625 -5.410156 7.65625 -4.734375 L 7.65625 -1.546875 C 7.65625 -1.285156 7.660156 -1.09375 7.671875 -0.96875 C 7.691406 -0.851562 7.757812 -0.75 7.875 -0.65625 C 7.988281 -0.570312 8.175781 -0.53125 8.4375 -0.53125 L 8.515625 -0.53125 C 8.597656 -0.53125 8.660156 -0.515625 8.703125 -0.484375 C 8.742188 -0.453125 8.769531 -0.375 8.78125 -0.25 C 8.78125 -0.175781 8.753906 -0.109375 8.703125 -0.046875 C 8.660156 0.015625 8.601562 0.046875 8.53125 0.046875 C 7.957031 0.015625 7.429688 0 6.953125 0 C 6.503906 0 5.988281 0.015625 5.40625 0.046875 C 5.332031 0.046875 5.269531 0.015625 5.21875 -0.046875 C 5.175781 -0.109375 5.15625 -0.175781 5.15625 -0.25 C 5.164062 -0.382812 5.191406 -0.460938 5.234375 -0.484375 C 5.285156 -0.515625 5.375 -0.53125 5.5 -0.53125 C 5.757812 -0.53125 5.941406 -0.570312 6.046875 -0.65625 C 6.160156 -0.75 6.226562 -0.851562 6.25 -0.96875 C 6.269531 -1.09375 6.28125 -1.285156 6.28125 -1.546875 L 6.28125 -4.71875 C 6.28125 -5.1875 6.132812 -5.539062 5.84375 -5.78125 C 5.5625 -6.03125 5.226562 -6.15625 4.84375 -6.15625 C 4.382812 -6.15625 3.988281 -6.039062 3.65625 -5.8125 C 3.332031 -5.582031 3.109375 -5.347656 2.984375 -5.109375 L 2.984375 -1.546875 C 2.984375 -1.285156 2.992188 -1.09375 3.015625 -0.96875 C 3.035156 -0.851562 3.097656 -0.75 3.203125 -0.65625 C 3.316406 -0.570312 3.503906 -0.53125 3.765625 -0.53125 L 3.859375 -0.53125 C 3.929688 -0.53125 3.988281 -0.515625 4.03125 -0.484375 C 4.070312 -0.453125 4.097656 -0.375 4.109375 -0.25 C 4.109375 -0.175781 4.085938 -0.109375 4.046875 -0.046875 C 4.003906 0.015625 3.945312 0.046875 3.875 0.046875 C 3.289062 0.015625 2.765625 0 2.296875 0 C 1.847656 0 1.328125 0.015625 0.734375 0.046875 Z M 0.734375 0.046875" transform="translate(229.25 318.892)"/></g></g></g><g fill="#FF9100"><g><g><path d="M 2.515625 0.1875 C 1.921875 0.1875 1.4375 0.015625 1.0625 -0.328125 C 0.695312 -0.671875 0.515625 -1.097656 0.515625 -1.609375 C 0.515625 -2.234375 0.722656 -2.703125 1.140625 -3.015625 C 1.554688 -3.335938 2.054688 -3.546875 2.640625 -3.640625 C 3.222656 -3.734375 3.972656 -3.804688 4.890625 -3.859375 L 4.890625 -5.046875 C 4.890625 -5.535156 4.765625 -5.90625 4.515625 -6.15625 C 4.273438 -6.414062 3.882812 -6.546875 3.34375 -6.546875 C 3.03125 -6.546875 2.757812 -6.445312 2.53125 -6.25 C 2.300781 -6.0625 2.1875 -5.804688 2.1875 -5.484375 C 2.1875 -5.328125 2.222656 -5.195312 2.296875 -5.09375 C 2.378906 -4.988281 2.460938 -4.898438 2.546875 -4.828125 C 2.628906 -4.753906 2.671875 -4.710938 2.671875 -4.703125 C 2.671875 -4.648438 2.609375 -4.570312 2.484375 -4.46875 C 2.359375 -4.375 2.207031 -4.328125 2.03125 -4.328125 C 1.726562 -4.328125 1.488281 -4.4375 1.3125 -4.65625 C 1.132812 -4.882812 1.046875 -5.144531 1.046875 -5.4375 C 1.046875 -5.957031 1.273438 -6.34375 1.734375 -6.59375 C 2.203125 -6.84375 2.769531 -6.96875 3.4375 -6.96875 C 4.257812 -6.96875 4.925781 -6.8125 5.4375 -6.5 C 5.945312 -6.195312 6.203125 -5.625 6.203125 -4.78125 L 6.203125 -1.296875 C 6.210938 -1.078125 6.273438 -0.875 6.390625 -0.6875 C 6.515625 -0.5 6.710938 -0.40625 6.984375 -0.40625 C 7.066406 -0.40625 7.125 -0.390625 7.15625 -0.359375 C 7.195312 -0.328125 7.21875 -0.265625 7.21875 -0.171875 C 7.21875 -0.046875 7.125 0.0390625 6.9375 0.09375 C 6.75 0.15625 6.566406 0.1875 6.390625 0.1875 C 6.003906 0.1875 5.664062 0.078125 5.375 -0.140625 C 5.09375 -0.367188 4.929688 -0.664062 4.890625 -1.03125 C 4.679688 -0.644531 4.359375 -0.34375 3.921875 -0.125 C 3.484375 0.0820312 3.015625 0.1875 2.515625 0.1875 Z M 3 -0.625 C 3.34375 -0.625 3.65625 -0.707031 3.9375 -0.875 C 4.226562 -1.050781 4.457031 -1.285156 4.625 -1.578125 C 4.800781 -1.878906 4.890625 -2.207031 4.890625 -2.5625 L 4.890625 -3.421875 C 3.835938 -3.335938 3.097656 -3.164062 2.671875 -2.90625 C 2.242188 -2.644531 2.03125 -2.226562 2.03125 -1.65625 C 2.03125 -0.96875 2.351562 -0.625 3 -0.625 Z M 3 -0.625" transform="translate(238.236 318.892)"/></g></g></g><g fill="#FF9100"><g><g><path d="M 3.265625 0.1875 C 2.460938 0.1875 1.8125 0.046875 1.3125 -0.234375 C 0.8125 -0.515625 0.5625 -0.910156 0.5625 -1.421875 C 0.5625 -1.710938 0.648438 -1.945312 0.828125 -2.125 C 1.003906 -2.3125 1.234375 -2.40625 1.515625 -2.40625 C 1.671875 -2.40625 1.8125 -2.359375 1.9375 -2.265625 C 2.0625 -2.171875 2.125 -2.101562 2.125 -2.0625 C 2.125 -2.050781 2.066406 -1.984375 1.953125 -1.859375 C 1.835938 -1.742188 1.78125 -1.570312 1.78125 -1.34375 C 1.78125 -1.050781 1.914062 -0.816406 2.1875 -0.640625 C 2.46875 -0.460938 2.867188 -0.375 3.390625 -0.375 C 3.859375 -0.375 4.222656 -0.472656 4.484375 -0.671875 C 4.753906 -0.878906 4.890625 -1.171875 4.890625 -1.546875 C 4.890625 -1.796875 4.8125 -2 4.65625 -2.15625 C 4.507812 -2.320312 4.320312 -2.445312 4.09375 -2.53125 C 3.875 -2.625 3.566406 -2.726562 3.171875 -2.84375 C 2.679688 -2.988281 2.28125 -3.128906 1.96875 -3.265625 C 1.65625 -3.410156 1.390625 -3.617188 1.171875 -3.890625 C 0.953125 -4.171875 0.84375 -4.539062 0.84375 -5 C 0.84375 -5.414062 0.972656 -5.773438 1.234375 -6.078125 C 1.492188 -6.378906 1.828125 -6.601562 2.234375 -6.75 C 2.648438 -6.894531 3.09375 -6.96875 3.5625 -6.96875 C 4.144531 -6.96875 4.65625 -6.84375 5.09375 -6.59375 C 5.53125 -6.34375 5.75 -5.992188 5.75 -5.546875 C 5.75 -5.273438 5.664062 -5.046875 5.5 -4.859375 C 5.332031 -4.671875 5.113281 -4.578125 4.84375 -4.578125 C 4.6875 -4.578125 4.546875 -4.617188 4.421875 -4.703125 C 4.296875 -4.796875 4.234375 -4.867188 4.234375 -4.921875 C 4.234375 -4.929688 4.269531 -4.96875 4.34375 -5.03125 C 4.425781 -5.101562 4.5 -5.1875 4.5625 -5.28125 C 4.632812 -5.382812 4.671875 -5.5 4.671875 -5.625 C 4.648438 -5.894531 4.515625 -6.101562 4.265625 -6.25 C 4.015625 -6.40625 3.71875 -6.484375 3.375 -6.484375 C 3 -6.484375 2.664062 -6.394531 2.375 -6.21875 C 2.09375 -6.039062 1.953125 -5.796875 1.953125 -5.484375 C 1.953125 -5.203125 2.007812 -4.976562 2.125 -4.8125 C 2.25 -4.65625 2.429688 -4.523438 2.671875 -4.421875 C 2.910156 -4.328125 3.289062 -4.191406 3.8125 -4.015625 C 4.34375 -3.847656 4.753906 -3.691406 5.046875 -3.546875 C 5.347656 -3.398438 5.585938 -3.203125 5.765625 -2.953125 C 5.941406 -2.710938 6.03125 -2.394531 6.03125 -2 C 6.03125 -1.582031 5.910156 -1.207031 5.671875 -0.875 C 5.429688 -0.539062 5.097656 -0.28125 4.671875 -0.09375 C 4.253906 0.09375 3.785156 0.1875 3.265625 0.1875 Z M 3.265625 0.1875" transform="translate(245.75 318.892)"/></g></g></g><path fill="#FF9100" d="M 174.238281 95.429688 C 175.507812 95.429688 176.535156 96.457031 176.535156 97.722656 C 176.535156 98.992188 175.507812 100.015625 174.238281 100.015625 C 172.972656 100.015625 171.945312 98.992188 171.945312 97.722656 C 171.945312 96.457031 172.972656 95.429688 174.238281 95.429688"/><path fill="#FF9100" d="M 198.898438 95.429688 C 200.164062 95.429688 201.191406 96.457031 201.191406 97.722656 C 201.191406 98.992188 200.164062 100.015625 198.898438 100.015625 C 197.632812 100.015625 196.605469 98.992188 196.605469 97.722656 C 196.605469 96.457031 197.632812 95.429688 198.898438 95.429688"/><path fill="#6E00C8" d="M 168.121094 104.414062 C 170.023438 104.414062 171.566406 105.269531 171.566406 106.324219 C 171.566406 107.382812 170.023438 108.238281 168.121094 108.238281 C 166.222656 108.238281 164.683594 107.382812 164.683594 106.324219 C 164.683594 105.269531 166.222656 104.414062 168.121094 104.414062"/><path fill="#6E00C8" d="M 203.867188 104.414062 C 205.765625 104.414062 207.308594 105.269531 207.308594 106.324219 C 207.308594 107.382812 205.765625 108.238281 203.867188 108.238281 C 201.964844 108.238281 200.425781 107.382812 200.425781 106.324219 C 200.425781 105.269531 201.964844 104.414062 203.867188 104.414062"/><path fill="#6E00C8" d="M 202.910156 73.257812 C 202.910156 73.257812 202.910156 62.363281 192.589844 59.878906 C 182.269531 57.390625 174.238281 54.332031 173.667969 52.042969 C 172.519531 55.671875 170.605469 67.90625 178.445312 72.109375 C 178.636719 71.921875 187.808594 79.945312 202.910156 73.257812"/><g clip-path="url(#a)"><path fill="#FF9100" d="M 232.921875 93.328125 C 232.15625 91.988281 230.4375 90.460938 227.1875 90.460938 C 225.277344 90.460938 222.792969 91.035156 220.113281 92.179688 C 218.96875 84.917969 215.335938 78.226562 209.792969 73.257812 C 208.261719 71.921875 206.542969 70.582031 204.824219 69.433594 C 205.015625 71.535156 205.203125 73.640625 205.398438 75.167969 C 211.320312 80.136719 215.527344 87.402344 216.101562 95.621094 C 216.101562 96.386719 216.484375 96.960938 217.246094 97.34375 C 217.820312 97.722656 218.585938 97.722656 219.347656 97.34375 C 222.601562 95.621094 225.277344 94.855469 227.1875 94.855469 C 228.714844 94.855469 229.289062 95.429688 229.480469 95.8125 C 230.4375 97.148438 230.054688 99.636719 228.714844 101.929688 C 227.1875 104.796875 224.128906 107.664062 219.921875 107.664062 C 218.96875 107.664062 218.011719 107.472656 217.058594 107.089844 C 215.910156 106.707031 214.761719 107.28125 214.378906 108.429688 C 209.984375 119.703125 199.089844 127.351562 186.855469 127.351562 C 174.621094 127.351562 163.917969 120.085938 159.523438 108.808594 C 159.136719 108.042969 158.375 107.472656 157.609375 107.472656 L 157.226562 107.472656 C 156.460938 107.664062 155.890625 107.664062 155.125 107.664062 C 150.921875 107.664062 147.863281 104.605469 146.332031 101.929688 C 144.992188 99.636719 144.804688 97.148438 145.566406 95.8125 C 145.757812 95.621094 146.140625 94.855469 147.863281 94.855469 C 149.582031 94.855469 151.875 95.621094 154.550781 96.769531 C 155.125 97.148438 155.890625 96.960938 156.460938 96.769531 C 157.035156 96.386719 157.421875 95.8125 157.609375 95.046875 C 158.566406 84.726562 164.871094 75.933594 173.667969 71.535156 L 171.371094 67.90625 C 168.886719 69.242188 166.402344 70.960938 164.300781 72.875 C 158.757812 77.84375 155.125 84.34375 153.976562 91.605469 C 151.6875 90.839844 149.773438 90.269531 148.054688 90.269531 C 144.804688 90.269531 143.082031 91.800781 142.320312 93.136719 C 140.597656 95.8125 140.789062 99.824219 142.703125 103.648438 C 144.804688 107.472656 149.199219 111.679688 155.125 111.679688 L 156.273438 111.679688 C 158.757812 117.222656 162.769531 122 167.742188 125.4375 C 173.476562 129.261719 179.972656 131.367188 186.855469 131.367188 C 193.734375 131.367188 200.425781 129.261719 206.160156 125.246094 C 211.132812 121.808594 215.144531 117.027344 217.628906 111.488281 C 218.394531 111.679688 219.15625 111.679688 219.921875 111.679688 C 226.039062 111.679688 230.4375 107.472656 232.347656 103.648438 C 234.449219 100.015625 234.640625 96.003906 232.921875 93.328125"/></g><path fill="#6E00C8" d="M 174.027344 172.511719 C 175.292969 172.511719 176.320312 173.539062 176.320312 174.804688 C 176.320312 176.070312 175.292969 177.097656 174.027344 177.097656 C 172.761719 177.097656 171.734375 176.070312 171.734375 174.804688 C 171.734375 173.539062 172.761719 172.511719 174.027344 172.511719"/><path fill="#6E00C8" d="M 198.683594 172.511719 C 199.953125 172.511719 200.980469 173.539062 200.980469 174.804688 C 200.980469 176.070312 199.953125 177.097656 198.683594 177.097656 C 197.417969 177.097656 196.394531 176.070312 196.394531 174.804688 C 196.394531 173.539062 197.417969 172.511719 198.683594 172.511719"/><path fill="#FF9100" d="M 167.910156 181.496094 C 169.8125 181.496094 171.351562 182.351562 171.351562 183.40625 C 171.351562 184.460938 169.8125 185.316406 167.910156 185.316406 C 166.011719 185.316406 164.472656 184.460938 164.472656 183.40625 C 164.472656 182.351562 166.011719 181.496094 167.910156 181.496094"/><path fill="#FF9100" d="M 203.847656 181.496094 C 205.746094 181.496094 207.289062 182.351562 207.289062 183.40625 C 207.289062 184.460938 205.746094 185.316406 203.847656 185.316406 C 201.949219 185.316406 200.40625 184.460938 200.40625 183.40625 C 200.40625 182.351562 201.949219 181.496094 203.847656 181.496094"/><g clip-path="url(#b)"><path fill="#FF9100" d="M 209.390625 149.382812 C 209.390625 149.382812 207.863281 140.207031 205.949219 139.824219 C 204.039062 139.441406 200.597656 143.839844 200.597656 143.839844 C 200.597656 143.839844 195.054688 145.75 196.394531 147.851562 C 197.539062 149.957031 204.613281 153.015625 204.613281 153.015625 L 209.390625 149.382812"/></g><path fill="#FF9100" d="M 213.597656 154.925781 C 213.597656 154.925781 222.007812 158.941406 222.007812 160.851562 C 222.007812 162.761719 216.652344 164.867188 216.652344 164.867188 C 216.652344 164.867188 213.402344 169.644531 211.683594 167.925781 C 209.964844 166.203125 208.816406 158.558594 208.816406 158.558594 L 213.597656 154.925781"/><path fill="#FF9100" d="M 206.140625 156.261719 C 205.378906 155.308594 205.566406 153.777344 206.523438 153.015625 L 209.199219 150.910156 C 210.152344 150.148438 211.683594 150.335938 212.449219 151.292969 C 213.214844 152.25 213.023438 153.777344 212.066406 154.542969 L 209.390625 156.644531 C 208.242188 157.601562 206.90625 157.410156 206.140625 156.261719"/><g clip-path="url(#c)"><path fill="#6E00C8" d="M 232.710938 170.40625 C 231.945312 169.070312 230.226562 167.539062 226.976562 167.539062 C 225.0625 167.539062 222.582031 168.113281 219.902344 169.261719 C 219.710938 168.496094 219.523438 167.539062 219.328125 166.777344 L 215.507812 169.453125 C 215.699219 170.40625 215.890625 171.554688 215.890625 172.703125 C 215.890625 173.464844 216.273438 174.039062 217.035156 174.421875 C 217.609375 174.804688 218.375 174.804688 219.136719 174.421875 C 222.386719 172.703125 225.0625 171.9375 226.976562 171.9375 C 228.503906 171.9375 229.078125 172.511719 229.269531 172.894531 C 230.226562 174.230469 229.84375 176.714844 228.503906 179.007812 C 226.976562 181.878906 223.917969 184.742188 219.710938 184.742188 C 218.757812 184.742188 217.800781 184.554688 216.847656 184.171875 C 215.699219 183.789062 214.550781 184.359375 214.167969 185.507812 C 209.773438 196.785156 198.878906 204.433594 186.644531 204.433594 C 174.410156 204.433594 163.707031 197.167969 159.3125 185.890625 C 158.929688 185.125 158.164062 184.554688 157.402344 184.554688 L 157.015625 184.554688 C 156.253906 184.742188 155.679688 184.742188 154.914062 184.742188 C 150.707031 184.742188 147.652344 181.683594 146.121094 179.007812 C 144.785156 176.714844 144.59375 174.230469 145.359375 172.894531 C 145.546875 172.703125 145.933594 171.9375 147.652344 171.9375 C 149.371094 171.9375 151.667969 172.703125 154.339844 173.847656 C 154.914062 174.230469 155.679688 174.039062 156.253906 173.847656 C 156.828125 173.464844 157.207031 172.894531 157.402344 172.128906 C 158.929688 157.027344 171.351562 145.558594 186.644531 145.558594 C 189.128906 145.558594 191.421875 145.941406 193.714844 146.515625 L 197.347656 143.074219 C 193.910156 141.925781 190.277344 141.351562 186.644531 141.351562 C 178.234375 141.351562 170.207031 144.414062 163.898438 150.148438 C 158.355469 155.117188 154.722656 161.617188 153.578125 168.878906 C 151.28125 168.113281 149.371094 167.539062 147.652344 167.539062 C 144.398438 167.539062 142.679688 169.070312 141.917969 170.40625 C 140.195312 173.085938 140.386719 177.097656 142.296875 180.921875 C 144.402344 184.742188 148.796875 188.949219 154.722656 188.949219 L 155.871094 188.949219 C 158.355469 194.492188 162.371094 199.273438 167.339844 202.710938 C 173.070312 206.535156 179.570312 208.636719 186.453125 208.636719 C 193.335938 208.636719 200.023438 206.535156 205.757812 202.519531 C 210.726562 199.078125 214.742188 194.300781 217.226562 188.757812 C 217.992188 188.949219 218.757812 188.949219 219.523438 188.949219 C 225.636719 188.949219 230.035156 184.742188 231.945312 180.921875 C 234.429688 177.097656 234.621094 173.085938 232.710938 170.40625"/></g></svg>