<svg xmlns="http://www.w3.org/2000/svg" width="375" viewBox="0 0 375 375" height="375" version="1.0"><defs><clipPath id="a"><path d="M 85.59375 265 L 289.59375 265 L 289.59375 280.675781 L 85.59375 280.675781 Z M 85.59375 265"/></clipPath><clipPath id="b"><path d="M 235 94.675781 L 258 94.675781 L 258 116 L 235 116 Z M 235 94.675781"/></clipPath></defs><path fill="#6E00C8" d="M 137.171875 226.734375 L 103.417969 226.734375 L 103.417969 269.539062 L 137.171875 269.539062 L 137.171875 226.734375"/><path fill="#040505" d="M 137.171875 226.734375 L 137.171875 224.578125 L 103.417969 224.578125 C 102.851562 224.578125 102.300781 224.8125 101.894531 225.21875 C 101.5 225.613281 101.265625 226.167969 101.265625 226.734375 L 101.265625 269.539062 C 101.265625 270.109375 101.5 270.667969 101.894531 271.066406 C 102.300781 271.46875 102.851562 271.695312 103.417969 271.695312 L 137.171875 271.695312 C 137.742188 271.695312 138.300781 271.46875 138.699219 271.066406 C 139.101562 270.667969 139.328125 270.109375 139.328125 269.539062 L 139.328125 226.734375 C 139.328125 226.167969 139.101562 225.613281 138.699219 225.21875 C 138.300781 224.8125 137.742188 224.578125 137.171875 224.578125 L 137.171875 226.734375 L 135.019531 226.734375 L 135.019531 267.382812 L 105.574219 267.382812 L 105.574219 228.890625 L 137.171875 228.890625 L 137.171875 226.734375 L 135.019531 226.734375 L 137.171875 226.734375"/><path fill="#6E00C8" d="M 183.097656 203.753906 L 149.328125 203.753906 L 149.328125 269.539062 L 183.097656 269.539062 L 183.097656 203.753906"/><path fill="#040505" d="M 183.097656 203.753906 L 183.097656 201.601562 L 149.328125 201.601562 C 148.769531 201.601562 148.207031 201.832031 147.8125 202.230469 C 147.40625 202.636719 147.175781 203.195312 147.175781 203.753906 L 147.175781 269.539062 C 147.175781 270.109375 147.40625 270.667969 147.8125 271.066406 C 148.207031 271.46875 148.769531 271.695312 149.328125 271.695312 L 183.097656 271.695312 C 183.660156 271.695312 184.21875 271.46875 184.613281 271.066406 C 185.019531 270.667969 185.253906 270.109375 185.253906 269.539062 L 185.253906 203.753906 C 185.253906 203.195312 185.019531 202.636719 184.613281 202.230469 C 184.21875 201.832031 183.660156 201.601562 183.097656 201.601562 L 183.097656 203.753906 L 180.9375 203.753906 L 180.9375 267.382812 L 151.480469 267.382812 L 151.480469 205.910156 L 183.097656 205.910156 L 183.097656 203.753906 L 180.9375 203.753906 L 183.097656 203.753906"/><path fill="#6E00C8" d="M 271.769531 142.964844 L 238.011719 142.964844 L 238.011719 269.539062 L 271.769531 269.539062 L 271.769531 142.964844"/><path fill="#040505" d="M 271.769531 142.964844 L 271.769531 140.808594 L 238.011719 140.808594 C 237.441406 140.808594 236.890625 141.042969 236.484375 141.4375 C 236.089844 141.84375 235.855469 142.40625 235.855469 142.964844 L 235.855469 269.539062 C 235.855469 270.109375 236.089844 270.667969 236.484375 271.066406 C 236.890625 271.46875 237.441406 271.695312 238.011719 271.695312 L 271.769531 271.695312 C 272.339844 271.695312 272.890625 271.46875 273.289062 271.066406 C 273.691406 270.667969 273.925781 270.109375 273.925781 269.539062 L 273.925781 142.964844 C 273.925781 142.40625 273.691406 141.84375 273.289062 141.4375 C 272.890625 141.042969 272.339844 140.808594 271.769531 140.808594 L 271.769531 142.964844 L 269.617188 142.964844 L 269.617188 267.382812 L 240.164062 267.382812 L 240.164062 145.121094 L 271.769531 145.121094 L 271.769531 142.964844 L 269.617188 142.964844 L 271.769531 142.964844"/><path fill="#6E00C8" d="M 227.878906 169.972656 L 194.125 169.972656 L 194.125 269.539062 L 227.878906 269.539062 L 227.878906 169.972656"/><path fill="#040505" d="M 227.878906 169.972656 L 227.878906 167.816406 L 194.125 167.816406 C 193.558594 167.816406 192.996094 168.039062 192.601562 168.445312 C 192.195312 168.84375 191.972656 169.402344 191.972656 169.972656 L 191.972656 269.539062 C 191.972656 270.109375 192.195312 270.667969 192.601562 271.066406 C 192.996094 271.46875 193.558594 271.695312 194.125 271.695312 L 227.878906 271.695312 C 228.445312 271.695312 229 271.46875 229.402344 271.066406 C 229.808594 270.667969 230.03125 270.109375 230.03125 269.539062 L 230.03125 169.972656 C 230.03125 169.402344 229.808594 168.84375 229.402344 168.445312 C 229 168.039062 228.445312 167.816406 227.878906 167.816406 L 227.878906 169.972656 L 225.726562 169.972656 L 225.726562 267.382812 L 196.28125 267.382812 L 196.28125 172.117188 L 227.878906 172.117188 L 227.878906 169.972656 L 225.726562 169.972656 L 227.878906 169.972656"/><path fill="#D3AED4" d="M 89.914062 278.453125 C 88.722656 278.453125 87.757812 277.488281 87.757812 276.300781 L 87.757812 269.539062 C 87.757812 268.347656 88.722656 267.382812 89.914062 267.382812 L 285.273438 267.382812 C 286.46875 267.382812 287.425781 268.347656 287.425781 269.539062 L 287.425781 276.300781 C 287.425781 277.488281 286.46875 278.453125 285.273438 278.453125 L 89.914062 278.453125"/><g clip-path="url(#a)"><path fill="#040505" d="M 285.269531 265.226562 L 89.910156 265.226562 C 87.535156 265.226562 85.605469 267.160156 85.605469 269.539062 L 85.605469 276.300781 C 85.605469 278.679688 87.535156 280.609375 89.914062 280.609375 L 285.273438 280.609375 C 287.65625 280.609375 289.578125 278.679688 289.578125 276.300781 L 289.578125 269.539062 C 289.578125 267.160156 287.65625 265.226562 285.273438 265.226562 Z M 285.269531 269.539062 L 285.269531 276.300781 L 89.910156 276.300781 L 89.914062 269.539062 L 285.273438 269.539062"/></g><path fill="#040505" d="M 90.757812 213.929688 C 90.816406 213.914062 117.238281 202.667969 150.820312 183.0625 C 184.390625 163.4375 225.121094 135.480469 253.828125 101.828125 C 254.601562 100.921875 254.488281 99.558594 253.585938 98.792969 C 252.679688 98.015625 251.320312 98.128906 250.554688 99.03125 C 222.398438 132.058594 181.988281 159.867188 148.648438 179.335938 C 131.96875 189.070312 117.066406 196.738281 106.332031 201.960938 C 100.964844 204.574219 96.640625 206.585938 93.667969 207.929688 C 92.175781 208.601562 91.023438 209.109375 90.246094 209.457031 C 89.859375 209.628906 89.5625 209.757812 89.363281 209.84375 C 89.164062 209.929688 89.070312 209.964844 89.070312 209.964844 C 87.976562 210.429688 87.464844 211.699219 87.929688 212.792969 C 88.398438 213.886719 89.660156 214.394531 90.757812 213.929688"/><g clip-path="url(#b)"><path fill="#040505" d="M 238.441406 102.542969 L 252.25 99.722656 L 250.0625 112.714844 C 249.871094 113.890625 250.65625 115 251.828125 115.199219 C 253.007812 115.398438 254.121094 114.605469 254.316406 113.433594 L 257.015625 97.332031 C 257.136719 96.636719 256.902344 95.917969 256.386719 95.429688 C 255.878906 94.9375 255.160156 94.722656 254.457031 94.867188 L 237.578125 98.316406 C 236.414062 98.558594 235.65625 99.695312 235.898438 100.859375 C 236.140625 102.023438 237.277344 102.773438 238.441406 102.542969"/></g></svg>