<svg xmlns="http://www.w3.org/2000/svg" width="375" viewBox="0 0 375 375" height="375" version="1.0"><defs><clipPath id="a"><path d="M 137.136719 112.5 L 238.183594 112.5 L 238.183594 238.457031 L 137.136719 238.457031 Z M 137.136719 112.5"/></clipPath><clipPath id="b"><path d="M 162.046875 167 L 220.167969 167 L 220.167969 262.496094 L 162.046875 262.496094 Z M 162.046875 167"/></clipPath><clipPath id="c"><path d="M 88.8125 79.757812 L 147.828125 79.757812 L 147.828125 145 L 88.8125 145 Z M 88.8125 79.757812"/></clipPath></defs><g clip-path="url(#a)"><path fill="#6E00C8" d="M 214.183594 213.796875 C 211.941406 216.417969 209.257812 224.640625 207.828125 230.945312 C 208.789062 231.226562 209.496094 232.097656 209.496094 233.144531 L 209.496094 234.988281 C 209.496094 236.257812 208.464844 237.285156 207.191406 237.285156 L 206.820312 237.285156 C 206.808594 237.742188 206.828125 238.109375 206.890625 238.363281 C 206.375 238.039062 203.523438 237.664062 199.578125 237.285156 L 168.9375 237.285156 C 167.660156 237.285156 166.628906 236.257812 166.628906 234.988281 L 166.628906 233.144531 C 166.628906 232.46875 166.929688 231.863281 167.398438 231.441406 C 165.621094 226.878906 161.921875 219.195312 157.742188 212.152344 C 152.296875 202.628906 137.316406 182.046875 137.136719 160.398438 C 137.058594 150.875 140.953125 137.832031 147.632812 128.707031 C 156.867188 116.085938 171.585938 112.664062 189.265625 112.5 C 209.890625 114.292969 224.402344 120.820312 231.789062 136.070312 C 235.523438 143.773438 237.945312 155.015625 238.183594 164.753906 C 237.445312 190.539062 217.957031 207.980469 214.183594 213.796875"/></g><path fill="#D3AED4" d="M 186.460938 149.640625 C 170.742188 148.417969 160.816406 159.871094 162.871094 183.46875 C 157.984375 197.75 168.75 204.035156 190.710938 202.375 C 206.730469 207.6875 210.773438 193.890625 212.695312 177.902344 C 213.570312 164.535156 208.855469 155.164062 186.460938 149.640625 Z M 207.191406 237.285156 C 207.28125 237.285156 207.367188 237.269531 207.457031 237.261719 L 205.378906 254.171875 C 205.132812 256.164062 203.421875 257.652344 201.410156 257.625 L 175.199219 257.269531 C 173.292969 257.242188 171.683594 255.867188 171.363281 253.992188 L 168.539062 237.246094 C 168.667969 237.269531 168.800781 237.285156 168.9375 237.285156 L 207.191406 237.285156"/><g clip-path="url(#b)"><path fill="#FFF" d="M 204.238281 216.617188 C 204.183594 216.691406 204.183594 216.765625 204.246094 216.835938 C 204.277344 216.855469 204.460938 216.683594 204.238281 216.617188 Z M 206.113281 208.484375 C 206.128906 208.59375 206.140625 208.6875 206.269531 208.640625 C 206.257812 208.546875 206.25 208.453125 206.113281 208.484375 Z M 219.011719 188.136719 C 218.855469 188.144531 218.757812 188.003906 218.683594 187.796875 C 218.621094 187.589844 218.578125 187.3125 218.53125 187.03125 C 218.460938 186.464844 218.359375 185.871094 218.398438 185.699219 C 218.441406 185.519531 218.679688 185.464844 218.699219 185.375 C 218.753906 185.117188 218.660156 185.238281 218.632812 185.082031 C 218.621094 184.984375 218.503906 184.84375 218.429688 184.699219 C 218.339844 184.558594 218.285156 184.417969 218.402344 184.285156 C 218.171875 184.121094 217.710938 183.6875 217.984375 183.207031 C 217.605469 183.125 217.992188 183.464844 217.78125 183.503906 C 217.550781 183.40625 217.613281 183.117188 217.582031 183.050781 C 217.59375 183.054688 217.488281 182.753906 217.40625 182.652344 C 217.441406 182.703125 217.203125 182.824219 217.164062 182.804688 C 217.03125 182.746094 217.222656 182.527344 217.058594 182.449219 C 216.785156 182.4375 216.984375 182.746094 216.558594 182.585938 C 216.390625 182.535156 216.363281 182.347656 216.242188 182.25 C 215.789062 181.898438 216.304688 182.160156 216.085938 181.882812 C 215.769531 181.992188 215.660156 182.035156 215.515625 181.988281 C 215.449219 181.960938 215.378906 181.945312 215.28125 181.914062 C 215.183594 181.882812 215.066406 181.847656 214.910156 181.863281 C 215.277344 182.503906 214.960938 182.144531 214.78125 182.277344 C 214.378906 182.574219 214.0625 183.09375 213.304688 183.238281 C 213.464844 183.515625 213.625 183.234375 213.824219 183.335938 C 213.75 183.480469 213.632812 183.582031 213.464844 183.644531 C 213.347656 183.835938 213.390625 183.960938 213.59375 184.015625 C 213.378906 184.304688 213.246094 184.28125 213.066406 184.558594 C 212.921875 184.78125 213.007812 184.914062 212.921875 185.15625 C 212.761719 185.660156 212.53125 185.390625 212.816406 185.835938 C 212.640625 186.164062 212.242188 185.800781 212.136719 186 C 212.066406 186.125 212.25 186.601562 212.203125 186.84375 C 212.128906 187.203125 211.949219 187.75 211.84375 188.105469 C 211.621094 188.828125 211.859375 188.160156 211.488281 188.5625 C 211.484375 188.792969 211.667969 188.851562 211.609375 189.09375 C 211.558594 189.308594 211.273438 189.429688 211.339844 189.695312 C 211.269531 189.648438 211.203125 189.644531 211.128906 189.6875 C 211.179688 190.191406 211.3125 189.96875 211.191406 190.453125 C 211.160156 190.582031 210.988281 190.921875 210.957031 190.988281 C 210.925781 191.066406 211.066406 191.140625 210.996094 191.285156 C 210.914062 191.457031 210.671875 191.4375 210.574219 191.601562 C 210.523438 191.6875 210.492188 192.070312 210.46875 192.1875 C 210.425781 192.386719 210.496094 192.597656 210.460938 192.769531 C 210.441406 192.855469 210.230469 192.902344 210.191406 192.976562 C 210.171875 193.121094 210.382812 193.484375 210.253906 193.742188 C 210.175781 193.816406 210.089844 193.847656 209.988281 193.828125 C 209.855469 194.042969 209.777344 194.28125 209.765625 194.535156 C 209.761719 194.5625 209.765625 194.589844 209.765625 194.621094 C 209.890625 194.582031 210 194.523438 210.105469 194.507812 C 210.183594 194.496094 210.289062 194.6875 210.371094 194.703125 C 210.507812 194.660156 210.742188 194.351562 210.996094 194.351562 C 211.089844 194.386719 211.148438 194.453125 211.175781 194.554688 C 211.417969 194.585938 211.652344 194.523438 211.863281 194.410156 C 212.046875 194.300781 212.199219 194.148438 212.3125 193.980469 C 212.445312 193.933594 212.574219 193.929688 212.691406 194.011719 C 212.882812 193.953125 213.085938 193.953125 213.285156 193.882812 C 213.460938 193.835938 214.011719 193.652344 214.113281 193.5625 C 214.066406 193.386719 214.097656 193.226562 214.207031 193.082031 C 214.367188 192.992188 214.523438 192.902344 214.703125 192.855469 C 215.0625 192.652344 215.589844 192.199219 215.941406 192.023438 C 216.289062 191.820312 216.121094 191.933594 216.484375 191.878906 C 216.523438 191.546875 217.28125 191.078125 216.957031 190.796875 C 217.242188 190.609375 217.085938 190.816406 217.367188 190.527344 C 217.496094 190.398438 217.546875 190.292969 217.640625 190.140625 C 217.699219 190.054688 217.753906 189.886719 217.792969 189.742188 C 217.828125 189.597656 217.832031 189.46875 217.832031 189.46875 C 217.832031 189.46875 217.878906 189.410156 217.949219 189.3125 C 218.023438 189.21875 218.125 189.085938 218.226562 188.9375 C 218.460938 188.648438 218.710938 188.292969 219.011719 188.136719 Z M 215.488281 181.457031 C 215.480469 181.824219 215.839844 181.554688 215.988281 181.515625 C 215.910156 181.503906 215.835938 181.496094 215.757812 181.503906 C 215.683594 181.429688 215.585938 181.414062 215.488281 181.457031 Z M 218.84375 186.640625 C 218.726562 186.78125 218.679688 186.9375 218.675781 187.097656 C 218.675781 187.257812 218.742188 187.425781 218.804688 187.578125 C 218.796875 187.546875 218.828125 187.414062 218.835938 187.289062 C 218.855469 187.164062 218.875 187.042969 218.875 187.042969 C 218.761719 186.910156 219.035156 186.757812 218.84375 186.640625 Z M 206.769531 205.488281 C 206.855469 205.65625 206.546875 205.738281 206.691406 205.910156 C 207.015625 205.6875 207.042969 205.285156 206.945312 204.933594 C 206.957031 205.003906 206.769531 205.488281 206.769531 205.488281 Z M 204.585938 211.992188 L 204.554688 212.210938 C 204.46875 212.269531 204.441406 212.355469 204.464844 212.457031 C 204.808594 212.550781 204.648438 212.125 204.585938 211.992188 Z M 200.105469 187.097656 L 200.234375 187.28125 C 200.210938 187.382812 200.246094 187.464844 200.332031 187.523438 C 200.648438 187.355469 200.246094 187.15625 200.105469 187.097656 Z M 198.65625 179.84375 C 198.425781 179.164062 198.683594 179.191406 198.988281 178.578125 C 198.246094 178.628906 198.707031 178.460938 198.722656 178.195312 C 198.753906 177.574219 198.796875 176.792969 199.441406 176.359375 C 199.179688 176.15625 199.15625 176.496094 198.929688 176.492188 C 198.929688 176.308594 199.003906 176.15625 199.144531 176.039062 C 199.1875 175.8125 199.101562 175.710938 198.890625 175.730469 C 198.992188 175.371094 199.117188 175.351562 199.199219 175.03125 C 199.265625 174.773438 199.136719 174.675781 199.132812 174.421875 C 199.109375 173.898438 199.425781 174.070312 199 173.753906 C 199.042969 173.390625 199.550781 173.585938 199.578125 173.363281 C 199.59375 173.21875 199.242188 172.847656 199.195312 172.613281 C 199.144531 172.261719 199.058594 171.703125 199.003906 171.351562 C 198.878906 170.632812 198.96875 171.316406 199.113281 170.796875 C 199.003906 170.601562 198.816406 170.640625 198.746094 170.421875 C 198.683594 170.226562 198.855469 169.976562 198.652344 169.808594 C 198.734375 169.808594 198.796875 169.773438 198.832031 169.699219 C 198.496094 169.355469 198.527344 169.589844 198.320312 169.207031 C 198.273438 169.109375 198.167969 168.820312 198.132812 168.777344 C 198.101562 168.71875 197.964844 168.800781 197.917969 168.71875 C 197.859375 168.621094 197.988281 168.410156 197.894531 168.308594 C 197.84375 168.242188 197.601562 168.257812 197.539062 168.292969 C 197.40625 168.3125 197.34375 168.484375 197.289062 168.53125 C 197.265625 168.5625 197.09375 168.425781 197.039062 168.46875 C 196.964844 168.5625 197.09375 168.894531 196.964844 169.042969 C 196.886719 169.089844 196.800781 169.097656 196.703125 169.066406 C 196.550781 169.230469 196.480469 169.457031 196.484375 169.691406 C 196.492188 169.902344 196.542969 170.101562 196.644531 170.285156 C 196.628906 170.425781 196.558594 170.527344 196.4375 170.59375 C 196.394531 170.785156 196.304688 170.960938 196.28125 171.167969 C 196.253906 171.34375 196.164062 171.917969 196.203125 172.050781 C 196.382812 172.085938 196.507812 172.183594 196.59375 172.34375 C 196.621094 172.53125 196.609375 172.714844 196.574219 172.902344 C 196.597656 173.316406 196.734375 174.027344 196.714844 174.429688 C 196.699219 174.851562 196.695312 174.640625 196.542969 174.988281 C 196.828125 175.207031 196.730469 176.140625 197.164062 176.0625 C 197.121094 176.425781 197.0625 176.152344 197.109375 176.582031 C 197.125 176.773438 197.171875 176.890625 197.207031 177.082031 C 197.25 177.304688 197.542969 177.765625 197.542969 177.765625 C 197.542969 177.765625 197.578125 178.09375 197.578125 178.492188 C 197.574219 178.890625 197.535156 179.355469 197.351562 179.636719 C 197.574219 179.503906 197.859375 179.824219 198.117188 180.269531 C 198.175781 180.199219 198.242188 180.140625 198.289062 180.0625 C 198.636719 179.492188 198.367188 180.113281 198.65625 179.84375 Z M 198.121094 180.855469 C 198.042969 180.839844 197.96875 180.828125 197.996094 180.519531 C 198 180.472656 198.015625 180.433594 198.035156 180.394531 C 197.96875 180.273438 197.886719 180.164062 197.785156 180.070312 C 197.828125 180.125 197.925781 180.628906 197.925781 180.628906 C 198.085938 180.722656 197.875 180.957031 198.089844 181.023438 C 198.113281 180.964844 198.113281 180.910156 198.121094 180.855469 Z M 199.148438 179.277344 C 198.800781 179.191406 198.96875 179.609375 199.027344 179.746094 L 199.058594 179.527344 C 199.144531 179.46875 199.171875 179.382812 199.148438 179.277344 Z M 196.023438 185.332031 C 195.648438 185.421875 195.492188 185.765625 195.441406 186.113281 C 195.453125 186.082031 195.546875 185.976562 195.632812 185.882812 C 195.722656 185.785156 195.808594 185.691406 195.808594 185.6875 C 195.789062 185.507812 196.105469 185.542969 196.023438 185.332031 Z M 179.425781 181.105469 C 179.484375 181.164062 179.554688 181.175781 179.628906 181.144531 C 179.648438 180.640625 179.488281 180.84375 179.671875 180.382812 C 179.71875 180.265625 179.917969 179.949219 179.957031 179.886719 C 180 179.8125 179.863281 179.722656 179.949219 179.589844 C 180.050781 179.429688 180.289062 179.476562 180.402344 179.324219 C 180.457031 179.246094 180.523438 178.867188 180.558594 178.757812 C 180.621094 178.5625 180.5625 178.347656 180.605469 178.179688 C 180.628906 178.101562 180.84375 178.070312 180.890625 177.996094 C 180.921875 177.855469 180.730469 177.488281 180.863281 177.242188 C 180.945312 177.167969 181.035156 177.144531 181.132812 177.167969 C 181.277344 176.960938 181.359375 176.730469 181.375 176.476562 C 181.386719 176.253906 181.363281 176.039062 181.292969 175.832031 C 181.328125 175.6875 181.414062 175.59375 181.546875 175.542969 C 181.625 175.355469 181.746094 175.191406 181.808594 174.992188 C 181.867188 174.820312 182.082031 174.277344 182.070312 174.136719 C 181.902344 174.066406 181.796875 173.941406 181.75 173.765625 C 181.765625 173.578125 181.808594 173.402344 181.886719 173.230469 C 181.953125 172.820312 181.957031 172.121094 182.023438 171.75 C 182.09375 171.359375 182.078125 171.554688 182.261719 171.242188 C 182.015625 171.011719 182.105469 170.160156 181.667969 170.316406 C 181.679688 170.164062 181.703125 170.148438 181.714844 170.132812 C 181.726562 170.113281 181.730469 170.089844 181.699219 169.976562 C 181.679688 169.894531 181.660156 169.910156 181.628906 169.878906 C 181.605469 169.863281 181.554688 169.90625 181.542969 169.957031 C 181.535156 170 181.546875 170.027344 181.550781 170.039062 C 181.550781 170.039062 181.550781 170.042969 181.550781 170.042969 C 181.550781 170.042969 181.554688 170.046875 181.554688 170.046875 C 181.550781 170.050781 181.550781 170.046875 181.550781 170.042969 L 181.550781 170.039062 C 181.546875 170.035156 181.535156 170.03125 181.503906 170.046875 C 181.433594 170.074219 181.304688 170.136719 181.164062 170.230469 C 180.867188 170.402344 180.5 170.667969 180.171875 170.726562 C 180.476562 170.816406 180.367188 171.371094 180.210938 171.953125 C 180.046875 172.539062 179.832031 173.164062 179.703125 173.300781 C 179.5625 173.453125 179.332031 173.371094 179.269531 173.441406 C 179.085938 173.640625 179.234375 173.589844 179.160156 173.738281 C 179.070312 173.917969 179.210938 174.484375 178.867188 174.546875 C 178.957031 174.820312 178.972656 175.519531 178.4375 175.660156 C 178.632812 176 178.625 175.464844 178.789062 175.59375 C 178.890625 175.847656 178.605469 176.007812 178.578125 176.074219 C 178.582031 176.0625 178.410156 176.347656 178.371094 176.476562 C 178.390625 176.417969 178.625 176.539062 178.636719 176.585938 C 178.667969 176.746094 178.375 176.707031 178.390625 176.898438 C 178.515625 177.160156 178.695312 176.78125 178.753906 177.304688 C 178.78125 177.515625 178.621094 177.636719 178.558594 177.808594 C 178.339844 178.433594 178.476562 177.773438 178.246094 178.097656 C 178.617188 178.707031 178.355469 178.734375 178.207031 179.398438 C 178.921875 179.175781 178.5 179.445312 178.554688 179.707031 C 178.675781 180.3125 178.847656 181.042969 178.367188 181.644531 C 178.675781 181.757812 178.59375 181.429688 178.8125 181.367188 C 178.863281 181.542969 178.84375 181.699219 178.746094 181.855469 C 178.777344 182.078125 178.894531 182.144531 179.085938 182.058594 C 179.089844 182.125 179.085938 182.171875 179.082031 182.222656 C 179.09375 182.214844 179.101562 182.210938 179.113281 182.199219 C 179.152344 181.976562 178.976562 181.886719 179.070312 181.660156 C 179.152344 181.457031 179.453125 181.378906 179.425781 181.105469 Z M 179.757812 172.207031 C 180.109375 172.042969 180.191406 171.675781 180.171875 171.324219 C 180.167969 171.359375 180.097656 171.476562 180.03125 171.589844 C 179.964844 171.703125 179.902344 171.808594 179.898438 171.8125 C 179.953125 171.984375 179.644531 172.019531 179.757812 172.207031 Z M 174.78125 189.585938 C 174.511719 189.347656 174.464844 189.796875 174.460938 189.945312 L 174.585938 189.761719 C 174.691406 189.746094 174.753906 189.6875 174.78125 189.585938 Z M 169.390625 193.8125 C 169.007812 193.753906 168.746094 194 168.5625 194.292969 C 168.609375 194.25 169.058594 194.058594 169.058594 194.058594 C 169.109375 193.882812 169.382812 194.03125 169.390625 193.8125 Z M 174.957031 224.957031 L 174.878906 224.75 C 174.929688 224.65625 174.917969 224.570312 174.847656 224.488281 C 174.5 224.566406 174.839844 224.867188 174.957031 224.957031 Z M 168.21875 199.753906 C 168.175781 199.695312 168.109375 199.183594 168.109375 199.183594 C 167.953125 199.078125 168.183594 198.855469 167.976562 198.773438 C 167.796875 199.125 167.964844 199.496094 168.21875 199.753906 Z M 167.074219 194.28125 C 167.078125 194.34375 166.816406 194.320312 166.785156 194.277344 C 166.695312 194.136719 166.984375 194.0625 166.894531 193.890625 C 166.683594 193.683594 166.652344 194.113281 166.414062 193.625 C 166.316406 193.429688 166.421875 193.261719 166.425781 193.070312 C 166.4375 192.390625 166.519531 193.078125 166.632812 192.695312 C 166.101562 192.207031 166.335938 192.097656 166.332031 191.414062 C 165.6875 191.792969 166.027344 191.429688 165.917969 191.179688 C 165.671875 190.597656 165.390625 189.832031 165.832031 189.191406 C 165.511719 189.09375 165.613281 189.425781 165.40625 189.503906 C 165.335938 189.328125 165.347656 189.160156 165.4375 188.996094 C 165.394531 188.765625 165.277344 188.699219 165.085938 188.792969 C 165.050781 188.410156 165.167969 188.347656 165.136719 188.015625 C 165.109375 187.746094 164.960938 187.691406 164.875 187.445312 C 164.691406 186.941406 165.046875 187.023438 164.546875 186.832031 C 164.488281 186.460938 165.027344 186.515625 164.996094 186.292969 C 164.976562 186.152344 164.535156 185.875 164.433594 185.652344 C 164.347656 185.4375 164.210938 185.097656 164.121094 184.882812 C 164.097656 184.832031 164.085938 184.804688 164.078125 184.792969 C 164.070312 184.765625 164.074219 184.765625 164.09375 184.726562 C 164.109375 184.683594 164.140625 184.617188 164.144531 184.363281 C 164.074219 184.359375 164 184.761719 163.972656 184.753906 C 163.957031 184.753906 163.953125 184.601562 163.917969 184.488281 C 163.882812 184.371094 163.820312 184.351562 163.824219 184.554688 C 163.800781 184.359375 163.773438 184.195312 163.734375 184.09375 C 163.707031 184.4375 163.753906 184.574219 163.769531 184.679688 C 163.789062 184.777344 163.792969 184.835938 163.789062 184.914062 C 163.789062 184.945312 163.71875 184.964844 163.707031 184.992188 C 163.695312 185.011719 163.835938 185.136719 163.808594 185.140625 C 163.773438 185.15625 163.546875 185.0625 163.480469 185.226562 C 163.445312 185.3125 163.484375 185.6875 163.488281 185.800781 C 163.488281 186.003906 163.605469 186.191406 163.609375 186.359375 C 163.613281 186.445312 163.417969 186.535156 163.398438 186.621094 C 163.414062 186.761719 163.707031 187.046875 163.65625 187.320312 C 163.609375 187.414062 163.53125 187.464844 163.429688 187.472656 C 163.359375 187.714844 163.359375 187.957031 163.425781 188.203125 C 163.488281 188.414062 163.585938 188.605469 163.722656 188.773438 C 163.738281 188.921875 163.6875 189.039062 163.582031 189.132812 C 163.574219 189.332031 163.519531 189.523438 163.53125 189.734375 C 163.539062 189.914062 163.53125 190.496094 163.589844 190.617188 C 163.773438 190.625 163.917969 190.703125 164.027344 190.84375 C 164.082031 191.023438 164.109375 191.199219 164.101562 191.382812 C 164.199219 191.78125 164.46875 192.410156 164.5625 192.769531 C 164.660156 193.144531 164.59375 192.960938 164.5625 193.316406 C 164.730469 193.363281 164.871094 193.585938 165.027344 193.753906 C 165.1875 193.921875 165.355469 194.019531 165.507812 193.863281 C 165.636719 194.113281 165.460938 193.992188 165.703125 194.226562 C 165.820312 194.324219 165.914062 194.351562 166.042969 194.417969 C 166.207031 194.503906 166.613281 194.394531 166.605469 194.386719 C 166.605469 194.386719 166.792969 194.441406 167.066406 194.5 C 167.074219 194.417969 167.078125 194.332031 167.074219 194.28125 Z M 166.914062 192.425781 L 166.832031 192.222656 C 166.875 192.128906 166.863281 192.042969 166.792969 191.964844 C 166.445312 192.046875 166.792969 192.34375 166.914062 192.425781 Z M 177.902344 178.269531 L 177.925781 178.492188 C 177.851562 178.570312 177.839844 178.65625 177.890625 178.753906 C 178.246094 178.761719 177.992188 178.390625 177.902344 178.269531 Z M 220.089844 187.535156 C 219.996094 188.246094 219.527344 189.058594 219.488281 189.695312 C 219.414062 189.761719 219.339844 189.765625 219.273438 189.707031 C 219.339844 189.859375 219.320312 190.210938 219.320312 190.210938 C 219.320312 190.210938 219.183594 190.484375 218.894531 190.882812 C 218.625 191.292969 218.183594 191.804688 217.65625 192.308594 C 216.605469 193.339844 215.113281 194.175781 214.152344 194.667969 C 213.496094 194.992188 212.851562 195.3125 212.105469 195.535156 C 211.367188 195.757812 210.589844 195.871094 209.808594 195.847656 C 209.675781 195.847656 209.546875 195.835938 209.417969 195.824219 C 209.378906 195.894531 209.339844 195.960938 209.3125 196.039062 C 209.25 196.214844 209 196.753906 208.996094 196.894531 C 209.15625 196.980469 209.25 197.117188 209.28125 197.300781 C 209.246094 197.492188 209.175781 197.671875 209.078125 197.839844 C 208.964844 198.253906 208.816406 198.980469 208.640625 199.355469 C 208.457031 199.742188 208.539062 199.542969 208.257812 199.808594 C 208.433594 200.128906 207.9375 200.945312 208.359375 201.0625 C 208.160156 201.378906 208.234375 201.101562 208.074219 201.511719 C 208.003906 201.699219 207.992188 201.824219 207.9375 202.011719 C 207.871094 202.230469 207.902344 202.785156 207.902344 202.785156 C 207.902344 202.785156 207.402344 204.039062 206.800781 204.335938 C 207.4375 204.328125 206.980469 206.738281 206.742188 207.046875 C 206.613281 207.214844 206.378906 207.144531 206.316406 207.222656 C 206.144531 207.4375 206.292969 207.375 206.222656 207.53125 C 206.144531 207.71875 206.285156 208.300781 205.941406 208.359375 C 206.03125 208.636719 206.019531 209.367188 205.46875 209.472656 C 205.640625 209.828125 205.667969 209.289062 205.824219 209.425781 C 205.910156 209.695312 205.609375 209.835938 205.578125 209.902344 C 205.582031 209.890625 205.382812 210.164062 205.328125 210.289062 C 205.355469 210.230469 205.574219 210.375 205.578125 210.429688 C 205.59375 210.59375 205.304688 210.523438 205.296875 210.714844 C 205.382812 210.996094 205.621094 210.632812 205.597656 211.175781 C 205.585938 211.394531 205.410156 211.496094 205.316406 211.660156 C 204.980469 212.25 205.238281 211.609375 204.953125 211.890625 C 205.1875 212.574219 204.929688 212.554688 204.605469 213.160156 C 205.351562 213.132812 204.878906 213.289062 204.851562 213.5625 C 204.792969 214.191406 204.667969 215 203.96875 215.347656 C 204.203125 215.585938 204.269531 215.25 204.492188 215.277344 C 204.46875 215.464844 204.375 215.609375 204.21875 215.710938 C 204.144531 215.933594 204.214844 216.050781 204.425781 216.058594 C 204.273438 216.410156 204.140625 216.410156 204.003906 216.714844 C 203.894531 216.964844 204 217.082031 203.953125 217.339844 C 203.859375 217.871094 203.59375 217.625 203.933594 218.039062 C 203.796875 218.390625 203.355469 218.078125 203.277344 218.285156 C 203.226562 218.417969 203.464844 218.878906 203.4375 219.125 C 203.398438 219.488281 203.273438 220.058594 203.195312 220.417969 C 203.035156 221.164062 203.21875 220.476562 202.878906 220.910156 C 202.894531 221.136719 203.082031 221.183594 203.042969 221.425781 C 203.007812 221.648438 202.738281 221.792969 202.816406 222.054688 C 202.746094 222.011719 202.675781 222.015625 202.609375 222.0625 C 202.691406 222.5625 202.808594 222.328125 202.722656 222.824219 C 202.699219 222.953125 202.550781 223.300781 202.527344 223.375 C 202.496094 223.453125 202.648438 223.519531 202.585938 223.667969 C 202.511719 223.847656 202.269531 223.84375 202.179688 224.011719 C 202.136719 224.097656 202.125 224.484375 202.109375 224.601562 C 202.078125 224.808594 202.160156 225.011719 202.136719 225.1875 C 202.121094 225.273438 201.910156 225.332031 201.875 225.410156 C 201.863281 225.554688 202.09375 225.902344 201.980469 226.167969 C 201.90625 226.25 201.820312 226.285156 201.71875 226.269531 C 201.59375 226.496094 201.53125 226.734375 201.53125 226.992188 C 201.535156 227.214844 201.574219 227.433594 201.648438 227.640625 C 201.617188 227.792969 201.535156 227.894531 201.398438 227.949219 C 201.328125 228.140625 201.214844 228.308594 201.148438 228.515625 C 201.09375 228.691406 200.867188 229.242188 200.867188 229.382812 C 201.035156 229.460938 201.136719 229.59375 201.171875 229.777344 C 201.144531 229.972656 201.085938 230.15625 200.992188 230.324219 C 200.957031 230.46875 200.921875 230.652344 200.882812 230.847656 L 199.496094 230.847656 C 199.695312 230.054688 199.882812 229.292969 199.996094 228.707031 C 200.535156 225.953125 201.21875 223.234375 201.882812 220.511719 C 202.222656 219.136719 202.519531 217.765625 202.949219 216.417969 C 203.105469 215.925781 203.191406 215.429688 203.316406 214.929688 C 203.40625 214.558594 203.652344 214.238281 203.707031 214.085938 C 204.011719 213.226562 203.757812 212.148438 204.136719 211.230469 C 204.511719 210.316406 204.585938 209.257812 204.976562 208.210938 C 204.917969 208.226562 204.867188 208.210938 204.820312 208.164062 C 205.402344 207 205.292969 206.027344 205.679688 204.78125 C 205.859375 204.191406 206.300781 203.441406 206.238281 202.851562 C 206.300781 202.78125 206.371094 202.773438 206.445312 202.816406 C 206.355469 202.683594 206.292969 202.363281 206.292969 202.363281 C 206.292969 202.363281 207.65625 198.203125 208.152344 196.179688 C 208.195312 196 208.246094 195.824219 208.289062 195.644531 C 207.28125 195.402344 206.328125 194.960938 205.492188 194.40625 C 204.230469 193.570312 203.140625 192.542969 202.289062 191.355469 C 201.976562 190.921875 201.644531 190.53125 201.335938 190.097656 C 201.113281 189.773438 201.035156 189.371094 200.960938 189.222656 C 200.539062 188.40625 199.59375 187.785156 199.257812 186.820312 C 198.953125 185.941406 198.410156 185.105469 198.074219 184.121094 C 197.539062 185.003906 197.296875 185.855469 196.542969 186.761719 C 196.117188 187.273438 195.34375 187.753906 195.039062 188.296875 C 194.945312 188.328125 194.878906 188.296875 194.84375 188.21875 C 194.839844 188.382812 194.679688 188.691406 194.679688 188.691406 C 194.679688 188.691406 194.441406 188.867188 194.035156 189.125 C 193.621094 189.378906 193.03125 189.695312 192.339844 189.953125 C 190.960938 190.503906 189.199219 190.644531 188.101562 190.578125 C 187.351562 190.566406 186.609375 190.457031 185.890625 190.289062 C 185.171875 190.125 184.460938 189.910156 183.773438 189.613281 C 182.398438 189.03125 181.117188 188.164062 180.105469 187.03125 C 179.558594 186.429688 179.09375 185.765625 178.71875 185.058594 C 178.414062 185.546875 178.097656 186.03125 177.746094 186.492188 C 177.421875 186.90625 177.167969 187.347656 176.855469 187.769531 C 176.632812 188.089844 176.269531 188.292969 176.15625 188.410156 C 175.542969 189.085938 175.28125 190.175781 174.496094 190.835938 C 173.71875 191.472656 173.089844 192.367188 172.15625 193.035156 C 172.214844 193.050781 172.25 193.09375 172.257812 193.160156 C 171.667969 193.480469 171.253906 193.855469 170.820312 194.230469 C 170.40625 194.613281 169.945312 195.019531 169.296875 195.335938 C 169.019531 195.472656 168.671875 195.566406 168.320312 195.648438 C 168.339844 195.746094 168.363281 195.839844 168.378906 195.9375 C 168.421875 195.894531 168.472656 195.886719 168.535156 195.90625 C 168.585938 197.203125 169.148438 198.007812 169.40625 199.28125 C 169.53125 199.886719 169.5 200.757812 169.839844 201.246094 C 169.820312 201.332031 169.765625 201.375 169.679688 201.371094 C 169.824219 201.445312 170.027344 201.699219 170.027344 201.699219 C 170.027344 201.699219 170.839844 205.996094 171.40625 207.996094 C 172.175781 210.691406 172.804688 213.425781 173.453125 216.152344 C 173.777344 217.527344 174.136719 218.882812 174.375 220.277344 C 174.460938 220.785156 174.609375 221.265625 174.730469 221.765625 C 174.820312 222.136719 174.75 222.535156 174.769531 222.699219 C 174.894531 223.597656 175.621094 224.441406 175.707031 225.429688 C 175.792969 226.410156 176.21875 227.386719 176.359375 228.492188 C 176.402344 228.449219 176.453125 228.441406 176.515625 228.460938 C 176.535156 229.386719 176.820312 230.066406 177.070312 230.847656 L 175.398438 230.847656 C 175.34375 230.613281 175.320312 230.425781 175.335938 230.339844 C 175.371094 230.132812 175.613281 230.082031 175.628906 229.984375 C 175.683594 229.714844 175.582031 229.839844 175.570312 229.667969 C 175.550781 229.464844 175.15625 229.019531 175.433594 228.804688 C 175.222656 228.601562 174.898438 227.945312 175.339844 227.601562 C 175.015625 227.363281 175.246094 227.855469 175.039062 227.804688 C 174.84375 227.605469 175.042969 227.339844 175.039062 227.269531 C 175.039062 227.28125 175.089844 226.945312 175.082031 226.8125 C 175.085938 226.875 174.824219 226.84375 174.796875 226.800781 C 174.707031 226.660156 174.996094 226.59375 174.914062 226.417969 C 174.707031 226.207031 174.664062 226.636719 174.433594 226.144531 C 174.339844 225.945312 174.453125 225.777344 174.457031 225.589844 C 174.484375 224.910156 174.550781 225.597656 174.675781 225.214844 C 174.152344 224.71875 174.390625 224.613281 174.398438 223.925781 C 173.746094 224.292969 174.09375 223.9375 173.992188 223.683594 C 173.757812 223.097656 173.5 222.320312 173.957031 221.691406 C 173.640625 221.589844 173.734375 221.917969 173.523438 221.996094 C 173.460938 221.816406 173.476562 221.644531 173.570312 221.488281 C 173.53125 221.253906 173.417969 221.183594 173.226562 221.269531 C 173.199219 220.886719 173.320312 220.828125 173.300781 220.492188 C 173.285156 220.222656 173.136719 220.164062 173.058594 219.914062 C 172.898438 219.398438 173.246094 219.496094 172.757812 219.28125 C 172.714844 218.90625 173.25 218.988281 173.226562 218.765625 C 173.214844 218.621094 172.792969 218.324219 172.703125 218.09375 C 172.570312 217.746094 172.417969 217.1875 172.324219 216.828125 C 172.128906 216.09375 172.28125 216.789062 172.382812 216.25 C 172.265625 216.050781 172.078125 216.097656 172 215.859375 C 171.929688 215.648438 172.105469 215.394531 171.914062 215.199219 C 171.996094 215.207031 172.058594 215.171875 172.101562 215.097656 C 171.796875 214.691406 171.800781 214.949219 171.652344 214.46875 C 171.613281 214.347656 171.585938 213.96875 171.574219 213.890625 C 171.5625 213.804688 171.402344 213.816406 171.386719 213.65625 C 171.375 213.464844 171.589844 213.355469 171.59375 213.167969 C 171.59375 213.070312 171.429688 212.722656 171.390625 212.609375 C 171.324219 212.414062 171.15625 212.265625 171.101562 212.097656 C 171.074219 212.015625 171.230469 211.867188 171.226562 211.785156 C 171.171875 211.648438 170.8125 211.441406 170.789062 211.152344 C 170.820312 211.046875 170.878906 210.976562 170.976562 210.945312 C 170.988281 210.691406 170.933594 210.445312 170.820312 210.21875 C 170.714844 210.019531 170.582031 209.84375 170.417969 209.691406 C 170.378906 209.542969 170.40625 209.414062 170.5 209.304688 C 170.476562 209.101562 170.503906 208.898438 170.46875 208.6875 C 170.433594 208.503906 170.386719 207.910156 170.324219 207.789062 C 170.140625 207.789062 169.988281 207.71875 169.875 207.570312 C 169.8125 207.382812 169.78125 207.195312 169.785156 207 C 169.683594 206.582031 169.457031 205.875 169.429688 205.460938 C 169.402344 205.035156 169.429688 205.246094 169.542969 204.882812 C 169.234375 204.683594 169.273438 203.730469 168.847656 203.832031 C 168.867188 203.457031 168.941406 203.734375 168.878906 203.296875 C 168.851562 203.101562 168.800781 202.984375 168.757812 202.792969 C 168.710938 202.570312 168.414062 202.097656 168.414062 202.097656 C 168.414062 202.097656 168.246094 200.757812 168.632812 200.210938 C 168.078125 200.523438 167.320312 198.1875 167.382812 197.800781 C 167.417969 197.59375 167.65625 197.539062 167.675781 197.445312 C 167.722656 197.175781 167.625 197.300781 167.609375 197.128906 C 167.589844 196.925781 167.183594 196.484375 167.457031 196.269531 C 167.382812 196.195312 167.296875 196.070312 167.230469 195.925781 C 167.171875 195.941406 167.109375 195.957031 167.054688 195.976562 C 166.953125 195.941406 166.917969 195.878906 166.941406 195.792969 C 166.882812 195.859375 166.757812 195.917969 166.648438 195.964844 C 166.539062 196.015625 166.4375 196.035156 166.4375 196.035156 C 166.4375 196.035156 166.351562 196.019531 166.191406 195.996094 C 166.03125 195.957031 165.800781 195.894531 165.535156 195.78125 C 164.992188 195.550781 164.355469 195.046875 163.925781 194.386719 C 163.027344 193.070312 162.734375 191.382812 162.523438 190.328125 C 162.253906 188.894531 162.191406 187.441406 162.285156 185.988281 L 162.332031 185.441406 L 162.378906 185.03125 L 162.414062 184.804688 C 162.507812 184.171875 162.652344 183.523438 162.878906 183.085938 C 162.992188 182.875 163.113281 182.699219 163.253906 182.589844 C 163.394531 182.476562 163.527344 182.390625 163.761719 182.363281 C 164.007812 182.351562 164.15625 182.414062 164.28125 182.523438 C 164.351562 182.574219 164.417969 182.613281 164.484375 182.675781 L 164.683594 182.929688 L 164.738281 183 C 165.007812 183.503906 165.152344 184.089844 165.355469 184.640625 L 165.425781 184.847656 L 165.46875 184.984375 L 165.546875 185.234375 L 165.695312 185.738281 C 165.886719 186.40625 166.0625 187.078125 166.199219 187.761719 C 166.304688 188.269531 166.472656 188.742188 166.605469 189.242188 C 166.703125 189.609375 166.644531 190.011719 166.671875 190.171875 C 166.816406 191.070312 167.566406 191.898438 167.671875 192.882812 C 167.738281 193.492188 167.929688 194.097656 168.105469 194.730469 C 168.140625 194.742188 168.175781 194.753906 168.207031 194.769531 C 168.027344 194.507812 168.441406 194.152344 168.882812 193.765625 C 169.332031 193.394531 169.851562 192.972656 170.042969 192.925781 C 170.242188 192.878906 170.390625 193.074219 170.484375 193.054688 C 170.75 192.992188 170.597656 192.953125 170.742188 192.867188 C 170.914062 192.761719 171.128906 192.214844 171.445312 192.367188 C 171.527344 192.085938 171.925781 191.496094 172.449219 191.703125 C 172.484375 191.308594 172.183594 191.753906 172.121094 191.550781 C 172.195312 191.285156 172.515625 191.320312 172.574219 191.277344 C 172.566406 191.285156 172.875 191.15625 172.988281 191.078125 C 172.933594 191.117188 172.820312 190.878906 172.84375 190.832031 C 172.914062 190.6875 173.125 190.894531 173.226562 190.730469 C 173.285156 190.441406 172.910156 190.636719 173.1875 190.183594 C 173.296875 190 173.503906 190 173.660156 189.898438 C 174.222656 189.539062 173.707031 189.980469 174.085938 189.867188 C 174.1875 189.15625 174.410156 189.296875 174.957031 188.886719 C 174.269531 188.589844 174.761719 188.652344 174.902344 188.421875 C 175.214844 187.882812 175.632812 187.207031 176.40625 187.136719 C 176.277344 186.835938 176.089844 187.121094 175.894531 187.007812 C 175.984375 186.84375 176.121094 186.75 176.304688 186.714844 C 176.457031 186.535156 176.429688 186.402344 176.234375 186.320312 C 176.496094 186.046875 176.621094 186.097656 176.855469 185.859375 C 177.042969 185.664062 176.976562 185.515625 177.101562 185.289062 C 177.355469 184.824219 177.535156 185.136719 177.339844 184.644531 C 177.566406 184.351562 177.894531 184.78125 178.035156 184.605469 C 178.121094 184.492188 178.035156 183.992188 178.121094 183.765625 C 178.128906 183.75 178.140625 183.726562 178.148438 183.707031 C 178.082031 183.503906 178.019531 183.300781 177.972656 183.089844 C 177.84375 182.5625 177.691406 182.058594 177.59375 181.527344 C 177.523438 181.128906 177.640625 180.726562 177.636719 180.558594 C 177.625 179.640625 177.101562 178.613281 177.320312 177.589844 C 177.539062 176.597656 177.507812 175.492188 177.902344 174.402344 C 177.84375 174.421875 177.792969 174.40625 177.746094 174.359375 C 178.339844 173.152344 178.300781 172.148438 178.964844 170.910156 C 179.289062 170.3125 179.9375 169.691406 180.269531 169.070312 C 180.371094 169.027344 180.441406 169.050781 180.476562 169.132812 C 180.476562 169.042969 180.539062 168.90625 180.601562 168.792969 C 180.699219 168.660156 180.8125 168.554688 180.8125 168.554688 C 180.8125 168.554688 180.9375 168.496094 181.160156 168.410156 C 181.386719 168.351562 181.742188 168.285156 182.128906 168.445312 C 182.515625 168.578125 182.878906 169.054688 183.023438 169.4375 C 183.195312 169.835938 183.257812 170.179688 183.316406 170.574219 C 183.492188 172.105469 183.148438 173.738281 182.960938 174.792969 C 182.421875 177.636719 181.300781 180.296875 179.984375 182.824219 C 179.8125 183.152344 179.636719 183.480469 179.457031 183.804688 C 179.5 183.824219 179.570312 183.839844 179.695312 183.867188 C 179.796875 184.203125 179.269531 184.246094 179.339844 184.457031 C 179.382812 184.597656 179.867188 184.765625 180.011719 184.945312 C 180.230469 185.21875 180.558594 185.660156 180.792969 185.914062 C 181.277344 186.445312 180.839844 185.925781 180.992188 186.4375 C 181.183594 186.546875 181.328125 186.402344 181.503906 186.554688 C 181.660156 186.6875 181.660156 186.980469 181.917969 187.023438 C 181.847656 187.066406 181.816406 187.128906 181.828125 187.207031 C 182.308594 187.324219 182.140625 187.144531 182.546875 187.390625 C 182.644531 187.457031 182.90625 187.699219 182.96875 187.738281 C 183.03125 187.789062 183.136719 187.667969 183.25 187.765625 C 183.390625 187.878906 183.320312 188.105469 183.457031 188.230469 C 183.523438 188.300781 183.890625 188.382812 183.996094 188.421875 C 184.179688 188.492188 184.398438 188.433594 184.554688 188.484375 C 184.632812 188.507812 184.65625 188.726562 184.730469 188.765625 C 184.871094 188.789062 185.226562 188.605469 185.46875 188.722656 C 185.539062 188.800781 185.566406 188.886719 185.546875 188.988281 C 185.753906 189.125 185.988281 189.191406 186.238281 189.191406 C 186.460938 189.191406 186.671875 189.144531 186.867188 189.050781 C 187.007812 189.078125 187.109375 189.15625 187.167969 189.285156 C 187.359375 189.335938 187.53125 189.429688 187.734375 189.472656 C 187.910156 189.503906 188.472656 189.640625 188.605469 189.597656 C 188.644531 189.417969 188.746094 189.292969 188.90625 189.214844 C 189.085938 189.199219 189.261719 189.199219 189.4375 189.242188 C 189.839844 189.207031 190.503906 189.058594 190.878906 189.011719 C 191.277344 188.984375 191.078125 189.003906 191.433594 189.101562 C 191.59375 188.804688 192.476562 188.683594 192.28125 188.285156 C 192.621094 188.230469 192.386719 188.355469 192.765625 188.199219 C 192.9375 188.128906 193.015625 188.039062 193.175781 187.945312 C 193.269531 187.894531 193.386719 187.75 193.480469 187.628906 C 193.570312 187.511719 193.636719 187.398438 193.636719 187.398438 C 193.636719 187.398438 193.707031 187.359375 193.8125 187.296875 C 193.921875 187.238281 194.074219 187.15625 194.238281 187.066406 C 194.578125 186.898438 194.992188 186.703125 195.324219 186.707031 C 195.039062 186.5625 195.261719 186.03125 195.53125 185.488281 C 195.808594 184.949219 196.144531 184.382812 196.296875 184.269531 C 196.460938 184.152344 196.671875 184.277344 196.75 184.21875 C 196.96875 184.0625 196.808594 184.082031 196.910156 183.949219 C 197.035156 183.789062 197.003906 183.207031 197.351562 183.214844 C 197.332031 183.078125 197.351562 182.84375 197.4375 182.636719 C 197.164062 181.992188 196.839844 181.402344 196.625 180.605469 C 196.460938 179.996094 196.457031 179.117188 196.117188 178.625 C 196.132812 178.535156 196.1875 178.492188 196.273438 178.492188 C 196.128906 178.417969 195.925781 178.160156 195.925781 178.160156 C 195.925781 178.160156 195.707031 177.066406 195.523438 175.695312 C 195.328125 174.328125 195.214844 172.679688 195.191406 171.59375 C 195.179688 170.859375 195.199219 170.117188 195.382812 169.34375 C 195.46875 168.957031 195.597656 168.5625 195.835938 168.164062 C 196.066406 167.777344 196.46875 167.34375 197.039062 167.1875 C 197.546875 167.015625 198.265625 167.136719 198.667969 167.484375 C 199.089844 167.804688 199.328125 168.191406 199.519531 168.554688 C 199.886719 169.296875 200.054688 170.035156 200.183594 170.765625 C 200.425781 172.242188 200.472656 173.699219 200.289062 175.140625 C 200.226562 175.664062 200.203125 176.175781 200.140625 176.703125 C 200.089844 177.089844 199.875 177.441406 199.828125 177.597656 C 199.597656 178.484375 199.878906 179.585938 199.457031 180.527344 C 199.15625 181.207031 198.972656 181.976562 198.664062 182.734375 C 198.789062 182.945312 199.058594 183.234375 198.859375 183.4375 C 199.097656 183.609375 199.519531 184.1875 199.152344 184.605469 C 199.507812 184.777344 199.195312 184.339844 199.410156 184.351562 C 199.636719 184.507812 199.484375 184.800781 199.507812 184.871094 C 199.503906 184.863281 199.519531 185.195312 199.554688 185.324219 C 199.539062 185.261719 199.804688 185.238281 199.835938 185.273438 C 199.953125 185.394531 199.683594 185.519531 199.804688 185.671875 C 200.050781 185.828125 199.996094 185.40625 200.328125 185.828125 C 200.460938 186 200.394531 186.183594 200.433594 186.367188 C 200.566406 187.023438 200.339844 186.378906 200.308594 186.777344 C 200.941406 187.121094 200.734375 187.277344 200.925781 187.933594 C 201.441406 187.398438 201.207031 187.835938 201.382812 188.042969 C 201.777344 188.527344 202.269531 189.128906 202.085938 189.878906 C 202.414062 189.855469 202.203125 189.589844 202.371094 189.445312 C 202.496094 189.578125 202.546875 189.738281 202.519531 189.917969 C 202.636719 190.117188 202.773438 190.132812 202.914062 189.976562 C 203.089844 190.300781 203 190.410156 203.164062 190.695312 C 203.296875 190.921875 203.445312 190.914062 203.628906 191.089844 C 204.003906 191.453125 203.65625 191.546875 204.179688 191.480469 C 204.398438 191.765625 203.90625 191.976562 204.035156 192.15625 C 204.128906 192.265625 204.632812 192.292969 204.835938 192.417969 C 205.128906 192.617188 205.570312 192.960938 205.867188 193.148438 C 206.476562 193.542969 205.917969 193.148438 206.199219 193.601562 C 206.414062 193.65625 206.511719 193.496094 206.722656 193.585938 C 206.914062 193.671875 206.976562 193.96875 207.242188 193.929688 C 207.1875 193.992188 207.171875 194.0625 207.203125 194.136719 C 207.6875 194.140625 207.492188 193.980469 207.933594 194.128906 C 208.046875 194.15625 208.359375 194.316406 208.425781 194.34375 C 208.488281 194.363281 208.546875 194.265625 208.644531 194.269531 C 209.203125 192.191406 209.847656 190.136719 210.53125 188.085938 C 210.984375 186.734375 211.414062 185.386719 212.082031 184.085938 C 212.199219 183.847656 212.3125 183.609375 212.429688 183.371094 C 212.539062 183.128906 212.648438 182.886719 212.816406 182.636719 C 213.027344 182.253906 213.46875 182.046875 213.59375 181.929688 C 214.003906 181.609375 214.425781 181.21875 215.03125 181.007812 C 215.625 180.789062 216.359375 180.828125 216.875 181.164062 C 217.878906 181.796875 218.800781 182.617188 219.246094 183.789062 C 219.277344 183.734375 219.328125 183.710938 219.394531 183.726562 C 219.585938 184.414062 219.75 184.996094 219.914062 185.589844 C 220.066406 186.179688 220.171875 186.808594 220.089844 187.535156 Z M 217.980469 184.292969 C 218.050781 184.347656 218.109375 184.410156 218.199219 184.304688 C 218.121094 184.230469 218.050781 184.183594 217.980469 184.292969 Z M 213.316406 184.503906 C 213.246094 184.570312 213.238281 184.640625 213.285156 184.71875 C 213.316406 184.742188 213.523438 184.609375 213.316406 184.503906 Z M 199.289062 183.46875 C 199.222656 183.402344 199.160156 183.332031 199.070312 183.4375 C 199.152344 183.515625 199.214844 183.582031 199.289062 183.46875 Z M 203.402344 190.574219 C 203.4375 190.5625 203.414062 190.316406 203.226562 190.453125 C 203.253906 190.542969 203.308594 190.582031 203.402344 190.574219 Z M 198.984375 175.167969 C 199.027344 175.082031 199.015625 175.011719 198.941406 174.957031 C 198.90625 174.941406 198.753906 175.136719 198.984375 175.167969 Z M 197.078125 182.882812 C 197.078125 182.976562 197.066406 183.070312 197.207031 183.0625 C 197.207031 182.953125 197.210938 182.863281 197.078125 182.882812 Z M 179.039062 174.664062 C 179.058594 174.773438 179.070312 174.863281 179.203125 174.816406 C 179.183594 174.726562 179.175781 174.636719 179.039062 174.664062 Z M 171.375 192.167969 C 171.421875 192.066406 171.460938 191.984375 171.332031 191.949219 C 171.292969 192.035156 171.246094 192.117188 171.375 192.167969 Z M 176.597656 185.867188 C 176.679688 185.820312 176.703125 185.75 176.667969 185.664062 C 176.644531 185.636719 176.414062 185.730469 176.597656 185.867188 Z M 167.035156 196.175781 C 167.09375 196.25 167.144531 196.332031 167.25 196.238281 C 167.179688 196.148438 167.128906 196.070312 167.035156 196.175781 Z M 164.863281 188.027344 C 164.828125 188.023438 164.75 188.265625 164.980469 188.214844 C 164.992188 188.121094 164.953125 188.058594 164.863281 188.027344 Z M 175.011719 228.707031 C 175.066406 228.785156 175.117188 228.863281 175.226562 228.773438 C 175.15625 228.683594 175.105469 228.605469 175.011719 228.707031 Z M 173.03125 220.496094 C 172.992188 220.488281 172.910156 220.730469 173.136719 220.6875 C 173.152344 220.59375 173.117188 220.53125 173.03125 220.496094 Z M 179.148438 257.324219 L 196.886719 257.5625 L 196.828125 258.042969 C 196.511719 260.609375 194.308594 262.527344 191.710938 262.496094 L 184.234375 262.394531 C 181.78125 262.359375 179.699219 260.582031 179.292969 258.167969 L 179.148438 257.324219"/></g><path d="M 171.136719 243.914062 C 171.214844 243.878906 171.8125 243.890625 171.820312 243.890625 C 171.976562 243.753906 172.1875 244.015625 172.324219 243.820312 C 171.953125 243.59375 171.492188 243.703125 171.136719 243.914062 Z M 179.910156 243.769531 C 179.996094 243.753906 180.082031 243.738281 180.167969 243.722656 C 180.265625 243.785156 180.367188 243.785156 180.476562 243.726562 C 180.453125 243.371094 180.039062 243.664062 179.910156 243.769531 Z M 169.070312 245.285156 C 168.972656 245.253906 168.933594 245.195312 168.957031 245.109375 C 168.839844 245.238281 168.507812 245.402344 168.507812 245.402344 L 168.375 243.75 C 168.375 243.75 169.964844 243.789062 170.523438 244.253906 C 170.273438 243.65625 173.144531 243.265625 173.578125 243.390625 C 173.8125 243.457031 173.824219 243.699219 173.933594 243.730469 C 174.234375 243.820312 174.109375 243.703125 174.3125 243.714844 C 174.550781 243.726562 175.148438 243.394531 175.34375 243.699219 C 175.621094 243.519531 176.449219 243.292969 176.761719 243.773438 C 177.101562 243.492188 176.484375 243.648438 176.582031 243.453125 C 176.855469 243.285156 177.121094 243.519531 177.207031 243.527344 C 177.191406 243.523438 177.570312 243.621094 177.730469 243.632812 C 177.652344 243.628906 177.738281 243.371094 177.796875 243.347656 C 177.976562 243.28125 178 243.578125 178.21875 243.519531 C 178.503906 243.34375 178.011719 243.242188 178.628906 243.085938 C 178.878906 243.023438 179.054688 243.152344 179.273438 243.1875 C 180.058594 243.308594 179.246094 243.277344 179.664062 243.453125 C 180.347656 243.007812 180.417969 243.257812 181.214844 243.363281 C 180.917969 242.667969 181.261719 243.0625 181.578125 242.996094 C 182.304688 242.847656 183.257812 242.699219 183.902344 243.242188 C 184.082031 242.945312 183.679688 242.988281 183.632812 242.769531 C 183.855469 242.734375 184.050781 242.773438 184.214844 242.886719 C 184.492188 242.886719 184.597656 242.78125 184.535156 242.578125 C 184.984375 242.609375 185.027344 242.738281 185.421875 242.765625 C 185.742188 242.785156 185.839844 242.648438 186.144531 242.609375 C 186.773438 242.523438 186.589844 242.855469 186.9375 242.402344 C 187.378906 242.410156 187.183594 242.929688 187.449219 242.9375 C 187.617188 242.945312 188.046875 242.566406 188.332031 242.515625 C 188.757812 242.433594 189.441406 242.363281 189.875 242.320312 C 190.769531 242.234375 189.929688 242.285156 190.539062 242.460938 C 190.792969 242.375 190.777344 242.183594 191.066406 242.140625 C 191.328125 242.101562 191.585938 242.3125 191.851562 242.152344 C 191.824219 242.230469 191.851562 242.296875 191.929688 242.347656 C 192.464844 242.105469 192.160156 242.074219 192.75 241.996094 C 192.902344 241.976562 193.347656 242.003906 193.4375 242.003906 C 193.539062 242.003906 193.5625 241.84375 193.746094 241.851562 C 193.976562 241.867188 194.054688 242.097656 194.277344 242.125 C 194.390625 242.140625 194.828125 242.027344 194.964844 242.007812 C 195.207031 241.96875 195.410156 241.824219 195.617188 241.792969 C 195.71875 241.777344 195.855469 241.957031 195.957031 241.964844 C 196.121094 241.929688 196.441406 241.605469 196.777344 241.625 C 196.894531 241.667969 196.960938 241.742188 196.980469 241.839844 C 197.273438 241.886719 197.570312 241.871094 197.855469 241.789062 C 198.113281 241.71875 198.34375 241.609375 198.550781 241.472656 C 198.730469 241.453125 198.875 241.5 198.980469 241.605469 C 199.226562 241.613281 199.457031 241.671875 199.707031 241.664062 C 199.929688 241.660156 200.625 241.699219 200.78125 241.65625 C 200.8125 241.472656 200.929688 241.339844 201.125 241.246094 C 201.351562 241.207031 201.582031 241.207031 201.804688 241.242188 C 202.3125 241.203125 203.179688 241.082031 203.664062 241.117188 C 204.164062 241.152344 203.917969 241.144531 204.316406 241.316406 C 204.609375 241.039062 205.707031 241.21875 205.679688 240.78125 C 206.109375 240.859375 205.769531 240.890625 206.289062 240.894531 C 206.523438 240.894531 206.667969 240.863281 206.902344 240.851562 C 207.171875 240.835938 207.777344 240.617188 207.777344 240.617188 L 207.910156 242.269531 C 207.910156 242.269531 202.757812 242.429688 200.320312 242.695312 C 197.035156 243.058594 193.734375 243.28125 190.4375 243.53125 C 188.773438 243.65625 187.128906 243.816406 185.464844 243.855469 C 184.855469 243.867188 184.269531 243.945312 183.664062 243.996094 C 183.214844 244.03125 182.765625 243.902344 182.570312 243.902344 C 181.5 243.898438 180.378906 244.496094 179.214844 244.441406 C 178.058594 244.390625 176.839844 244.675781 175.527344 244.660156 C 175.570312 244.707031 175.570312 244.761719 175.53125 244.816406 C 174.019531 244.664062 172.96875 245.09375 171.4375 245.15625 C 170.710938 245.1875 169.707031 245.027344 169.070312 245.285156 Z M 175.421875 243.5 C 175.539062 243.445312 175.640625 243.40625 175.539062 243.296875 C 175.4375 243.34375 175.335938 243.382812 175.421875 243.5 Z M 185.230469 242.574219 C 185.335938 242.601562 185.417969 242.578125 185.472656 242.496094 C 185.488281 242.460938 185.226562 242.34375 185.230469 242.574219 Z M 185.902344 250.222656 C 186.003906 250.25 186.078125 250.222656 186.132812 250.140625 C 186.144531 250.105469 185.894531 249.992188 185.902344 250.222656 Z M 181.441406 251.449219 C 181.410156 251.09375 181.023438 251.390625 180.90625 251.5 C 180.988281 251.480469 181.070312 251.464844 181.148438 251.449219 C 181.242188 251.507812 181.339844 251.507812 181.441406 251.449219 Z M 173.738281 251.664062 C 173.386719 251.441406 172.949219 251.5625 172.617188 251.777344 C 172.691406 251.742188 173.257812 251.742188 173.265625 251.742188 C 173.410156 251.605469 173.613281 251.859375 173.738281 251.664062 Z M 207.164062 247.921875 L 207.328125 249.574219 C 207.328125 249.574219 202.464844 249.808594 200.167969 250.117188 C 197.070312 250.527344 193.960938 250.800781 190.847656 251.097656 C 189.28125 251.25 187.730469 251.4375 186.15625 251.5 C 185.582031 251.519531 185.027344 251.609375 184.460938 251.667969 C 184.035156 251.710938 183.605469 251.589844 183.425781 251.589844 C 182.414062 251.601562 181.371094 252.214844 180.265625 252.183594 C 179.171875 252.148438 178.027344 252.449219 176.785156 252.453125 C 176.828125 252.5 176.832031 252.554688 176.796875 252.613281 C 175.363281 252.484375 174.378906 252.925781 172.933594 253.011719 C 172.246094 253.054688 171.296875 252.910156 170.703125 253.179688 C 170.609375 253.148438 170.570312 253.089844 170.589844 253.003906 C 170.480469 253.136719 170.171875 253.304688 170.171875 253.304688 L 170.007812 251.65625 C 170.007812 251.65625 171.507812 251.667969 172.046875 252.121094 C 171.796875 251.535156 174.5 251.097656 174.914062 251.214844 C 175.136719 251.277344 175.152344 251.519531 175.257812 251.550781 C 175.546875 251.632812 175.425781 251.519531 175.617188 251.527344 C 175.839844 251.535156 176.398438 251.199219 176.589844 251.5 C 176.847656 251.316406 177.625 251.074219 177.933594 251.550781 C 178.246094 251.261719 177.667969 251.429688 177.753906 251.230469 C 178.007812 251.0625 178.265625 251.292969 178.34375 251.296875 C 178.332031 251.296875 178.691406 251.386719 178.839844 251.394531 C 178.769531 251.390625 178.847656 251.132812 178.898438 251.113281 C 179.066406 251.039062 179.097656 251.335938 179.300781 251.277344 C 179.566406 251.097656 179.097656 251 179.679688 250.835938 C 179.914062 250.765625 180.082031 250.898438 180.292969 250.925781 C 181.035156 251.035156 180.265625 251.015625 180.664062 251.1875 C 181.300781 250.730469 181.375 250.980469 182.128906 251.070312 C 181.832031 250.382812 182.167969 250.769531 182.464844 250.699219 C 183.148438 250.539062 184.042969 250.378906 184.664062 250.910156 C 184.828125 250.609375 184.449219 250.664062 184.402344 250.445312 C 184.609375 250.402344 184.792969 250.4375 184.953125 250.550781 C 185.214844 250.542969 185.3125 250.441406 185.246094 250.238281 C 185.671875 250.261719 185.71875 250.386719 186.089844 250.40625 C 186.390625 250.425781 186.480469 250.289062 186.769531 250.242188 C 187.359375 250.148438 187.195312 250.480469 187.511719 250.023438 C 187.933594 250.027344 187.757812 250.546875 188.007812 250.550781 C 188.167969 250.554688 188.566406 250.175781 188.832031 250.117188 C 189.234375 250.027344 189.878906 249.949219 190.289062 249.898438 C 191.128906 249.800781 190.335938 249.863281 190.917969 250.03125 C 191.152344 249.9375 191.132812 249.746094 191.40625 249.699219 C 191.652344 249.660156 191.902344 249.867188 192.148438 249.699219 C 192.128906 249.78125 192.15625 249.84375 192.230469 249.894531 C 192.730469 249.648438 192.441406 249.617188 192.996094 249.53125 C 193.136719 249.507812 193.5625 249.527344 193.644531 249.527344 C 193.742188 249.527344 193.757812 249.363281 193.933594 249.371094 C 194.152344 249.382812 194.230469 249.609375 194.441406 249.636719 C 194.550781 249.648438 194.960938 249.53125 195.089844 249.507812 C 195.316406 249.464844 195.503906 249.316406 195.699219 249.285156 C 195.792969 249.269531 195.929688 249.445312 196.023438 249.453125 C 196.179688 249.414062 196.472656 249.082031 196.792969 249.097656 C 196.902344 249.140625 196.96875 249.210938 196.988281 249.3125 C 197.269531 249.351562 197.546875 249.332031 197.816406 249.25 C 198.054688 249.167969 198.269531 249.058594 198.464844 248.917969 C 198.632812 248.898438 198.769531 248.941406 198.875 249.046875 C 199.105469 249.046875 199.324219 249.101562 199.5625 249.09375 C 199.769531 249.085938 200.429688 249.113281 200.578125 249.070312 C 200.601562 248.886719 200.707031 248.75 200.890625 248.652344 C 201.105469 248.613281 201.320312 248.609375 201.535156 248.640625 C 202.011719 248.59375 202.828125 248.457031 203.285156 248.488281 C 203.761719 248.515625 203.527344 248.511719 203.90625 248.675781 C 204.175781 248.394531 205.21875 248.558594 205.183594 248.121094 C 205.589844 248.191406 205.269531 248.226562 205.765625 248.222656 C 205.980469 248.222656 206.121094 248.1875 206.339844 248.171875 C 206.59375 248.15625 207.164062 247.921875 207.164062 247.921875 Z M 176.65625 251.296875 C 176.769531 251.242188 176.859375 251.199219 176.765625 251.09375 C 176.667969 251.140625 176.574219 251.179688 176.65625 251.296875 Z M 174.734375 230.617188 C 174.625 230.65625 174.519531 230.6875 174.597656 230.808594 C 174.722656 230.765625 174.828125 230.730469 174.734375 230.617188 Z M 170.195312 230.949219 C 170.277344 230.921875 170.886719 230.96875 170.894531 230.972656 C 171.066406 230.84375 171.261719 231.117188 171.414062 230.933594 C 171.050781 230.683594 170.570312 230.761719 170.195312 230.949219 Z M 179.164062 231.371094 C 179.253906 231.359375 179.34375 231.351562 179.429688 231.339844 C 179.527344 231.40625 179.628906 231.414062 179.742188 231.363281 C 179.746094 231.007812 179.300781 231.273438 179.164062 231.371094 Z M 167.992188 232.183594 C 167.894531 232.144531 167.859375 232.085938 167.886719 232 C 167.757812 232.121094 167.410156 232.265625 167.410156 232.265625 L 167.382812 230.609375 C 167.382812 230.609375 169.007812 230.746094 169.542969 231.246094 C 169.332031 230.636719 172.289062 230.429688 172.722656 230.582031 C 172.960938 230.664062 172.953125 230.90625 173.0625 230.945312 C 173.363281 231.054688 173.246094 230.929688 173.453125 230.953125 C 173.691406 230.980469 174.328125 230.691406 174.503906 231.003906 C 174.800781 230.847656 175.660156 230.667969 175.949219 231.171875 C 176.316406 230.914062 175.675781 231.027344 175.789062 230.839844 C 176.074219 230.691406 176.332031 230.941406 176.417969 230.953125 C 176.40625 230.953125 176.785156 231.070312 176.945312 231.089844 C 176.871094 231.082031 176.976562 230.832031 177.035156 230.816406 C 177.226562 230.757812 177.226562 231.054688 177.457031 231.011719 C 177.757812 230.855469 177.261719 230.722656 177.902344 230.605469 C 178.160156 230.558594 178.332031 230.699219 178.554688 230.75 C 179.347656 230.917969 178.519531 230.835938 178.933594 231.039062 C 179.660156 230.640625 179.71875 230.890625 180.523438 231.046875 C 180.269531 230.335938 180.59375 230.75 180.921875 230.707031 C 181.675781 230.605469 182.65625 230.519531 183.277344 231.101562 C 183.480469 230.816406 183.066406 230.835938 183.035156 230.613281 C 183.261719 230.589844 183.457031 230.644531 183.621094 230.765625 C 183.90625 230.78125 184.019531 230.6875 183.964844 230.480469 C 184.421875 230.539062 184.464844 230.667969 184.863281 230.722656 C 185.183594 230.765625 185.292969 230.632812 185.609375 230.613281 C 186.257812 230.570312 186.050781 230.886719 186.433594 230.457031 C 186.886719 230.496094 186.648438 231 186.917969 231.027344 C 187.089844 231.042969 187.554688 230.695312 187.847656 230.660156 C 188.289062 230.609375 188.996094 230.582031 189.441406 230.570312 C 190.359375 230.539062 189.496094 230.535156 190.105469 230.75 C 190.371094 230.683594 190.367188 230.488281 190.667969 230.464844 C 190.9375 230.445312 191.183594 230.667969 191.46875 230.523438 C 191.4375 230.601562 191.460938 230.667969 191.535156 230.726562 C 192.097656 230.519531 191.792969 230.46875 192.398438 230.425781 C 192.550781 230.417969 193.007812 230.472656 193.101562 230.480469 C 193.203125 230.488281 193.234375 230.328125 193.425781 230.351562 C 193.660156 230.378906 193.722656 230.613281 193.945312 230.65625 C 194.0625 230.675781 194.515625 230.59375 194.660156 230.578125 C 194.90625 230.558594 195.128906 230.425781 195.339844 230.410156 C 195.441406 230.402344 195.574219 230.589844 195.675781 230.605469 C 195.847656 230.578125 196.191406 230.273438 196.535156 230.316406 C 196.652344 230.367188 196.714844 230.445312 196.726562 230.546875 C 197.027344 230.609375 197.324219 230.613281 197.625 230.554688 C 197.890625 230.496094 198.136719 230.402344 198.355469 230.277344 C 198.542969 230.273438 198.6875 230.328125 198.789062 230.441406 C 199.035156 230.464844 199.265625 230.535156 199.523438 230.546875 C 199.75 230.554688 200.460938 230.640625 200.625 230.605469 C 200.667969 230.425781 200.796875 230.296875 201 230.21875 C 201.238281 230.199219 201.46875 230.210938 201.695312 230.261719 C 202.214844 230.25 203.109375 230.1875 203.601562 230.253906 C 204.113281 230.324219 203.859375 230.300781 204.253906 230.496094 C 204.570312 230.238281 205.679688 230.488281 205.679688 230.050781 C 206.117188 230.15625 205.769531 230.160156 206.300781 230.199219 C 206.539062 230.21875 206.6875 230.199219 206.925781 230.199219 C 207.203125 230.199219 207.839844 230.019531 207.839844 230.019531 L 207.863281 231.675781 C 207.863281 231.675781 202.589844 231.503906 200.082031 231.613281 C 196.699219 231.765625 193.316406 231.773438 189.933594 231.808594 C 188.226562 231.828125 186.535156 231.882812 184.832031 231.8125 C 184.210938 231.785156 183.605469 231.828125 182.980469 231.839844 C 182.519531 231.84375 182.070312 231.6875 181.875 231.675781 C 180.78125 231.601562 179.597656 232.125 178.410156 231.996094 C 177.230469 231.871094 175.96875 232.074219 174.628906 231.976562 C 174.667969 232.027344 174.667969 232.078125 174.625 232.132812 C 173.089844 231.882812 171.984375 232.242188 170.417969 232.207031 C 169.671875 232.191406 168.660156 231.964844 167.992188 232.183594 Z M 184.933594 230.460938 C 184.949219 230.421875 184.6875 230.289062 184.675781 230.519531 C 184.785156 230.554688 184.867188 230.535156 184.933594 230.460938 Z M 185.058594 236.625 C 185.164062 236.660156 185.242188 236.640625 185.308594 236.566406 C 185.320312 236.53125 185.074219 236.394531 185.058594 236.625 Z M 175.5625 236.578125 C 175.460938 236.613281 175.355469 236.644531 175.433594 236.769531 C 175.550781 236.722656 175.648438 236.691406 175.5625 236.578125 Z M 180.339844 237.394531 C 180.347656 237.039062 179.917969 237.300781 179.785156 237.394531 C 179.871094 237.386719 179.953125 237.375 180.039062 237.367188 C 180.128906 237.4375 180.230469 237.445312 180.339844 237.394531 Z M 172.386719 236.84375 C 172.046875 236.585938 171.585938 236.660156 171.222656 236.84375 C 171.300781 236.816406 171.882812 236.875 171.890625 236.875 C 172.054688 236.75 172.238281 237.027344 172.386719 236.84375 Z M 190.0625 237.992188 C 188.429688 237.984375 186.816406 238.015625 185.191406 237.917969 C 184.597656 237.886719 184.019531 237.917969 183.421875 237.917969 C 182.984375 237.917969 182.554688 237.753906 182.367188 237.738281 C 181.324219 237.648438 180.1875 238.15625 179.054688 238.011719 C 177.929688 237.867188 176.722656 238.054688 175.441406 237.929688 C 175.480469 237.984375 175.480469 238.039062 175.4375 238.089844 C 173.972656 237.820312 172.914062 238.160156 171.417969 238.105469 C 170.707031 238.078125 169.742188 237.835938 169.101562 238.046875 C 169.007812 238.003906 168.976562 237.945312 169.003906 237.859375 C 168.878906 237.980469 168.542969 238.117188 168.542969 238.117188 L 168.542969 236.460938 C 168.542969 236.460938 170.089844 236.625 170.597656 237.128906 C 170.402344 236.519531 173.226562 236.355469 173.644531 236.511719 C 173.867188 236.597656 173.859375 236.839844 173.960938 236.882812 C 174.25 236.996094 174.136719 236.867188 174.335938 236.894531 C 174.5625 236.925781 175.175781 236.644531 175.339844 236.960938 C 175.625 236.804688 176.449219 236.640625 176.714844 237.152344 C 177.066406 236.894531 176.457031 237.003906 176.566406 236.816406 C 176.84375 236.667969 177.085938 236.925781 177.167969 236.9375 C 177.15625 236.933594 177.515625 237.0625 177.671875 237.085938 C 177.597656 237.074219 177.699219 236.824219 177.757812 236.808594 C 177.941406 236.753906 177.9375 237.050781 178.15625 237.011719 C 178.445312 236.859375 177.976562 236.71875 178.589844 236.609375 C 178.835938 236.570312 179 236.710938 179.210938 236.765625 C 179.964844 236.949219 179.175781 236.851562 179.566406 237.0625 C 180.269531 236.667969 180.320312 236.925781 181.089844 237.089844 C 180.855469 236.375 181.160156 236.792969 181.46875 236.753906 C 182.191406 236.664062 183.128906 236.59375 183.714844 237.183594 C 183.914062 236.902344 183.519531 236.917969 183.492188 236.695312 C 183.710938 236.675781 183.894531 236.726562 184.050781 236.855469 C 184.320312 236.875 184.429688 236.78125 184.382812 236.574219 C 184.816406 236.640625 184.855469 236.769531 185.238281 236.828125 C 185.542969 236.875 185.648438 236.746094 185.949219 236.730469 C 186.570312 236.695312 186.367188 237.011719 186.738281 236.585938 C 187.171875 236.632812 186.9375 237.132812 187.195312 237.164062 C 187.359375 237.183594 187.804688 236.84375 188.089844 236.8125 C 188.511719 236.765625 189.183594 236.75 189.609375 236.742188 C 190.488281 236.726562 189.664062 236.707031 190.242188 236.933594 C 190.5 236.867188 190.496094 236.675781 190.78125 236.65625 C 191.039062 236.636719 191.273438 236.867188 191.546875 236.726562 C 191.519531 236.804688 191.539062 236.875 191.609375 236.929688 C 192.148438 236.730469 191.855469 236.675781 192.4375 236.644531 C 192.585938 236.636719 193.019531 236.699219 193.105469 236.707031 C 193.203125 236.714844 193.238281 236.554688 193.417969 236.582031 C 193.640625 236.613281 193.699219 236.847656 193.914062 236.894531 C 194.023438 236.917969 194.457031 236.839844 194.59375 236.828125 C 194.832031 236.8125 195.042969 236.683594 195.246094 236.667969 C 195.34375 236.660156 195.464844 236.851562 195.5625 236.871094 C 195.726562 236.847656 196.0625 236.546875 196.390625 236.59375 C 196.5 236.644531 196.5625 236.722656 196.570312 236.824219 C 196.855469 236.894531 197.140625 236.902344 197.429688 236.84375 C 197.683594 236.792969 197.914062 236.703125 198.128906 236.582031 C 198.308594 236.578125 198.441406 236.636719 198.539062 236.75 C 198.777344 236.777344 198.996094 236.851562 199.242188 236.867188 C 199.457031 236.882812 200.136719 236.972656 200.289062 236.941406 C 200.335938 236.765625 200.460938 236.636719 200.65625 236.558594 C 200.882812 236.542969 201.101562 236.558594 201.320312 236.613281 C 201.816406 236.613281 202.671875 236.558594 203.140625 236.632812 C 203.628906 236.707031 203.382812 236.683594 203.757812 236.882812 C 204.066406 236.632812 205.121094 236.898438 205.128906 236.460938 C 205.542969 236.570312 205.210938 236.574219 205.71875 236.621094 C 205.945312 236.640625 206.089844 236.621094 206.316406 236.625 C 206.582031 236.632812 207.191406 236.460938 207.191406 236.460938 L 207.191406 238.117188 C 207.191406 238.117188 202.15625 237.867188 199.757812 237.945312 C 196.527344 238.042969 193.296875 238.003906 190.0625 237.992188 Z M 186.609375 256.652344 C 186.660156 256.691406 186.699219 256.671875 186.726562 256.597656 C 186.734375 256.5625 186.617188 256.421875 186.609375 256.652344 Z M 184.351562 257.425781 C 184.351562 257.070312 184.148438 257.328125 184.085938 257.425781 C 184.125 257.414062 184.164062 257.40625 184.207031 257.398438 C 184.25 257.464844 184.296875 257.472656 184.351562 257.425781 Z M 180.542969 256.875 C 180.378906 256.617188 180.160156 256.691406 179.984375 256.871094 C 180.023438 256.84375 180.300781 256.902344 180.304688 256.90625 C 180.382812 256.777344 180.472656 257.054688 180.542969 256.875 Z M 196.789062 256.65625 C 196.914062 256.664062 197.207031 256.488281 197.207031 256.488281 L 197.207031 258.148438 C 197.207031 258.148438 194.796875 257.898438 193.648438 257.972656 C 192.101562 258.074219 190.554688 258.035156 189.007812 258.023438 C 188.226562 258.015625 187.449219 258.042969 186.671875 257.949219 C 186.386719 257.914062 186.113281 257.945312 185.828125 257.945312 C 185.617188 257.945312 185.410156 257.78125 185.320312 257.769531 C 184.820312 257.675781 184.277344 258.183594 183.734375 258.039062 C 183.195312 257.894531 182.617188 258.082031 182.003906 257.960938 C 182.023438 258.011719 182.023438 258.066406 182.003906 258.121094 C 181.300781 257.847656 180.792969 258.191406 180.078125 258.132812 C 179.738281 258.105469 179.277344 257.867188 178.96875 258.078125 C 178.925781 258.035156 178.910156 257.972656 178.921875 257.890625 C 178.863281 258.011719 178.703125 258.148438 178.703125 258.148438 L 178.703125 256.488281 C 178.703125 256.488281 179.441406 256.652344 179.683594 257.160156 C 179.589844 256.546875 180.945312 256.382812 181.144531 256.542969 C 181.25 256.625 181.246094 256.871094 181.296875 256.910156 C 181.433594 257.023438 181.378906 256.894531 181.472656 256.921875 C 181.585938 256.957031 181.878906 256.671875 181.957031 256.992188 C 182.09375 256.835938 182.488281 256.671875 182.617188 257.179688 C 182.785156 256.921875 182.488281 257.03125 182.542969 256.84375 C 182.675781 256.699219 182.792969 256.953125 182.832031 256.96875 C 182.824219 256.964844 183 257.089844 183.070312 257.113281 C 183.039062 257.101562 183.085938 256.855469 183.113281 256.839844 C 183.199219 256.785156 183.199219 257.082031 183.304688 257.042969 C 183.445312 256.890625 183.21875 256.75 183.511719 256.640625 C 183.628906 256.597656 183.707031 256.742188 183.808594 256.792969 C 184.167969 256.976562 183.792969 256.878906 183.980469 257.089844 C 184.316406 256.699219 184.339844 256.957031 184.707031 257.121094 C 184.597656 256.40625 184.742188 256.824219 184.890625 256.785156 C 185.238281 256.695312 185.6875 256.621094 185.964844 257.214844 C 186.0625 256.933594 185.871094 256.945312 185.859375 256.722656 C 185.964844 256.703125 186.050781 256.757812 186.125 256.886719 C 186.257812 256.90625 186.308594 256.8125 186.285156 256.601562 C 186.496094 256.667969 186.511719 256.800781 186.695312 256.859375 C 186.84375 256.90625 186.890625 256.777344 187.035156 256.757812 C 187.332031 256.726562 187.238281 257.042969 187.414062 256.617188 C 187.621094 256.664062 187.507812 257.164062 187.632812 257.191406 C 187.710938 257.210938 187.925781 256.871094 188.0625 256.839844 C 188.261719 256.796875 188.585938 256.777344 188.789062 256.773438 C 189.210938 256.753906 188.816406 256.738281 189.09375 256.964844 C 189.214844 256.898438 189.214844 256.703125 189.351562 256.683594 C 189.472656 256.667969 189.585938 256.898438 189.714844 256.757812 C 189.703125 256.835938 189.710938 256.902344 189.746094 256.957031 C 190.003906 256.761719 189.867188 256.703125 190.144531 256.675781 C 190.214844 256.667969 190.421875 256.726562 190.464844 256.734375 C 190.511719 256.746094 190.527344 256.585938 190.613281 256.609375 C 190.71875 256.644531 190.75 256.878906 190.847656 256.925781 C 190.902344 256.949219 191.109375 256.867188 191.175781 256.859375 C 191.289062 256.84375 191.390625 256.714844 191.488281 256.699219 C 191.535156 256.691406 191.59375 256.882812 191.640625 256.898438 C 191.71875 256.875 191.878906 256.578125 192.035156 256.625 C 192.089844 256.675781 192.117188 256.753906 192.121094 256.855469 C 192.257812 256.925781 192.394531 256.929688 192.535156 256.875 C 192.65625 256.820312 192.765625 256.734375 192.871094 256.609375 C 192.953125 256.605469 193.019531 256.664062 193.0625 256.78125 C 193.175781 256.804688 193.285156 256.882812 193.402344 256.894531 C 193.503906 256.910156 193.828125 257.003906 193.902344 256.972656 C 193.925781 256.792969 193.984375 256.667969 194.078125 256.589844 C 194.1875 256.574219 194.292969 256.589844 194.394531 256.640625 C 194.632812 256.640625 195.042969 256.589844 195.269531 256.664062 C 195.503906 256.738281 195.386719 256.710938 195.5625 256.914062 C 195.710938 256.664062 196.21875 256.929688 196.222656 256.488281 C 196.417969 256.601562 196.257812 256.601562 196.503906 256.648438 C 196.609375 256.667969 196.679688 256.648438 196.789062 256.65625 Z M 182 256.796875 C 181.964844 256.671875 182.015625 256.644531 182.0625 256.605469 C 182.105469 256.71875 182.058594 256.753906 182 256.796875"/><g clip-path="url(#c)"><path fill="#D3AED4" d="M 88.617188 135.089844 C 90.664062 137.453125 93.335938 138.535156 96.382812 139.15625 C 103.683594 140.65625 110.9375 142.425781 118.234375 143.949219 C 120.660156 144.433594 123.109375 144.742188 125.558594 144.875 C 127.804688 145.007812 129.339844 143.859375 129.695312 142.179688 C 130.050781 140.4375 129.027344 138.625 126.757812 138.050781 C 123.019531 137.101562 119.191406 136.503906 115.410156 135.710938 C 109.667969 134.515625 103.972656 133.167969 98.230469 132.128906 C 94.894531 131.511719 91.578125 131.976562 88.640625 133.898438 Z M 135.125 79.757812 C 137.59375 81.238281 139.574219 83.203125 140.488281 85.921875 C 142.847656 92.945312 145.09375 100.015625 147.253906 107.125 C 147.675781 108.519531 147.785156 109.996094 147.585938 111.433594 C 147.453125 112.382812 146.628906 113.707031 145.851562 113.929688 C 144.9375 114.171875 143.648438 113.53125 142.691406 113 C 142.136719 112.691406 141.777344 111.875 141.488281 111.210938 C 138.195312 103.304688 134.96875 95.375 133.566406 86.894531 C 133.191406 84.617188 134.035156 82.144531 134.324219 79.757812 Z M 108.691406 99.109375 C 115.121094 103.148438 121.640625 107.015625 126.871094 112.671875 C 128.117188 114.019531 129.742188 115.035156 131.097656 116.292969 C 132.300781 117.417969 133.546875 118.546875 134.480469 119.894531 C 135.324219 121.085938 135.371094 122.566406 134.167969 123.714844 C 133.035156 124.796875 131.652344 124.6875 130.453125 123.957031 C 127.894531 122.410156 125.246094 120.933594 122.953125 119.054688 C 118.390625 115.277344 114.03125 111.277344 109.625 107.347656 C 107.890625 105.800781 106.152344 104.234375 104.484375 102.621094 C 103.195312 101.359375 102.148438 99.925781 102.347656 97.847656 C 104.730469 97.253906 106.796875 97.914062 108.691406 99.109375 Z M 108.691406 99.109375"/></g></svg>